<svg width="14" height="14" viewBox="0 0 14 14" fill="none" xmlns="http://www.w3.org/2000/svg">
<g clip-path="url(#clip0_241_981)">
<path d="M14 0.999999C14 0.447714 13.5523 -8.61581e-07 13 -1.11446e-06L4 -3.13672e-07C3.44772 -6.50847e-07 3 0.447715 3 0.999999C3 1.55228 3.44772 2 4 2L12 2L12 10C12 10.5523 12.4477 11 13 11C13.5523 11 14 10.5523 14 10L14 0.999999ZM1 13L1.70711 13.7071L13.7071 1.70711L13 0.999999L12.2929 0.292893L0.292893 12.2929L1 13Z" fill="black"/>
</g>
<defs>
<clipPath id="clip0_241_981">
<rect width="14" height="14" fill="white"/>
</clipPath>
</defs>
</svg>
