<?xml version="1.0" encoding="UTF-8"?>
<svg xmlns="http://www.w3.org/2000/svg" xmlns:xlink="http://www.w3.org/1999/xlink" width="100px" height="px" viewBox="0 0 100 100" version="1.1">
<g id="surface1">
<path style=" stroke:none;fill-rule:nonzero;fill:rgb(20.392157%,65.882355%,32.549021%);fill-opacity:1;" d="M 68.992188 33.054688 C 69.3125 33.242188 69.636719 33.429688 69.957031 33.617188 C 72.050781 34.839844 74.136719 36.085938 76.210938 37.339844 C 78.453125 38.695312 80.726562 39.996094 83.003906 41.292969 C 90.109375 45.363281 90.109375 45.363281 90.996094 48.484375 C 91.332031 50.476562 91.027344 52.214844 89.925781 53.902344 C 88.613281 55.375 87.117188 56.398438 85.382812 57.308594 C 83.082031 58.550781 80.824219 59.855469 78.574219 61.179688 C 78.230469 61.386719 77.878906 61.589844 77.535156 61.792969 C 76.503906 62.398438 75.472656 63.003906 74.445312 63.613281 C 63.015625 70.339844 63.015625 70.339844 60 70 C 57.753906 69.378906 56.230469 68.03125 55.019531 66.074219 C 54.308594 64.089844 54.425781 61.789062 55.277344 59.878906 C 56.488281 57.457031 59.546875 56.199219 61.789062 54.929688 C 62.429688 54.566406 63.070312 54.199219 63.710938 53.832031 C 64.023438 53.652344 64.335938 53.472656 64.660156 53.292969 C 65.902344 52.582031 67.136719 51.855469 68.367188 51.128906 C 68.664062 50.953125 68.664062 50.953125 68.964844 50.777344 C 69.402344 50.519531 69.839844 50.257812 70.277344 50 C 68.285156 48.605469 66.195312 47.429688 64.0625 46.269531 C 55.921875 41.832031 55.921875 41.832031 54.722656 38.785156 C 54.171875 36.800781 54.457031 34.816406 55.457031 33.023438 C 59.246094 27.777344 64.488281 30.402344 68.992188 33.054688 Z M 68.992188 33.054688 "/>
<path style=" stroke:none;fill-rule:nonzero;fill:rgb(26.666668%,52.549022%,94.901961%);fill-opacity:1;" d="M 41.492188 30.46875 C 43.285156 31.503906 44.617188 33.042969 45.277344 35 C 45.503906 37.351562 45.355469 39.003906 43.972656 40.941406 C 43.246094 41.769531 42.460938 42.304688 41.527344 42.863281 C 41.34375 42.980469 41.160156 43.089844 40.96875 43.207031 C 37.988281 45.015625 34.945312 46.714844 31.910156 48.429688 C 31.648438 48.582031 31.382812 48.730469 31.113281 48.886719 C 30.855469 49.035156 30.59375 49.179688 30.328125 49.332031 C 29.691406 49.671875 29.691406 49.671875 29.445312 50.277344 C 29.691406 50.351562 29.933594 50.425781 30.1875 50.503906 C 31.058594 50.816406 31.773438 51.171875 32.566406 51.640625 C 32.839844 51.800781 33.109375 51.960938 33.386719 52.125 C 33.675781 52.292969 33.957031 52.464844 34.253906 52.636719 C 34.847656 52.992188 35.449219 53.34375 36.042969 53.699219 C 36.335938 53.871094 36.628906 54.042969 36.933594 54.222656 C 37.691406 54.671875 38.453125 55.113281 39.214844 55.546875 C 39.429688 55.671875 39.644531 55.792969 39.863281 55.917969 C 40.253906 56.144531 40.644531 56.367188 41.035156 56.589844 C 42.972656 57.707031 44.554688 59.222656 45.277344 61.386719 C 45.457031 63.523438 45.53125 65.480469 44.167969 67.222656 C 42.625 68.910156 41.042969 69.855469 38.769531 70.105469 C 36.191406 69.832031 34.058594 68.566406 31.839844 67.308594 C 31.511719 67.125 31.183594 66.941406 30.851562 66.753906 C 28.207031 65.265625 25.589844 63.722656 22.984375 62.164062 C 21.027344 60.996094 19.0625 59.855469 17.082031 58.730469 C 9.992188 54.691406 9.992188 54.691406 9.019531 51.695312 C 8.597656 49.800781 8.824219 48.105469 9.722656 46.386719 C 10.769531 44.890625 11.929688 44.015625 13.542969 43.195312 C 13.988281 42.957031 14.433594 42.71875 14.875 42.480469 C 15.117188 42.355469 15.355469 42.222656 15.605469 42.089844 C 17.082031 41.292969 18.53125 40.441406 19.980469 39.601562 C 20.292969 39.421875 20.601562 39.242188 20.921875 39.058594 C 21.816406 38.539062 22.714844 38.019531 23.613281 37.5 C 24.09375 37.222656 24.578125 36.941406 25.058594 36.660156 C 25.496094 36.410156 25.933594 36.15625 26.371094 35.902344 C 26.582031 35.78125 26.785156 35.660156 27.003906 35.539062 C 28.105469 34.898438 29.207031 34.257812 30.308594 33.617188 C 30.542969 33.480469 30.78125 33.339844 31.023438 33.199219 C 31.472656 32.941406 31.917969 32.679688 32.363281 32.417969 C 38.300781 28.960938 38.300781 28.960938 41.492188 30.46875 Z M 41.492188 30.46875 "/>
<path style=" stroke:none;fill-rule:nonzero;fill:rgb(97.647059%,73.725492%,1.960784%);fill-opacity:1;" d="M 70.554688 49.722656 C 70.738281 49.722656 70.921875 49.722656 71.113281 49.722656 C 71.113281 49.90625 71.113281 50.089844 71.113281 50.277344 C 71.292969 50.347656 71.476562 50.414062 71.667969 50.488281 C 73.371094 51.195312 74.980469 52.074219 76.585938 52.976562 C 77.011719 53.214844 77.4375 53.449219 77.867188 53.683594 C 78.882812 54.230469 79.839844 54.792969 80.761719 55.488281 C 82.230469 56.5 83.804688 56.574219 85.554688 56.386719 C 85.746094 56.292969 85.9375 56.191406 86.136719 56.089844 C 86.667969 55.832031 86.667969 55.832031 87.5 56.113281 C 87.230469 56.257812 86.964844 56.402344 86.691406 56.550781 C 83.957031 58.050781 81.261719 59.601562 78.574219 61.179688 C 78.402344 61.28125 78.230469 61.382812 78.054688 61.488281 C 76.851562 62.195312 75.648438 62.902344 74.445312 63.613281 C 63.015625 70.339844 63.015625 70.339844 60 70 C 57.753906 69.378906 56.230469 68.03125 55.019531 66.074219 C 54.308594 64.089844 54.425781 61.789062 55.277344 59.878906 C 56.488281 57.457031 59.546875 56.199219 61.789062 54.929688 C 62.429688 54.566406 63.070312 54.199219 63.714844 53.832031 C 64.027344 53.652344 64.339844 53.472656 64.660156 53.289062 C 65.894531 52.582031 67.125 51.867188 68.351562 51.144531 C 68.542969 51.03125 68.738281 50.917969 68.941406 50.800781 C 69.796875 50.328125 69.796875 50.328125 70.554688 49.722656 Z M 70.554688 49.722656 "/>
<path style=" stroke:none;fill-rule:nonzero;fill:rgb(90.980393%,26.274511%,21.568628%);fill-opacity:1;" d="M 41.492188 30.46875 C 43.285156 31.503906 44.617188 33.042969 45.277344 35 C 45.503906 37.351562 45.355469 39.003906 43.972656 40.941406 C 43.246094 41.769531 42.460938 42.304688 41.527344 42.863281 C 41.34375 42.976562 41.160156 43.089844 40.96875 43.207031 C 38.582031 44.65625 36.152344 46.027344 33.722656 47.402344 C 33.476562 47.542969 33.476562 47.542969 33.222656 47.683594 C 32.761719 47.945312 32.308594 48.203125 31.847656 48.460938 C 31.316406 48.769531 30.792969 49.101562 30.277344 49.445312 C 28.925781 49.699219 27.835938 49.582031 26.683594 48.820312 C 26.503906 48.691406 26.328125 48.566406 26.144531 48.4375 C 25.269531 47.871094 24.332031 47.53125 23.363281 47.167969 C 22.777344 46.945312 22.777344 46.945312 22.222656 46.667969 C 22.222656 46.484375 22.222656 46.300781 22.222656 46.113281 C 22.035156 46.042969 21.84375 45.972656 21.648438 45.902344 C 20.832031 45.554688 20.832031 45.554688 19.914062 45.019531 C 18.144531 43.992188 16.476562 43.515625 14.445312 43.332031 C 14.628906 43.152344 14.808594 42.964844 15 42.777344 C 15.367188 42.777344 15.734375 42.777344 16.113281 42.777344 C 16.128906 42.613281 16.144531 42.449219 16.160156 42.277344 C 16.488281 41.394531 16.996094 41.210938 17.808594 40.753906 C 18.109375 40.585938 18.40625 40.417969 18.714844 40.242188 C 19.039062 40.0625 19.363281 39.886719 19.6875 39.707031 C 20.019531 39.519531 20.351562 39.332031 20.683594 39.144531 C 21.347656 38.769531 22.011719 38.394531 22.679688 38.023438 C 23.917969 37.328125 25.144531 36.617188 26.371094 35.902344 C 26.789062 35.660156 27.207031 35.417969 27.625 35.175781 C 28.519531 34.660156 29.414062 34.136719 30.308594 33.617188 C 30.542969 33.480469 30.78125 33.339844 31.023438 33.199219 C 31.472656 32.941406 31.917969 32.679688 32.363281 32.417969 C 38.300781 28.960938 38.300781 28.960938 41.492188 30.46875 Z M 41.492188 30.46875 "/>
<path style=" stroke:none;fill-rule:nonzero;fill:rgb(94.117647%,80.784315%,32.549021%);fill-opacity:1;" d="M 80.277344 55.554688 C 80.535156 55.644531 80.535156 55.644531 80.796875 55.738281 C 82.382812 56.261719 83.878906 56.640625 85.554688 56.386719 C 85.746094 56.289062 85.933594 56.191406 86.128906 56.089844 C 86.667969 55.832031 86.667969 55.832031 87.5 56.113281 C 87.230469 56.257812 86.964844 56.402344 86.691406 56.550781 C 83.050781 58.546875 79.480469 60.652344 75.902344 62.753906 C 73.667969 64.070312 71.417969 65.371094 69.167969 66.667969 C 69.074219 66.484375 68.984375 66.300781 68.886719 66.113281 C 69.246094 65.878906 69.605469 65.644531 69.964844 65.417969 C 70.164062 65.289062 70.363281 65.160156 70.570312 65.027344 C 71.113281 64.722656 71.113281 64.722656 71.667969 64.722656 C 71.757812 64.355469 71.847656 63.988281 71.945312 63.613281 C 72.253906 63.542969 72.5625 63.472656 72.882812 63.402344 C 73.902344 63.164062 73.902344 63.164062 74.289062 62.464844 C 74.339844 62.292969 74.390625 62.121094 74.445312 61.945312 C 74.902344 61.945312 75.363281 61.945312 75.832031 61.945312 C 75.832031 61.667969 75.832031 61.394531 75.832031 61.113281 C 76.214844 60.984375 76.597656 60.855469 76.980469 60.730469 C 77.320312 60.613281 77.320312 60.613281 77.667969 60.496094 C 78.210938 60.316406 78.757812 60.148438 79.304688 59.980469 C 80.042969 59.796875 80.042969 59.796875 80.277344 59.167969 C 80.550781 59.167969 80.828125 59.167969 81.113281 59.167969 C 81.203125 58.890625 81.292969 58.617188 81.386719 58.332031 C 81.664062 58.242188 81.941406 58.152344 82.222656 58.054688 C 82.316406 57.597656 82.40625 57.136719 82.5 56.667969 C 81.949219 56.667969 81.402344 56.667969 80.832031 56.667969 C 80.652344 56.300781 80.464844 55.933594 80.277344 55.554688 Z M 80.277344 55.554688 "/>
<path style=" stroke:none;fill-rule:nonzero;fill:rgb(95.294118%,84.705883%,45.490196%);fill-opacity:1;" d="M 55 65 C 55.675781 65.175781 55.675781 65.175781 56.386719 65.554688 C 56.613281 66.425781 56.613281 66.425781 56.667969 67.222656 C 56.847656 67.222656 57.035156 67.222656 57.222656 67.222656 C 57.222656 67.40625 57.222656 67.589844 57.222656 67.777344 C 57.773438 67.960938 58.324219 68.144531 58.886719 68.332031 C 58.886719 68.609375 58.886719 68.882812 58.886719 69.167969 C 60.816406 69.304688 60.816406 69.304688 62.777344 69.445312 C 62.777344 69.261719 62.777344 69.078125 62.777344 68.886719 C 63.585938 68.539062 64.109375 68.332031 65 68.332031 C 65 68.152344 65 67.964844 65 67.777344 C 66.332031 67.011719 67.386719 66.796875 68.886719 66.667969 C 67.898438 67.472656 66.816406 68.050781 65.695312 68.644531 C 65.511719 68.746094 65.324219 68.847656 65.136719 68.949219 C 63.25 69.953125 61.457031 70.402344 59.347656 69.820312 C 57.605469 69.121094 56.183594 68.015625 55.222656 66.378906 C 55 65.832031 55 65.832031 55 65 Z M 55 65 "/>
<path style=" stroke:none;fill-rule:nonzero;fill:rgb(36.078432%,67.450982%,42.745098%);fill-opacity:1;" d="M 85.832031 43.332031 C 87.863281 43.75 89.386719 45.246094 90.554688 46.894531 C 91.199219 48.953125 91.285156 50.773438 90.550781 52.8125 C 90.277344 53.332031 90.277344 53.332031 89.445312 54.167969 C 89.351562 53.160156 89.261719 52.152344 89.167969 51.113281 C 89.535156 51.203125 89.902344 51.292969 90.277344 51.386719 C 90.144531 50.984375 90.011719 50.578125 89.878906 50.175781 C 89.804688 49.949219 89.730469 49.722656 89.652344 49.488281 C 89.457031 48.886719 89.457031 48.886719 89.167969 48.332031 C 89.105469 47.90625 89.050781 47.480469 89.011719 47.050781 C 88.976562 46.707031 88.976562 46.707031 88.941406 46.359375 C 88.921875 46.1875 88.90625 46.011719 88.886719 45.832031 C 88.707031 45.832031 88.523438 45.832031 88.332031 45.832031 C 88.332031 45.558594 88.332031 45.285156 88.332031 45 C 87.875 45 87.417969 45 86.945312 45 C 86.851562 44.722656 86.761719 44.449219 86.667969 44.167969 C 86.25 43.703125 86.25 43.703125 85.832031 43.332031 Z M 85.832031 43.332031 "/>
<path style=" stroke:none;fill-rule:nonzero;fill:rgb(48.235294%,75.294119%,54.901963%);fill-opacity:1;" d="M 64.445312 30.832031 C 65.847656 31.238281 66.988281 31.855469 68.230469 32.605469 C 68.429688 32.722656 68.628906 32.84375 68.835938 32.964844 C 69.503906 33.363281 70.167969 33.765625 70.832031 34.167969 C 71.347656 34.472656 71.863281 34.785156 72.378906 35.089844 C 73.714844 35.894531 75.050781 36.695312 76.386719 37.5 C 75.832031 37.777344 75.832031 37.777344 74.964844 37.519531 C 74.699219 37.417969 74.4375 37.324219 74.167969 37.222656 C 74.167969 37.039062 74.167969 36.855469 74.167969 36.667969 C 73.339844 36.667969 72.515625 36.667969 71.667969 36.667969 C 71.113281 35.554688 71.113281 35.554688 71.113281 34.722656 C 70.894531 34.675781 70.675781 34.628906 70.449219 34.578125 C 66.386719 33.640625 66.386719 33.640625 65.433594 32.152344 C 65.382812 31.992188 65.332031 31.832031 65.277344 31.667969 C 65.09375 31.667969 64.910156 31.667969 64.722656 31.667969 C 64.628906 31.390625 64.539062 31.117188 64.445312 30.832031 Z M 64.445312 30.832031 "/>
<path style=" stroke:none;fill-rule:nonzero;fill:rgb(49.803922%,66.274512%,88.235295%);fill-opacity:1;" d="M 40 56.386719 C 42.492188 57.101562 43.753906 58.347656 45 60.554688 C 45.597656 62.355469 45.605469 64.574219 44.773438 66.300781 C 44.167969 67.222656 44.167969 67.222656 43.332031 67.777344 C 43.332031 66.953125 43.332031 66.128906 43.332031 65.277344 C 43.699219 65.183594 44.066406 65.09375 44.445312 65 C 44.441406 64.648438 44.441406 64.648438 44.433594 64.292969 C 44.433594 63.988281 44.429688 63.683594 44.425781 63.367188 C 44.425781 63.066406 44.421875 62.761719 44.417969 62.449219 C 44.445312 61.667969 44.445312 61.667969 44.722656 61.113281 C 44.539062 61.113281 44.355469 61.113281 44.167969 61.113281 C 43.671875 60.378906 43.335938 59.730469 43.054688 58.886719 C 42.78125 58.886719 42.503906 58.886719 42.222656 58.886719 C 42.128906 58.707031 42.039062 58.523438 41.945312 58.332031 C 41.667969 58.152344 41.394531 57.964844 41.113281 57.777344 C 41.203125 57.683594 41.292969 57.59375 41.386719 57.5 C 41.210938 57.472656 41.035156 57.441406 40.851562 57.414062 C 40.660156 57.347656 40.472656 57.285156 40.277344 57.222656 C 40.183594 56.949219 40.09375 56.671875 40 56.386719 Z M 40 56.386719 "/>
<path style=" stroke:none;fill-rule:nonzero;fill:rgb(27.058825%,52.156866%,92.941177%);fill-opacity:1;" d="M 15.832031 41.945312 C 16.015625 42.035156 16.199219 42.128906 16.386719 42.222656 C 16.113281 42.777344 16.113281 42.777344 15.261719 43.089844 C 14.992188 43.167969 14.722656 43.25 14.445312 43.332031 C 14.535156 43.515625 14.628906 43.699219 14.722656 43.886719 C 14.539062 43.886719 14.355469 43.886719 14.167969 43.886719 C 13.746094 44.707031 13.386719 45.53125 13.054688 46.386719 C 12.871094 46.113281 12.691406 45.839844 12.5 45.554688 C 11.464844 45.859375 11.464844 45.859375 10.800781 46.648438 C 10.71875 46.839844 10.636719 47.027344 10.554688 47.222656 C 10.417969 47.328125 10.277344 47.433594 10.136719 47.542969 C 9.496094 48.332031 9.5625 49.214844 9.53125 50.191406 C 9.519531 50.386719 9.511719 50.582031 9.503906 50.78125 C 9.480469 51.261719 9.460938 51.742188 9.445312 52.222656 C 8.675781 50.859375 8.683594 49.535156 9.019531 48.023438 C 9.996094 45.046875 12.246094 43.820312 14.863281 42.394531 C 15.183594 42.246094 15.503906 42.097656 15.832031 41.945312 Z M 15.832031 41.945312 "/>
<path style=" stroke:none;fill-rule:nonzero;fill:rgb(58.431375%,80.784315%,65.098041%);fill-opacity:1;" d="M 64.445312 30.554688 C 63.070312 31.007812 61.628906 30.808594 60.203125 30.761719 C 58.898438 30.851562 58.027344 31.265625 56.996094 32.050781 C 56.566406 32.636719 56.488281 33.171875 56.386719 33.886719 C 56.207031 33.886719 56.023438 33.886719 55.832031 33.886719 C 55.742188 35.90625 55.652344 37.921875 55.554688 40 C 54.414062 38.476562 54.277344 37.042969 54.535156 35.167969 C 55.066406 33.230469 56.34375 31.574219 58.03125 30.492188 C 60.019531 29.621094 62.472656 29.703125 64.445312 30.554688 Z M 64.445312 30.554688 "/>
<path style=" stroke:none;fill-rule:nonzero;fill:rgb(85.490197%,27.843139%,24.705882%);fill-opacity:1;" d="M 41.492188 30.46875 C 42.816406 31.238281 43.910156 32.3125 44.722656 33.613281 C 44.914062 34.375 44.914062 34.375 45 35 C 44.449219 34.910156 43.902344 34.816406 43.332031 34.722656 C 43.242188 33.988281 43.152344 33.253906 43.054688 32.5 C 42.367188 32.363281 42.367188 32.363281 41.667969 32.222656 C 41.667969 31.949219 41.667969 31.671875 41.667969 31.386719 C 41.484375 31.386719 41.300781 31.386719 41.113281 31.386719 C 41.113281 31.207031 41.113281 31.023438 41.113281 30.832031 C 39.128906 30.277344 37.644531 30.417969 35.832031 31.386719 C 35.230469 31.277344 35.230469 31.277344 34.722656 31.113281 C 36.898438 29.910156 39.144531 29.386719 41.492188 30.46875 Z M 41.492188 30.46875 "/>
<path style=" stroke:none;fill-rule:nonzero;fill:rgb(94.117647%,81.568629%,35.294119%);fill-opacity:1;" d="M 71.113281 49.722656 C 71.113281 49.90625 71.113281 50.089844 71.113281 50.277344 C 71.3125 50.355469 71.511719 50.4375 71.71875 50.519531 C 72.441406 50.808594 73.167969 51.097656 73.886719 51.386719 C 72.902344 51.71875 72.582031 51.582031 71.613281 51.269531 C 71.363281 51.1875 71.113281 51.105469 70.855469 51.027344 C 70.664062 50.960938 70.472656 50.898438 70.277344 50.832031 C 70.183594 51.109375 70.09375 51.382812 70 51.667969 C 69.449219 51.863281 68.894531 52.046875 68.332031 52.222656 C 67.960938 52.496094 67.589844 52.777344 67.222656 53.054688 C 65.347656 53.996094 65.347656 53.996094 64.167969 53.613281 C 64.300781 53.535156 64.433594 53.457031 64.574219 53.375 C 65.191406 53.011719 65.808594 52.652344 66.425781 52.292969 C 66.636719 52.167969 66.847656 52.042969 67.0625 51.917969 C 68.007812 51.363281 68.941406 50.808594 69.839844 50.1875 C 70.554688 49.722656 70.554688 49.722656 71.113281 49.722656 Z M 71.113281 49.722656 "/>
<path style=" stroke:none;fill-rule:nonzero;fill:rgb(42.745098%,60.392159%,90.196079%);fill-opacity:1;" d="M 10.832031 54.445312 C 12.289062 54.558594 13.121094 54.789062 14.167969 55.832031 C 14.167969 56.015625 14.167969 56.199219 14.167969 56.386719 C 15.550781 56.597656 15.550781 56.597656 16.945312 56.667969 C 17.128906 57.308594 17.308594 57.949219 17.5 58.613281 C 16.214844 58.144531 15.046875 57.503906 13.855469 56.839844 C 13.65625 56.730469 13.457031 56.625 13.253906 56.515625 C 12.226562 55.945312 11.445312 55.484375 10.832031 54.445312 Z M 10.832031 54.445312 "/>
<path style=" stroke:none;fill-rule:nonzero;fill:rgb(85.09804%,81.960785%,36.078432%);fill-opacity:1;" d="M 80.277344 55.554688 C 80.449219 55.613281 80.621094 55.675781 80.796875 55.738281 C 82.382812 56.261719 83.878906 56.640625 85.554688 56.386719 C 85.746094 56.289062 85.933594 56.191406 86.128906 56.089844 C 86.667969 55.832031 86.667969 55.832031 87.5 56.113281 C 86.796875 56.53125 86.089844 56.949219 85.382812 57.363281 C 85.183594 57.480469 84.988281 57.597656 84.78125 57.722656 C 83.605469 58.402344 82.792969 58.769531 81.386719 58.613281 C 81.664062 58.425781 81.941406 58.246094 82.222656 58.054688 C 82.425781 57.34375 82.425781 57.34375 82.5 56.667969 C 81.949219 56.667969 81.402344 56.667969 80.832031 56.667969 C 80.652344 56.300781 80.464844 55.933594 80.277344 55.554688 Z M 80.277344 55.554688 "/>
<path style=" stroke:none;fill-rule:nonzero;fill:rgb(88.627452%,52.549022%,47.450981%);fill-opacity:1;" d="M 29.445312 34.445312 C 29.445312 34.628906 29.445312 34.808594 29.445312 35 C 29.261719 35 29.078125 35 28.886719 35 C 28.796875 35.277344 28.707031 35.550781 28.613281 35.832031 C 28.242188 35.933594 27.871094 36.023438 27.5 36.113281 C 27.367188 36.253906 27.238281 36.398438 27.101562 36.542969 C 26.667969 36.945312 26.667969 36.945312 25.917969 36.996094 C 25.707031 36.980469 25.496094 36.960938 25.277344 36.945312 C 25.277344 37.128906 25.277344 37.308594 25.277344 37.5 C 24.910156 37.589844 24.542969 37.683594 24.167969 37.777344 C 24.074219 38.144531 23.984375 38.511719 23.886719 38.886719 C 23.523438 38.980469 23.15625 39.074219 22.777344 39.167969 C 22.777344 38.984375 22.777344 38.800781 22.777344 38.613281 C 22.59375 38.519531 22.410156 38.425781 22.222656 38.332031 C 23.230469 37.738281 24.238281 37.140625 25.242188 36.542969 C 25.527344 36.375 25.816406 36.207031 26.113281 36.03125 C 26.386719 35.867188 26.660156 35.707031 26.941406 35.539062 C 27.324219 35.316406 27.324219 35.316406 27.707031 35.085938 C 28.808594 34.445312 28.808594 34.445312 29.445312 34.445312 Z M 29.445312 34.445312 "/>
<path style=" stroke:none;fill-rule:nonzero;fill:rgb(50.196081%,75.294119%,56.862748%);fill-opacity:1;" d="M 56.945312 41.667969 C 58.042969 41.820312 58.988281 42.050781 60 42.5 C 60 42.683594 60 42.867188 60 43.054688 C 60.6875 43.332031 60.6875 43.332031 61.386719 43.613281 C 61.386719 43.792969 61.386719 43.976562 61.386719 44.167969 C 62.03125 44.257812 62.671875 44.347656 63.332031 44.445312 C 63.332031 44.628906 63.332031 44.808594 63.332031 45 C 63.515625 45.089844 63.699219 45.183594 63.886719 45.277344 C 63.886719 45.460938 63.886719 45.644531 63.886719 45.832031 C 62.378906 45.410156 61.128906 44.699219 59.792969 43.90625 C 59.578125 43.785156 59.363281 43.660156 59.144531 43.535156 C 58.941406 43.414062 58.738281 43.292969 58.527344 43.167969 C 58.34375 43.058594 58.160156 42.953125 57.972656 42.839844 C 57.5 42.5 57.5 42.5 56.945312 41.667969 Z M 56.945312 41.667969 "/>
<path style=" stroke:none;fill-rule:nonzero;fill:rgb(58.039218%,72.156864%,91.37255%);fill-opacity:1;" d="M 24.167969 62.5 C 24.808594 62.589844 25.449219 62.683594 26.113281 62.777344 C 26.113281 62.960938 26.113281 63.144531 26.113281 63.332031 C 27.574219 63.925781 27.574219 63.925781 29.097656 64.269531 C 29.722656 64.445312 29.722656 64.445312 30.261719 65.121094 C 30.941406 65.96875 31.460938 66.128906 32.5 66.386719 C 32.042969 66.714844 32.042969 66.714844 31.386719 66.945312 C 30.628906 66.660156 30.628906 66.660156 29.769531 66.167969 C 29.464844 65.992188 29.152344 65.816406 28.835938 65.636719 C 28.675781 65.542969 28.519531 65.449219 28.355469 65.355469 C 27.863281 65.070312 27.375 64.792969 26.882812 64.511719 C 24.488281 63.140625 24.488281 63.140625 24.167969 62.5 Z M 24.167969 62.5 "/>
<path style=" stroke:none;fill-rule:nonzero;fill:rgb(86.274511%,44.705883%,41.960785%);fill-opacity:1;" d="M 37.777344 45 C 36.722656 45.640625 35.664062 46.277344 34.605469 46.914062 C 34.246094 47.128906 33.882812 47.347656 33.523438 47.566406 C 33.007812 47.878906 32.488281 48.191406 31.972656 48.5 C 31.660156 48.6875 31.347656 48.875 31.027344 49.066406 C 30.78125 49.191406 30.535156 49.316406 30.277344 49.445312 C 30.09375 49.351562 29.910156 49.261719 29.722656 49.167969 C 29.878906 48.628906 29.878906 48.628906 30.277344 48.054688 C 31.285156 47.847656 31.285156 47.847656 32.222656 47.777344 C 32.222656 47.59375 32.222656 47.410156 32.222656 47.222656 C 32.773438 47.128906 33.324219 47.039062 33.886719 46.945312 C 33.886719 46.761719 33.886719 46.578125 33.886719 46.386719 C 34.074219 46.207031 34.253906 46.023438 34.445312 45.832031 C 34.808594 45.832031 35.175781 45.832031 35.554688 45.832031 C 35.648438 45.558594 35.738281 45.285156 35.832031 45 C 37.152344 44.6875 37.152344 44.6875 37.777344 45 Z M 37.777344 45 "/>
<path style=" stroke:none;fill-rule:nonzero;fill:rgb(67.843139%,35.686275%,47.843137%);fill-opacity:1;" d="M 20.554688 45 C 21.289062 45.089844 22.023438 45.183594 22.777344 45.277344 C 22.777344 45.460938 22.777344 45.644531 22.777344 45.832031 C 22.960938 45.832031 23.144531 45.832031 23.332031 45.832031 C 23.332031 46.109375 23.332031 46.382812 23.332031 46.667969 C 23.523438 46.722656 23.714844 46.78125 23.910156 46.839844 C 24.160156 46.914062 24.410156 46.988281 24.667969 47.066406 C 24.917969 47.140625 25.167969 47.214844 25.421875 47.292969 C 25.933594 47.445312 26.441406 47.609375 26.945312 47.777344 C 26.945312 48.050781 26.945312 48.328125 26.945312 48.613281 C 27.121094 48.644531 27.300781 48.679688 27.480469 48.714844 C 27.671875 48.773438 27.863281 48.832031 28.054688 48.886719 C 28.148438 49.074219 28.238281 49.253906 28.332031 49.445312 C 26.800781 48.992188 26.800781 48.992188 26.144531 48.488281 C 25.496094 48.011719 24.882812 47.75 24.132812 47.464844 C 22.800781 46.957031 22.800781 46.957031 22.222656 46.667969 C 22.222656 46.484375 22.222656 46.300781 22.222656 46.113281 C 22 46.03125 21.777344 45.949219 21.542969 45.867188 C 20.832031 45.554688 20.832031 45.554688 20.554688 45 Z M 20.554688 45 "/>
<path style=" stroke:none;fill-rule:nonzero;fill:rgb(36.862746%,64.313728%,18.039216%);fill-opacity:1;" d="M 71.113281 50 C 71.894531 49.949219 71.894531 49.949219 72.777344 50 C 73.054688 50.277344 73.332031 50.554688 73.613281 50.832031 C 74.128906 51.097656 74.65625 51.347656 75.191406 51.582031 C 75.464844 51.699219 75.742188 51.824219 76.027344 51.949219 C 76.34375 52.082031 76.34375 52.082031 76.667969 52.222656 C 76.667969 52.40625 76.667969 52.589844 76.667969 52.777344 C 77.214844 52.960938 77.765625 53.144531 78.332031 53.332031 C 78.332031 53.515625 78.332031 53.699219 78.332031 53.886719 C 76.675781 53.558594 75.496094 52.804688 74.09375 51.875 C 73.128906 51.257812 72.144531 50.765625 71.113281 50.277344 C 71.113281 50.183594 71.113281 50.09375 71.113281 50 Z M 71.113281 50 "/>
<path style=" stroke:none;fill-rule:nonzero;fill:rgb(45.882353%,74.901962%,54.509807%);fill-opacity:1;" d="M 71.113281 35 C 72.527344 35.136719 73.519531 35.640625 74.6875 36.40625 C 74.933594 36.5625 74.933594 36.5625 75.1875 36.722656 C 75.589844 36.980469 75.988281 37.238281 76.386719 37.5 C 75.832031 37.777344 75.832031 37.777344 74.964844 37.519531 C 74.570312 37.371094 74.570312 37.371094 74.167969 37.222656 C 74.167969 37.039062 74.167969 36.855469 74.167969 36.667969 C 73.339844 36.667969 72.515625 36.667969 71.667969 36.667969 C 71.484375 36.117188 71.300781 35.566406 71.113281 35 Z M 71.113281 35 "/>
<path style=" stroke:none;fill-rule:nonzero;fill:rgb(28.235295%,51.764709%,86.666667%);fill-opacity:1;" d="M 33.332031 52.5 C 34.535156 52.9375 35.597656 53.464844 36.667969 54.167969 C 36.925781 54.792969 36.925781 54.792969 36.945312 55.277344 C 35.757812 55.207031 35.140625 55.113281 34.199219 54.355469 C 33.671875 53.6875 33.425781 53.332031 33.332031 52.5 Z M 33.332031 52.5 "/>
<path style=" stroke:none;fill-rule:nonzero;fill:rgb(92.941177%,80.000001%,30.588236%);fill-opacity:1;" d="M 55 65 C 55.675781 65.175781 55.675781 65.175781 56.386719 65.554688 C 56.613281 66.425781 56.613281 66.425781 56.667969 67.222656 C 56.847656 67.222656 57.035156 67.222656 57.222656 67.222656 C 57.222656 67.40625 57.222656 67.589844 57.222656 67.777344 C 57.773438 67.960938 58.324219 68.144531 58.886719 68.332031 C 58.886719 68.515625 58.886719 68.699219 58.886719 68.886719 C 58.316406 69.011719 58.316406 69.011719 57.5 68.886719 C 56.425781 68.050781 55.515625 67.105469 55 65.832031 C 55 65.558594 55 65.285156 55 65 Z M 55 65 "/>
<path style=" stroke:none;fill-rule:nonzero;fill:rgb(95.294118%,85.09804%,44.705883%);fill-opacity:1;" d="M 56.945312 57.777344 C 57.128906 57.871094 57.308594 57.960938 57.5 58.054688 C 57.320312 58.347656 57.320312 58.347656 57.136719 58.644531 C 56.660156 59.449219 56.242188 60.269531 55.832031 61.113281 C 55.652344 61.113281 55.464844 61.113281 55.277344 61.113281 C 55.183594 62.394531 55.09375 63.675781 55 65 C 54.910156 65 54.816406 65 54.722656 65 C 54.550781 62.535156 54.691406 60.683594 56.113281 58.613281 C 56.378906 58.324219 56.65625 58.042969 56.945312 57.777344 Z M 56.945312 57.777344 "/>
<path style=" stroke:none;fill-rule:nonzero;fill:rgb(97.254902%,83.529413%,43.137255%);fill-opacity:1;" d="M 62.222656 55 C 62.222656 55.183594 62.222656 55.367188 62.222656 55.554688 C 61.761719 55.933594 61.300781 56.300781 60.832031 56.667969 C 60.742188 56.847656 60.652344 57.035156 60.554688 57.222656 C 59.511719 57.761719 58.664062 57.832031 57.5 57.777344 C 58.226562 56.957031 59.074219 56.464844 60.019531 55.917969 C 60.3125 55.746094 60.609375 55.574219 60.910156 55.394531 C 61.667969 55 61.667969 55 62.222656 55 Z M 62.222656 55 "/>
<path style=" stroke:none;fill-rule:nonzero;fill:rgb(87.058824%,74.901962%,15.686275%);fill-opacity:1;" d="M 71.113281 49.722656 C 71.113281 49.90625 71.113281 50.089844 71.113281 50.277344 C 71.3125 50.355469 71.511719 50.4375 71.71875 50.519531 C 72.441406 50.808594 73.167969 51.097656 73.886719 51.386719 C 72.902344 51.71875 72.582031 51.582031 71.613281 51.269531 C 71.363281 51.1875 71.113281 51.105469 70.855469 51.027344 C 70.664062 50.960938 70.472656 50.898438 70.277344 50.832031 C 70.183594 51.109375 70.09375 51.382812 70 51.667969 C 69.632812 51.667969 69.265625 51.667969 68.886719 51.667969 C 68.886719 51.390625 68.886719 51.117188 68.886719 50.832031 C 70.347656 49.722656 70.347656 49.722656 71.113281 49.722656 Z M 71.113281 49.722656 "/>
<path style=" stroke:none;fill-rule:nonzero;fill:rgb(61.960787%,52.156866%,72.156864%);fill-opacity:1;" d="M 25 47.777344 C 25.742188 48.050781 26.386719 48.332031 27.050781 48.769531 C 27.9375 49.253906 28.722656 49.347656 29.722656 49.445312 C 29.628906 49.71875 29.539062 49.996094 29.445312 50.277344 C 29.628906 50.371094 29.808594 50.460938 30 50.554688 C 29.339844 50.589844 29.339844 50.589844 28.613281 50.554688 C 28.425781 50.371094 28.246094 50.191406 28.054688 50 C 27.847656 49.917969 27.644531 49.839844 27.429688 49.757812 C 26.527344 49.386719 25.785156 48.917969 25 48.332031 C 25 48.152344 25 47.964844 25 47.777344 Z M 25 47.777344 "/>
<path style=" stroke:none;fill-rule:nonzero;fill:rgb(45.882353%,65.490198%,17.647059%);fill-opacity:1;" d="M 79.445312 54.445312 C 79.597656 54.523438 79.753906 54.605469 79.914062 54.6875 C 80.566406 55.015625 80.566406 55.015625 81.300781 55.292969 C 81.945312 55.554688 81.945312 55.554688 82.222656 55.832031 C 82.828125 55.898438 83.4375 55.949219 84.042969 55.988281 C 84.378906 56.011719 84.710938 56.035156 85.050781 56.058594 C 85.308594 56.078125 85.566406 56.09375 85.832031 56.113281 C 85.742188 56.292969 85.652344 56.476562 85.554688 56.667969 C 83.550781 56.746094 81.785156 56.714844 80.15625 55.398438 C 79.921875 55.175781 79.6875 54.953125 79.445312 54.722656 C 79.445312 54.628906 79.445312 54.539062 79.445312 54.445312 Z M 79.445312 54.445312 "/>
<path style=" stroke:none;fill-rule:nonzero;fill:rgb(36.470589%,68.627453%,45.490196%);fill-opacity:1;" d="M 63.886719 45.832031 C 64.472656 45.949219 65.058594 46.074219 65.644531 46.199219 C 65.96875 46.265625 66.292969 46.332031 66.628906 46.402344 C 67.46875 46.65625 67.84375 46.785156 68.332031 47.5 C 68.332031 47.777344 68.332031 48.050781 68.332031 48.332031 C 66.691406 47.902344 65.285156 47.058594 63.886719 46.113281 C 63.886719 46.019531 63.886719 45.925781 63.886719 45.832031 Z M 63.886719 45.832031 "/>
<path style=" stroke:none;fill-rule:nonzero;fill:rgb(67.058825%,66.666669%,80.000001%);fill-opacity:1;" d="M 15.832031 41.945312 C 16.015625 42.035156 16.199219 42.128906 16.386719 42.222656 C 16.113281 42.777344 16.113281 42.777344 15.261719 43.089844 C 14.992188 43.167969 14.722656 43.25 14.445312 43.332031 C 14.535156 43.515625 14.628906 43.699219 14.722656 43.886719 C 14.226562 44.082031 13.726562 44.273438 13.230469 44.460938 C 12.953125 44.566406 12.675781 44.675781 12.390625 44.785156 C 11.667969 45 11.667969 45 11.113281 44.722656 C 11.792969 44.308594 12.476562 43.902344 13.160156 43.488281 C 13.355469 43.371094 13.546875 43.253906 13.746094 43.136719 C 13.933594 43.023438 14.121094 42.910156 14.3125 42.796875 C 14.484375 42.691406 14.65625 42.589844 14.832031 42.484375 C 15.160156 42.292969 15.496094 42.113281 15.832031 41.945312 Z M 15.832031 41.945312 "/>
<path style=" stroke:none;fill-rule:nonzero;fill:rgb(40.392157%,71.764708%,49.411765%);fill-opacity:1;" d="M 82.5 41.386719 C 83.78125 41.753906 84.75 42.28125 85.832031 43.054688 C 84.964844 43.488281 84.289062 43.433594 83.332031 43.332031 C 82.65625 42.636719 82.65625 42.636719 82.222656 41.945312 C 82.316406 41.761719 82.40625 41.578125 82.5 41.386719 Z M 82.5 41.386719 "/>
<path style=" stroke:none;fill-rule:nonzero;fill:rgb(56.078434%,70.588237%,89.411765%);fill-opacity:1;" d="M 10 46.113281 C 10.183594 46.476562 10.367188 46.84375 10.554688 47.222656 C 10.421875 47.316406 10.289062 47.410156 10.152344 47.503906 C 9.511719 48.324219 9.566406 49.191406 9.53125 50.191406 C 9.519531 50.386719 9.511719 50.582031 9.503906 50.78125 C 9.480469 51.261719 9.460938 51.742188 9.445312 52.222656 C 8.667969 50.847656 8.652344 49.476562 9.066406 47.964844 C 9.597656 46.511719 9.597656 46.511719 10 46.113281 Z M 10 46.113281 "/>
<path style=" stroke:none;fill-rule:nonzero;fill:rgb(80.392158%,30.588236%,26.274511%);fill-opacity:1;" d="M 38.730469 30.226562 C 38.945312 30.222656 39.15625 30.21875 39.375 30.214844 C 40.066406 30.285156 40.511719 30.488281 41.113281 30.832031 C 41.113281 31.015625 41.113281 31.199219 41.113281 31.386719 C 40.925781 31.34375 40.746094 31.296875 40.554688 31.25 C 38.941406 30.980469 37.429688 31.070312 35.832031 31.386719 C 36.707031 30.429688 37.457031 30.238281 38.730469 30.226562 Z M 38.730469 30.226562 "/>
<path style=" stroke:none;fill-rule:nonzero;fill:rgb(85.882354%,41.176471%,38.82353%);fill-opacity:1;" d="M 39.722656 42.222656 C 40.363281 42.316406 41.003906 42.40625 41.667969 42.5 C 39.046875 44.722656 39.046875 44.722656 37.777344 44.722656 C 37.777344 44.449219 37.777344 44.171875 37.777344 43.886719 C 38.328125 43.796875 38.878906 43.707031 39.445312 43.613281 C 39.535156 43.152344 39.628906 42.695312 39.722656 42.222656 Z M 39.722656 42.222656 "/>
<path style=" stroke:none;fill-rule:nonzero;fill:rgb(95.294118%,71.764708%,67.843139%);fill-opacity:1;" d="M 41.441406 30.417969 C 41.699219 30.554688 41.957031 30.691406 42.222656 30.832031 C 41.386719 31.113281 41.386719 31.113281 40.800781 30.851562 C 39.6875 30.441406 38.671875 30.410156 37.5 30.554688 C 36.9375 30.820312 36.378906 31.097656 35.832031 31.386719 C 35.230469 31.277344 35.230469 31.277344 34.722656 31.113281 C 36.875 29.917969 39.097656 29.425781 41.441406 30.417969 Z M 41.441406 30.417969 "/>
<path style=" stroke:none;fill-rule:nonzero;fill:rgb(47.450981%,74.509805%,51.764709%);fill-opacity:1;" d="M 85.832031 43.332031 C 87.628906 43.699219 88.71875 44.886719 90 46.113281 C 89.910156 46.292969 89.816406 46.476562 89.722656 46.667969 C 89.027344 46.300781 89.027344 46.300781 88.332031 45.832031 C 88.332031 45.558594 88.332031 45.285156 88.332031 45 C 87.875 45 87.417969 45 86.945312 45 C 86.851562 44.722656 86.761719 44.449219 86.667969 44.167969 C 86.25 43.703125 86.25 43.703125 85.832031 43.332031 Z M 85.832031 43.332031 "/>
<path style=" stroke:none;fill-rule:nonzero;fill:rgb(76.078433%,75.294119%,16.078432%);fill-opacity:1;" d="M 75.554688 52.777344 C 77.320312 53.277344 79.238281 53.996094 80.277344 55.554688 C 78.988281 55.1875 78.050781 54.636719 76.945312 53.886719 C 76.730469 53.839844 76.519531 53.785156 76.300781 53.730469 C 76.070312 53.671875 76.070312 53.671875 75.832031 53.613281 C 75.742188 53.335938 75.652344 53.058594 75.554688 52.777344 Z M 75.554688 52.777344 "/>
<path style=" stroke:none;fill-rule:nonzero;fill:rgb(48.235294%,65.882355%,92.54902%);fill-opacity:1;" d="M 43.886719 65 C 44.074219 65.183594 44.253906 65.367188 44.445312 65.554688 C 44.628906 65.371094 44.808594 65.191406 45 65 C 44.886719 66.339844 44.316406 66.894531 43.332031 67.777344 C 43.332031 66.953125 43.332031 66.128906 43.332031 65.277344 C 43.515625 65.183594 43.699219 65.09375 43.886719 65 Z M 43.886719 65 "/>
<path style=" stroke:none;fill-rule:nonzero;fill:rgb(91.764706%,61.960787%,58.431375%);fill-opacity:1;" d="M 45 35 C 45.089844 35 45.183594 35 45.277344 35 C 45.433594 38.90625 45.433594 38.90625 44.445312 40.277344 C 44.261719 40.371094 44.078125 40.460938 43.886719 40.554688 C 43.886719 40.371094 43.886719 40.191406 43.886719 40 C 43.707031 39.910156 43.523438 39.816406 43.332031 39.722656 C 43.609375 39.722656 43.882812 39.722656 44.167969 39.722656 C 44.167969 39.355469 44.167969 38.988281 44.167969 38.613281 C 44.347656 38.519531 44.535156 38.425781 44.722656 38.332031 C 44.851562 37.550781 44.851562 37.550781 44.894531 36.648438 C 44.925781 36.191406 44.925781 36.191406 44.957031 35.71875 C 44.972656 35.480469 44.988281 35.246094 45 35 Z M 45 35 "/>
<path style=" stroke:none;fill-rule:nonzero;fill:rgb(59.215689%,81.960785%,65.098041%);fill-opacity:1;" d="M 67.777344 32.777344 C 69.253906 33.183594 70.40625 33.886719 71.667969 34.722656 C 71.390625 34.859375 71.390625 34.859375 71.113281 35 C 70.550781 34.726562 69.996094 34.449219 69.445312 34.167969 C 68.800781 33.953125 68.15625 33.78125 67.5 33.613281 C 67.589844 33.335938 67.683594 33.058594 67.777344 32.777344 Z M 67.777344 32.777344 "/>
<path style=" stroke:none;fill-rule:nonzero;fill:rgb(52.156866%,68.627453%,90.196079%);fill-opacity:1;" d="M 40 56.386719 C 41.28125 56.753906 42.25 57.28125 43.332031 58.054688 C 43.242188 58.238281 43.152344 58.421875 43.054688 58.613281 C 42.78125 58.703125 42.503906 58.792969 42.222656 58.886719 C 42.128906 58.707031 42.039062 58.523438 41.945312 58.332031 C 41.667969 58.152344 41.394531 57.964844 41.113281 57.777344 C 41.203125 57.683594 41.292969 57.59375 41.386719 57.5 C 41.210938 57.472656 41.035156 57.441406 40.851562 57.414062 C 40.660156 57.347656 40.472656 57.285156 40.277344 57.222656 C 40.183594 56.949219 40.09375 56.671875 40 56.386719 Z M 40 56.386719 "/>
<path style=" stroke:none;fill-rule:nonzero;fill:rgb(40.392157%,72.941178%,49.803922%);fill-opacity:1;" d="M 89.167969 51.113281 C 89.425781 51.1875 89.425781 51.1875 89.6875 51.269531 C 90.289062 51.457031 90.289062 51.457031 90.832031 51.113281 C 90.691406 52.332031 90.410156 53.148438 89.722656 54.167969 C 89.402344 53.527344 89.359375 53.035156 89.289062 52.324219 C 89.265625 52.097656 89.242188 51.871094 89.21875 51.636719 C 89.199219 51.464844 89.183594 51.292969 89.167969 51.113281 Z M 89.167969 51.113281 "/>
<path style=" stroke:none;fill-rule:nonzero;fill:rgb(47.450981%,63.921571%,89.411765%);fill-opacity:1;" d="M 29.445312 64.445312 C 29.574219 64.558594 29.699219 64.671875 29.832031 64.789062 C 30.085938 65.011719 30.085938 65.011719 30.347656 65.242188 C 30.515625 65.390625 30.683594 65.539062 30.855469 65.691406 C 31.382812 66.105469 31.894531 66.390625 32.5 66.667969 C 32.066406 66.875 32.066406 66.875 31.386719 66.945312 C 30.691406 66.628906 30.089844 66.246094 29.445312 65.832031 C 29.445312 65.558594 29.445312 65.285156 29.445312 65 C 29.261719 64.910156 29.078125 64.816406 28.886719 64.722656 C 29.074219 64.628906 29.253906 64.539062 29.445312 64.445312 Z M 29.445312 64.445312 "/>
<path style=" stroke:none;fill-rule:nonzero;fill:rgb(89.019608%,75.686276%,10.196079%);fill-opacity:1;" d="M 72.5 51.386719 C 74.617188 51.875 74.617188 51.875 75.554688 52.5 C 75.554688 52.683594 75.554688 52.867188 75.554688 53.054688 C 75.003906 53.054688 74.457031 53.054688 73.886719 53.054688 C 73.796875 52.691406 73.707031 52.324219 73.613281 51.945312 C 73.246094 51.851562 72.878906 51.761719 72.5 51.667969 C 72.5 51.574219 72.5 51.484375 72.5 51.386719 Z M 72.5 51.386719 "/>
<path style=" stroke:none;fill-rule:nonzero;fill:rgb(52.941179%,69.01961%,90.196079%);fill-opacity:1;" d="M 33.332031 52.5 C 34.527344 52.933594 35.574219 53.523438 36.667969 54.167969 C 35.921875 54.539062 35.628906 54.363281 34.84375 54.113281 C 34.507812 54.011719 34.507812 54.011719 34.167969 53.910156 C 33.613281 53.613281 33.613281 53.613281 33.394531 53.023438 C 33.375 52.851562 33.355469 52.675781 33.332031 52.5 Z M 33.332031 52.5 "/>
<path style=" stroke:none;fill-rule:nonzero;fill:rgb(82.352942%,39.607844%,37.254903%);fill-opacity:1;" d="M 43.332031 40 C 43.515625 40 43.699219 40 43.886719 40 C 43.808594 40.988281 43.667969 41.332031 42.949219 42.050781 C 42.710938 42.199219 42.472656 42.347656 42.222656 42.5 C 41.949219 42.410156 41.671875 42.316406 41.386719 42.222656 C 41.664062 42.128906 41.941406 42.039062 42.222656 41.945312 C 42.53125 41.421875 42.53125 41.421875 42.777344 40.832031 C 42.960938 40.558594 43.144531 40.285156 43.332031 40 Z M 43.332031 40 "/>
<path style=" stroke:none;fill-rule:nonzero;fill:rgb(43.137255%,47.058824%,74.509805%);fill-opacity:1;" d="M 14.167969 43.332031 C 15.675781 43.273438 16.910156 43.304688 18.332031 43.886719 C 18.332031 43.980469 18.332031 44.074219 18.332031 44.167969 C 17.742188 44.136719 17.152344 44.097656 16.5625 44.0625 C 16.234375 44.042969 15.90625 44.023438 15.566406 44.003906 C 14.722656 43.886719 14.722656 43.886719 14.167969 43.332031 Z M 14.167969 43.332031 "/>
<path style=" stroke:none;fill-rule:nonzero;fill:rgb(48.627451%,74.901962%,56.862748%);fill-opacity:1;" d="M 60.832031 44.167969 C 61.660156 44.257812 62.484375 44.347656 63.332031 44.445312 C 63.332031 44.628906 63.332031 44.808594 63.332031 45 C 63.515625 45.089844 63.699219 45.183594 63.886719 45.277344 C 63.886719 45.460938 63.886719 45.644531 63.886719 45.832031 C 62.636719 45.484375 61.808594 45.027344 60.832031 44.167969 Z M 60.832031 44.167969 "/>
<path style=" stroke:none;fill-rule:nonzero;fill:rgb(60.392159%,74.509805%,93.725491%);fill-opacity:1;" d="M 30 50.554688 C 31.195312 50.988281 32.238281 51.578125 33.332031 52.222656 C 33.058594 52.359375 33.058594 52.359375 32.777344 52.5 C 32.40625 52.316406 32.035156 52.128906 31.667969 51.945312 C 31.113281 51.839844 30.558594 51.742188 30 51.667969 C 30 51.300781 30 50.933594 30 50.554688 Z M 30 50.554688 "/>
<path style=" stroke:none;fill-rule:nonzero;fill:rgb(84.705883%,41.960785%,39.607844%);fill-opacity:1;" d="M 37.777344 45 C 37.433594 45.242188 37.085938 45.476562 36.738281 45.710938 C 36.542969 45.84375 36.347656 45.976562 36.152344 46.113281 C 35.554688 46.386719 35.554688 46.386719 34.925781 46.292969 C 34.769531 46.230469 34.609375 46.171875 34.445312 46.113281 C 34.621094 46.082031 34.800781 46.054688 34.980469 46.023438 C 35.171875 45.960938 35.363281 45.898438 35.554688 45.832031 C 35.648438 45.558594 35.738281 45.285156 35.832031 45 C 37.152344 44.6875 37.152344 44.6875 37.777344 45 Z M 37.777344 45 "/>
<path style=" stroke:none;fill-rule:nonzero;fill:rgb(89.411765%,54.901963%,51.764709%);fill-opacity:1;" d="M 32.222656 32.777344 C 32.222656 33.050781 32.222656 33.328125 32.222656 33.613281 C 30.707031 34.472656 30.707031 34.472656 29.941406 34.332031 C 29.777344 34.277344 29.613281 34.222656 29.445312 34.167969 C 29.800781 33.933594 30.160156 33.703125 30.519531 33.472656 C 30.722656 33.34375 30.917969 33.214844 31.125 33.082031 C 31.667969 32.777344 31.667969 32.777344 32.222656 32.777344 Z M 32.222656 32.777344 "/>
<path style=" stroke:none;fill-rule:nonzero;fill:rgb(87.450981%,47.450981%,43.921569%);fill-opacity:1;" d="M 41.113281 30.832031 C 42.058594 31.128906 42.78125 31.390625 43.613281 31.945312 C 43.519531 32.128906 43.425781 32.308594 43.332031 32.5 C 42.507812 32.363281 42.507812 32.363281 41.667969 32.222656 C 41.667969 31.949219 41.667969 31.671875 41.667969 31.386719 C 41.484375 31.386719 41.300781 31.386719 41.113281 31.386719 C 41.113281 31.207031 41.113281 31.023438 41.113281 30.832031 Z M 41.113281 30.832031 "/>
<path style=" stroke:none;fill-rule:nonzero;fill:rgb(30.980393%,63.137257%,40.000001%);fill-opacity:1;" d="M 60 30.832031 C 59.445312 31.386719 59.445312 31.386719 58.628906 31.648438 C 57.816406 31.929688 57.476562 32.128906 56.945312 32.777344 C 56.761719 32.683594 56.578125 32.59375 56.386719 32.5 C 56.695312 32.226562 57 31.957031 57.308594 31.683594 C 57.480469 31.535156 57.652344 31.378906 57.824219 31.222656 C 58.644531 30.589844 59.011719 30.503906 60 30.832031 Z M 60 30.832031 "/>
<path style=" stroke:none;fill-rule:nonzero;fill:rgb(44.705883%,63.137257%,89.411765%);fill-opacity:1;" d="M 33.886719 68.054688 C 35.058594 68 35.878906 68.109375 36.945312 68.613281 C 36.761719 68.792969 36.578125 68.976562 36.386719 69.167969 C 35.480469 69.109375 34.910156 69.042969 34.199219 68.457031 C 34.097656 68.324219 33.996094 68.191406 33.886719 68.054688 Z M 33.886719 68.054688 "/>
<path style=" stroke:none;fill-rule:nonzero;fill:rgb(95.686275%,85.09804%,44.313726%);fill-opacity:1;" d="M 81.113281 58.613281 C 81.570312 58.613281 82.027344 58.613281 82.5 58.613281 C 81.613281 59.34375 80.746094 60.027344 79.722656 60.554688 C 79.539062 60.464844 79.355469 60.371094 79.167969 60.277344 C 79.667969 59.722656 79.667969 59.722656 80.277344 59.167969 C 80.550781 59.167969 80.828125 59.167969 81.113281 59.167969 C 81.113281 58.984375 81.113281 58.800781 81.113281 58.613281 Z M 81.113281 58.613281 "/>
<path style=" stroke:none;fill-rule:nonzero;fill:rgb(58.431375%,73.333335%,92.156863%);fill-opacity:1;" d="M 36.667969 54.445312 C 37.949219 54.808594 38.917969 55.335938 40 56.113281 C 39.722656 56.246094 39.722656 56.246094 39.445312 56.386719 C 38.714844 56.128906 38.714844 56.128906 38.054688 55.832031 C 38.054688 55.652344 38.054688 55.464844 38.054688 55.277344 C 37.691406 55.277344 37.324219 55.277344 36.945312 55.277344 C 36.851562 55.003906 36.761719 54.726562 36.667969 54.445312 Z M 36.667969 54.445312 "/>
<path style=" stroke:none;fill-rule:nonzero;fill:rgb(92.941177%,73.725492%,13.725491%);fill-opacity:1;" d="M 82.5 56.945312 C 82.867188 56.945312 83.234375 56.945312 83.613281 56.945312 C 83.703125 57.21875 83.792969 57.496094 83.886719 57.777344 C 82.660156 58.632812 82.660156 58.632812 81.855469 58.523438 C 81.703125 58.460938 81.550781 58.398438 81.386719 58.332031 C 81.664062 58.242188 81.941406 58.152344 82.222656 58.054688 C 82.425781 57.496094 82.425781 57.496094 82.5 56.945312 Z M 82.5 56.945312 "/>
<path style=" stroke:none;fill-rule:nonzero;fill:rgb(39.607844%,56.078434%,86.666667%);fill-opacity:1;" d="M 10.832031 54.445312 C 11.769531 54.53125 11.769531 54.53125 12.777344 54.722656 C 12.960938 54.996094 13.144531 55.273438 13.332031 55.554688 C 12.550781 55.625 12.550781 55.625 11.667969 55.554688 C 11.144531 55 11.144531 55 10.832031 54.445312 Z M 10.832031 54.445312 "/>
<path style=" stroke:none;fill-rule:nonzero;fill:rgb(76.078433%,31.37255%,37.254903%);fill-opacity:1;" d="M 25 47.5 C 25.640625 47.589844 26.285156 47.683594 26.945312 47.777344 C 26.945312 48.050781 26.945312 48.328125 26.945312 48.613281 C 27.121094 48.644531 27.300781 48.679688 27.480469 48.714844 C 27.671875 48.773438 27.863281 48.832031 28.054688 48.886719 C 28.148438 49.074219 28.238281 49.253906 28.332031 49.445312 C 27.050781 49.078125 26.074219 48.566406 25 47.777344 C 25 47.683594 25 47.59375 25 47.5 Z M 25 47.5 "/>
<path style=" stroke:none;fill-rule:nonzero;fill:rgb(40.000001%,60.392159%,85.09804%);fill-opacity:1;" d="M 12.222656 44.722656 C 11.851562 45.832031 11.25 46.066406 10.277344 46.667969 C 10.347656 46.007812 10.347656 46.007812 10.554688 45.277344 C 11.152344 44.871094 11.5 44.722656 12.222656 44.722656 Z M 12.222656 44.722656 "/>
<path style=" stroke:none;fill-rule:nonzero;fill:rgb(36.862746%,69.411767%,46.27451%);fill-opacity:1;" d="M 56.945312 41.667969 C 58.042969 41.820312 58.988281 42.050781 60 42.5 C 60 42.589844 60 42.683594 60 42.777344 C 59.59375 42.753906 59.191406 42.722656 58.785156 42.691406 C 58.558594 42.675781 58.332031 42.660156 58.101562 42.644531 C 57.5 42.5 57.5 42.5 56.945312 41.667969 Z M 56.945312 41.667969 "/>
<path style=" stroke:none;fill-rule:nonzero;fill:rgb(47.450981%,75.294119%,55.29412%);fill-opacity:1;" d="M 77.777344 38.613281 C 78.738281 38.957031 79.484375 39.355469 80.277344 40 C 79.339844 40.035156 79.339844 40.035156 78.332031 40 C 78.152344 39.816406 77.964844 39.632812 77.777344 39.445312 C 77.777344 39.167969 77.777344 38.894531 77.777344 38.613281 Z M 77.777344 38.613281 "/>
<path style=" stroke:none;fill-rule:nonzero;fill:rgb(93.725491%,79.215688%,34.509805%);fill-opacity:1;" d="M 60 56.667969 C 60 56.847656 60 57.035156 60 57.222656 C 59.046875 57.859375 58.613281 57.828125 57.5 57.777344 C 58.246094 56.917969 58.867188 56.667969 60 56.667969 Z M 60 56.667969 "/>
<path style=" stroke:none;fill-rule:nonzero;fill:rgb(48.627451%,65.882355%,89.411765%);fill-opacity:1;" d="M 12.222656 55.554688 C 12.773438 55.554688 13.324219 55.554688 13.886719 55.554688 C 14.074219 56.011719 14.253906 56.472656 14.445312 56.945312 C 13.507812 56.613281 12.875 56.3125 12.222656 55.554688 Z M 12.222656 55.554688 "/>
<path style=" stroke:none;fill-rule:nonzero;fill:rgb(44.705883%,65.490198%,19.215687%);fill-opacity:1;" d="M 71.113281 50 C 71.875 49.914062 71.875 49.914062 72.777344 50 C 73.4375 50.695312 73.4375 50.695312 73.886719 51.386719 C 71.785156 50.871094 71.785156 50.871094 71.113281 50 Z M 71.113281 50 "/>
<path style=" stroke:none;fill-rule:nonzero;fill:rgb(47.058824%,43.921569%,72.156864%);fill-opacity:1;" d="M 25 47.777344 C 26.226562 48.152344 26.761719 48.683594 27.5 49.722656 C 26.636719 49.304688 25.800781 48.867188 25 48.332031 C 25 48.152344 25 47.964844 25 47.777344 Z M 25 47.777344 "/>
<path style=" stroke:none;fill-rule:nonzero;fill:rgb(89.803922%,41.960785%,38.82353%);fill-opacity:1;" d="M 24.167969 37.777344 C 24.074219 38.144531 23.984375 38.511719 23.886719 38.886719 C 23.523438 38.980469 23.15625 39.074219 22.777344 39.167969 C 22.777344 38.984375 22.777344 38.800781 22.777344 38.613281 C 22.59375 38.519531 22.410156 38.425781 22.222656 38.332031 C 23.054688 37.777344 23.054688 37.777344 24.167969 37.777344 Z M 24.167969 37.777344 "/>
<path style=" stroke:none;fill-rule:nonzero;fill:rgb(40.784314%,70.588237%,49.019608%);fill-opacity:1;" d="M 88.054688 54.167969 C 88.511719 54.167969 88.972656 54.167969 89.445312 54.167969 C 88.4375 55.519531 88.4375 55.519531 87.5 55.832031 C 87.5 55.558594 87.5 55.285156 87.5 55 C 87.683594 54.910156 87.867188 54.816406 88.054688 54.722656 C 88.054688 54.539062 88.054688 54.355469 88.054688 54.167969 Z M 88.054688 54.167969 "/>
<path style=" stroke:none;fill-rule:nonzero;fill:rgb(97.647059%,88.627452%,52.549022%);fill-opacity:1;" d="M 66.386719 52.222656 C 66.574219 52.316406 66.753906 52.40625 66.945312 52.5 C 66.667969 52.589844 66.394531 52.683594 66.113281 52.777344 C 66.113281 52.960938 66.113281 53.144531 66.113281 53.332031 C 65.277344 53.886719 65.277344 53.886719 64.667969 53.785156 C 64.503906 53.726562 64.339844 53.667969 64.167969 53.613281 C 64.523438 53.371094 64.882812 53.136719 65.242188 52.898438 C 65.542969 52.699219 65.542969 52.699219 65.847656 52.5 C 66.027344 52.410156 66.207031 52.316406 66.386719 52.222656 Z M 66.386719 52.222656 "/>
<path style=" stroke:none;fill-rule:nonzero;fill:rgb(89.803922%,55.29412%,53.333336%);fill-opacity:1;" d="M 43.613281 32.5 C 44.515625 33.285156 44.867188 33.800781 45 35 C 44.722656 35 44.449219 35 44.167969 35 C 43.984375 34.175781 43.800781 33.347656 43.613281 32.5 Z M 43.613281 32.5 "/>
<path style=" stroke:none;fill-rule:nonzero;fill:rgb(90.196079%,85.882354%,47.450981%);fill-opacity:1;" d="M 71.113281 49.722656 C 71.113281 49.90625 71.113281 50.089844 71.113281 50.277344 C 71.292969 50.371094 71.476562 50.460938 71.667969 50.554688 C 71.402344 50.589844 71.140625 50.625 70.867188 50.660156 C 69.976562 50.753906 69.976562 50.753906 69.445312 51.386719 C 69.261719 51.207031 69.078125 51.023438 68.886719 50.832031 C 70.488281 49.722656 70.488281 49.722656 71.113281 49.722656 Z M 71.113281 49.722656 "/>
<path style=" stroke:none;fill-rule:nonzero;fill:rgb(45.09804%,45.490196%,75.294119%);fill-opacity:1;" d="M 18.332031 44.167969 C 19.382812 44.46875 20.128906 44.699219 20.832031 45.554688 C 20.007812 45.417969 20.007812 45.417969 19.167969 45.277344 C 19.167969 45.09375 19.167969 44.910156 19.167969 44.722656 C 18.890625 44.628906 18.617188 44.539062 18.332031 44.445312 C 18.332031 44.351562 18.332031 44.261719 18.332031 44.167969 Z M 18.332031 44.167969 "/>
<path style=" stroke:none;fill-rule:nonzero;fill:rgb(86.274511%,36.862746%,32.156864%);fill-opacity:1;" d="M 39.722656 42.222656 C 40.363281 42.316406 41.003906 42.40625 41.667969 42.5 C 41.320312 42.933594 41.320312 42.933594 40.832031 43.332031 C 40.226562 43.246094 40.226562 43.246094 39.722656 43.054688 C 39.722656 42.78125 39.722656 42.503906 39.722656 42.222656 Z M 39.722656 42.222656 "/>
<path style=" stroke:none;fill-rule:nonzero;fill:rgb(84.705883%,29.019609%,24.313726%);fill-opacity:1;" d="M 34.722656 31.386719 C 35.089844 31.480469 35.457031 31.574219 35.832031 31.667969 C 35.558594 32.078125 35.558594 32.078125 35.277344 32.5 C 34.410156 32.550781 34.410156 32.550781 33.613281 32.5 C 33.703125 32.316406 33.792969 32.132812 33.886719 31.945312 C 34.164062 31.945312 34.441406 31.945312 34.722656 31.945312 C 34.722656 31.761719 34.722656 31.578125 34.722656 31.386719 Z M 34.722656 31.386719 "/>
<path style=" stroke:none;fill-rule:nonzero;fill:rgb(96.078432%,88.235295%,50.588238%);fill-opacity:1;" d="M 76.386719 62.5 C 74.925781 63.394531 74.925781 63.394531 74.445312 63.613281 C 74.261719 63.519531 74.078125 63.425781 73.886719 63.332031 C 74.445312 62.5 74.445312 62.5 74.980469 62.292969 C 75.554688 62.222656 75.554688 62.222656 76.386719 62.5 Z M 76.386719 62.5 "/>
<path style=" stroke:none;fill-rule:nonzero;fill:rgb(29.411766%,50.588238%,84.705883%);fill-opacity:1;" d="M 31.113281 51.667969 C 32.707031 52.1875 32.707031 52.1875 33.332031 52.5 C 33.332031 52.683594 33.332031 52.867188 33.332031 53.054688 C 32.519531 52.878906 31.84375 52.613281 31.113281 52.222656 C 31.113281 52.039062 31.113281 51.855469 31.113281 51.667969 Z M 31.113281 51.667969 "/>
<path style=" stroke:none;fill-rule:nonzero;fill:rgb(52.156866%,75.294119%,58.431375%);fill-opacity:1;" d="M 63.886719 45.832031 C 64.253906 45.902344 64.621094 45.980469 64.980469 46.058594 C 65.183594 46.101562 65.386719 46.144531 65.597656 46.183594 C 65.769531 46.253906 65.9375 46.320312 66.113281 46.386719 C 66.203125 46.664062 66.292969 46.941406 66.386719 47.222656 C 65.339844 46.917969 64.589844 46.691406 63.886719 45.832031 Z M 63.886719 45.832031 "/>
<path style=" stroke:none;fill-rule:nonzero;fill:rgb(92.156863%,61.960787%,59.607846%);fill-opacity:1;" d="M 34.722656 31.386719 C 34.722656 31.574219 34.722656 31.753906 34.722656 31.945312 C 33.566406 32.808594 33.566406 32.808594 32.691406 32.691406 C 32.535156 32.628906 32.382812 32.566406 32.222656 32.5 C 34.097656 31.386719 34.097656 31.386719 34.722656 31.386719 Z M 34.722656 31.386719 "/>
</g>
</svg>
