<?xml version="1.0" encoding="UTF-8"?>
<svg xmlns="http://www.w3.org/2000/svg" xmlns:xlink="http://www.w3.org/1999/xlink" width="100px" height="px" viewBox="0 0 100 100" version="1.1">
<g id="surface1">
<path style=" stroke:none;fill-rule:nonzero;fill:rgb(94.117647%,51.372552%,55.686277%);fill-opacity:1;" d="M 39.816406 14.695312 C 40.691406 15.347656 41.507812 16.027344 42.324219 16.746094 C 42.785156 17.050781 43.246094 17.359375 43.722656 17.675781 C 43.722656 17.980469 43.722656 18.289062 43.722656 18.605469 C 44.371094 18.246094 45.019531 17.886719 45.667969 17.527344 C 46.246094 17.207031 46.246094 17.207031 46.839844 16.882812 C 47.585938 16.460938 48.316406 16.015625 49.042969 15.550781 C 52.582031 13.566406 55.796875 12.683594 59.855469 12.730469 C 60.300781 12.738281 60.746094 12.738281 61.203125 12.746094 C 66.917969 12.925781 71.414062 14.742188 75.609375 18.730469 C 76.277344 19.535156 76.277344 19.535156 76.277344 20.464844 C 73.695312 19.660156 71.328125 18.542969 68.894531 17.367188 C 64.714844 15.574219 59.496094 15.605469 55.261719 17.179688 C 54.871094 17.347656 54.480469 17.515625 54.078125 17.6875 C 53.109375 18.105469 52.191406 18.378906 51.164062 18.605469 C 51.164062 18.910156 51.164062 19.21875 51.164062 19.535156 C 50.503906 19.972656 49.839844 20.410156 49.167969 20.824219 C 48.300781 21.449219 47.679688 22.136719 46.976562 22.933594 C 45.945312 23.988281 45.746094 24.167969 44.214844 24.332031 C 42.808594 23.730469 42.339844 23.328125 41.335938 22.238281 C 38.066406 18.714844 33.105469 16.886719 28.371094 16.542969 C 22.945312 16.699219 17.722656 18.917969 13.953125 22.792969 C 13.800781 23.097656 13.644531 23.402344 13.488281 23.722656 C 13.183594 23.722656 12.875 23.722656 12.558594 23.722656 C 12.441406 24.019531 12.328125 24.316406 12.207031 24.621094 C 11.886719 25.410156 11.558594 26.191406 11.183594 26.953125 C 8.148438 33.261719 8.253906 40.105469 10.097656 46.773438 C 12.105469 52.347656 15.90625 57.207031 20 61.394531 C 20.371094 61.78125 20.738281 62.167969 21.117188 62.566406 C 27.21875 68.84375 34.425781 74.019531 41.859375 78.605469 C 42.550781 79.066406 42.550781 79.066406 43.253906 79.535156 C 44.894531 79.800781 45.613281 79.519531 47.121094 78.777344 C 47.738281 78.230469 47.738281 78.230469 48.371094 77.675781 C 48.476562 76.230469 48.476562 76.230469 48.371094 74.882812 C 47.996094 74.730469 47.621094 74.582031 47.230469 74.425781 C 46.738281 74.222656 46.238281 74.019531 45.726562 73.808594 C 45.238281 73.609375 44.746094 73.410156 44.238281 73.203125 C 41.824219 72.128906 40.027344 71.121094 38.605469 68.835938 C 38.015625 66.894531 37.992188 65.519531 38.691406 63.605469 C 39.863281 61.824219 40.742188 60.683594 42.792969 60 C 46.5625 59.683594 49.324219 59.832031 52.558594 61.859375 C 52.402344 62.78125 52.25 63.703125 52.09375 64.652344 C 50.699219 65.117188 50.699219 65.117188 49.476562 64.679688 C 47.554688 64.074219 45.722656 63.914062 43.722656 64.183594 C 42.628906 65.066406 42.628906 65.066406 42.730469 66.570312 C 42.753906 67.011719 42.769531 67.453125 42.792969 67.90625 C 43.191406 68.039062 43.59375 68.167969 44.007812 68.304688 C 45.496094 68.808594 46.964844 69.339844 48.429688 69.914062 C 48.902344 70.09375 49.371094 70.273438 49.859375 70.460938 C 51.371094 71.277344 52.097656 72.046875 53.023438 73.488281 C 53.4375 74.949219 53.417969 76.207031 53.023438 77.675781 C 52.097656 78.855469 51.066406 79.714844 49.769531 80.464844 C 49.460938 80.464844 49.152344 80.464844 48.835938 80.464844 C 48.835938 80.769531 48.835938 81.078125 48.835938 81.394531 C 47.390625 82.769531 46.171875 83.433594 44.183594 83.722656 C 40.988281 82.84375 38.128906 80.816406 35.347656 79.070312 C 34.992188 78.847656 34.632812 78.628906 34.265625 78.402344 C 29.953125 75.753906 25.855469 72.875 21.859375 69.769531 C 21.269531 69.320312 21.269531 69.320312 20.667969 68.867188 C 18.761719 67.410156 16.988281 65.949219 15.347656 64.183594 C 15.042969 63.871094 14.738281 63.558594 14.425781 63.238281 C 7.058594 55.441406 3.046875 46.527344 3.183594 35.730469 C 3.574219 28.566406 6.007812 22.519531 11.277344 17.558594 C 19.253906 10.867188 30.71875 9.121094 39.816406 14.695312 Z M 39.816406 14.695312 "/>
<path style=" stroke:none;fill-rule:nonzero;fill:rgb(94.901961%,51.372552%,55.686277%);fill-opacity:1;" d="M 72.066406 29.503906 C 73.695312 30.867188 75.003906 32.253906 76.277344 33.953125 C 76.472656 34.195312 76.667969 34.4375 76.871094 34.6875 C 81.378906 40.515625 81.957031 47.976562 81.074219 55.058594 C 80.542969 58.1875 79.539062 60.878906 78.140625 63.722656 C 77.769531 64.488281 77.769531 64.488281 77.386719 65.273438 C 71.710938 76.09375 59.660156 86.097656 48.371094 90.699219 C 47.34375 90.503906 47.34375 90.503906 46.511719 90.230469 C 48.332031 88.160156 50.425781 86.839844 52.777344 85.417969 C 53.945312 84.714844 53.945312 84.714844 54.75 83.855469 C 54.949219 83.65625 55.144531 83.460938 55.347656 83.253906 C 55.65625 83.253906 55.964844 83.253906 56.277344 83.253906 C 56.277344 82.949219 56.277344 82.640625 56.277344 82.324219 C 56.945312 81.683594 56.945312 81.683594 57.878906 80.929688 C 65.09375 74.773438 73.429688 64.160156 74.417969 54.417969 C 74.824219 47.761719 74.339844 42.261719 70.230469 36.746094 C 66.839844 33.070312 63.199219 31.320312 58.226562 31.074219 C 52.226562 31.199219 47.984375 34.113281 43.722656 38.140625 C 42.425781 36.882812 41.238281 35.628906 40.117188 34.214844 C 38.511719 32.300781 36.542969 31.054688 34.417969 29.769531 C 34.574219 29.460938 34.726562 29.152344 34.882812 28.835938 C 37.425781 28.972656 39.128906 30.082031 41.222656 31.410156 C 42.191406 32.011719 43.160156 32.535156 44.183594 33.023438 C 44.746094 32.304688 44.746094 32.304688 45.320312 31.570312 C 52.230469 23.558594 63.855469 23.386719 72.066406 29.503906 Z M 72.066406 29.503906 "/>
<path style=" stroke:none;fill-rule:nonzero;fill:rgb(95.686275%,49.019608%,54.509807%);fill-opacity:1;" d="M 74.882812 33.953125 C 74.882812 34.261719 74.882812 34.566406 74.882812 34.882812 C 75.34375 34.730469 75.804688 34.574219 76.277344 34.417969 C 81.113281 39.644531 80.699219 46.261719 80.464844 53.023438 C 80.199219 55.285156 79.726562 57.355469 79.070312 59.535156 C 78.910156 60.152344 78.753906 60.773438 78.605469 61.394531 C 77.675781 61.394531 77.675781 61.394531 76.917969 60.699219 C 76.707031 60.464844 76.496094 60.238281 76.277344 60 C 75.511719 60.308594 74.746094 60.613281 73.953125 60.929688 C 74.003906 60.515625 74.003906 60.515625 74.050781 60.09375 C 74.378906 57.109375 74.519531 54.160156 74.535156 51.164062 C 74.542969 50.734375 74.554688 50.308594 74.566406 49.863281 C 74.582031 46.515625 74.089844 43.402344 72.5 40.410156 C 71.941406 39.214844 72.214844 38.453125 72.558594 37.207031 C 72.097656 37.054688 71.636719 36.902344 71.164062 36.746094 C 72.121094 35.308594 73.042969 33.953125 74.882812 33.953125 Z M 74.882812 33.953125 "/>
<path style=" stroke:none;fill-rule:nonzero;fill:rgb(92.941177%,54.509807%,58.431375%);fill-opacity:1;" d="M 67.90625 6.046875 C 75.082031 5.625 80.777344 7.476562 86.265625 12.140625 C 90.347656 15.996094 93.703125 21.167969 94.066406 26.886719 C 94.070312 28.472656 94.035156 30.042969 93.953125 31.628906 C 93.492188 31.628906 93.035156 31.628906 92.558594 31.628906 C 92.441406 31.199219 92.320312 30.769531 92.195312 30.332031 C 90.996094 26.277344 89.371094 22.976562 86.972656 19.5 C 86.046875 18.140625 86.046875 18.140625 85.574219 17.082031 C 84.976562 16.03125 84.34375 15.835938 83.253906 15.347656 C 82.816406 14.9375 82.371094 14.523438 81.917969 14.097656 C 77.992188 10.667969 72.957031 8.878906 67.90625 7.90625 C 67.90625 7.292969 67.90625 6.679688 67.90625 6.046875 Z M 67.90625 6.046875 "/>
<path style=" stroke:none;fill-rule:nonzero;fill:rgb(93.333334%,53.725493%,58.039218%);fill-opacity:1;" d="M 72.09375 15.816406 C 73.636719 16.929688 75.058594 18.066406 76.277344 19.535156 C 76.277344 19.839844 76.277344 20.148438 76.277344 20.464844 C 73.695312 19.660156 71.328125 18.542969 68.894531 17.367188 C 64.714844 15.574219 59.496094 15.605469 55.261719 17.179688 C 54.871094 17.347656 54.480469 17.515625 54.078125 17.6875 C 53.109375 18.105469 52.191406 18.378906 51.164062 18.605469 C 51.164062 18.910156 51.164062 19.21875 51.164062 19.535156 C 49.957031 20.402344 48.769531 21.195312 47.441406 21.859375 C 47.441406 20.464844 47.441406 19.070312 47.441406 17.675781 C 46.980469 18.136719 46.519531 18.597656 46.046875 19.070312 C 45.738281 18.761719 45.433594 18.457031 45.117188 18.140625 C 52.539062 11.613281 63.597656 10.824219 72.09375 15.816406 Z M 72.09375 15.816406 "/>
<path style=" stroke:none;fill-rule:nonzero;fill:rgb(96.078432%,48.235294%,53.333336%);fill-opacity:1;" d="M 6.511719 24.652344 C 6.664062 25.113281 6.816406 25.574219 6.976562 26.046875 C 7.4375 26.199219 7.898438 26.355469 8.371094 26.511719 C 8.363281 27.117188 8.355469 27.722656 8.34375 28.34375 C 8.339844 30.554688 8.558594 32.691406 8.835938 34.882812 C 8.53125 34.882812 8.222656 34.882812 7.90625 34.882812 C 7.136719 36.425781 7.394531 38.136719 7.414062 39.824219 C 7.417969 40.386719 7.417969 40.386719 7.417969 40.957031 C 7.425781 41.878906 7.433594 42.800781 7.441406 43.722656 C 6.292969 43.949219 6.292969 43.949219 5.117188 44.183594 C 4.347656 41.480469 4.007812 39.03125 4.011719 36.222656 C 4.011719 35.839844 4.011719 35.457031 4.011719 35.066406 C 4.066406 31.988281 4.238281 26.925781 6.511719 24.652344 Z M 6.511719 24.652344 "/>
<path style=" stroke:none;fill-rule:nonzero;fill:rgb(92.941177%,54.509807%,57.647061%);fill-opacity:1;" d="M 50.230469 27.441406 C 50.230469 27.902344 50.230469 28.363281 50.230469 28.835938 C 49.300781 29.621094 49.300781 29.621094 48.371094 30.230469 C 48.527344 30.539062 48.679688 30.847656 48.835938 31.164062 C 50.21875 31.164062 51.597656 31.164062 53.023438 31.164062 C 51.769531 32.125 50.488281 33.011719 49.15625 33.867188 C 47.203125 35.15625 45.464844 36.582031 43.722656 38.140625 C 42.425781 36.882812 41.238281 35.628906 40.117188 34.214844 C 38.511719 32.300781 36.542969 31.054688 34.417969 29.769531 C 34.574219 29.460938 34.726562 29.152344 34.882812 28.835938 C 37.425781 28.972656 39.128906 30.082031 41.222656 31.410156 C 42.191406 32.011719 43.160156 32.535156 44.183594 33.023438 C 44.347656 32.816406 44.511719 32.605469 44.683594 32.394531 C 46.351562 30.347656 48.03125 28.894531 50.230469 27.441406 Z M 50.230469 27.441406 "/>
<path style=" stroke:none;fill-rule:nonzero;fill:rgb(93.725491%,50.980395%,54.901963%);fill-opacity:1;" d="M 50.0625 60.417969 C 51.074219 60.929688 51.074219 60.929688 52.558594 61.859375 C 52.402344 62.78125 52.25 63.703125 52.09375 64.652344 C 50.699219 65.117188 50.699219 65.117188 49.476562 64.679688 C 47.554688 64.074219 45.722656 63.914062 43.722656 64.183594 C 42.628906 65.066406 42.628906 65.066406 42.730469 66.570312 C 42.761719 67.230469 42.761719 67.230469 42.792969 67.90625 C 43.191406 68.035156 43.589844 68.164062 44 68.296875 C 45.546875 68.824219 47.042969 69.421875 48.546875 70.058594 C 49.039062 70.265625 49.53125 70.472656 50.039062 70.6875 C 50.410156 70.84375 50.78125 71 51.164062 71.164062 C 49.285156 71.929688 48.054688 71.269531 46.25 70.523438 C 45.722656 70.308594 45.191406 70.09375 44.648438 69.871094 C 44.191406 69.683594 43.730469 69.496094 43.253906 69.300781 C 42.792969 69.148438 42.335938 68.996094 41.859375 68.835938 C 41.859375 66.996094 41.859375 65.152344 41.859375 63.253906 C 42.628906 63.253906 43.394531 63.253906 44.183594 63.253906 C 43.574219 62.527344 43.574219 62.527344 42.792969 61.859375 C 42.332031 61.859375 41.871094 61.859375 41.394531 61.859375 C 41.394531 62.167969 41.394531 62.472656 41.394531 62.792969 C 40.933594 62.792969 40.472656 62.792969 40 62.792969 C 40 63.097656 40 63.402344 40 63.722656 C 39.691406 63.722656 39.386719 63.722656 39.070312 63.722656 C 39.667969 62.382812 40.265625 61.414062 41.394531 60.464844 C 44.082031 59.570312 47.371094 59.503906 50.0625 60.417969 Z M 50.0625 60.417969 "/>
<path style=" stroke:none;fill-rule:nonzero;fill:rgb(92.156863%,54.901963%,58.039218%);fill-opacity:1;" d="M 61.394531 77.675781 C 64.070312 78.488281 64.070312 78.488281 65.117188 79.535156 C 53.386719 89.710938 53.386719 89.710938 46.976562 90.699219 C 46.824219 90.390625 46.667969 90.082031 46.511719 89.769531 C 50.449219 86.589844 50.449219 86.589844 52.5 85.464844 C 53.707031 84.789062 54.417969 84.234375 55.347656 83.253906 C 55.65625 83.253906 55.964844 83.253906 56.277344 83.253906 C 56.277344 82.949219 56.277344 82.640625 56.277344 82.324219 C 57.042969 81.570312 57.042969 81.570312 58.050781 80.726562 C 59.214844 79.746094 60.335938 78.765625 61.394531 77.675781 Z M 61.394531 77.675781 "/>
<path style=" stroke:none;fill-rule:nonzero;fill:rgb(95.686275%,49.019608%,54.11765%);fill-opacity:1;" d="M 12.558594 54.882812 C 13.019531 55.191406 13.480469 55.496094 13.953125 55.816406 C 14.261719 55.660156 14.566406 55.507812 14.882812 55.347656 C 16.132812 57.15625 17.191406 58.941406 18.140625 60.929688 C 17.832031 61.238281 17.527344 61.542969 17.207031 61.859375 C 17.363281 62.320312 17.515625 62.78125 17.675781 63.253906 C 18.597656 63.410156 19.515625 63.5625 20.464844 63.722656 C 20.621094 64.335938 20.769531 64.949219 20.929688 65.582031 C 20.164062 65.734375 19.394531 65.886719 18.605469 66.046875 C 18.449219 65.277344 18.296875 64.511719 18.140625 63.722656 C 17.21875 63.722656 16.296875 63.722656 15.347656 63.722656 C 15.308594 63.355469 15.269531 62.992188 15.230469 62.617188 C 15.019531 61.339844 15.019531 61.339844 14.011719 60.902344 C 13.683594 60.757812 13.359375 60.613281 13.023438 60.464844 C 11.890625 59.332031 11.644531 58.765625 11.480469 57.152344 C 11.628906 55.816406 11.628906 55.816406 12.558594 54.882812 Z M 12.558594 54.882812 "/>
<path style=" stroke:none;fill-rule:nonzero;fill:rgb(92.156863%,58.431375%,61.56863%);fill-opacity:1;" d="M 91.628906 20 C 94.160156 23.800781 94.121094 27.164062 93.953125 31.628906 C 93.492188 31.628906 93.035156 31.628906 92.558594 31.628906 C 92.332031 30.914062 92.332031 30.914062 92.097656 30.183594 C 91.894531 29.550781 91.6875 28.917969 91.480469 28.285156 C 91.332031 27.816406 91.332031 27.816406 91.183594 27.335938 C 90.582031 25.503906 89.863281 23.972656 88.835938 22.324219 C 88.835938 22.019531 88.835938 21.710938 88.835938 21.394531 C 90.582031 20.871094 90.582031 20.871094 91.628906 21.394531 C 91.628906 20.933594 91.628906 20.472656 91.628906 20 Z M 91.628906 20 "/>
<path style=" stroke:none;fill-rule:nonzero;fill:rgb(91.37255%,59.215689%,61.56863%);fill-opacity:1;" d="M 63.722656 13.023438 C 68.253906 13.191406 72.363281 15.902344 75.628906 18.8125 C 76.277344 19.535156 76.277344 19.535156 76.277344 20.464844 C 74.28125 19.84375 72.457031 19.0625 70.582031 18.140625 C 68.007812 16.925781 65.605469 16.183594 62.792969 15.816406 C 62.792969 15.660156 62.792969 15.507812 62.792969 15.347656 C 64.019531 15.195312 65.246094 15.042969 66.511719 14.882812 C 65.285156 14.574219 64.054688 14.269531 62.792969 13.953125 C 63.097656 13.644531 63.402344 13.339844 63.722656 13.023438 Z M 63.722656 13.023438 "/>
<path style=" stroke:none;fill-rule:nonzero;fill:rgb(96.078432%,49.411765%,54.901963%);fill-opacity:1;" d="M 42.792969 61.394531 C 43.25 61.703125 43.710938 62.011719 44.183594 62.324219 C 44.183594 62.632812 44.183594 62.941406 44.183594 63.253906 C 43.574219 63.410156 42.957031 63.5625 42.324219 63.722656 C 42.324219 65.253906 42.324219 66.792969 42.324219 68.371094 C 42.632812 68.527344 42.941406 68.679688 43.253906 68.835938 C 42.792969 69.988281 42.792969 69.988281 42.324219 71.164062 C 42.019531 71.011719 41.710938 70.855469 41.394531 70.699219 C 41.394531 70.390625 41.394531 70.082031 41.394531 69.769531 C 41.089844 69.769531 40.78125 69.769531 40.464844 69.769531 C 40.464844 69.308594 40.464844 68.847656 40.464844 68.371094 C 40.160156 68.371094 39.851562 68.371094 39.535156 68.371094 C 39.230469 66.835938 38.921875 65.300781 38.605469 63.722656 C 39.066406 63.722656 39.527344 63.722656 40 63.722656 C 40 63.414062 40 63.105469 40 62.792969 C 40.460938 62.792969 40.921875 62.792969 41.394531 62.792969 C 41.394531 62.484375 41.394531 62.175781 41.394531 61.859375 C 41.855469 61.707031 42.316406 61.554688 42.792969 61.394531 Z M 42.792969 61.394531 "/>
<path style=" stroke:none;fill-rule:nonzero;fill:rgb(92.941177%,54.11765%,58.431375%);fill-opacity:1;" d="M 38.605469 14.417969 C 40.519531 15.308594 42.15625 16.246094 43.722656 17.675781 C 43.722656 17.980469 43.722656 18.289062 43.722656 18.605469 C 44.183594 18.757812 44.640625 18.910156 45.117188 19.070312 C 44.503906 19.070312 43.886719 19.070312 43.253906 19.070312 C 43.253906 18.761719 43.253906 18.457031 43.253906 18.140625 C 42.640625 18.140625 42.027344 18.140625 41.394531 18.140625 C 41.394531 18.445312 41.394531 18.753906 41.394531 19.070312 C 40.933594 19.300781 40.933594 19.300781 40.464844 19.535156 C 40.464844 19.839844 40.464844 20.148438 40.464844 20.464844 C 37.613281 19.609375 35.03125 18.394531 32.558594 16.746094 C 33.023438 16.277344 33.023438 16.277344 34.332031 16.164062 C 35.964844 16.292969 36.460938 16.636719 37.675781 17.675781 C 37.980469 17.675781 38.289062 17.675781 38.605469 17.675781 C 39.039062 16.273438 39.089844 15.875 38.605469 14.417969 Z M 38.605469 14.417969 "/>
<path style=" stroke:none;fill-rule:nonzero;fill:rgb(91.764706%,50.980395%,54.509807%);fill-opacity:1;" d="M 60.433594 12.933594 C 61.027344 12.929688 61.613281 12.921875 62.222656 12.917969 C 63.722656 13.023438 63.722656 13.023438 64.652344 13.953125 C 65.417969 14.28125 66.191406 14.597656 66.976562 14.882812 C 66.976562 15.035156 66.976562 15.191406 66.976562 15.347656 C 63.402344 15.839844 59.886719 15.859375 56.277344 15.816406 C 56.832031 12.738281 57.320312 12.953125 60.433594 12.933594 Z M 60.433594 12.933594 "/>
<path style=" stroke:none;fill-rule:nonzero;fill:rgb(89.411765%,58.431375%,61.176473%);fill-opacity:1;" d="M 34.882812 28.835938 C 37.421875 28.972656 39.097656 30.070312 41.179688 31.410156 C 42.308594 32.082031 43.417969 32.566406 44.652344 33.023438 C 44.652344 33.332031 44.652344 33.636719 44.652344 33.953125 C 43.882812 33.953125 43.117188 33.953125 42.324219 33.953125 C 42.480469 34.566406 42.632812 35.183594 42.792969 35.816406 C 42.332031 35.816406 41.871094 35.816406 41.394531 35.816406 C 40.796875 35.199219 40.796875 35.199219 40.175781 34.359375 C 38.554688 32.355469 36.605469 31.09375 34.417969 29.769531 C 34.574219 29.460938 34.726562 29.152344 34.882812 28.835938 Z M 34.882812 28.835938 "/>
<path style=" stroke:none;fill-rule:nonzero;fill:rgb(94.901961%,49.411765%,53.333336%);fill-opacity:1;" d="M 50.230469 72.09375 C 50.847656 72.09375 51.460938 72.09375 52.09375 72.09375 C 53.066406 73.550781 53.152344 73.941406 53.140625 75.609375 C 53.144531 75.976562 53.144531 76.339844 53.144531 76.714844 C 53.023438 77.675781 53.023438 77.675781 52.09375 78.605469 C 50.640625 78.664062 50.640625 78.664062 49.300781 78.605469 C 48.578125 75.972656 49.191406 74.511719 50.230469 72.09375 Z M 50.230469 72.09375 "/>
<path style=" stroke:none;fill-rule:nonzero;fill:rgb(90.980393%,58.431375%,62.352943%);fill-opacity:1;" d="M 56.746094 85.117188 C 54.277344 88.011719 50.753906 90.121094 46.976562 90.699219 C 46.824219 90.390625 46.667969 90.082031 46.511719 89.769531 C 53.464844 84.15625 53.464844 84.15625 56.746094 85.117188 Z M 56.746094 85.117188 "/>
<path style=" stroke:none;fill-rule:nonzero;fill:rgb(94.509804%,52.941179%,57.647061%);fill-opacity:1;" d="M 16.746094 58.605469 C 19.199219 60.628906 21.433594 62.804688 23.65625 65.082031 C 24.570312 66.066406 24.570312 66.066406 25.582031 66.511719 C 25.582031 66.816406 25.582031 67.125 25.582031 67.441406 C 24.816406 67.289062 24.046875 67.136719 23.253906 66.976562 C 23.101562 66.515625 22.949219 66.054688 22.792969 65.582031 C 22.332031 65.582031 21.871094 65.582031 21.394531 65.582031 C 21.550781 65.121094 21.703125 64.660156 21.859375 64.183594 C 21.570312 64.144531 21.277344 64.105469 20.976562 64.066406 C 19.828125 63.867188 18.769531 63.652344 17.675781 63.253906 C 16.949219 62.035156 16.949219 62.035156 16.746094 60.929688 C 17.050781 60.777344 17.359375 60.621094 17.675781 60.464844 C 17.367188 59.851562 17.058594 59.238281 16.746094 58.605469 Z M 16.746094 58.605469 "/>
<path style=" stroke:none;fill-rule:nonzero;fill:rgb(91.764706%,56.078434%,59.607846%);fill-opacity:1;" d="M 13.023438 16.277344 C 13.175781 16.738281 13.332031 17.199219 13.488281 17.675781 C 13.21875 17.925781 12.949219 18.175781 12.675781 18.429688 C 11.527344 19.640625 10.683594 20.933594 9.769531 22.324219 C 9.507812 22.566406 9.25 22.804688 8.980469 23.050781 C 8.144531 23.972656 8.070312 24.835938 7.90625 26.046875 C 7.597656 26.046875 7.292969 26.046875 6.976562 26.046875 C 6.667969 25.433594 6.363281 24.816406 6.046875 24.183594 C 8.050781 21.074219 10.105469 18.566406 13.023438 16.277344 Z M 13.023438 16.277344 "/>
<path style=" stroke:none;fill-rule:nonzero;fill:rgb(91.764706%,59.607846%,63.921571%);fill-opacity:1;" d="M 80 41.859375 C 80.152344 41.859375 80.308594 41.859375 80.464844 41.859375 C 81.785156 48.722656 81.886719 55.324219 79.070312 61.859375 C 78.917969 61.859375 78.761719 61.859375 78.605469 61.859375 C 78.667969 61.019531 78.738281 60.175781 78.808594 59.332031 C 78.847656 58.863281 78.882812 58.394531 78.921875 57.910156 C 79.070312 56.746094 79.070312 56.746094 79.535156 56.277344 C 80.136719 53.28125 80.050781 50.285156 80.027344 47.238281 C 80.027344 46.722656 80.027344 46.203125 80.023438 45.667969 C 80.019531 44.402344 80.011719 43.128906 80 41.859375 Z M 80 41.859375 "/>
<path style=" stroke:none;fill-rule:nonzero;fill:rgb(90.588236%,51.372552%,55.29412%);fill-opacity:1;" d="M 7.441406 34.417969 C 8.132812 34.878906 8.132812 34.878906 8.835938 35.347656 C 8.855469 36.3125 8.863281 37.277344 8.824219 38.242188 C 8.855469 41.484375 9.582031 44.738281 10.230469 47.90625 C 9.464844 47.140625 8.699219 46.371094 7.90625 45.582031 C 8.214844 45.425781 8.519531 45.273438 8.835938 45.117188 C 8.835938 44.808594 8.835938 44.503906 8.835938 44.183594 C 8.53125 44.183594 8.222656 44.183594 7.90625 44.183594 C 7.179688 42.730469 7.246094 41.164062 7.152344 39.566406 C 7.128906 39.222656 7.105469 38.886719 7.078125 38.535156 C 6.984375 37.011719 6.953125 35.882812 7.441406 34.417969 Z M 7.441406 34.417969 "/>
<path style=" stroke:none;fill-rule:nonzero;fill:rgb(92.156863%,58.823532%,61.176473%);fill-opacity:1;" d="M 41.859375 63.253906 C 43.550781 63.253906 45.238281 63.253906 46.976562 63.253906 C 46.976562 63.410156 46.976562 63.5625 46.976562 63.722656 C 46.457031 63.777344 45.941406 63.835938 45.40625 63.894531 C 43.707031 64.019531 43.707031 64.019531 42.792969 65.117188 C 42.714844 66.550781 42.714844 66.550781 42.792969 67.90625 C 43.191406 68.035156 43.589844 68.164062 44 68.296875 C 45.546875 68.824219 47.042969 69.421875 48.546875 70.058594 C 49.039062 70.265625 49.53125 70.472656 50.039062 70.6875 C 50.410156 70.84375 50.78125 71 51.164062 71.164062 C 49.285156 71.929688 48.054688 71.269531 46.25 70.523438 C 45.722656 70.308594 45.191406 70.09375 44.648438 69.871094 C 44.191406 69.683594 43.730469 69.496094 43.253906 69.300781 C 42.792969 69.148438 42.335938 68.996094 41.859375 68.835938 C 41.859375 66.996094 41.859375 65.152344 41.859375 63.253906 Z M 41.859375 63.253906 "/>
<path style=" stroke:none;fill-rule:nonzero;fill:rgb(92.941177%,60.000002%,62.7451%);fill-opacity:1;" d="M 57.207031 13.023438 C 57.054688 13.792969 56.902344 14.558594 56.746094 15.347656 C 57.207031 15.65625 57.664062 15.964844 58.140625 16.277344 C 55.058594 16.859375 55.058594 16.859375 53.488281 15.816406 C 52.40625 15.628906 51.324219 15.472656 50.230469 15.347656 C 52.332031 13.574219 54.464844 12.863281 57.207031 13.023438 Z M 57.207031 13.023438 "/>
<path style=" stroke:none;fill-rule:nonzero;fill:rgb(90.980393%,57.254905%,59.607846%);fill-opacity:1;" d="M 11.628906 22.324219 C 12.394531 22.324219 13.164062 22.324219 13.953125 22.324219 C 13.800781 22.785156 13.644531 23.246094 13.488281 23.722656 C 13.183594 23.722656 12.875 23.722656 12.558594 23.722656 C 12.441406 24.019531 12.328125 24.316406 12.207031 24.621094 C 11.722656 25.8125 11.207031 26.972656 10.667969 28.140625 C 10.011719 29.605469 9.511719 30.949219 9.300781 32.558594 C 8.996094 32.558594 8.6875 32.558594 8.371094 32.558594 C 8.371094 31.636719 8.371094 30.714844 8.371094 29.769531 C 8.679688 29.769531 8.988281 29.769531 9.300781 29.769531 C 9.363281 29.453125 9.425781 29.136719 9.488281 28.816406 C 9.613281 28.191406 9.613281 28.191406 9.738281 27.558594 C 9.820312 27.148438 9.902344 26.738281 9.984375 26.316406 C 10.199219 25.285156 10.433594 24.269531 10.699219 23.253906 C 11.003906 23.253906 11.3125 23.253906 11.628906 23.253906 C 11.628906 22.949219 11.628906 22.640625 11.628906 22.324219 Z M 11.628906 22.324219 "/>
<path style=" stroke:none;fill-rule:nonzero;fill:rgb(92.941177%,61.56863%,64.313728%);fill-opacity:1;" d="M 48.835938 76.746094 C 48.988281 77.359375 49.144531 77.972656 49.300781 78.605469 C 50.070312 78.605469 50.835938 78.605469 51.628906 78.605469 C 51.027344 79.246094 50.40625 79.863281 49.769531 80.464844 C 49.460938 80.464844 49.152344 80.464844 48.835938 80.464844 C 48.835938 80.769531 48.835938 81.078125 48.835938 81.394531 C 48.53125 81.394531 48.222656 81.394531 47.90625 81.394531 C 47.90625 80.933594 47.90625 80.472656 47.90625 80 C 46.832031 80.308594 45.757812 80.613281 44.652344 80.929688 C 44.496094 80.621094 44.34375 80.316406 44.183594 80 C 44.480469 79.84375 44.777344 79.683594 45.085938 79.523438 C 45.46875 79.316406 45.855469 79.109375 46.25 78.894531 C 46.632812 78.691406 47.015625 78.484375 47.410156 78.273438 C 48.433594 77.753906 48.433594 77.753906 48.835938 76.746094 Z M 48.835938 76.746094 "/>
<path style=" stroke:none;fill-rule:nonzero;fill:rgb(93.333334%,56.078434%,60.392159%);fill-opacity:1;" d="M 26.511719 11.628906 C 25.746094 13.160156 24.265625 13.433594 22.722656 14.035156 C 20.714844 14.613281 18.816406 14.578125 16.746094 14.417969 C 19.386719 12.203125 23.097656 11.351562 26.511719 11.628906 Z M 26.511719 11.628906 "/>
<path style=" stroke:none;fill-rule:nonzero;fill:rgb(92.156863%,50.196081%,53.725493%);fill-opacity:1;" d="M 52.570312 15.226562 C 53.488281 15.347656 53.488281 15.347656 54.882812 16.277344 C 54.882812 16.585938 54.882812 16.894531 54.882812 17.207031 C 53.671875 18.003906 53.070312 18.144531 51.597656 18.050781 C 50.222656 17.671875 49.699219 17.382812 48.835938 16.277344 C 50.050781 15.066406 50.917969 15.238281 52.570312 15.226562 Z M 52.570312 15.226562 "/>
<path style=" stroke:none;fill-rule:nonzero;fill:rgb(89.019608%,58.039218%,60.392159%);fill-opacity:1;" d="M 45.902344 59.972656 C 46.722656 59.976562 46.722656 59.976562 47.5625 59.984375 C 47.984375 59.988281 48.402344 59.996094 48.835938 60 C 48.835938 60.460938 48.835938 60.921875 48.835938 61.394531 C 48.457031 61.390625 48.074219 61.386719 47.683594 61.378906 C 47.179688 61.375 46.679688 61.371094 46.164062 61.367188 C 45.667969 61.363281 45.167969 61.355469 44.660156 61.347656 C 43.472656 61.386719 42.519531 61.511719 41.394531 61.859375 C 41.394531 62.167969 41.394531 62.472656 41.394531 62.792969 C 40.933594 62.792969 40.472656 62.792969 40 62.792969 C 40 63.097656 40 63.402344 40 63.722656 C 39.691406 63.722656 39.386719 63.722656 39.070312 63.722656 C 39.667969 62.382812 40.265625 61.414062 41.394531 60.464844 C 42.988281 59.933594 44.226562 59.953125 45.902344 59.972656 Z M 45.902344 59.972656 "/>
<path style=" stroke:none;fill-rule:nonzero;fill:rgb(89.803922%,56.078434%,59.215689%);fill-opacity:1;" d="M 67.90625 6.046875 C 69.902344 6.046875 71.898438 6.046875 73.953125 6.046875 C 73.953125 6.660156 73.953125 7.273438 73.953125 7.90625 C 73.40625 7.894531 73.40625 7.894531 72.847656 7.878906 C 71.636719 7.820312 71.636719 7.820312 70.699219 8.371094 C 69.605469 8.089844 68.519531 7.78125 67.441406 7.441406 C 67.597656 6.980469 67.75 6.519531 67.90625 6.046875 Z M 67.90625 6.046875 "/>
<path style=" stroke:none;fill-rule:nonzero;fill:rgb(94.509804%,47.450981%,51.372552%);fill-opacity:1;" d="M 38.605469 14.417969 C 39.269531 15.511719 39.574219 16.035156 39.359375 17.324219 C 39.265625 17.59375 39.167969 17.863281 39.070312 18.140625 C 36.949219 18.3125 36.949219 18.3125 35.902344 17.441406 C 35.71875 17.210938 35.535156 16.980469 35.347656 16.746094 C 36.175781 14.917969 36.503906 14.417969 38.605469 14.417969 Z M 38.605469 14.417969 "/>
<path style=" stroke:none;fill-rule:nonzero;fill:rgb(91.764706%,49.411765%,52.941179%);fill-opacity:1;" d="M 42.324219 33.953125 C 43.09375 33.953125 43.859375 33.953125 44.652344 33.953125 C 44.804688 35.027344 44.957031 36.101562 45.117188 37.207031 C 44.195312 37.667969 44.195312 37.667969 43.253906 38.140625 C 42.324219 37.207031 42.324219 37.207031 42.269531 35.523438 C 42.285156 35.003906 42.304688 34.488281 42.324219 33.953125 Z M 42.324219 33.953125 "/>
<path style=" stroke:none;fill-rule:nonzero;fill:rgb(89.803922%,64.313728%,64.705884%);fill-opacity:1;" d="M 93.023438 25.117188 C 93.332031 25.117188 93.636719 25.117188 93.953125 25.117188 C 93.953125 27.265625 93.953125 29.414062 93.953125 31.628906 C 93.492188 31.628906 93.035156 31.628906 92.558594 31.628906 C 91.570312 29.476562 91.570312 29.476562 92.09375 27.90625 C 92.402344 28.058594 92.707031 28.214844 93.023438 28.371094 C 93.023438 27.296875 93.023438 26.222656 93.023438 25.117188 Z M 93.023438 25.117188 "/>
<path style=" stroke:none;fill-rule:nonzero;fill:rgb(95.686275%,49.019608%,53.725493%);fill-opacity:1;" d="M 25.117188 69.300781 C 25.574219 69.457031 26.035156 69.609375 26.511719 69.769531 C 26.816406 69.613281 27.125 69.460938 27.441406 69.300781 C 27.566406 69.597656 27.691406 69.894531 27.820312 70.203125 C 28.320312 71.316406 28.320312 71.316406 29.769531 71.628906 C 29.613281 71.933594 29.460938 72.242188 29.300781 72.558594 C 26.324219 72.328125 26.324219 72.328125 24.914062 71.132812 C 24.550781 70.6875 24.550781 70.6875 24.183594 70.230469 C 24.492188 69.925781 24.800781 69.621094 25.117188 69.300781 Z M 25.117188 69.300781 "/>
<path style=" stroke:none;fill-rule:nonzero;fill:rgb(88.627452%,64.313728%,63.137257%);fill-opacity:1;" d="M 50.699219 86.511719 C 51.003906 86.664062 51.3125 86.816406 51.628906 86.976562 C 51.320312 87.285156 51.011719 87.589844 50.699219 87.90625 C 51.160156 88.214844 51.621094 88.519531 52.09375 88.835938 C 51.515625 89.164062 50.933594 89.480469 50.347656 89.796875 C 49.863281 90.0625 49.863281 90.0625 49.367188 90.335938 C 48.203125 90.757812 47.660156 90.644531 46.511719 90.230469 C 47.839844 88.871094 49.140625 87.605469 50.699219 86.511719 Z M 50.699219 86.511719 "/>
<path style=" stroke:none;fill-rule:nonzero;fill:rgb(85.09804%,57.647061%,59.215689%);fill-opacity:1;" d="M 71.164062 16.277344 C 72.714844 16.558594 73.589844 17.078125 74.769531 18.109375 C 75.050781 18.355469 75.339844 18.597656 75.632812 18.847656 C 76.277344 19.535156 76.277344 19.535156 76.277344 20.464844 C 74.195312 19.882812 72.722656 19.191406 71.164062 17.675781 C 71.164062 17.214844 71.164062 16.753906 71.164062 16.277344 Z M 71.164062 16.277344 "/>
<path style=" stroke:none;fill-rule:nonzero;fill:rgb(91.764706%,60.392159%,63.137257%);fill-opacity:1;" d="M 71.628906 62.792969 C 71.78125 62.792969 71.933594 62.792969 72.09375 62.792969 C 72.304688 65.449219 71.871094 66.738281 70.230469 68.835938 C 69.621094 68.683594 69.003906 68.53125 68.371094 68.371094 C 68.902344 67.441406 69.4375 66.511719 69.972656 65.582031 C 70.269531 65.0625 70.566406 64.542969 70.871094 64.011719 C 71.121094 63.609375 71.371094 63.207031 71.628906 62.792969 Z M 71.628906 62.792969 "/>
<path style=" stroke:none;fill-rule:nonzero;fill:rgb(91.37255%,63.137257%,64.705884%);fill-opacity:1;" d="M 38.140625 65.117188 C 38.445312 65.117188 38.753906 65.117188 39.070312 65.117188 C 39.222656 66.191406 39.378906 67.265625 39.535156 68.371094 C 39.839844 68.371094 40.148438 68.371094 40.464844 68.371094 C 40.464844 68.832031 40.464844 69.292969 40.464844 69.769531 C 40.769531 69.769531 41.078125 69.769531 41.394531 69.769531 C 41.242188 70.378906 41.089844 70.996094 40.929688 71.628906 C 38.808594 69.453125 38.296875 68.148438 38.140625 65.117188 Z M 38.140625 65.117188 "/>
<path style=" stroke:none;fill-rule:nonzero;fill:rgb(91.764706%,58.039218%,60.392159%);fill-opacity:1;" d="M 61.859375 25.582031 C 64.316406 25.832031 66.167969 26.40625 68.371094 27.441406 C 68.21875 27.902344 68.066406 28.363281 67.90625 28.835938 C 67.445312 28.835938 66.988281 28.835938 66.511719 28.835938 C 66.511719 28.378906 66.511719 27.917969 66.511719 27.441406 C 66.089844 27.394531 65.667969 27.347656 65.230469 27.296875 C 63.710938 26.972656 63.003906 26.59375 61.859375 25.582031 Z M 61.859375 25.582031 "/>
<path style=" stroke:none;fill-rule:nonzero;fill:rgb(92.156863%,60.000002%,61.960787%);fill-opacity:1;" d="M 57.675781 25.582031 C 57.828125 25.886719 57.980469 26.195312 58.140625 26.511719 C 57.699219 26.65625 57.257812 26.800781 56.800781 26.949219 C 55.414062 27.382812 55.414062 27.382812 54.417969 27.90625 C 53.332031 27.777344 52.246094 27.621094 51.164062 27.441406 C 52.886719 25.714844 55.304688 25.4375 57.675781 25.582031 Z M 57.675781 25.582031 "/>
<path style=" stroke:none;fill-rule:nonzero;fill:rgb(92.156863%,63.529414%,65.098041%);fill-opacity:1;" d="M 31.628906 76.277344 C 33.808594 76.550781 35.871094 77.351562 37.675781 78.605469 C 38.25 79.597656 38.25 79.597656 38.605469 80.464844 C 36.894531 79.828125 35.371094 79.050781 33.808594 78.109375 C 33.398438 77.863281 32.988281 77.621094 32.5625 77.367188 C 32.253906 77.160156 31.945312 76.957031 31.628906 76.746094 C 31.628906 76.589844 31.628906 76.4375 31.628906 76.277344 Z M 31.628906 76.277344 "/>
<path style=" stroke:none;fill-rule:nonzero;fill:rgb(91.37255%,59.215689%,61.960787%);fill-opacity:1;" d="M 4.183594 44.652344 C 4.492188 44.652344 4.800781 44.652344 5.117188 44.652344 C 5.269531 45.726562 5.425781 46.800781 5.582031 47.90625 C 5.886719 47.90625 6.195312 47.90625 6.511719 47.90625 C 6.511719 48.675781 6.511719 49.441406 6.511719 50.230469 C 6.816406 50.386719 7.125 50.539062 7.441406 50.699219 C 6.980469 51.386719 6.980469 51.386719 6.511719 52.09375 C 6.121094 51.113281 5.734375 50.136719 5.347656 49.15625 C 5.132812 48.613281 4.917969 48.066406 4.695312 47.503906 C 4.183594 46.046875 4.183594 46.046875 4.183594 44.652344 Z M 4.183594 44.652344 "/>
<path style=" stroke:none;fill-rule:nonzero;fill:rgb(94.901961%,47.450981%,53.333336%);fill-opacity:1;" d="M 36.277344 76.746094 C 36.585938 76.746094 36.894531 76.746094 37.207031 76.746094 C 37.207031 77.050781 37.207031 77.359375 37.207031 77.675781 C 37.976562 77.828125 38.746094 77.980469 39.535156 78.140625 C 39.6875 78.753906 39.839844 79.367188 40 80 C 39.539062 80.152344 39.078125 80.308594 38.605469 80.464844 C 37.441406 79.390625 37.441406 79.390625 36.277344 78.140625 C 36.277344 77.679688 36.277344 77.21875 36.277344 76.746094 Z M 36.277344 76.746094 "/>
<path style=" stroke:none;fill-rule:nonzero;fill:rgb(92.156863%,58.431375%,61.56863%);fill-opacity:1;" d="M 25.582031 67.441406 C 27.535156 68.566406 29.339844 69.839844 31.164062 71.164062 C 30.003906 71.480469 29.125 71.628906 27.90625 71.628906 C 27.78125 71.347656 27.660156 71.070312 27.527344 70.785156 C 27.027344 69.746094 27.027344 69.746094 26.222656 69.011719 C 26.011719 68.800781 25.800781 68.589844 25.582031 68.371094 C 25.582031 68.066406 25.582031 67.757812 25.582031 67.441406 Z M 25.582031 67.441406 "/>
<path style=" stroke:none;fill-rule:nonzero;fill:rgb(94.901961%,63.921571%,66.666669%);fill-opacity:1;" d="M 73.953125 42.792969 C 74.414062 42.945312 74.875 43.097656 75.347656 43.253906 C 76.089844 44.925781 75.757812 46.710938 75.609375 48.488281 C 75.5625 49.074219 75.515625 49.664062 75.464844 50.269531 C 75.425781 50.714844 75.386719 51.167969 75.347656 51.628906 C 75.195312 51.628906 75.042969 51.628906 74.882812 51.628906 C 74.839844 51.082031 74.839844 51.082031 74.800781 50.519531 C 74.589844 47.929688 74.363281 45.359375 73.953125 42.792969 Z M 73.953125 42.792969 "/>
<path style=" stroke:none;fill-rule:nonzero;fill:rgb(94.509804%,61.960787%,65.882355%);fill-opacity:1;" d="M 8.371094 39.535156 C 8.527344 39.535156 8.679688 39.535156 8.835938 39.535156 C 8.898438 39.945312 8.960938 40.355469 9.023438 40.777344 C 9.105469 41.316406 9.1875 41.855469 9.273438 42.414062 C 9.355469 42.949219 9.433594 43.480469 9.519531 44.03125 C 9.726562 45.332031 9.964844 46.617188 10.230469 47.90625 C 9.464844 47.140625 8.699219 46.371094 7.90625 45.582031 C 8.214844 45.425781 8.519531 45.273438 8.835938 45.117188 C 8.835938 44.808594 8.835938 44.503906 8.835938 44.183594 C 8.53125 44.183594 8.222656 44.183594 7.90625 44.183594 C 8.058594 42.652344 8.214844 41.117188 8.371094 39.535156 Z M 8.371094 39.535156 "/>
<path style=" stroke:none;fill-rule:nonzero;fill:rgb(89.803922%,58.039218%,60.392159%);fill-opacity:1;" d="M 51.628906 72.09375 C 52.574219 72.871094 52.988281 73.28125 53.207031 74.507812 C 53.207031 74.871094 53.199219 75.234375 53.199219 75.609375 C 53.199219 75.976562 53.207031 76.339844 53.207031 76.714844 C 53.148438 77.035156 53.085938 77.347656 53.023438 77.675781 C 52.5625 77.980469 52.101562 78.289062 51.628906 78.605469 C 51.667969 78.332031 51.707031 78.054688 51.746094 77.769531 C 52.003906 75.769531 52.199219 74.066406 51.628906 72.09375 Z M 51.628906 72.09375 "/>
<path style=" stroke:none;fill-rule:nonzero;fill:rgb(90.588236%,57.647061%,59.215689%);fill-opacity:1;" d="M 70.699219 72.558594 C 71.160156 72.710938 71.621094 72.863281 72.09375 73.023438 C 70.558594 74.558594 69.023438 76.09375 67.441406 77.675781 C 67.289062 77.367188 67.136719 77.058594 66.976562 76.746094 C 67.574219 75.949219 68.195312 75.175781 68.835938 74.417969 C 69.144531 74.417969 69.449219 74.417969 69.769531 74.417969 C 70.074219 73.804688 70.378906 73.191406 70.699219 72.558594 Z M 70.699219 72.558594 "/>
<path style=" stroke:none;fill-rule:nonzero;fill:rgb(94.509804%,45.882353%,50.588238%);fill-opacity:1;" d="M 40 64.652344 C 40.460938 64.652344 40.921875 64.652344 41.394531 64.652344 C 41.550781 65.417969 41.703125 66.183594 41.859375 66.976562 C 40.707031 67.667969 40.707031 67.667969 39.535156 68.371094 C 39.246094 67.296875 39.246094 67.296875 39.070312 66.046875 C 39.378906 65.585938 39.683594 65.125 40 64.652344 Z M 40 64.652344 "/>
<path style=" stroke:none;fill-rule:nonzero;fill:rgb(93.725491%,50.980395%,55.29412%);fill-opacity:1;" d="M 78.605469 8.371094 C 79.753906 8.832031 79.753906 8.832031 80.929688 9.300781 C 80.929688 10.699219 80.929688 10.699219 80 12.09375 C 79.539062 11.941406 79.078125 11.785156 78.605469 11.628906 C 78.605469 10.554688 78.605469 9.480469 78.605469 8.371094 Z M 78.605469 8.371094 "/>
<path style=" stroke:none;fill-rule:nonzero;fill:rgb(92.156863%,58.431375%,61.56863%);fill-opacity:1;" d="M 18.605469 66.511719 C 19.371094 66.511719 20.140625 66.511719 20.929688 66.511719 C 20.929688 66.972656 20.929688 67.433594 20.929688 67.90625 C 21.390625 68.058594 21.851562 68.214844 22.324219 68.371094 C 22.785156 69.0625 22.785156 69.0625 23.253906 69.769531 C 21.597656 69.769531 21.347656 69.472656 20.144531 68.402344 C 19.855469 68.148438 19.566406 67.894531 19.269531 67.632812 C 19.050781 67.417969 18.832031 67.199219 18.605469 66.976562 C 18.605469 66.824219 18.605469 66.667969 18.605469 66.511719 Z M 18.605469 66.511719 "/>
<path style=" stroke:none;fill-rule:nonzero;fill:rgb(90.980393%,60.000002%,61.960787%);fill-opacity:1;" d="M 10.699219 58.140625 C 12.433594 58.71875 12.859375 59.496094 13.953125 60.929688 C 14.410156 61.402344 14.871094 61.871094 15.347656 62.324219 C 15.195312 62.785156 15.042969 63.246094 14.882812 63.722656 C 14.183594 62.878906 13.488281 62.035156 12.792969 61.191406 C 12.402344 60.722656 12.011719 60.253906 11.613281 59.769531 C 10.699219 58.605469 10.699219 58.605469 10.699219 58.140625 Z M 10.699219 58.140625 "/>
<path style=" stroke:none;fill-rule:nonzero;fill:rgb(92.54902%,48.235294%,51.764709%);fill-opacity:1;" d="M 53.488281 27.441406 C 52.199219 28.875 51.132812 29.621094 49.300781 30.230469 C 49.300781 28.835938 49.300781 28.835938 49.824219 28.050781 C 51.050781 27.191406 52.027344 27.34375 53.488281 27.441406 Z M 53.488281 27.441406 "/>
<path style=" stroke:none;fill-rule:nonzero;fill:rgb(93.725491%,61.960787%,64.705884%);fill-opacity:1;" d="M 48.835938 15.347656 C 49.144531 15.503906 49.449219 15.65625 49.769531 15.816406 C 49.460938 16.734375 49.152344 17.65625 48.835938 18.605469 C 48.378906 18.296875 47.917969 17.988281 47.441406 17.675781 C 46.980469 18.136719 46.519531 18.597656 46.046875 19.070312 C 45.738281 18.761719 45.433594 18.457031 45.117188 18.140625 C 46.34375 17.21875 47.574219 16.296875 48.835938 15.347656 Z M 48.835938 15.347656 "/>
<path style=" stroke:none;fill-rule:nonzero;fill:rgb(92.156863%,47.058824%,51.764709%);fill-opacity:1;" d="M 92.09375 24.183594 C 93.023438 25.117188 93.023438 25.117188 93.082031 26.800781 C 93.0625 27.320312 93.042969 27.839844 93.023438 28.371094 C 92.410156 28.066406 91.792969 27.757812 91.164062 27.441406 C 91.164062 26.519531 91.164062 25.597656 91.164062 24.652344 C 91.46875 24.496094 91.777344 24.34375 92.09375 24.183594 Z M 92.09375 24.183594 "/>
<path style=" stroke:none;fill-rule:nonzero;fill:rgb(94.509804%,48.627451%,53.333336%);fill-opacity:1;" d="M 43.722656 80 C 44.335938 80.308594 44.949219 80.613281 45.582031 80.929688 C 45.582031 81.390625 45.582031 81.851562 45.582031 82.324219 C 44.355469 82.324219 43.125 82.324219 41.859375 82.324219 C 41.859375 82.019531 41.859375 81.710938 41.859375 81.394531 C 42.320312 81.242188 42.78125 81.089844 43.253906 80.929688 C 43.410156 80.621094 43.5625 80.316406 43.722656 80 Z M 43.722656 80 "/>
<path style=" stroke:none;fill-rule:nonzero;fill:rgb(91.764706%,62.7451%,65.098041%);fill-opacity:1;" d="M 45.117188 68.835938 C 45.949219 69.125 46.785156 69.417969 47.617188 69.707031 C 48.3125 69.953125 48.3125 69.953125 49.023438 70.199219 C 50.230469 70.699219 50.230469 70.699219 51.164062 71.628906 C 48.847656 71.394531 47.144531 70.90625 45.117188 69.769531 C 45.117188 69.460938 45.117188 69.152344 45.117188 68.835938 Z M 45.117188 68.835938 "/>
<path style=" stroke:none;fill-rule:nonzero;fill:rgb(91.764706%,57.647061%,61.56863%);fill-opacity:1;" d="M 15.347656 63.722656 C 16.269531 63.722656 17.191406 63.722656 18.140625 63.722656 C 18.140625 64.027344 18.140625 64.335938 18.140625 64.652344 C 18.445312 64.804688 18.753906 64.957031 19.070312 65.117188 C 18.917969 65.574219 18.761719 66.035156 18.605469 66.511719 C 18.296875 66.511719 17.988281 66.511719 17.675781 66.511719 C 16.878906 65.601562 16.101562 64.667969 15.347656 63.722656 Z M 15.347656 63.722656 "/>
<path style=" stroke:none;fill-rule:nonzero;fill:rgb(93.333334%,48.235294%,52.549022%);fill-opacity:1;" d="M 67.441406 30.230469 C 67.902344 30.386719 68.363281 30.539062 68.835938 30.699219 C 68.835938 31.160156 68.835938 31.621094 68.835938 32.09375 C 68.988281 32.402344 69.144531 32.707031 69.300781 33.023438 C 68.074219 32.871094 66.847656 32.714844 65.582031 32.558594 C 65.886719 32.402344 66.195312 32.25 66.511719 32.09375 C 67.039062 31.15625 67.039062 31.15625 67.441406 30.230469 Z M 67.441406 30.230469 "/>
<path style=" stroke:none;fill-rule:nonzero;fill:rgb(90.980393%,47.450981%,50.980395%);fill-opacity:1;" d="M 66.511719 14.417969 C 66.664062 14.726562 66.816406 15.035156 66.976562 15.347656 C 65.441406 15.503906 63.90625 15.65625 62.324219 15.816406 C 62.324219 15.355469 62.324219 14.894531 62.324219 14.417969 C 63.777344 13.691406 64.964844 14.109375 66.511719 14.417969 Z M 66.511719 14.417969 "/>
<path style=" stroke:none;fill-rule:nonzero;fill:rgb(91.764706%,62.7451%,65.098041%);fill-opacity:1;" d="M 42.792969 60.464844 C 42.792969 60.925781 42.792969 61.386719 42.792969 61.859375 C 42.332031 61.859375 41.871094 61.859375 41.394531 61.859375 C 41.394531 62.167969 41.394531 62.472656 41.394531 62.792969 C 40.933594 62.792969 40.472656 62.792969 40 62.792969 C 40 63.097656 40 63.402344 40 63.722656 C 39.691406 63.722656 39.386719 63.722656 39.070312 63.722656 C 39.933594 61.789062 40.542969 60.464844 42.792969 60.464844 Z M 42.792969 60.464844 "/>
<path style=" stroke:none;fill-rule:nonzero;fill:rgb(90.196079%,57.647061%,58.823532%);fill-opacity:1;" d="M 48.835938 76.746094 C 48.988281 77.359375 49.144531 77.972656 49.300781 78.605469 C 50.070312 78.605469 50.835938 78.605469 51.628906 78.605469 C 51.027344 79.246094 50.40625 79.863281 49.769531 80.464844 C 49.460938 80.464844 49.152344 80.464844 48.835938 80.464844 C 48.316406 77.792969 48.316406 77.792969 48.835938 76.746094 Z M 48.835938 76.746094 "/>
<path style=" stroke:none;fill-rule:nonzero;fill:rgb(91.37255%,60.784316%,63.137257%);fill-opacity:1;" d="M 36.746094 75.816406 C 38.601562 76.449219 39.90625 77.328125 41.394531 78.605469 C 39.988281 78.332031 38.597656 78.035156 37.207031 77.675781 C 37.054688 77.058594 36.902344 76.445312 36.746094 75.816406 Z M 36.746094 75.816406 "/>
<path style=" stroke:none;fill-rule:nonzero;fill:rgb(90.980393%,54.509807%,57.647061%);fill-opacity:1;" d="M 70.699219 28.835938 C 71.769531 29.605469 72.847656 30.371094 73.953125 31.164062 C 73.800781 31.621094 73.644531 32.082031 73.488281 32.558594 C 73.027344 32.558594 72.566406 32.558594 72.09375 32.558594 C 72.09375 31.945312 72.09375 31.332031 72.09375 30.699219 C 71.632812 30.542969 71.171875 30.390625 70.699219 30.230469 C 70.699219 29.769531 70.699219 29.3125 70.699219 28.835938 Z M 70.699219 28.835938 "/>
<path style=" stroke:none;fill-rule:nonzero;fill:rgb(91.764706%,57.647061%,61.176473%);fill-opacity:1;" d="M 48.835938 31.164062 C 50.21875 31.164062 51.597656 31.164062 53.023438 31.164062 C 51.695312 32.246094 50.445312 32.90625 48.835938 33.488281 C 48.835938 32.722656 48.835938 31.953125 48.835938 31.164062 Z M 48.835938 31.164062 "/>
<path style=" stroke:none;fill-rule:nonzero;fill:rgb(92.156863%,58.823532%,60.784316%);fill-opacity:1;" d="M 33.488281 12.558594 C 37.035156 13.371094 37.035156 13.371094 38.605469 14.417969 C 37.183594 14.875 36.304688 14.875 34.882812 14.417969 C 34.882812 14.113281 34.882812 13.804688 34.882812 13.488281 C 34.425781 13.488281 33.964844 13.488281 33.488281 13.488281 C 33.488281 13.183594 33.488281 12.875 33.488281 12.558594 Z M 33.488281 12.558594 "/>
<path style=" stroke:none;fill-rule:nonzero;fill:rgb(87.843138%,54.11765%,58.039218%);fill-opacity:1;" d="M 52.09375 86.046875 C 52.402344 86.046875 52.707031 86.046875 53.023438 86.046875 C 53.023438 86.816406 53.023438 87.582031 53.023438 88.371094 C 52.101562 88.371094 51.183594 88.371094 50.230469 88.371094 C 50.828125 87.578125 51.449219 86.800781 52.09375 86.046875 Z M 52.09375 86.046875 "/>
<path style=" stroke:none;fill-rule:nonzero;fill:rgb(90.196079%,64.313728%,63.137257%);fill-opacity:1;" d="M 52.09375 61.859375 C 52.558594 63.253906 52.558594 63.253906 52.121094 64.273438 C 51.878906 64.691406 51.878906 64.691406 51.628906 65.117188 C 50.246094 64.886719 50.246094 64.886719 48.835938 64.652344 C 49.296875 64.34375 49.757812 64.035156 50.230469 63.722656 C 50.863281 63.109375 51.484375 62.492188 52.09375 61.859375 Z M 52.09375 61.859375 "/>
<path style=" stroke:none;fill-rule:nonzero;fill:rgb(92.941177%,64.313728%,66.274512%);fill-opacity:1;" d="M 16.746094 58.605469 C 17.277344 59.050781 17.8125 59.496094 18.34375 59.941406 C 18.640625 60.191406 18.9375 60.4375 19.242188 60.695312 C 20 61.394531 20 61.394531 20.464844 62.324219 C 19.390625 62.238281 19.390625 62.238281 18.140625 61.859375 C 16.746094 59.984375 16.746094 59.984375 16.746094 58.605469 Z M 16.746094 58.605469 "/>
<path style=" stroke:none;fill-rule:nonzero;fill:rgb(97.647059%,46.666667%,54.509807%);fill-opacity:1;" d="M 23.722656 66.976562 C 24.183594 67.128906 24.640625 67.285156 25.117188 67.441406 C 24.964844 67.902344 24.808594 68.363281 24.652344 68.835938 C 23.691406 69.15625 23.691406 69.15625 22.792969 69.300781 C 22.792969 68.6875 22.792969 68.074219 22.792969 67.441406 C 23.097656 67.289062 23.402344 67.136719 23.722656 66.976562 Z M 23.722656 66.976562 "/>
<path style=" stroke:none;fill-rule:nonzero;fill:rgb(91.764706%,49.411765%,53.725493%);fill-opacity:1;" d="M 59.070312 80.929688 C 60.222656 81.390625 60.222656 81.390625 61.394531 81.859375 C 60.933594 82.320312 60.472656 82.78125 60 83.253906 C 59.539062 82.792969 59.078125 82.335938 58.605469 81.859375 C 58.757812 81.554688 58.910156 81.246094 59.070312 80.929688 Z M 59.070312 80.929688 "/>
<path style=" stroke:none;fill-rule:nonzero;fill:rgb(93.725491%,62.352943%,65.098041%);fill-opacity:1;" d="M 22.324219 64.183594 C 22.871094 64.550781 23.414062 64.917969 23.953125 65.292969 C 24.40625 65.597656 24.40625 65.597656 24.871094 65.910156 C 25.105469 66.109375 25.339844 66.308594 25.582031 66.511719 C 25.582031 66.816406 25.582031 67.125 25.582031 67.441406 C 24.816406 67.289062 24.046875 67.136719 23.253906 66.976562 C 22.949219 66.054688 22.640625 65.136719 22.324219 64.183594 Z M 22.324219 64.183594 "/>
<path style=" stroke:none;fill-rule:nonzero;fill:rgb(92.941177%,60.392159%,63.137257%);fill-opacity:1;" d="M 44.652344 33.023438 C 44.652344 33.332031 44.652344 33.636719 44.652344 33.953125 C 43.882812 33.953125 43.117188 33.953125 42.324219 33.953125 C 42.480469 34.566406 42.632812 35.183594 42.792969 35.816406 C 42.332031 35.816406 41.871094 35.816406 41.394531 35.816406 C 41.570312 34.679688 41.570312 34.679688 41.859375 33.488281 C 42.792969 33.023438 42.792969 33.023438 44.652344 33.023438 Z M 44.652344 33.023438 "/>
<path style=" stroke:none;fill-rule:nonzero;fill:rgb(92.941177%,60.392159%,63.529414%);fill-opacity:1;" d="M 65.582031 32.558594 C 66.808594 32.710938 68.035156 32.863281 69.300781 33.023438 C 68.996094 33.636719 68.6875 34.25 68.371094 34.882812 C 67.433594 34.277344 66.503906 33.65625 65.582031 33.023438 C 65.582031 32.871094 65.582031 32.714844 65.582031 32.558594 Z M 65.582031 32.558594 "/>
<path style=" stroke:none;fill-rule:nonzero;fill:rgb(81.176472%,58.431375%,59.215689%);fill-opacity:1;" d="M 34.882812 28.835938 C 35.496094 28.835938 36.113281 28.835938 36.746094 28.835938 C 36.898438 29.449219 37.050781 30.066406 37.207031 30.699219 C 36.441406 30.542969 35.675781 30.390625 34.882812 30.230469 C 34.882812 29.769531 34.882812 29.3125 34.882812 28.835938 Z M 34.882812 28.835938 "/>
<path style=" stroke:none;fill-rule:nonzero;fill:rgb(92.54902%,65.098041%,67.450982%);fill-opacity:1;" d="M 40.929688 15.816406 C 41.878906 16.40625 42.808594 17.027344 43.722656 17.675781 C 43.722656 17.980469 43.722656 18.289062 43.722656 18.605469 C 44.183594 18.757812 44.640625 18.910156 45.117188 19.070312 C 44.503906 19.070312 43.886719 19.070312 43.253906 19.070312 C 43.253906 18.761719 43.253906 18.457031 43.253906 18.140625 C 42.640625 17.988281 42.027344 17.832031 41.394531 17.675781 C 41.242188 17.058594 41.089844 16.445312 40.929688 15.816406 Z M 40.929688 15.816406 "/>
<path style=" stroke:none;fill-rule:nonzero;fill:rgb(93.333334%,58.039218%,61.176473%);fill-opacity:1;" d="M 20.464844 13.023438 C 20.3125 13.484375 20.160156 13.945312 20 14.417969 C 18.925781 14.417969 17.851562 14.417969 16.746094 14.417969 C 18.167969 13.199219 18.480469 13.023438 20.464844 13.023438 Z M 20.464844 13.023438 "/>
</g>
</svg>
