<?xml version="1.0" encoding="UTF-8"?>
<svg xmlns="http://www.w3.org/2000/svg" xmlns:xlink="http://www.w3.org/1999/xlink" width="150px" height="150px" viewBox="0 0 150 150" version="1.1">
<g id="surface1">
<path style=" stroke:none;fill-rule:nonzero;fill:rgb(20.392157%,65.882355%,32.549021%);fill-opacity:1;" d="M 103.488281 49.582031 C 103.96875 49.863281 104.453125 50.144531 104.933594 50.425781 C 108.078125 52.257812 111.203125 54.128906 114.316406 56.011719 C 117.679688 58.042969 121.089844 59.996094 124.503906 61.941406 C 135.164062 68.046875 135.164062 68.046875 136.496094 72.726562 C 136.996094 75.714844 136.542969 78.320312 134.890625 80.855469 C 132.917969 83.0625 130.675781 84.597656 128.074219 85.964844 C 124.625 87.828125 121.238281 89.785156 117.863281 91.769531 C 117.34375 92.078125 116.820312 92.382812 116.300781 92.691406 C 114.753906 93.597656 113.210938 94.507812 111.667969 95.417969 C 94.523438 105.507812 94.523438 105.507812 90 105 C 86.628906 104.066406 84.34375 102.046875 82.527344 99.113281 C 81.460938 96.132812 81.636719 92.683594 82.917969 89.816406 C 84.734375 86.1875 89.320312 84.296875 92.683594 82.394531 C 93.644531 81.847656 94.605469 81.296875 95.566406 80.746094 C 96.035156 80.480469 96.503906 80.210938 96.988281 79.9375 C 98.851562 78.871094 100.703125 77.785156 102.550781 76.691406 C 102.996094 76.429688 102.996094 76.429688 103.449219 76.164062 C 104.105469 75.777344 104.761719 75.386719 105.417969 75 C 102.429688 72.90625 99.292969 71.144531 96.09375 69.402344 C 83.882812 62.746094 83.882812 62.746094 82.082031 58.175781 C 81.257812 55.203125 81.683594 52.222656 83.183594 49.535156 C 88.867188 41.667969 96.730469 45.601562 103.488281 49.582031 Z M 103.488281 49.582031 "/>
<path style=" stroke:none;fill-rule:nonzero;fill:rgb(26.666668%,52.549022%,94.901961%);fill-opacity:1;" d="M 62.238281 45.703125 C 64.929688 47.257812 66.925781 49.5625 67.917969 52.5 C 68.257812 56.027344 68.03125 58.503906 65.957031 61.410156 C 64.867188 62.652344 63.691406 63.457031 62.292969 64.296875 C 62.015625 64.46875 61.738281 64.636719 61.453125 64.8125 C 56.984375 67.523438 52.417969 70.074219 47.867188 72.644531 C 47.472656 72.871094 47.074219 73.097656 46.667969 73.332031 C 46.28125 73.550781 45.890625 73.769531 45.492188 73.996094 C 44.535156 74.507812 44.535156 74.507812 44.167969 75.417969 C 44.535156 75.527344 44.902344 75.640625 45.28125 75.757812 C 46.585938 76.222656 47.660156 76.757812 48.847656 77.460938 C 49.257812 77.699219 49.664062 77.941406 50.082031 78.1875 C 50.511719 78.441406 50.9375 78.695312 51.378906 78.957031 C 52.273438 79.488281 53.171875 80.015625 54.066406 80.546875 C 54.503906 80.804688 54.945312 81.066406 55.398438 81.335938 C 56.535156 82.007812 57.679688 82.667969 58.824219 83.320312 C 59.144531 83.507812 59.464844 83.691406 59.796875 83.878906 C 60.382812 84.214844 60.96875 84.550781 61.554688 84.882812 C 64.457031 86.558594 66.832031 88.832031 67.917969 92.082031 C 68.183594 95.285156 68.296875 98.21875 66.25 100.832031 C 63.9375 103.367188 61.566406 104.785156 58.152344 105.15625 C 54.289062 104.75 51.089844 102.851562 47.761719 100.964844 C 47.265625 100.6875 46.773438 100.410156 46.277344 100.132812 C 42.308594 97.898438 38.386719 95.582031 34.476562 93.246094 C 31.542969 91.496094 28.59375 89.78125 25.625 88.097656 C 14.988281 82.039062 14.988281 82.039062 13.527344 77.542969 C 12.894531 74.699219 13.238281 72.15625 14.582031 69.582031 C 16.152344 67.335938 17.894531 66.023438 20.3125 64.792969 C 20.980469 64.4375 21.648438 64.078125 22.3125 63.722656 C 22.675781 63.53125 23.035156 63.335938 23.410156 63.136719 C 25.621094 61.9375 27.796875 60.664062 29.972656 59.402344 C 30.4375 59.132812 30.902344 58.863281 31.382812 58.585938 C 32.726562 57.808594 34.070312 57.03125 35.417969 56.25 C 36.140625 55.832031 36.867188 55.410156 37.589844 54.992188 C 38.246094 54.613281 38.902344 54.234375 39.558594 53.855469 C 39.871094 53.671875 40.179688 53.492188 40.503906 53.308594 C 42.15625 52.347656 43.8125 51.386719 45.460938 50.425781 C 45.816406 50.21875 46.171875 50.011719 46.535156 49.800781 C 47.207031 49.410156 47.875 49.019531 48.546875 48.625 C 57.453125 43.441406 57.453125 43.441406 62.238281 45.703125 Z M 62.238281 45.703125 "/>
<path style=" stroke:none;fill-rule:nonzero;fill:rgb(97.647059%,73.725492%,1.960784%);fill-opacity:1;" d="M 105.832031 74.582031 C 106.109375 74.582031 106.382812 74.582031 106.667969 74.582031 C 106.667969 74.859375 106.667969 75.132812 106.667969 75.417969 C 106.941406 75.519531 107.214844 75.621094 107.5 75.730469 C 110.054688 76.792969 112.46875 78.109375 114.878906 79.464844 C 115.515625 79.824219 116.15625 80.175781 116.800781 80.523438 C 118.324219 81.347656 119.761719 82.1875 121.144531 83.230469 C 123.34375 84.75 125.707031 84.859375 128.332031 84.582031 C 128.621094 84.4375 128.90625 84.289062 129.203125 84.136719 C 130 83.75 130 83.75 131.25 84.167969 C 130.847656 84.386719 130.449219 84.605469 130.035156 84.828125 C 125.9375 87.074219 121.890625 89.402344 117.863281 91.769531 C 117.605469 91.921875 117.347656 92.074219 117.082031 92.230469 C 115.277344 93.292969 113.472656 94.355469 111.667969 95.417969 C 94.523438 105.507812 94.523438 105.507812 90 105 C 86.628906 104.066406 84.34375 102.046875 82.527344 99.113281 C 81.460938 96.132812 81.636719 92.683594 82.917969 89.816406 C 84.734375 86.1875 89.320312 84.296875 92.683594 82.394531 C 93.644531 81.847656 94.605469 81.296875 95.570312 80.746094 C 96.039062 80.476562 96.507812 80.210938 96.988281 79.933594 C 98.84375 78.875 100.6875 77.800781 102.527344 76.71875 C 102.816406 76.546875 103.109375 76.375 103.410156 76.199219 C 104.695312 75.492188 104.695312 75.492188 105.832031 74.582031 Z M 105.832031 74.582031 "/>
<path style=" stroke:none;fill-rule:nonzero;fill:rgb(90.980393%,26.274511%,21.568628%);fill-opacity:1;" d="M 62.238281 45.703125 C 64.929688 47.257812 66.925781 49.5625 67.917969 52.5 C 68.257812 56.027344 68.03125 58.503906 65.957031 61.410156 C 64.867188 62.652344 63.691406 63.457031 62.292969 64.296875 C 62.015625 64.464844 61.738281 64.636719 61.453125 64.8125 C 57.875 66.984375 54.226562 69.039062 50.585938 71.101562 C 50.214844 71.3125 50.214844 71.3125 49.832031 71.527344 C 49.144531 71.917969 48.460938 72.304688 47.773438 72.691406 C 46.972656 73.15625 46.1875 73.652344 45.417969 74.167969 C 43.390625 74.546875 41.753906 74.371094 40.027344 73.230469 C 39.757812 73.039062 39.492188 72.851562 39.21875 72.65625 C 37.90625 71.808594 36.496094 71.296875 35.042969 70.75 C 34.167969 70.417969 34.167969 70.417969 33.332031 70 C 33.332031 69.726562 33.332031 69.449219 33.332031 69.167969 C 33.050781 69.0625 32.765625 68.960938 32.472656 68.855469 C 31.25 68.332031 31.25 68.332031 29.871094 67.527344 C 27.21875 65.988281 24.714844 65.273438 21.667969 65 C 21.941406 64.726562 22.214844 64.449219 22.5 64.167969 C 23.050781 64.167969 23.601562 64.167969 24.167969 64.167969 C 24.191406 63.917969 24.214844 63.671875 24.242188 63.417969 C 24.734375 62.089844 25.492188 61.816406 26.714844 61.132812 C 27.164062 60.878906 27.609375 60.625 28.070312 60.363281 C 28.558594 60.09375 29.042969 59.828125 29.53125 59.558594 C 30.027344 59.277344 30.527344 58.996094 31.023438 58.714844 C 32.019531 58.152344 33.019531 57.59375 34.019531 57.035156 C 35.875 55.992188 37.71875 54.925781 39.558594 53.855469 C 40.183594 53.492188 40.8125 53.128906 41.4375 52.765625 C 42.78125 51.988281 44.121094 51.207031 45.460938 50.425781 C 45.816406 50.21875 46.171875 50.011719 46.535156 49.800781 C 47.207031 49.410156 47.875 49.019531 48.546875 48.625 C 57.453125 43.441406 57.453125 43.441406 62.238281 45.703125 Z M 62.238281 45.703125 "/>
<path style=" stroke:none;fill-rule:nonzero;fill:rgb(94.117647%,80.784315%,32.549021%);fill-opacity:1;" d="M 120.417969 83.332031 C 120.800781 83.46875 120.800781 83.46875 121.195312 83.605469 C 123.574219 84.390625 125.820312 84.960938 128.332031 84.582031 C 128.617188 84.433594 128.902344 84.285156 129.195312 84.132812 C 130 83.75 130 83.75 131.25 84.167969 C 130.847656 84.386719 130.449219 84.605469 130.035156 84.828125 C 124.578125 87.820312 119.21875 90.976562 113.855469 94.128906 C 110.5 96.105469 107.125 98.054688 103.75 100 C 103.613281 99.726562 103.476562 99.449219 103.332031 99.167969 C 103.871094 98.816406 104.410156 98.46875 104.949219 98.125 C 105.246094 97.933594 105.546875 97.738281 105.855469 97.539062 C 106.667969 97.082031 106.667969 97.082031 107.5 97.082031 C 107.636719 96.535156 107.773438 95.984375 107.917969 95.417969 C 108.378906 95.3125 108.84375 95.210938 109.324219 95.105469 C 110.851562 94.746094 110.851562 94.746094 111.433594 93.699219 C 111.507812 93.441406 111.585938 93.183594 111.667969 92.917969 C 112.355469 92.917969 113.042969 92.917969 113.75 92.917969 C 113.75 92.503906 113.75 92.089844 113.75 91.667969 C 114.324219 91.476562 114.894531 91.285156 115.46875 91.09375 C 115.980469 90.921875 115.980469 90.921875 116.5 90.746094 C 117.316406 90.476562 118.136719 90.222656 118.957031 89.972656 C 120.0625 89.695312 120.0625 89.695312 120.417969 88.75 C 120.828125 88.75 121.242188 88.75 121.667969 88.75 C 121.804688 88.335938 121.941406 87.925781 122.082031 87.5 C 122.496094 87.363281 122.910156 87.226562 123.332031 87.082031 C 123.472656 86.394531 123.609375 85.707031 123.75 85 C 122.925781 85 122.101562 85 121.25 85 C 120.976562 84.449219 120.699219 83.898438 120.417969 83.332031 Z M 120.417969 83.332031 "/>
<path style=" stroke:none;fill-rule:nonzero;fill:rgb(95.294118%,84.705883%,45.490196%);fill-opacity:1;" d="M 82.5 97.5 C 83.515625 97.761719 83.515625 97.761719 84.582031 98.332031 C 84.921875 99.636719 84.921875 99.636719 85 100.832031 C 85.273438 100.832031 85.550781 100.832031 85.832031 100.832031 C 85.832031 101.109375 85.832031 101.382812 85.832031 101.667969 C 86.660156 101.941406 87.484375 102.214844 88.332031 102.5 C 88.332031 102.914062 88.332031 103.324219 88.332031 103.75 C 91.222656 103.957031 91.222656 103.957031 94.167969 104.167969 C 94.167969 103.890625 94.167969 103.617188 94.167969 103.332031 C 95.378906 102.808594 96.164062 102.5 97.5 102.5 C 97.5 102.226562 97.5 101.949219 97.5 101.667969 C 99.496094 100.519531 101.078125 100.195312 103.332031 100 C 101.847656 101.207031 100.226562 102.074219 98.542969 102.96875 C 98.265625 103.117188 97.988281 103.269531 97.703125 103.421875 C 94.875 104.929688 92.1875 105.605469 89.023438 104.730469 C 86.40625 103.683594 84.277344 102.023438 82.835938 99.570312 C 82.5 98.75 82.5 98.75 82.5 97.5 Z M 82.5 97.5 "/>
<path style=" stroke:none;fill-rule:nonzero;fill:rgb(36.078432%,67.450982%,42.745098%);fill-opacity:1;" d="M 128.75 65 C 131.796875 65.625 134.078125 67.871094 135.832031 70.339844 C 136.800781 73.429688 136.929688 76.160156 135.828125 79.21875 C 135.417969 80 135.417969 80 134.167969 81.25 C 134.027344 79.738281 133.890625 78.226562 133.75 76.667969 C 134.300781 76.804688 134.851562 76.941406 135.417969 77.082031 C 135.21875 76.476562 135.019531 75.867188 134.816406 75.261719 C 134.707031 74.921875 134.59375 74.582031 134.480469 74.234375 C 134.1875 73.328125 134.1875 73.328125 133.75 72.5 C 133.65625 71.859375 133.578125 71.21875 133.515625 70.574219 C 133.464844 70.0625 133.464844 70.0625 133.410156 69.539062 C 133.382812 69.28125 133.359375 69.019531 133.332031 68.75 C 133.058594 68.75 132.785156 68.75 132.5 68.75 C 132.5 68.335938 132.5 67.925781 132.5 67.5 C 131.8125 67.5 131.125 67.5 130.417969 67.5 C 130.277344 67.085938 130.140625 66.675781 130 66.25 C 129.375 65.554688 129.375 65.554688 128.75 65 Z M 128.75 65 "/>
<path style=" stroke:none;fill-rule:nonzero;fill:rgb(48.235294%,75.294119%,54.901963%);fill-opacity:1;" d="M 96.667969 46.25 C 98.773438 46.855469 100.484375 47.78125 102.34375 48.90625 C 102.644531 49.085938 102.945312 49.265625 103.253906 49.449219 C 104.253906 50.046875 105.25 50.648438 106.25 51.25 C 107.023438 51.710938 107.792969 52.175781 108.566406 52.636719 C 110.574219 53.839844 112.578125 55.042969 114.582031 56.25 C 113.75 56.667969 113.75 56.667969 112.449219 56.277344 C 112.050781 56.128906 111.65625 55.984375 111.25 55.832031 C 111.25 55.558594 111.25 55.285156 111.25 55 C 110.011719 55 108.773438 55 107.5 55 C 106.667969 53.332031 106.667969 53.332031 106.667969 52.082031 C 106.339844 52.011719 106.011719 51.941406 105.675781 51.867188 C 99.578125 50.460938 99.578125 50.460938 98.152344 48.230469 C 98.074219 47.988281 97.996094 47.746094 97.917969 47.5 C 97.640625 47.5 97.367188 47.5 97.082031 47.5 C 96.945312 47.085938 96.808594 46.675781 96.667969 46.25 Z M 96.667969 46.25 "/>
<path style=" stroke:none;fill-rule:nonzero;fill:rgb(49.803922%,66.274512%,88.235295%);fill-opacity:1;" d="M 60 84.582031 C 63.738281 85.652344 65.628906 87.519531 67.5 90.832031 C 68.398438 93.535156 68.40625 96.863281 67.160156 99.453125 C 66.25 100.832031 66.25 100.832031 65 101.667969 C 65 100.429688 65 99.191406 65 97.917969 C 65.550781 97.777344 66.101562 97.640625 66.667969 97.5 C 66.660156 96.972656 66.660156 96.972656 66.652344 96.4375 C 66.648438 95.980469 66.644531 95.523438 66.640625 95.050781 C 66.636719 94.597656 66.632812 94.144531 66.625 93.675781 C 66.667969 92.5 66.667969 92.5 67.082031 91.667969 C 66.808594 91.667969 66.535156 91.667969 66.25 91.667969 C 65.507812 90.566406 65.003906 89.59375 64.582031 88.332031 C 64.171875 88.332031 63.757812 88.332031 63.332031 88.332031 C 63.195312 88.058594 63.058594 87.785156 62.917969 87.5 C 62.503906 87.226562 62.089844 86.949219 61.667969 86.667969 C 61.804688 86.527344 61.941406 86.390625 62.082031 86.25 C 61.816406 86.207031 61.550781 86.164062 61.277344 86.121094 C 60.992188 86.023438 60.707031 85.929688 60.417969 85.832031 C 60.277344 85.421875 60.140625 85.007812 60 84.582031 Z M 60 84.582031 "/>
<path style=" stroke:none;fill-rule:nonzero;fill:rgb(27.058825%,52.156866%,92.941177%);fill-opacity:1;" d="M 23.75 62.917969 C 24.023438 63.054688 24.300781 63.191406 24.582031 63.332031 C 24.167969 64.167969 24.167969 64.167969 22.890625 64.636719 C 22.488281 64.753906 22.082031 64.875 21.667969 65 C 21.804688 65.273438 21.941406 65.550781 22.082031 65.832031 C 21.808594 65.832031 21.535156 65.832031 21.25 65.832031 C 20.617188 67.058594 20.082031 68.296875 19.582031 69.582031 C 19.308594 69.171875 19.035156 68.757812 18.75 68.332031 C 17.199219 68.789062 17.199219 68.789062 16.199219 69.972656 C 16.078125 70.257812 15.957031 70.542969 15.832031 70.832031 C 15.625 70.992188 15.417969 71.148438 15.203125 71.3125 C 14.246094 72.5 14.34375 73.820312 14.296875 75.285156 C 14.28125 75.578125 14.269531 75.871094 14.253906 76.171875 C 14.21875 76.894531 14.191406 77.613281 14.167969 78.332031 C 13.011719 76.289062 13.027344 74.304688 13.527344 72.035156 C 14.996094 67.570312 18.371094 65.730469 22.296875 63.59375 C 22.777344 63.371094 23.257812 63.148438 23.75 62.917969 Z M 23.75 62.917969 "/>
<path style=" stroke:none;fill-rule:nonzero;fill:rgb(58.431375%,80.784315%,65.098041%);fill-opacity:1;" d="M 96.667969 45.832031 C 94.605469 46.511719 92.441406 46.214844 90.304688 46.140625 C 88.347656 46.277344 87.042969 46.898438 85.496094 48.074219 C 84.847656 48.957031 84.730469 49.757812 84.582031 50.832031 C 84.308594 50.832031 84.035156 50.832031 83.75 50.832031 C 83.613281 53.859375 83.476562 56.882812 83.332031 60 C 81.621094 57.714844 81.414062 55.566406 81.804688 52.75 C 82.597656 49.84375 84.515625 47.363281 87.046875 45.738281 C 90.027344 44.429688 93.710938 44.554688 96.667969 45.832031 Z M 96.667969 45.832031 "/>
<path style=" stroke:none;fill-rule:nonzero;fill:rgb(85.490197%,27.843139%,24.705882%);fill-opacity:1;" d="M 62.238281 45.703125 C 64.226562 46.855469 65.867188 48.46875 67.082031 50.417969 C 67.371094 51.5625 67.371094 51.5625 67.5 52.5 C 66.675781 52.363281 65.851562 52.226562 65 52.082031 C 64.863281 50.984375 64.726562 49.882812 64.582031 48.75 C 63.550781 48.542969 63.550781 48.542969 62.5 48.332031 C 62.5 47.921875 62.5 47.507812 62.5 47.082031 C 62.226562 47.082031 61.949219 47.082031 61.667969 47.082031 C 61.667969 46.808594 61.667969 46.535156 61.667969 46.25 C 58.695312 45.417969 56.46875 45.628906 53.75 47.082031 C 52.847656 46.914062 52.847656 46.914062 52.082031 46.667969 C 55.347656 44.863281 58.71875 44.078125 62.238281 45.703125 Z M 62.238281 45.703125 "/>
<path style=" stroke:none;fill-rule:nonzero;fill:rgb(94.117647%,81.568629%,35.294119%);fill-opacity:1;" d="M 106.667969 74.582031 C 106.667969 74.859375 106.667969 75.132812 106.667969 75.417969 C 106.96875 75.535156 107.269531 75.65625 107.578125 75.78125 C 108.664062 76.214844 109.75 76.648438 110.832031 77.082031 C 109.351562 77.578125 108.875 77.375 107.421875 76.902344 C 107.046875 76.78125 106.671875 76.660156 106.285156 76.539062 C 105.996094 76.441406 105.710938 76.347656 105.417969 76.25 C 105.277344 76.664062 105.140625 77.074219 105 77.5 C 104.171875 77.792969 103.339844 78.070312 102.5 78.332031 C 101.941406 78.746094 101.386719 79.164062 100.832031 79.582031 C 98.019531 80.992188 98.019531 80.992188 96.25 80.417969 C 96.453125 80.300781 96.652344 80.183594 96.859375 80.0625 C 97.785156 79.519531 98.710938 78.980469 99.636719 78.4375 C 99.953125 78.253906 100.269531 78.066406 100.59375 77.878906 C 102.011719 77.046875 103.410156 76.210938 104.761719 75.28125 C 105.832031 74.582031 105.832031 74.582031 106.667969 74.582031 Z M 106.667969 74.582031 "/>
<path style=" stroke:none;fill-rule:nonzero;fill:rgb(42.745098%,60.392159%,90.196079%);fill-opacity:1;" d="M 16.25 81.667969 C 18.433594 81.839844 19.683594 82.183594 21.25 83.75 C 21.25 84.023438 21.25 84.300781 21.25 84.582031 C 23.324219 84.898438 23.324219 84.898438 25.417969 85 C 25.691406 85.960938 25.964844 86.925781 26.25 87.917969 C 24.320312 87.214844 22.570312 86.257812 20.78125 85.261719 C 20.484375 85.097656 20.183594 84.9375 19.878906 84.773438 C 18.339844 83.917969 17.167969 83.226562 16.25 81.667969 Z M 16.25 81.667969 "/>
<path style=" stroke:none;fill-rule:nonzero;fill:rgb(85.09804%,81.960785%,36.078432%);fill-opacity:1;" d="M 120.417969 83.332031 C 120.675781 83.421875 120.929688 83.515625 121.195312 83.605469 C 123.574219 84.390625 125.820312 84.960938 128.332031 84.582031 C 128.617188 84.433594 128.902344 84.285156 129.195312 84.132812 C 130 83.75 130 83.75 131.25 84.167969 C 130.195312 84.796875 129.136719 85.421875 128.074219 86.042969 C 127.777344 86.21875 127.480469 86.398438 127.171875 86.582031 C 125.40625 87.605469 124.1875 88.15625 122.082031 87.917969 C 122.496094 87.640625 122.910156 87.367188 123.332031 87.082031 C 123.636719 86.015625 123.636719 86.015625 123.75 85 C 122.925781 85 122.101562 85 121.25 85 C 120.976562 84.449219 120.699219 83.898438 120.417969 83.332031 Z M 120.417969 83.332031 "/>
<path style=" stroke:none;fill-rule:nonzero;fill:rgb(88.627452%,52.549022%,47.450981%);fill-opacity:1;" d="M 44.167969 51.667969 C 44.167969 51.941406 44.167969 52.214844 44.167969 52.5 C 43.890625 52.5 43.617188 52.5 43.332031 52.5 C 43.195312 52.914062 43.058594 53.324219 42.917969 53.75 C 42.363281 53.898438 41.808594 54.035156 41.25 54.167969 C 41.050781 54.382812 40.855469 54.597656 40.652344 54.816406 C 40 55.417969 40 55.417969 38.878906 55.496094 C 38.5625 55.46875 38.246094 55.441406 37.917969 55.417969 C 37.917969 55.691406 37.917969 55.964844 37.917969 56.25 C 37.367188 56.386719 36.816406 56.523438 36.25 56.667969 C 36.113281 57.214844 35.976562 57.765625 35.832031 58.332031 C 35.285156 58.472656 34.734375 58.609375 34.167969 58.75 C 34.167969 58.476562 34.167969 58.199219 34.167969 57.917969 C 33.890625 57.777344 33.617188 57.640625 33.332031 57.5 C 34.84375 56.605469 36.355469 55.710938 37.863281 54.816406 C 38.292969 54.5625 38.726562 54.308594 39.167969 54.046875 C 39.578125 53.800781 39.988281 53.558594 40.414062 53.308594 C 40.984375 52.972656 40.984375 52.972656 41.5625 52.628906 C 43.214844 51.667969 43.214844 51.667969 44.167969 51.667969 Z M 44.167969 51.667969 "/>
<path style=" stroke:none;fill-rule:nonzero;fill:rgb(50.196081%,75.294119%,56.862748%);fill-opacity:1;" d="M 85.417969 62.5 C 87.0625 62.730469 88.480469 63.078125 90 63.75 C 90 64.023438 90 64.300781 90 64.582031 C 91.03125 64.996094 91.03125 64.996094 92.082031 65.417969 C 92.082031 65.691406 92.082031 65.964844 92.082031 66.25 C 93.046875 66.386719 94.007812 66.523438 95 66.667969 C 95 66.941406 95 67.214844 95 67.5 C 95.273438 67.636719 95.550781 67.773438 95.832031 67.917969 C 95.832031 68.191406 95.832031 68.464844 95.832031 68.75 C 93.570312 68.113281 91.695312 67.050781 89.6875 65.859375 C 89.367188 65.675781 89.046875 65.492188 88.71875 65.300781 C 88.414062 65.121094 88.109375 64.941406 87.792969 64.753906 C 87.515625 64.589844 87.238281 64.429688 86.957031 64.261719 C 86.25 63.75 86.25 63.75 85.417969 62.5 Z M 85.417969 62.5 "/>
<path style=" stroke:none;fill-rule:nonzero;fill:rgb(58.039218%,72.156864%,91.37255%);fill-opacity:1;" d="M 36.25 93.75 C 37.210938 93.886719 38.175781 94.023438 39.167969 94.167969 C 39.167969 94.441406 39.167969 94.714844 39.167969 95 C 41.359375 95.886719 41.359375 95.886719 43.644531 96.40625 C 44.582031 96.667969 44.582031 96.667969 45.390625 97.683594 C 46.414062 98.953125 47.191406 99.195312 48.75 99.582031 C 48.066406 100.074219 48.066406 100.074219 47.082031 100.417969 C 45.945312 99.988281 45.945312 99.988281 44.65625 99.25 C 44.195312 98.988281 43.730469 98.726562 43.253906 98.457031 C 43.015625 98.316406 42.777344 98.175781 42.53125 98.03125 C 41.796875 97.605469 41.0625 97.1875 40.324219 96.769531 C 36.730469 94.710938 36.730469 94.710938 36.25 93.75 Z M 36.25 93.75 "/>
<path style=" stroke:none;fill-rule:nonzero;fill:rgb(86.274511%,44.705883%,41.960785%);fill-opacity:1;" d="M 56.667969 67.5 C 55.082031 68.460938 53.496094 69.417969 51.90625 70.371094 C 51.367188 70.695312 50.824219 71.023438 50.285156 71.351562 C 49.511719 71.820312 48.734375 72.285156 47.960938 72.75 C 47.492188 73.03125 47.023438 73.3125 46.542969 73.601562 C 46.171875 73.789062 45.800781 73.976562 45.417969 74.167969 C 45.140625 74.027344 44.867188 73.890625 44.582031 73.75 C 44.816406 72.941406 44.816406 72.941406 45.417969 72.082031 C 46.925781 71.769531 46.925781 71.769531 48.332031 71.667969 C 48.332031 71.390625 48.332031 71.117188 48.332031 70.832031 C 49.160156 70.695312 49.984375 70.558594 50.832031 70.417969 C 50.832031 70.140625 50.832031 69.867188 50.832031 69.582031 C 51.109375 69.308594 51.382812 69.035156 51.667969 68.75 C 52.214844 68.75 52.765625 68.75 53.332031 68.75 C 53.472656 68.335938 53.609375 67.925781 53.75 67.5 C 55.730469 67.03125 55.730469 67.03125 56.667969 67.5 Z M 56.667969 67.5 "/>
<path style=" stroke:none;fill-rule:nonzero;fill:rgb(67.843139%,35.686275%,47.843137%);fill-opacity:1;" d="M 30.832031 67.5 C 31.933594 67.636719 33.035156 67.773438 34.167969 67.917969 C 34.167969 68.191406 34.167969 68.464844 34.167969 68.75 C 34.441406 68.75 34.714844 68.75 35 68.75 C 35 69.164062 35 69.574219 35 70 C 35.285156 70.085938 35.574219 70.171875 35.867188 70.257812 C 36.242188 70.371094 36.617188 70.484375 37.003906 70.597656 C 37.378906 70.710938 37.75 70.820312 38.132812 70.9375 C 38.898438 71.167969 39.660156 71.414062 40.417969 71.667969 C 40.417969 72.078125 40.417969 72.492188 40.417969 72.917969 C 40.683594 72.96875 40.949219 73.019531 41.222656 73.074219 C 41.507812 73.160156 41.792969 73.246094 42.082031 73.332031 C 42.222656 73.609375 42.359375 73.882812 42.5 74.167969 C 40.203125 73.488281 40.203125 73.488281 39.214844 72.734375 C 38.242188 72.015625 37.324219 71.625 36.199219 71.199219 C 34.199219 70.433594 34.199219 70.433594 33.332031 70 C 33.332031 69.726562 33.332031 69.449219 33.332031 69.167969 C 33 69.046875 32.664062 68.925781 32.316406 68.800781 C 31.25 68.332031 31.25 68.332031 30.832031 67.5 Z M 30.832031 67.5 "/>
<path style=" stroke:none;fill-rule:nonzero;fill:rgb(36.862746%,64.313728%,18.039216%);fill-opacity:1;" d="M 106.667969 75 C 107.839844 74.921875 107.839844 74.921875 109.167969 75 C 109.582031 75.417969 110 75.832031 110.417969 76.25 C 111.195312 76.648438 111.984375 77.019531 112.785156 77.371094 C 113.199219 77.550781 113.613281 77.734375 114.042969 77.921875 C 114.515625 78.125 114.515625 78.125 115 78.332031 C 115 78.609375 115 78.882812 115 79.167969 C 115.824219 79.441406 116.648438 79.714844 117.5 80 C 117.5 80.273438 117.5 80.550781 117.5 80.832031 C 115.015625 80.335938 113.242188 79.207031 111.140625 77.8125 C 109.695312 76.886719 108.21875 76.148438 106.667969 75.417969 C 106.667969 75.277344 106.667969 75.140625 106.667969 75 Z M 106.667969 75 "/>
<path style=" stroke:none;fill-rule:nonzero;fill:rgb(45.882353%,74.901962%,54.509807%);fill-opacity:1;" d="M 106.667969 52.5 C 108.789062 52.703125 110.277344 53.460938 112.03125 54.609375 C 112.402344 54.84375 112.402344 54.84375 112.78125 55.085938 C 113.382812 55.46875 113.984375 55.859375 114.582031 56.25 C 113.75 56.667969 113.75 56.667969 112.449219 56.277344 C 111.855469 56.058594 111.855469 56.058594 111.25 55.832031 C 111.25 55.558594 111.25 55.285156 111.25 55 C 110.011719 55 108.773438 55 107.5 55 C 107.226562 54.175781 106.949219 53.351562 106.667969 52.5 Z M 106.667969 52.5 "/>
<path style=" stroke:none;fill-rule:nonzero;fill:rgb(28.235295%,51.764709%,86.666667%);fill-opacity:1;" d="M 50 78.75 C 51.804688 79.40625 53.394531 80.199219 55 81.25 C 55.390625 82.1875 55.390625 82.1875 55.417969 82.917969 C 53.636719 82.8125 52.710938 82.667969 51.300781 81.535156 C 50.507812 80.53125 50.140625 80 50 78.75 Z M 50 78.75 "/>
<path style=" stroke:none;fill-rule:nonzero;fill:rgb(92.941177%,80.000001%,30.588236%);fill-opacity:1;" d="M 82.5 97.5 C 83.515625 97.761719 83.515625 97.761719 84.582031 98.332031 C 84.921875 99.636719 84.921875 99.636719 85 100.832031 C 85.273438 100.832031 85.550781 100.832031 85.832031 100.832031 C 85.832031 101.109375 85.832031 101.382812 85.832031 101.667969 C 86.660156 101.941406 87.484375 102.214844 88.332031 102.5 C 88.332031 102.773438 88.332031 103.050781 88.332031 103.332031 C 87.472656 103.515625 87.472656 103.515625 86.25 103.332031 C 84.640625 102.078125 83.273438 100.660156 82.5 98.75 C 82.5 98.335938 82.5 97.925781 82.5 97.5 Z M 82.5 97.5 "/>
<path style=" stroke:none;fill-rule:nonzero;fill:rgb(95.294118%,85.09804%,44.705883%);fill-opacity:1;" d="M 85.417969 86.667969 C 85.691406 86.804688 85.964844 86.941406 86.25 87.082031 C 85.980469 87.523438 85.980469 87.523438 85.703125 87.96875 C 84.992188 89.175781 84.363281 90.40625 83.75 91.667969 C 83.476562 91.667969 83.199219 91.667969 82.917969 91.667969 C 82.777344 93.589844 82.640625 95.515625 82.5 97.5 C 82.363281 97.5 82.226562 97.5 82.082031 97.5 C 81.824219 93.804688 82.035156 91.027344 84.167969 87.917969 C 84.570312 87.488281 84.984375 87.066406 85.417969 86.667969 Z M 85.417969 86.667969 "/>
<path style=" stroke:none;fill-rule:nonzero;fill:rgb(97.254902%,83.529413%,43.137255%);fill-opacity:1;" d="M 93.332031 82.5 C 93.332031 82.773438 93.332031 83.050781 93.332031 83.332031 C 92.644531 83.898438 91.949219 84.453125 91.25 85 C 91.113281 85.273438 90.976562 85.550781 90.832031 85.832031 C 89.265625 86.640625 87.996094 86.746094 86.25 86.667969 C 87.339844 85.433594 88.609375 84.699219 90.027344 83.878906 C 90.46875 83.621094 90.914062 83.363281 91.367188 83.09375 C 92.5 82.5 92.5 82.5 93.332031 82.5 Z M 93.332031 82.5 "/>
<path style=" stroke:none;fill-rule:nonzero;fill:rgb(87.058824%,74.901962%,15.686275%);fill-opacity:1;" d="M 106.667969 74.582031 C 106.667969 74.859375 106.667969 75.132812 106.667969 75.417969 C 106.96875 75.535156 107.269531 75.65625 107.578125 75.78125 C 108.664062 76.214844 109.75 76.648438 110.832031 77.082031 C 109.351562 77.578125 108.875 77.375 107.421875 76.902344 C 107.046875 76.78125 106.671875 76.660156 106.285156 76.539062 C 105.996094 76.441406 105.710938 76.347656 105.417969 76.25 C 105.277344 76.664062 105.140625 77.074219 105 77.5 C 104.449219 77.5 103.898438 77.5 103.332031 77.5 C 103.332031 77.085938 103.332031 76.675781 103.332031 76.25 C 105.523438 74.582031 105.523438 74.582031 106.667969 74.582031 Z M 106.667969 74.582031 "/>
<path style=" stroke:none;fill-rule:nonzero;fill:rgb(61.960787%,52.156866%,72.156864%);fill-opacity:1;" d="M 37.5 71.667969 C 38.613281 72.078125 39.578125 72.496094 40.574219 73.152344 C 41.90625 73.878906 43.082031 74.019531 44.582031 74.167969 C 44.445312 74.578125 44.308594 74.992188 44.167969 75.417969 C 44.441406 75.554688 44.714844 75.691406 45 75.832031 C 44.011719 75.886719 44.011719 75.886719 42.917969 75.832031 C 42.640625 75.558594 42.367188 75.285156 42.082031 75 C 41.773438 74.878906 41.464844 74.757812 41.144531 74.636719 C 39.789062 74.078125 38.675781 73.375 37.5 72.5 C 37.5 72.226562 37.5 71.949219 37.5 71.667969 Z M 37.5 71.667969 "/>
<path style=" stroke:none;fill-rule:nonzero;fill:rgb(45.882353%,65.490198%,17.647059%);fill-opacity:1;" d="M 119.167969 81.667969 C 119.398438 81.785156 119.628906 81.90625 119.871094 82.03125 C 120.847656 82.523438 120.847656 82.523438 121.953125 82.941406 C 122.917969 83.332031 122.917969 83.332031 123.332031 83.75 C 124.242188 83.847656 125.15625 83.921875 126.066406 83.984375 C 126.566406 84.019531 127.066406 84.054688 127.578125 84.089844 C 127.964844 84.117188 128.351562 84.140625 128.75 84.167969 C 128.613281 84.441406 128.476562 84.714844 128.332031 85 C 125.328125 85.121094 122.675781 85.074219 120.234375 83.097656 C 119.882812 82.765625 119.53125 82.429688 119.167969 82.082031 C 119.167969 81.945312 119.167969 81.808594 119.167969 81.667969 Z M 119.167969 81.667969 "/>
<path style=" stroke:none;fill-rule:nonzero;fill:rgb(36.470589%,68.627453%,45.490196%);fill-opacity:1;" d="M 95.832031 68.75 C 96.710938 68.925781 97.585938 69.109375 98.464844 69.296875 C 98.953125 69.398438 99.441406 69.5 99.941406 69.605469 C 101.203125 69.984375 101.765625 70.175781 102.5 71.25 C 102.5 71.664062 102.5 72.074219 102.5 72.5 C 100.039062 71.851562 97.925781 70.585938 95.832031 69.167969 C 95.832031 69.027344 95.832031 68.890625 95.832031 68.75 Z M 95.832031 68.75 "/>
<path style=" stroke:none;fill-rule:nonzero;fill:rgb(67.058825%,66.666669%,80.000001%);fill-opacity:1;" d="M 23.75 62.917969 C 24.023438 63.054688 24.300781 63.191406 24.582031 63.332031 C 24.167969 64.167969 24.167969 64.167969 22.890625 64.636719 C 22.488281 64.753906 22.082031 64.875 21.667969 65 C 21.804688 65.273438 21.941406 65.550781 22.082031 65.832031 C 21.339844 66.125 20.589844 66.410156 19.84375 66.691406 C 19.429688 66.851562 19.011719 67.011719 18.585938 67.175781 C 17.5 67.5 17.5 67.5 16.667969 67.082031 C 17.691406 66.464844 18.714844 65.851562 19.738281 65.234375 C 20.03125 65.058594 20.320312 64.882812 20.621094 64.703125 C 20.902344 64.535156 21.179688 64.367188 21.46875 64.195312 C 21.726562 64.039062 21.984375 63.882812 22.25 63.726562 C 22.738281 63.4375 23.242188 63.171875 23.75 62.917969 Z M 23.75 62.917969 "/>
<path style=" stroke:none;fill-rule:nonzero;fill:rgb(40.392157%,71.764708%,49.411765%);fill-opacity:1;" d="M 123.75 62.082031 C 125.671875 62.632812 127.125 63.421875 128.75 64.582031 C 127.445312 65.234375 126.433594 65.148438 125 65 C 123.984375 63.957031 123.984375 63.957031 123.332031 62.917969 C 123.472656 62.640625 123.609375 62.367188 123.75 62.082031 Z M 123.75 62.082031 "/>
<path style=" stroke:none;fill-rule:nonzero;fill:rgb(56.078434%,70.588237%,89.411765%);fill-opacity:1;" d="M 15 69.167969 C 15.273438 69.714844 15.550781 70.265625 15.832031 70.832031 C 15.632812 70.972656 15.433594 71.113281 15.226562 71.257812 C 14.269531 72.488281 14.347656 73.785156 14.296875 75.285156 C 14.28125 75.578125 14.269531 75.871094 14.253906 76.171875 C 14.21875 76.894531 14.191406 77.613281 14.167969 78.332031 C 13.003906 76.273438 12.976562 74.214844 13.601562 71.945312 C 14.398438 69.765625 14.398438 69.765625 15 69.167969 Z M 15 69.167969 "/>
<path style=" stroke:none;fill-rule:nonzero;fill:rgb(80.392158%,30.588236%,26.274511%);fill-opacity:1;" d="M 58.097656 45.339844 C 58.417969 45.332031 58.734375 45.328125 59.0625 45.320312 C 60.097656 45.425781 60.769531 45.734375 61.667969 46.25 C 61.667969 46.523438 61.667969 46.800781 61.667969 47.082031 C 61.390625 47.015625 61.117188 46.945312 60.832031 46.875 C 58.414062 46.472656 56.144531 46.605469 53.75 47.082031 C 55.0625 45.644531 56.183594 45.355469 58.097656 45.339844 Z M 58.097656 45.339844 "/>
<path style=" stroke:none;fill-rule:nonzero;fill:rgb(85.882354%,41.176471%,38.82353%);fill-opacity:1;" d="M 59.582031 63.332031 C 60.546875 63.472656 61.507812 63.609375 62.5 63.75 C 58.570312 67.082031 58.570312 67.082031 56.667969 67.082031 C 56.667969 66.671875 56.667969 66.257812 56.667969 65.832031 C 57.492188 65.695312 58.316406 65.558594 59.167969 65.417969 C 59.304688 64.730469 59.441406 64.042969 59.582031 63.332031 Z M 59.582031 63.332031 "/>
<path style=" stroke:none;fill-rule:nonzero;fill:rgb(95.294118%,71.764708%,67.843139%);fill-opacity:1;" d="M 62.160156 45.625 C 62.546875 45.832031 62.933594 46.039062 63.332031 46.25 C 62.082031 46.667969 62.082031 46.667969 61.199219 46.277344 C 59.53125 45.660156 58.007812 45.617188 56.25 45.832031 C 55.40625 46.230469 54.570312 46.644531 53.75 47.082031 C 52.847656 46.914062 52.847656 46.914062 52.082031 46.667969 C 55.3125 44.878906 58.644531 44.140625 62.160156 45.625 Z M 62.160156 45.625 "/>
<path style=" stroke:none;fill-rule:nonzero;fill:rgb(47.450981%,74.509805%,51.764709%);fill-opacity:1;" d="M 128.75 65 C 131.441406 65.550781 133.078125 67.332031 135 69.167969 C 134.863281 69.441406 134.726562 69.714844 134.582031 70 C 133.542969 69.453125 133.542969 69.453125 132.5 68.75 C 132.5 68.335938 132.5 67.925781 132.5 67.5 C 131.8125 67.5 131.125 67.5 130.417969 67.5 C 130.277344 67.085938 130.140625 66.675781 130 66.25 C 129.375 65.554688 129.375 65.554688 128.75 65 Z M 128.75 65 "/>
<path style=" stroke:none;fill-rule:nonzero;fill:rgb(76.078433%,75.294119%,16.078432%);fill-opacity:1;" d="M 113.332031 79.167969 C 115.980469 79.914062 118.859375 80.996094 120.417969 83.332031 C 118.484375 82.78125 117.078125 81.953125 115.417969 80.832031 C 115.097656 80.757812 114.78125 80.679688 114.453125 80.597656 C 114.105469 80.507812 114.105469 80.507812 113.75 80.417969 C 113.613281 80.003906 113.476562 79.589844 113.332031 79.167969 Z M 113.332031 79.167969 "/>
<path style=" stroke:none;fill-rule:nonzero;fill:rgb(48.235294%,65.882355%,92.54902%);fill-opacity:1;" d="M 65.832031 97.5 C 66.109375 97.773438 66.382812 98.050781 66.667969 98.332031 C 66.941406 98.058594 67.214844 97.785156 67.5 97.5 C 67.328125 99.511719 66.472656 100.34375 65 101.667969 C 65 100.429688 65 99.191406 65 97.917969 C 65.273438 97.777344 65.550781 97.640625 65.832031 97.5 Z M 65.832031 97.5 "/>
<path style=" stroke:none;fill-rule:nonzero;fill:rgb(91.764706%,61.960787%,58.431375%);fill-opacity:1;" d="M 67.5 52.5 C 67.636719 52.5 67.773438 52.5 67.917969 52.5 C 68.152344 58.359375 68.152344 58.359375 66.667969 60.417969 C 66.390625 60.554688 66.117188 60.691406 65.832031 60.832031 C 65.832031 60.558594 65.832031 60.285156 65.832031 60 C 65.558594 59.863281 65.285156 59.726562 65 59.582031 C 65.414062 59.582031 65.824219 59.582031 66.25 59.582031 C 66.25 59.035156 66.25 58.484375 66.25 57.917969 C 66.523438 57.777344 66.800781 57.640625 67.082031 57.5 C 67.277344 56.328125 67.277344 56.328125 67.34375 54.972656 C 67.390625 54.285156 67.390625 54.285156 67.4375 53.578125 C 67.457031 53.222656 67.480469 52.867188 67.5 52.5 Z M 67.5 52.5 "/>
<path style=" stroke:none;fill-rule:nonzero;fill:rgb(59.215689%,81.960785%,65.098041%);fill-opacity:1;" d="M 101.667969 49.167969 C 103.878906 49.773438 105.609375 50.828125 107.5 52.082031 C 107.085938 52.289062 107.085938 52.289062 106.667969 52.5 C 105.828125 52.089844 104.996094 51.671875 104.167969 51.25 C 103.203125 50.929688 102.234375 50.671875 101.25 50.417969 C 101.386719 50.003906 101.523438 49.589844 101.667969 49.167969 Z M 101.667969 49.167969 "/>
<path style=" stroke:none;fill-rule:nonzero;fill:rgb(52.156866%,68.627453%,90.196079%);fill-opacity:1;" d="M 60 84.582031 C 61.921875 85.132812 63.375 85.921875 65 87.082031 C 64.863281 87.359375 64.726562 87.632812 64.582031 87.917969 C 64.171875 88.054688 63.757812 88.191406 63.332031 88.332031 C 63.195312 88.058594 63.058594 87.785156 62.917969 87.5 C 62.503906 87.226562 62.089844 86.949219 61.667969 86.667969 C 61.804688 86.527344 61.941406 86.390625 62.082031 86.25 C 61.816406 86.207031 61.550781 86.164062 61.277344 86.121094 C 60.992188 86.023438 60.707031 85.929688 60.417969 85.832031 C 60.277344 85.421875 60.140625 85.007812 60 84.582031 Z M 60 84.582031 "/>
<path style=" stroke:none;fill-rule:nonzero;fill:rgb(40.392157%,72.941178%,49.803922%);fill-opacity:1;" d="M 133.75 76.667969 C 134.136719 76.78125 134.136719 76.78125 134.53125 76.902344 C 135.433594 77.183594 135.433594 77.183594 136.25 76.667969 C 136.039062 78.496094 135.617188 79.722656 134.582031 81.25 C 134.105469 80.292969 134.039062 79.550781 133.933594 78.488281 C 133.898438 78.148438 133.863281 77.808594 133.828125 77.457031 C 133.800781 77.195312 133.777344 76.9375 133.75 76.667969 Z M 133.75 76.667969 "/>
<path style=" stroke:none;fill-rule:nonzero;fill:rgb(47.450981%,63.921571%,89.411765%);fill-opacity:1;" d="M 44.167969 96.667969 C 44.359375 96.835938 44.550781 97.007812 44.746094 97.183594 C 45.128906 97.519531 45.128906 97.519531 45.519531 97.863281 C 45.773438 98.085938 46.023438 98.308594 46.28125 98.539062 C 47.074219 99.160156 47.839844 99.585938 48.75 100 C 48.097656 100.3125 48.097656 100.3125 47.082031 100.417969 C 46.039062 99.945312 45.136719 99.367188 44.167969 98.75 C 44.167969 98.335938 44.167969 97.925781 44.167969 97.5 C 43.890625 97.363281 43.617188 97.226562 43.332031 97.082031 C 43.609375 96.945312 43.882812 96.808594 44.167969 96.667969 Z M 44.167969 96.667969 "/>
<path style=" stroke:none;fill-rule:nonzero;fill:rgb(89.019608%,75.686276%,10.196079%);fill-opacity:1;" d="M 108.75 77.082031 C 111.925781 77.8125 111.925781 77.8125 113.332031 78.75 C 113.332031 79.023438 113.332031 79.300781 113.332031 79.582031 C 112.507812 79.582031 111.683594 79.582031 110.832031 79.582031 C 110.695312 79.035156 110.558594 78.484375 110.417969 77.917969 C 109.867188 77.777344 109.316406 77.640625 108.75 77.5 C 108.75 77.363281 108.75 77.226562 108.75 77.082031 Z M 108.75 77.082031 "/>
<path style=" stroke:none;fill-rule:nonzero;fill:rgb(52.941179%,69.01961%,90.196079%);fill-opacity:1;" d="M 50 78.75 C 51.792969 79.402344 53.359375 80.285156 55 81.25 C 53.882812 81.808594 53.441406 81.542969 52.265625 81.171875 C 51.761719 81.019531 51.761719 81.019531 51.25 80.867188 C 50.417969 80.417969 50.417969 80.417969 50.09375 79.535156 C 50.0625 79.277344 50.03125 79.015625 50 78.75 Z M 50 78.75 "/>
<path style=" stroke:none;fill-rule:nonzero;fill:rgb(82.352942%,39.607844%,37.254903%);fill-opacity:1;" d="M 65 60 C 65.273438 60 65.550781 60 65.832031 60 C 65.710938 61.480469 65.5 62 64.425781 63.074219 C 64.066406 63.296875 63.707031 63.519531 63.332031 63.75 C 62.921875 63.613281 62.507812 63.476562 62.082031 63.332031 C 62.496094 63.195312 62.910156 63.058594 63.332031 62.917969 C 63.796875 62.132812 63.796875 62.132812 64.167969 61.25 C 64.441406 60.835938 64.714844 60.425781 65 60 Z M 65 60 "/>
<path style=" stroke:none;fill-rule:nonzero;fill:rgb(43.137255%,47.058824%,74.509805%);fill-opacity:1;" d="M 21.25 65 C 23.515625 64.910156 25.363281 64.957031 27.5 65.832031 C 27.5 65.972656 27.5 66.109375 27.5 66.25 C 26.613281 66.203125 25.730469 66.148438 24.84375 66.09375 C 24.351562 66.066406 23.859375 66.035156 23.351562 66.007812 C 22.082031 65.832031 22.082031 65.832031 21.25 65 Z M 21.25 65 "/>
<path style=" stroke:none;fill-rule:nonzero;fill:rgb(48.627451%,74.901962%,56.862748%);fill-opacity:1;" d="M 91.25 66.25 C 92.488281 66.386719 93.726562 66.523438 95 66.667969 C 95 66.941406 95 67.214844 95 67.5 C 95.273438 67.636719 95.550781 67.773438 95.832031 67.917969 C 95.832031 68.191406 95.832031 68.464844 95.832031 68.75 C 93.953125 68.226562 92.710938 67.539062 91.25 66.25 Z M 91.25 66.25 "/>
<path style=" stroke:none;fill-rule:nonzero;fill:rgb(60.392159%,74.509805%,93.725491%);fill-opacity:1;" d="M 45 75.832031 C 46.792969 76.484375 48.359375 77.367188 50 78.332031 C 49.585938 78.539062 49.585938 78.539062 49.167969 78.75 C 48.609375 78.472656 48.054688 78.195312 47.5 77.917969 C 46.671875 77.757812 45.835938 77.613281 45 77.5 C 45 76.949219 45 76.398438 45 75.832031 Z M 45 75.832031 "/>
<path style=" stroke:none;fill-rule:nonzero;fill:rgb(84.705883%,41.960785%,39.607844%);fill-opacity:1;" d="M 56.667969 67.5 C 56.148438 67.863281 55.628906 68.214844 55.105469 68.566406 C 54.8125 68.765625 54.523438 68.964844 54.226562 69.167969 C 53.332031 69.582031 53.332031 69.582031 52.390625 69.4375 C 52.152344 69.347656 51.914062 69.257812 51.667969 69.167969 C 51.933594 69.125 52.199219 69.082031 52.472656 69.035156 C 52.757812 68.941406 53.042969 68.847656 53.332031 68.75 C 53.472656 68.335938 53.609375 67.925781 53.75 67.5 C 55.730469 67.03125 55.730469 67.03125 56.667969 67.5 Z M 56.667969 67.5 "/>
<path style=" stroke:none;fill-rule:nonzero;fill:rgb(89.411765%,54.901963%,51.764709%);fill-opacity:1;" d="M 48.332031 49.167969 C 48.332031 49.578125 48.332031 49.992188 48.332031 50.417969 C 46.058594 51.707031 46.058594 51.707031 44.914062 51.496094 C 44.667969 51.414062 44.421875 51.332031 44.167969 51.25 C 44.703125 50.902344 45.242188 50.554688 45.78125 50.207031 C 46.082031 50.015625 46.378906 49.820312 46.6875 49.621094 C 47.5 49.167969 47.5 49.167969 48.332031 49.167969 Z M 48.332031 49.167969 "/>
<path style=" stroke:none;fill-rule:nonzero;fill:rgb(87.450981%,47.450981%,43.921569%);fill-opacity:1;" d="M 61.667969 46.25 C 63.085938 46.691406 64.171875 47.085938 65.417969 47.917969 C 65.277344 48.191406 65.140625 48.464844 65 48.75 C 63.761719 48.542969 63.761719 48.542969 62.5 48.332031 C 62.5 47.921875 62.5 47.507812 62.5 47.082031 C 62.226562 47.082031 61.949219 47.082031 61.667969 47.082031 C 61.667969 46.808594 61.667969 46.535156 61.667969 46.25 Z M 61.667969 46.25 "/>
<path style=" stroke:none;fill-rule:nonzero;fill:rgb(30.980393%,63.137257%,40.000001%);fill-opacity:1;" d="M 90 46.25 C 89.167969 47.082031 89.167969 47.082031 87.941406 47.472656 C 86.726562 47.894531 86.214844 48.191406 85.417969 49.167969 C 85.140625 49.027344 84.867188 48.890625 84.582031 48.75 C 85.042969 48.339844 85.5 47.933594 85.964844 47.527344 C 86.21875 47.300781 86.476562 47.070312 86.738281 46.835938 C 87.96875 45.886719 88.515625 45.753906 90 46.25 Z M 90 46.25 "/>
<path style=" stroke:none;fill-rule:nonzero;fill:rgb(44.705883%,63.137257%,89.411765%);fill-opacity:1;" d="M 50.832031 102.082031 C 52.589844 102 53.820312 102.164062 55.417969 102.917969 C 55.140625 103.191406 54.867188 103.464844 54.582031 103.75 C 53.21875 103.664062 52.363281 103.566406 51.300781 102.683594 C 51.148438 102.484375 50.992188 102.285156 50.832031 102.082031 Z M 50.832031 102.082031 "/>
<path style=" stroke:none;fill-rule:nonzero;fill:rgb(95.686275%,85.09804%,44.313726%);fill-opacity:1;" d="M 121.667969 87.917969 C 122.355469 87.917969 123.042969 87.917969 123.75 87.917969 C 122.421875 89.015625 121.121094 90.042969 119.582031 90.832031 C 119.308594 90.695312 119.035156 90.558594 118.75 90.417969 C 119.503906 89.582031 119.503906 89.582031 120.417969 88.75 C 120.828125 88.75 121.242188 88.75 121.667969 88.75 C 121.667969 88.476562 121.667969 88.199219 121.667969 87.917969 Z M 121.667969 87.917969 "/>
<path style=" stroke:none;fill-rule:nonzero;fill:rgb(58.431375%,73.333335%,92.156863%);fill-opacity:1;" d="M 55 81.667969 C 56.921875 82.214844 58.375 83.003906 60 84.167969 C 59.585938 84.371094 59.585938 84.371094 59.167969 84.582031 C 58.074219 84.191406 58.074219 84.191406 57.082031 83.75 C 57.082031 83.476562 57.082031 83.199219 57.082031 82.917969 C 56.535156 82.917969 55.984375 82.917969 55.417969 82.917969 C 55.277344 82.503906 55.140625 82.089844 55 81.667969 Z M 55 81.667969 "/>
<path style=" stroke:none;fill-rule:nonzero;fill:rgb(92.941177%,73.725492%,13.725491%);fill-opacity:1;" d="M 123.75 85.417969 C 124.300781 85.417969 124.851562 85.417969 125.417969 85.417969 C 125.554688 85.828125 125.691406 86.242188 125.832031 86.667969 C 123.988281 87.949219 123.988281 87.949219 122.785156 87.785156 C 122.554688 87.691406 122.324219 87.597656 122.082031 87.5 C 122.496094 87.363281 122.910156 87.226562 123.332031 87.082031 C 123.640625 86.242188 123.640625 86.242188 123.75 85.417969 Z M 123.75 85.417969 "/>
<path style=" stroke:none;fill-rule:nonzero;fill:rgb(39.607844%,56.078434%,86.666667%);fill-opacity:1;" d="M 16.25 81.667969 C 17.65625 81.796875 17.65625 81.796875 19.167969 82.082031 C 19.441406 82.496094 19.714844 82.910156 20 83.332031 C 18.828125 83.4375 18.828125 83.4375 17.5 83.332031 C 16.71875 82.5 16.71875 82.5 16.25 81.667969 Z M 16.25 81.667969 "/>
<path style=" stroke:none;fill-rule:nonzero;fill:rgb(76.078433%,31.37255%,37.254903%);fill-opacity:1;" d="M 37.5 71.25 C 38.460938 71.386719 39.425781 71.523438 40.417969 71.667969 C 40.417969 72.078125 40.417969 72.492188 40.417969 72.917969 C 40.683594 72.96875 40.949219 73.019531 41.222656 73.074219 C 41.507812 73.160156 41.792969 73.246094 42.082031 73.332031 C 42.222656 73.609375 42.359375 73.882812 42.5 74.167969 C 40.578125 73.617188 39.109375 72.851562 37.5 71.667969 C 37.5 71.527344 37.5 71.390625 37.5 71.25 Z M 37.5 71.25 "/>
<path style=" stroke:none;fill-rule:nonzero;fill:rgb(40.000001%,60.392159%,85.09804%);fill-opacity:1;" d="M 18.332031 67.082031 C 17.777344 68.75 16.875 69.097656 15.417969 70 C 15.519531 69.011719 15.519531 69.011719 15.832031 67.917969 C 16.730469 67.308594 17.25 67.082031 18.332031 67.082031 Z M 18.332031 67.082031 "/>
<path style=" stroke:none;fill-rule:nonzero;fill:rgb(36.862746%,69.411767%,46.27451%);fill-opacity:1;" d="M 85.417969 62.5 C 87.0625 62.730469 88.480469 63.078125 90 63.75 C 90 63.886719 90 64.023438 90 64.167969 C 89.390625 64.128906 88.785156 64.085938 88.175781 64.035156 C 87.839844 64.011719 87.5 63.988281 87.152344 63.964844 C 86.25 63.75 86.25 63.75 85.417969 62.5 Z M 85.417969 62.5 "/>
<path style=" stroke:none;fill-rule:nonzero;fill:rgb(47.450981%,75.294119%,55.29412%);fill-opacity:1;" d="M 116.667969 57.917969 C 118.109375 58.4375 119.226562 59.03125 120.417969 60 C 119.011719 60.050781 119.011719 60.050781 117.5 60 C 117.226562 59.726562 116.949219 59.449219 116.667969 59.167969 C 116.667969 58.753906 116.667969 58.339844 116.667969 57.917969 Z M 116.667969 57.917969 "/>
<path style=" stroke:none;fill-rule:nonzero;fill:rgb(93.725491%,79.215688%,34.509805%);fill-opacity:1;" d="M 90 85 C 90 85.273438 90 85.550781 90 85.832031 C 88.570312 86.789062 87.921875 86.742188 86.25 86.667969 C 87.371094 85.378906 88.300781 85 90 85 Z M 90 85 "/>
<path style=" stroke:none;fill-rule:nonzero;fill:rgb(48.627451%,65.882355%,89.411765%);fill-opacity:1;" d="M 18.332031 83.332031 C 19.160156 83.332031 19.984375 83.332031 20.832031 83.332031 C 21.109375 84.019531 21.382812 84.707031 21.667969 85.417969 C 20.261719 84.921875 19.3125 84.46875 18.332031 83.332031 Z M 18.332031 83.332031 "/>
<path style=" stroke:none;fill-rule:nonzero;fill:rgb(44.705883%,65.490198%,19.215687%);fill-opacity:1;" d="M 106.667969 75 C 107.8125 74.871094 107.8125 74.871094 109.167969 75 C 110.15625 76.042969 110.15625 76.042969 110.832031 77.082031 C 107.679688 76.308594 107.679688 76.308594 106.667969 75 Z M 106.667969 75 "/>
<path style=" stroke:none;fill-rule:nonzero;fill:rgb(47.058824%,43.921569%,72.156864%);fill-opacity:1;" d="M 37.5 71.667969 C 39.339844 72.230469 40.144531 73.027344 41.25 74.582031 C 39.953125 73.957031 38.699219 73.300781 37.5 72.5 C 37.5 72.226562 37.5 71.949219 37.5 71.667969 Z M 37.5 71.667969 "/>
<path style=" stroke:none;fill-rule:nonzero;fill:rgb(89.803922%,41.960785%,38.82353%);fill-opacity:1;" d="M 36.25 56.667969 C 36.113281 57.214844 35.976562 57.765625 35.832031 58.332031 C 35.285156 58.472656 34.734375 58.609375 34.167969 58.75 C 34.167969 58.476562 34.167969 58.199219 34.167969 57.917969 C 33.890625 57.777344 33.617188 57.640625 33.332031 57.5 C 34.582031 56.667969 34.582031 56.667969 36.25 56.667969 Z M 36.25 56.667969 "/>
<path style=" stroke:none;fill-rule:nonzero;fill:rgb(40.784314%,70.588237%,49.019608%);fill-opacity:1;" d="M 132.082031 81.25 C 132.769531 81.25 133.457031 81.25 134.167969 81.25 C 132.65625 83.28125 132.65625 83.28125 131.25 83.75 C 131.25 83.335938 131.25 82.925781 131.25 82.5 C 131.523438 82.363281 131.800781 82.226562 132.082031 82.082031 C 132.082031 81.808594 132.082031 81.535156 132.082031 81.25 Z M 132.082031 81.25 "/>
<path style=" stroke:none;fill-rule:nonzero;fill:rgb(97.647059%,88.627452%,52.549022%);fill-opacity:1;" d="M 99.582031 78.332031 C 99.859375 78.472656 100.132812 78.609375 100.417969 78.75 C 100.003906 78.886719 99.589844 79.023438 99.167969 79.167969 C 99.167969 79.441406 99.167969 79.714844 99.167969 80 C 97.917969 80.832031 97.917969 80.832031 97.003906 80.675781 C 96.757812 80.589844 96.507812 80.503906 96.25 80.417969 C 96.785156 80.058594 97.324219 79.703125 97.863281 79.347656 C 98.3125 79.050781 98.3125 79.050781 98.773438 78.75 C 99.039062 78.613281 99.308594 78.472656 99.582031 78.332031 Z M 99.582031 78.332031 "/>
<path style=" stroke:none;fill-rule:nonzero;fill:rgb(89.803922%,55.29412%,53.333336%);fill-opacity:1;" d="M 65.417969 48.75 C 66.773438 49.929688 67.300781 50.703125 67.5 52.5 C 67.085938 52.5 66.675781 52.5 66.25 52.5 C 65.976562 51.261719 65.699219 50.023438 65.417969 48.75 Z M 65.417969 48.75 "/>
<path style=" stroke:none;fill-rule:nonzero;fill:rgb(90.196079%,85.882354%,47.450981%);fill-opacity:1;" d="M 106.667969 74.582031 C 106.667969 74.859375 106.667969 75.132812 106.667969 75.417969 C 106.941406 75.554688 107.214844 75.691406 107.5 75.832031 C 107.105469 75.886719 106.710938 75.9375 106.300781 75.988281 C 104.964844 76.132812 104.964844 76.132812 104.167969 77.082031 C 103.890625 76.808594 103.617188 76.535156 103.332031 76.25 C 105.730469 74.582031 105.730469 74.582031 106.667969 74.582031 Z M 106.667969 74.582031 "/>
<path style=" stroke:none;fill-rule:nonzero;fill:rgb(45.09804%,45.490196%,75.294119%);fill-opacity:1;" d="M 27.5 66.25 C 29.074219 66.703125 30.195312 67.046875 31.25 68.332031 C 30.011719 68.128906 30.011719 68.128906 28.75 67.917969 C 28.75 67.640625 28.75 67.367188 28.75 67.082031 C 28.335938 66.945312 27.925781 66.808594 27.5 66.667969 C 27.5 66.527344 27.5 66.390625 27.5 66.25 Z M 27.5 66.25 "/>
<path style=" stroke:none;fill-rule:nonzero;fill:rgb(86.274511%,36.862746%,32.156864%);fill-opacity:1;" d="M 59.582031 63.332031 C 60.546875 63.472656 61.507812 63.609375 62.5 63.75 C 61.980469 64.402344 61.980469 64.402344 61.25 65 C 60.339844 64.871094 60.339844 64.871094 59.582031 64.582031 C 59.582031 64.171875 59.582031 63.757812 59.582031 63.332031 Z M 59.582031 63.332031 "/>
<path style=" stroke:none;fill-rule:nonzero;fill:rgb(84.705883%,29.019609%,24.313726%);fill-opacity:1;" d="M 52.082031 47.082031 C 52.632812 47.222656 53.183594 47.359375 53.75 47.5 C 53.335938 48.117188 53.335938 48.117188 52.917969 48.75 C 51.613281 48.828125 51.613281 48.828125 50.417969 48.75 C 50.554688 48.476562 50.691406 48.199219 50.832031 47.917969 C 51.246094 47.917969 51.660156 47.917969 52.082031 47.917969 C 52.082031 47.640625 52.082031 47.367188 52.082031 47.082031 Z M 52.082031 47.082031 "/>
<path style=" stroke:none;fill-rule:nonzero;fill:rgb(96.078432%,88.235295%,50.588238%);fill-opacity:1;" d="M 114.582031 93.75 C 112.386719 95.09375 112.386719 95.09375 111.667969 95.417969 C 111.390625 95.277344 111.117188 95.140625 110.832031 95 C 111.667969 93.75 111.667969 93.75 112.472656 93.4375 C 113.332031 93.332031 113.332031 93.332031 114.582031 93.75 Z M 114.582031 93.75 "/>
<path style=" stroke:none;fill-rule:nonzero;fill:rgb(29.411766%,50.588238%,84.705883%);fill-opacity:1;" d="M 46.667969 77.5 C 49.0625 78.28125 49.0625 78.28125 50 78.75 C 50 79.023438 50 79.300781 50 79.582031 C 48.78125 79.320312 47.765625 78.921875 46.667969 78.332031 C 46.667969 78.058594 46.667969 77.785156 46.667969 77.5 Z M 46.667969 77.5 "/>
<path style=" stroke:none;fill-rule:nonzero;fill:rgb(52.156866%,75.294119%,58.431375%);fill-opacity:1;" d="M 95.832031 68.75 C 96.382812 68.855469 96.929688 68.96875 97.472656 69.089844 C 97.777344 69.152344 98.082031 69.214844 98.398438 69.277344 C 98.652344 69.378906 98.90625 69.480469 99.167969 69.582031 C 99.304688 69.996094 99.441406 70.410156 99.582031 70.832031 C 98.011719 70.378906 96.886719 70.039062 95.832031 68.75 Z M 95.832031 68.75 "/>
<path style=" stroke:none;fill-rule:nonzero;fill:rgb(92.156863%,61.960787%,59.607846%);fill-opacity:1;" d="M 52.082031 47.082031 C 52.082031 47.359375 52.082031 47.632812 52.082031 47.917969 C 50.351562 49.214844 50.351562 49.214844 49.035156 49.035156 C 48.804688 48.941406 48.574219 48.847656 48.332031 48.75 C 51.144531 47.082031 51.144531 47.082031 52.082031 47.082031 Z M 52.082031 47.082031 "/>
</g>
</svg>
