<?xml version="1.0" encoding="UTF-8"?>
<svg xmlns="http://www.w3.org/2000/svg" xmlns:xlink="http://www.w3.org/1999/xlink" width="150px" height="93px" viewBox="0 0 150 93" version="1.1">
<g id="surface1">
<path style=" stroke:none;fill-rule:nonzero;fill:rgb(0%,0%,0%);fill-opacity:1;" d="M 48.957031 36.980469 C 49.441406 37.390625 49.921875 37.804688 50.398438 38.222656 C 50.625 38.421875 50.847656 38.617188 51.082031 38.820312 C 54.03125 41.582031 56.355469 45.203125 57.601562 49.058594 C 57.601562 49.257812 57.601562 49.457031 57.601562 49.660156 C 57.304688 49.675781 57.011719 49.691406 56.707031 49.707031 C 55.59375 49.761719 54.476562 49.824219 53.359375 49.882812 C 52.882812 49.910156 52.402344 49.933594 51.925781 49.960938 C 48.789062 50.121094 45.707031 50.394531 42.601562 50.863281 C 42.871094 50.9375 43.144531 51.011719 43.421875 51.089844 C 45.644531 51.703125 47.375 52.46875 49.199219 53.875 C 49.460938 54.046875 49.71875 54.222656 49.988281 54.402344 C 53.351562 57.597656 55.125 62.285156 55.257812 66.871094 C 55.171875 71.875 53.328125 76.152344 49.929688 79.777344 C 44.683594 84.84375 37.832031 86.539062 30.75 86.484375 C 23.792969 86.316406 17.179688 83.898438 12 79.15625 C 12 78.957031 12 78.757812 12 78.554688 C 11.800781 78.554688 11.605469 78.554688 11.398438 78.554688 C 6.304688 73.046875 3.375 65.628906 3.546875 58.101562 C 3.925781 51.746094 6.125 44.605469 10.800781 40.027344 C 10.996094 40.027344 11.195312 40.027344 11.398438 40.027344 C 11.46875 39.859375 11.535156 39.691406 11.601562 39.515625 C 13.882812 35.550781 20.15625 33.03125 24.300781 31.902344 C 33.144531 29.949219 41.707031 31.351562 48.957031 36.980469 Z M 16.800781 37.921875 C 13.335938 42.367188 11.820312 47.554688 11.457031 53.140625 C 11.441406 53.371094 11.425781 53.597656 11.40625 53.835938 C 11.347656 55.082031 11.304688 56.117188 12 57.183594 C 16.089844 59.140625 21.136719 57.910156 25.199219 56.496094 C 27.265625 55.753906 29.261719 54.902344 31.171875 53.820312 C 36.550781 50.78125 42.242188 49.6875 48.300781 48.757812 C 46.546875 42.789062 41.601562 37.671875 36.417969 34.550781 C 29.75 31.003906 21.890625 32.195312 16.800781 37.921875 Z M 31.238281 54.738281 C 25.222656 57.859375 18.472656 60.101562 11.699219 58.085938 C 11.96875 65.371094 14.929688 72.515625 20.101562 77.652344 C 20.320312 77.882812 20.539062 78.113281 20.769531 78.351562 C 24.601562 82.132812 29.824219 83.898438 35.117188 84.046875 C 40.789062 83.96875 45.746094 81.871094 49.832031 77.945312 C 52.941406 74.691406 54.125 70.902344 54.109375 66.496094 C 54.019531 62.507812 52.480469 58.710938 49.800781 55.753906 C 46.871094 52.984375 43.390625 51.953125 39.425781 52.007812 C 36.363281 52.191406 33.914062 53.351562 31.238281 54.738281 Z M 31.238281 54.738281 "/>
<path style=" stroke:none;fill-rule:nonzero;fill:rgb(0%,0%,0%);fill-opacity:1;" d="M 70.800781 4.214844 C 70.800781 4.589844 70.800781 4.964844 70.804688 5.351562 C 70.828125 14.296875 70.855469 23.238281 70.882812 32.179688 C 70.886719 33.28125 70.890625 34.382812 70.894531 35.488281 C 70.894531 35.707031 70.898438 35.925781 70.898438 36.152344 C 70.910156 39.699219 70.917969 43.242188 70.929688 46.789062 C 70.9375 50.433594 70.949219 54.074219 70.960938 57.71875 C 70.96875 59.761719 70.976562 61.804688 70.980469 63.851562 C 70.984375 65.777344 70.992188 67.703125 71 69.628906 C 71.003906 70.332031 71.003906 71.039062 71.003906 71.742188 C 70.777344 78.210938 70.777344 78.210938 72.601562 84.273438 C 72.898438 84.46875 73.195312 84.667969 73.5 84.875 C 73.5 85.269531 73.5 85.667969 73.5 86.078125 C 69.144531 86.078125 64.789062 86.078125 60.300781 86.078125 C 60.300781 84.574219 60.300781 84.574219 60.867188 83.960938 C 61.078125 83.765625 61.285156 83.570312 61.5 83.367188 C 62.964844 80.472656 62.527344 76.714844 62.519531 73.5625 C 62.523438 72.90625 62.523438 72.25 62.527344 71.59375 C 62.53125 69.816406 62.53125 68.035156 62.53125 66.257812 C 62.53125 64.773438 62.53125 63.285156 62.535156 61.800781 C 62.539062 58.292969 62.539062 54.789062 62.535156 51.28125 C 62.53125 47.667969 62.535156 44.054688 62.542969 40.441406 C 62.550781 37.332031 62.550781 34.226562 62.550781 31.117188 C 62.546875 29.265625 62.550781 27.410156 62.554688 25.558594 C 62.558594 23.8125 62.558594 22.070312 62.550781 20.328125 C 62.550781 19.691406 62.550781 19.050781 62.554688 18.414062 C 62.558594 17.539062 62.554688 16.667969 62.550781 15.792969 C 62.554688 15.542969 62.554688 15.292969 62.558594 15.03125 C 62.539062 13.410156 62.1875 12.230469 61.457031 10.785156 C 61.199219 10.234375 61.199219 10.234375 61.199219 9.632812 C 60.902344 9.632812 60.605469 9.632812 60.300781 9.632812 C 60.199219 9.132812 60.101562 8.636719 60 8.125 C 61.488281 7.570312 62.980469 7.011719 64.46875 6.453125 C 64.976562 6.265625 65.484375 6.074219 65.992188 5.886719 C 66.71875 5.613281 67.445312 5.339844 68.171875 5.070312 C 68.402344 4.984375 68.628906 4.898438 68.863281 4.808594 C 70.464844 4.214844 70.464844 4.214844 70.800781 4.214844 Z M 70.800781 4.214844 "/>
<path style=" stroke:none;fill-rule:nonzero;fill:rgb(0%,0%,0%);fill-opacity:1;" d="M 102.898438 15.953125 C 105.574219 15.953125 108.246094 15.953125 111 15.953125 C 111 20.40625 110.304688 24.71875 107.195312 28.101562 C 105.898438 29.195312 105.898438 29.195312 102.601562 31 C 107.351562 31.097656 112.105469 31.199219 117 31.300781 C 117 31.699219 117 32.09375 117 32.503906 C 113.832031 32.503906 110.664062 32.503906 107.398438 32.503906 C 107.410156 33.257812 107.417969 34.011719 107.425781 34.785156 C 107.457031 37.328125 107.488281 39.867188 107.515625 42.40625 C 107.535156 43.9375 107.554688 45.472656 107.570312 47.007812 C 107.589844 48.492188 107.605469 49.972656 107.625 51.457031 C 107.632812 52.050781 107.636719 52.640625 107.644531 53.234375 C 107.683594 56.316406 107.707031 59.394531 107.675781 62.476562 C 107.675781 62.980469 107.671875 63.484375 107.667969 63.988281 C 107.660156 64.902344 107.644531 65.820312 107.628906 66.734375 C 107.5625 71.851562 108.230469 77.582031 111.632812 81.621094 C 113.0625 82.992188 114.730469 83.601562 116.699219 83.667969 C 120.207031 83.359375 122.71875 81.222656 124.921875 78.625 C 127.804688 75.074219 129.757812 70.675781 130.800781 66.214844 C 131.296875 66.214844 131.789062 66.214844 132.300781 66.214844 C 130.746094 72.210938 128.347656 77.503906 124.199219 82.164062 C 124.003906 82.164062 123.804688 82.164062 123.601562 82.164062 C 123.601562 82.363281 123.601562 82.5625 123.601562 82.765625 C 122.964844 83.246094 122.335938 83.675781 121.667969 84.101562 C 121.492188 84.222656 121.3125 84.339844 121.128906 84.460938 C 118.839844 85.941406 116.621094 86.546875 113.90625 86.511719 C 113.535156 86.507812 113.535156 86.507812 113.152344 86.503906 C 109.386719 86.402344 106.199219 85.027344 103.59375 82.277344 C 98.796875 76.394531 98.914062 68.277344 98.910156 61.082031 C 98.90625 60.125 98.902344 59.164062 98.894531 58.207031 C 98.878906 55.488281 98.871094 52.769531 98.863281 50.050781 C 98.859375 48.375 98.847656 46.699219 98.835938 45.023438 C 98.835938 44.390625 98.832031 43.757812 98.832031 43.121094 C 98.832031 42.238281 98.828125 41.355469 98.820312 40.472656 C 98.820312 40.214844 98.824219 39.953125 98.824219 39.6875 C 98.796875 37.445312 98.222656 35.640625 96.601562 34.007812 C 95.15625 33.070312 93.808594 32.648438 92.101562 32.503906 C 92.101562 32.109375 92.101562 31.710938 92.101562 31.300781 C 92.28125 31.273438 92.464844 31.25 92.652344 31.222656 C 95.507812 30.742188 97.894531 29.796875 99.742188 27.480469 C 101.589844 24.6875 102.292969 21.640625 102.636719 18.359375 C 102.722656 17.566406 102.8125 16.769531 102.898438 15.953125 Z M 102.898438 15.953125 "/>
<path style=" stroke:none;fill-rule:nonzero;fill:rgb(0%,0%,0%);fill-opacity:1;" d="M 87 31.300781 C 87 31.550781 87 31.800781 87.003906 32.058594 C 87.019531 38.152344 87.042969 44.242188 87.070312 50.335938 C 87.085938 53.28125 87.097656 56.226562 87.105469 59.171875 C 87.109375 61.742188 87.121094 64.308594 87.132812 66.878906 C 87.140625 68.238281 87.148438 69.597656 87.148438 70.957031 C 87.152344 72.238281 87.15625 73.519531 87.167969 74.800781 C 87.167969 75.265625 87.171875 75.734375 87.167969 76.203125 C 87.167969 79.464844 87.214844 82.300781 89.398438 84.875 C 89.398438 85.269531 89.398438 85.667969 89.398438 86.078125 C 85.042969 86.078125 80.6875 86.078125 76.199219 86.078125 C 76.515625 84.484375 76.515625 84.484375 77.398438 83.667969 C 77.6875 83.140625 77.6875 83.140625 77.886719 82.558594 C 77.960938 82.371094 78.03125 82.183594 78.105469 81.992188 C 78.703125 79.75 78.644531 77.449219 78.648438 75.148438 C 78.648438 74.78125 78.652344 74.417969 78.652344 74.039062 C 78.65625 73.042969 78.660156 72.046875 78.660156 71.050781 C 78.660156 70.429688 78.664062 69.804688 78.664062 69.179688 C 78.667969 67.222656 78.671875 65.265625 78.671875 63.308594 C 78.671875 61.058594 78.679688 58.808594 78.6875 56.558594 C 78.695312 54.8125 78.695312 53.066406 78.695312 51.320312 C 78.695312 50.28125 78.699219 49.238281 78.703125 48.199219 C 78.710938 47.039062 78.707031 45.878906 78.707031 44.714844 C 78.710938 44.207031 78.710938 44.207031 78.714844 43.6875 C 78.703125 41.28125 78.59375 38.878906 76.894531 37.058594 C 76.664062 36.847656 76.4375 36.636719 76.199219 36.417969 C 76.199219 36.019531 76.199219 35.621094 76.199219 35.214844 C 77.640625 34.65625 79.082031 34.097656 80.523438 33.542969 C 81.015625 33.351562 81.507812 33.164062 81.996094 32.972656 C 82.699219 32.699219 83.40625 32.429688 84.109375 32.15625 C 84.332031 32.070312 84.550781 31.984375 84.777344 31.898438 C 86.332031 31.300781 86.332031 31.300781 87 31.300781 Z M 87 31.300781 "/>
<path style=" stroke:none;fill-rule:nonzero;fill:rgb(0%,0%,0%);fill-opacity:1;" d="M 84.710938 12.246094 C 86.203125 13.113281 86.957031 14.078125 87.414062 15.746094 C 87.722656 17.476562 87.539062 18.757812 86.554688 20.226562 C 85.546875 21.472656 84.726562 22.300781 83.101562 22.574219 C 81.082031 22.757812 79.675781 22.269531 78.074219 21.03125 C 77.03125 19.691406 76.46875 18.398438 76.527344 16.675781 C 76.804688 14.917969 77.304688 13.851562 78.601562 12.640625 C 80.449219 11.347656 82.6875 11.3125 84.710938 12.246094 Z M 84.710938 12.246094 "/>
<path style=" stroke:none;fill-rule:nonzero;fill:rgb(0%,0%,0%);fill-opacity:1;" d="M 140.53125 76.089844 C 140.949219 76.082031 140.949219 76.082031 141.375 76.078125 C 142.691406 76.1875 143.496094 76.578125 144.507812 77.425781 C 145.496094 78.605469 145.746094 79.558594 145.914062 81.074219 C 145.769531 82.445312 145.394531 83.449219 144.601562 84.574219 C 143.078125 85.789062 141.832031 86.1875 139.925781 86.160156 C 138.289062 85.972656 137.160156 85.273438 136.070312 84.066406 C 135.28125 82.390625 135.050781 80.859375 135.636719 79.082031 C 136.121094 77.96875 136.75 77.210938 137.699219 76.445312 C 138.644531 76.125 139.539062 76.097656 140.53125 76.089844 Z M 140.53125 76.089844 "/>
</g>
</svg>
