<?xml version="1.0" encoding="UTF-8"?>
<svg xmlns="http://www.w3.org/2000/svg" xmlns:xlink="http://www.w3.org/1999/xlink" width="150px" height="150px" viewBox="0 0 150 150" version="1.1">
<g id="surface1">
<path style=" stroke:none;fill-rule:nonzero;fill:rgb(94.117647%,51.372552%,55.686277%);fill-opacity:1;" d="M 59.726562 22.042969 C 61.039062 23.019531 62.261719 24.039062 63.488281 25.117188 C 64.179688 25.578125 64.871094 26.039062 65.582031 26.511719 C 65.582031 26.972656 65.582031 27.433594 65.582031 27.90625 C 66.554688 27.371094 67.53125 26.832031 68.503906 26.292969 C 69.371094 25.8125 69.371094 25.8125 70.257812 25.324219 C 71.378906 24.691406 72.476562 24.023438 73.5625 23.328125 C 78.875 20.347656 83.695312 19.023438 89.78125 19.097656 C 90.449219 19.105469 91.117188 19.109375 91.804688 19.117188 C 100.375 19.386719 107.121094 22.113281 113.414062 28.09375 C 114.417969 29.300781 114.417969 29.300781 114.417969 30.699219 C 110.542969 29.488281 106.992188 27.8125 103.339844 26.050781 C 97.070312 23.359375 89.246094 23.410156 82.890625 25.769531 C 82.308594 26.019531 81.722656 26.273438 81.117188 26.53125 C 79.664062 27.15625 78.289062 27.570312 76.746094 27.90625 C 76.746094 28.367188 76.746094 28.828125 76.746094 29.300781 C 75.753906 29.960938 74.761719 30.617188 73.75 31.238281 C 72.449219 32.171875 71.519531 33.203125 70.464844 34.402344 C 68.917969 35.980469 68.617188 36.253906 66.324219 36.496094 C 64.210938 35.59375 63.511719 34.992188 62.003906 33.359375 C 57.097656 28.070312 49.660156 25.332031 42.558594 24.8125 C 34.417969 25.050781 26.585938 28.375 20.929688 34.1875 C 20.699219 34.648438 20.46875 35.105469 20.234375 35.582031 C 19.773438 35.582031 19.3125 35.582031 18.835938 35.582031 C 18.664062 36.027344 18.492188 36.472656 18.3125 36.933594 C 17.832031 38.113281 17.335938 39.285156 16.777344 40.429688 C 12.222656 49.894531 12.382812 60.15625 15.144531 70.160156 C 18.15625 78.519531 23.859375 85.808594 30 92.09375 C 30.554688 92.671875 31.105469 93.253906 31.675781 93.851562 C 40.828125 103.265625 51.640625 111.027344 62.789062 117.90625 C 63.828125 118.597656 63.828125 118.597656 64.882812 119.300781 C 67.339844 119.699219 68.417969 119.28125 70.683594 118.167969 C 71.609375 117.347656 71.609375 117.347656 72.558594 116.511719 C 72.714844 114.347656 72.714844 114.347656 72.558594 112.324219 C 71.996094 112.097656 71.429688 111.871094 70.847656 111.636719 C 70.105469 111.332031 69.359375 111.027344 68.589844 110.710938 C 67.855469 110.414062 67.117188 110.113281 66.359375 109.804688 C 62.734375 108.191406 60.039062 106.679688 57.90625 103.253906 C 57.023438 100.339844 56.988281 98.28125 58.039062 95.40625 C 59.796875 92.734375 61.113281 91.023438 64.1875 90 C 69.84375 89.527344 73.988281 89.75 78.835938 92.789062 C 78.605469 94.171875 78.375 95.554688 78.140625 96.976562 C 76.046875 97.675781 76.046875 97.675781 74.214844 97.019531 C 71.332031 96.113281 68.585938 95.871094 65.582031 96.277344 C 63.941406 97.601562 63.941406 97.601562 64.097656 99.855469 C 64.128906 100.515625 64.15625 101.179688 64.1875 101.859375 C 64.789062 102.058594 65.390625 102.253906 66.011719 102.457031 C 68.246094 103.214844 70.449219 104.007812 72.644531 104.871094 C 73.351562 105.140625 74.058594 105.410156 74.789062 105.691406 C 77.058594 106.914062 78.144531 108.070312 79.535156 110.234375 C 80.15625 112.425781 80.125 114.308594 79.535156 116.511719 C 78.144531 118.28125 76.601562 119.574219 74.652344 120.699219 C 74.191406 120.699219 73.730469 120.699219 73.253906 120.699219 C 73.253906 121.15625 73.253906 121.617188 73.253906 122.09375 C 71.085938 124.15625 69.257812 125.152344 66.277344 125.582031 C 61.484375 124.265625 57.191406 121.226562 53.023438 118.605469 C 52.488281 118.273438 51.949219 117.945312 51.398438 117.605469 C 44.929688 113.632812 38.78125 109.3125 32.789062 104.652344 C 31.90625 103.980469 31.90625 103.980469 31.003906 103.300781 C 28.140625 101.117188 25.484375 98.925781 23.023438 96.277344 C 22.566406 95.808594 22.109375 95.339844 21.640625 94.855469 C 10.589844 83.160156 4.570312 69.792969 4.777344 53.59375 C 5.359375 42.851562 9.011719 33.777344 16.917969 26.335938 C 28.882812 16.300781 46.078125 13.679688 59.726562 22.042969 Z M 59.726562 22.042969 "/>
<path style=" stroke:none;fill-rule:nonzero;fill:rgb(94.901961%,51.372552%,55.686277%);fill-opacity:1;" d="M 108.097656 44.257812 C 110.542969 46.300781 112.507812 48.382812 114.417969 50.929688 C 114.710938 51.292969 115.003906 51.65625 115.304688 52.03125 C 122.066406 60.773438 122.9375 71.964844 121.613281 82.585938 C 120.816406 87.28125 119.308594 91.320312 117.210938 95.582031 C 116.652344 96.734375 116.652344 96.734375 116.082031 97.910156 C 107.566406 114.140625 89.492188 129.148438 72.558594 136.046875 C 71.015625 135.757812 71.015625 135.757812 69.765625 135.347656 C 72.496094 132.242188 75.640625 130.261719 79.167969 128.125 C 80.917969 127.070312 80.917969 127.070312 82.125 125.78125 C 82.421875 125.484375 82.71875 125.191406 83.023438 124.882812 C 83.484375 124.882812 83.945312 124.882812 84.417969 124.882812 C 84.417969 124.421875 84.417969 123.960938 84.417969 123.488281 C 85.417969 122.527344 85.417969 122.527344 86.816406 121.394531 C 97.640625 112.160156 110.144531 96.242188 111.628906 81.628906 C 112.238281 71.644531 111.511719 63.390625 105.347656 55.117188 C 100.257812 49.605469 94.796875 46.980469 87.339844 46.613281 C 78.339844 46.800781 71.976562 51.171875 65.582031 57.210938 C 63.640625 55.324219 61.859375 53.441406 60.175781 51.324219 C 57.765625 48.449219 54.8125 46.582031 51.628906 44.652344 C 51.859375 44.191406 52.089844 43.730469 52.324219 43.253906 C 56.140625 43.457031 58.695312 45.121094 61.835938 47.113281 C 63.289062 48.015625 64.738281 48.800781 66.277344 49.535156 C 67.121094 48.457031 67.121094 48.457031 67.980469 47.355469 C 78.34375 35.335938 95.78125 35.078125 108.097656 44.257812 Z M 108.097656 44.257812 "/>
<path style=" stroke:none;fill-rule:nonzero;fill:rgb(95.686275%,49.019608%,54.509807%);fill-opacity:1;" d="M 112.324219 50.929688 C 112.324219 51.390625 112.324219 51.851562 112.324219 52.324219 C 113.015625 52.09375 113.707031 51.863281 114.417969 51.628906 C 121.667969 59.464844 121.050781 69.394531 120.699219 79.535156 C 120.296875 82.925781 119.589844 86.035156 118.605469 89.300781 C 118.367188 90.230469 118.128906 91.160156 117.90625 92.09375 C 116.511719 92.09375 116.511719 92.09375 115.378906 91.046875 C 115.0625 90.699219 114.746094 90.355469 114.417969 90 C 113.265625 90.460938 112.117188 90.921875 110.929688 91.394531 C 111.003906 90.773438 111.003906 90.773438 111.078125 90.140625 C 111.566406 85.664062 111.777344 81.242188 111.800781 76.746094 C 111.816406 76.101562 111.832031 75.460938 111.847656 74.796875 C 111.875 69.773438 111.132812 65.101562 108.75 60.617188 C 107.914062 58.820312 108.320312 57.679688 108.835938 55.8125 C 108.148438 55.582031 107.457031 55.351562 106.746094 55.117188 C 108.179688 52.964844 109.566406 50.929688 112.324219 50.929688 Z M 112.324219 50.929688 "/>
<path style=" stroke:none;fill-rule:nonzero;fill:rgb(92.941177%,54.509807%,58.431375%);fill-opacity:1;" d="M 101.859375 9.070312 C 112.621094 8.4375 121.167969 11.214844 129.398438 18.210938 C 135.519531 23.992188 140.554688 31.75 141.097656 40.332031 C 141.105469 42.710938 141.054688 45.066406 140.929688 47.441406 C 140.238281 47.441406 139.550781 47.441406 138.835938 47.441406 C 138.660156 46.800781 138.480469 46.15625 138.292969 45.496094 C 136.492188 39.417969 134.054688 34.464844 130.457031 29.25 C 129.070312 27.210938 129.070312 27.210938 128.359375 25.625 C 127.464844 24.046875 126.515625 23.753906 124.882812 23.023438 C 124.222656 22.40625 123.558594 21.785156 122.878906 21.148438 C 116.988281 16.003906 109.433594 13.316406 101.859375 11.859375 C 101.859375 10.941406 101.859375 10.019531 101.859375 9.070312 Z M 101.859375 9.070312 "/>
<path style=" stroke:none;fill-rule:nonzero;fill:rgb(93.333334%,53.725493%,58.039218%);fill-opacity:1;" d="M 108.140625 23.722656 C 110.453125 25.394531 112.589844 27.101562 114.417969 29.300781 C 114.417969 29.761719 114.417969 30.222656 114.417969 30.699219 C 110.542969 29.488281 106.992188 27.8125 103.339844 26.050781 C 97.070312 23.359375 89.246094 23.410156 82.890625 25.769531 C 82.308594 26.019531 81.722656 26.273438 81.117188 26.53125 C 79.664062 27.15625 78.289062 27.570312 76.746094 27.90625 C 76.746094 28.367188 76.746094 28.828125 76.746094 29.300781 C 74.933594 30.601562 73.15625 31.792969 71.164062 32.789062 C 71.164062 30.699219 71.164062 28.605469 71.164062 26.511719 C 70.472656 27.203125 69.78125 27.894531 69.070312 28.605469 C 68.609375 28.144531 68.148438 27.683594 67.675781 27.210938 C 78.808594 17.417969 95.398438 16.234375 108.140625 23.722656 Z M 108.140625 23.722656 "/>
<path style=" stroke:none;fill-rule:nonzero;fill:rgb(96.078432%,48.235294%,53.333336%);fill-opacity:1;" d="M 9.765625 36.976562 C 9.996094 37.667969 10.226562 38.359375 10.464844 39.070312 C 11.15625 39.300781 11.847656 39.53125 12.558594 39.765625 C 12.542969 40.675781 12.53125 41.582031 12.515625 42.515625 C 12.507812 45.832031 12.839844 49.035156 13.253906 52.324219 C 12.796875 52.324219 12.335938 52.324219 11.859375 52.324219 C 10.707031 54.636719 11.09375 57.203125 11.121094 59.738281 C 11.125 60.578125 11.125 60.578125 11.128906 61.433594 C 11.136719 62.816406 11.148438 64.199219 11.164062 65.582031 C 9.4375 65.925781 9.4375 65.925781 7.675781 66.277344 C 6.519531 62.21875 6.011719 58.546875 6.015625 54.332031 C 6.015625 53.757812 6.015625 53.1875 6.015625 52.597656 C 6.097656 47.984375 6.355469 40.386719 9.765625 36.976562 Z M 9.765625 36.976562 "/>
<path style=" stroke:none;fill-rule:nonzero;fill:rgb(92.941177%,54.509807%,57.647061%);fill-opacity:1;" d="M 75.347656 41.164062 C 75.347656 41.851562 75.347656 42.542969 75.347656 43.253906 C 73.953125 44.433594 73.953125 44.433594 72.558594 45.347656 C 72.789062 45.808594 73.019531 46.269531 73.253906 46.746094 C 75.328125 46.746094 77.398438 46.746094 79.535156 46.746094 C 77.652344 48.1875 75.730469 49.515625 73.734375 50.800781 C 70.804688 52.734375 68.199219 54.871094 65.582031 57.210938 C 63.640625 55.324219 61.859375 53.441406 60.175781 51.324219 C 57.765625 48.449219 54.8125 46.582031 51.628906 44.652344 C 51.859375 44.191406 52.089844 43.730469 52.324219 43.253906 C 56.140625 43.457031 58.695312 45.121094 61.835938 47.113281 C 63.289062 48.015625 64.738281 48.800781 66.277344 49.535156 C 66.523438 49.222656 66.769531 48.910156 67.023438 48.589844 C 69.527344 45.523438 72.046875 43.34375 75.347656 41.164062 Z M 75.347656 41.164062 "/>
<path style=" stroke:none;fill-rule:nonzero;fill:rgb(93.725491%,50.980395%,54.901963%);fill-opacity:1;" d="M 75.09375 90.625 C 76.613281 91.394531 76.613281 91.394531 78.835938 92.789062 C 78.605469 94.171875 78.375 95.554688 78.140625 96.976562 C 76.046875 97.675781 76.046875 97.675781 74.214844 97.019531 C 71.332031 96.113281 68.585938 95.871094 65.582031 96.277344 C 63.941406 97.601562 63.941406 97.601562 64.097656 99.855469 C 64.140625 100.847656 64.140625 100.847656 64.1875 101.859375 C 64.785156 102.054688 65.382812 102.246094 66 102.445312 C 68.320312 103.238281 70.5625 104.132812 72.820312 105.085938 C 73.558594 105.398438 74.296875 105.710938 75.058594 106.03125 C 75.617188 106.265625 76.171875 106.5 76.746094 106.746094 C 73.929688 107.894531 72.082031 106.902344 69.375 105.785156 C 68.582031 105.464844 67.789062 105.140625 66.972656 104.808594 C 66.285156 104.527344 65.59375 104.246094 64.882812 103.953125 C 64.191406 103.722656 63.503906 103.492188 62.789062 103.253906 C 62.789062 100.492188 62.789062 97.730469 62.789062 94.882812 C 63.941406 94.882812 65.09375 94.882812 66.277344 94.882812 C 65.363281 93.792969 65.363281 93.792969 64.1875 92.789062 C 63.496094 92.789062 62.804688 92.789062 62.09375 92.789062 C 62.09375 93.25 62.09375 93.710938 62.09375 94.1875 C 61.402344 94.1875 60.710938 94.1875 60 94.1875 C 60 94.648438 60 95.105469 60 95.582031 C 59.539062 95.582031 59.078125 95.582031 58.605469 95.582031 C 59.503906 93.574219 60.398438 92.121094 62.09375 90.699219 C 66.125 89.355469 71.054688 89.253906 75.09375 90.625 Z M 75.09375 90.625 "/>
<path style=" stroke:none;fill-rule:nonzero;fill:rgb(92.156863%,54.901963%,58.039218%);fill-opacity:1;" d="M 92.09375 116.511719 C 96.105469 117.734375 96.105469 117.734375 97.675781 119.300781 C 80.078125 134.566406 80.078125 134.566406 70.464844 136.046875 C 70.234375 135.585938 70.003906 135.125 69.765625 134.652344 C 75.671875 129.886719 75.671875 129.886719 78.75 128.199219 C 80.5625 127.183594 81.628906 126.351562 83.023438 124.882812 C 83.484375 124.882812 83.945312 124.882812 84.417969 124.882812 C 84.417969 124.421875 84.417969 123.960938 84.417969 123.488281 C 85.566406 122.355469 85.566406 122.355469 87.078125 121.089844 C 88.820312 119.621094 90.503906 118.148438 92.09375 116.511719 Z M 92.09375 116.511719 "/>
<path style=" stroke:none;fill-rule:nonzero;fill:rgb(95.686275%,49.019608%,54.11765%);fill-opacity:1;" d="M 18.835938 82.324219 C 19.527344 82.785156 20.21875 83.246094 20.929688 83.722656 C 21.390625 83.492188 21.851562 83.261719 22.324219 83.023438 C 24.199219 85.734375 25.789062 88.410156 27.210938 91.394531 C 26.75 91.855469 26.289062 92.316406 25.8125 92.789062 C 26.042969 93.480469 26.273438 94.171875 26.511719 94.882812 C 27.894531 95.113281 29.273438 95.34375 30.699219 95.582031 C 30.929688 96.503906 31.15625 97.421875 31.394531 98.371094 C 30.246094 98.601562 29.09375 98.832031 27.90625 99.070312 C 27.675781 97.917969 27.445312 96.765625 27.210938 95.582031 C 25.828125 95.582031 24.445312 95.582031 23.023438 95.582031 C 22.964844 95.035156 22.90625 94.488281 22.847656 93.925781 C 22.53125 92.007812 22.53125 92.007812 21.015625 91.351562 C 20.527344 91.136719 20.039062 90.921875 19.535156 90.699219 C 17.835938 88.996094 17.464844 88.148438 17.222656 85.726562 C 17.441406 83.722656 17.441406 83.722656 18.835938 82.324219 Z M 18.835938 82.324219 "/>
<path style=" stroke:none;fill-rule:nonzero;fill:rgb(92.156863%,58.431375%,61.56863%);fill-opacity:1;" d="M 137.441406 30 C 141.242188 35.703125 141.183594 40.746094 140.929688 47.441406 C 140.238281 47.441406 139.550781 47.441406 138.835938 47.441406 C 138.496094 46.371094 138.496094 46.371094 138.148438 45.273438 C 137.839844 44.324219 137.53125 43.375 137.222656 42.425781 C 137 41.722656 137 41.722656 136.773438 41.003906 C 135.875 38.253906 134.796875 35.957031 133.253906 33.488281 C 133.253906 33.027344 133.253906 32.566406 133.253906 32.09375 C 135.871094 31.308594 135.871094 31.308594 137.441406 32.09375 C 137.441406 31.402344 137.441406 30.710938 137.441406 30 Z M 137.441406 30 "/>
<path style=" stroke:none;fill-rule:nonzero;fill:rgb(91.37255%,59.215689%,61.56863%);fill-opacity:1;" d="M 95.582031 19.535156 C 102.378906 19.785156 108.546875 23.855469 113.441406 28.21875 C 114.417969 29.300781 114.417969 29.300781 114.417969 30.699219 C 111.421875 29.765625 108.6875 28.59375 105.871094 27.210938 C 102.011719 25.390625 98.410156 24.273438 94.1875 23.722656 C 94.1875 23.492188 94.1875 23.261719 94.1875 23.023438 C 96.027344 22.792969 97.871094 22.5625 99.765625 22.324219 C 97.925781 21.863281 96.082031 21.40625 94.1875 20.929688 C 94.648438 20.46875 95.105469 20.007812 95.582031 19.535156 Z M 95.582031 19.535156 "/>
<path style=" stroke:none;fill-rule:nonzero;fill:rgb(96.078432%,49.411765%,54.901963%);fill-opacity:1;" d="M 64.1875 92.09375 C 64.875 92.554688 65.566406 93.015625 66.277344 93.488281 C 66.277344 93.949219 66.277344 94.410156 66.277344 94.882812 C 65.359375 95.113281 64.4375 95.34375 63.488281 95.582031 C 63.488281 97.882812 63.488281 100.1875 63.488281 102.558594 C 63.949219 102.789062 64.410156 103.019531 64.882812 103.253906 C 64.191406 104.984375 64.191406 104.984375 63.488281 106.746094 C 63.027344 106.515625 62.566406 106.285156 62.09375 106.046875 C 62.09375 105.585938 62.09375 105.125 62.09375 104.652344 C 61.632812 104.652344 61.171875 104.652344 60.699219 104.652344 C 60.699219 103.960938 60.699219 103.269531 60.699219 102.558594 C 60.238281 102.558594 59.777344 102.558594 59.300781 102.558594 C 58.84375 100.253906 58.382812 97.953125 57.90625 95.582031 C 58.597656 95.582031 59.289062 95.582031 60 95.582031 C 60 95.121094 60 94.660156 60 94.1875 C 60.691406 94.1875 61.382812 94.1875 62.09375 94.1875 C 62.09375 93.726562 62.09375 93.265625 62.09375 92.789062 C 62.785156 92.558594 63.472656 92.332031 64.1875 92.09375 Z M 64.1875 92.09375 "/>
<path style=" stroke:none;fill-rule:nonzero;fill:rgb(92.941177%,54.11765%,58.431375%);fill-opacity:1;" d="M 57.90625 21.628906 C 60.78125 22.964844 63.234375 24.371094 65.582031 26.511719 C 65.582031 26.972656 65.582031 27.433594 65.582031 27.90625 C 66.273438 28.136719 66.960938 28.367188 67.675781 28.605469 C 66.753906 28.605469 65.832031 28.605469 64.882812 28.605469 C 64.882812 28.144531 64.882812 27.683594 64.882812 27.210938 C 63.960938 27.210938 63.042969 27.210938 62.09375 27.210938 C 62.09375 27.667969 62.09375 28.128906 62.09375 28.605469 C 61.402344 28.949219 61.402344 28.949219 60.699219 29.300781 C 60.699219 29.761719 60.699219 30.222656 60.699219 30.699219 C 56.421875 29.414062 52.546875 27.589844 48.835938 25.117188 C 49.535156 24.417969 49.535156 24.417969 51.496094 24.246094 C 53.949219 24.4375 54.691406 24.953125 56.511719 26.511719 C 56.972656 26.511719 57.433594 26.511719 57.90625 26.511719 C 58.558594 24.410156 58.636719 23.8125 57.90625 21.628906 Z M 57.90625 21.628906 "/>
<path style=" stroke:none;fill-rule:nonzero;fill:rgb(91.764706%,50.980395%,54.509807%);fill-opacity:1;" d="M 90.652344 19.402344 C 91.539062 19.394531 92.421875 19.382812 93.332031 19.375 C 95.582031 19.535156 95.582031 19.535156 96.976562 20.929688 C 98.128906 21.421875 99.289062 21.894531 100.464844 22.324219 C 100.464844 22.554688 100.464844 22.785156 100.464844 23.023438 C 95.101562 23.761719 89.828125 23.789062 84.417969 23.722656 C 85.246094 19.109375 85.980469 19.429688 90.652344 19.402344 Z M 90.652344 19.402344 "/>
<path style=" stroke:none;fill-rule:nonzero;fill:rgb(89.411765%,58.431375%,61.176473%);fill-opacity:1;" d="M 52.324219 43.253906 C 56.132812 43.457031 58.648438 45.105469 61.769531 47.113281 C 63.460938 48.125 65.128906 48.851562 66.976562 49.535156 C 66.976562 49.996094 66.976562 50.457031 66.976562 50.929688 C 65.824219 50.929688 64.675781 50.929688 63.488281 50.929688 C 63.71875 51.851562 63.949219 52.773438 64.1875 53.722656 C 63.496094 53.722656 62.804688 53.722656 62.09375 53.722656 C 61.195312 52.800781 61.195312 52.800781 60.261719 51.539062 C 57.832031 48.53125 54.910156 46.640625 51.628906 44.652344 C 51.859375 44.191406 52.089844 43.730469 52.324219 43.253906 Z M 52.324219 43.253906 "/>
<path style=" stroke:none;fill-rule:nonzero;fill:rgb(94.901961%,49.411765%,53.333336%);fill-opacity:1;" d="M 75.347656 108.140625 C 76.269531 108.140625 77.191406 108.140625 78.140625 108.140625 C 79.597656 110.324219 79.726562 110.914062 79.710938 113.414062 C 79.714844 113.964844 79.714844 114.511719 79.71875 115.074219 C 79.535156 116.511719 79.535156 116.511719 78.140625 117.90625 C 75.960938 117.996094 75.960938 117.996094 73.953125 117.90625 C 72.867188 113.960938 73.785156 111.769531 75.347656 108.140625 Z M 75.347656 108.140625 "/>
<path style=" stroke:none;fill-rule:nonzero;fill:rgb(90.980393%,58.431375%,62.352943%);fill-opacity:1;" d="M 85.117188 127.675781 C 81.414062 132.015625 76.132812 135.183594 70.464844 136.046875 C 70.234375 135.585938 70.003906 135.125 69.765625 134.652344 C 80.195312 126.234375 80.195312 126.234375 85.117188 127.675781 Z M 85.117188 127.675781 "/>
<path style=" stroke:none;fill-rule:nonzero;fill:rgb(94.509804%,52.941179%,57.647061%);fill-opacity:1;" d="M 25.117188 87.90625 C 28.796875 90.945312 32.152344 94.207031 35.484375 97.621094 C 36.855469 99.097656 36.855469 99.097656 38.371094 99.765625 C 38.371094 100.226562 38.371094 100.6875 38.371094 101.164062 C 37.222656 100.933594 36.070312 100.703125 34.882812 100.464844 C 34.652344 99.773438 34.421875 99.082031 34.1875 98.371094 C 33.496094 98.371094 32.804688 98.371094 32.09375 98.371094 C 32.324219 97.679688 32.554688 96.992188 32.789062 96.277344 C 32.355469 96.21875 31.917969 96.160156 31.464844 96.097656 C 29.742188 95.800781 28.15625 95.480469 26.511719 94.882812 C 25.421875 93.050781 25.421875 93.050781 25.117188 91.394531 C 25.578125 91.164062 26.039062 90.933594 26.511719 90.699219 C 26.050781 89.777344 25.589844 88.855469 25.117188 87.90625 Z M 25.117188 87.90625 "/>
<path style=" stroke:none;fill-rule:nonzero;fill:rgb(91.764706%,56.078434%,59.607846%);fill-opacity:1;" d="M 19.535156 24.417969 C 19.765625 25.109375 19.996094 25.800781 20.234375 26.511719 C 19.828125 26.886719 19.425781 27.261719 19.011719 27.644531 C 17.292969 29.460938 16.027344 31.402344 14.652344 33.488281 C 14.261719 33.847656 13.875 34.207031 13.472656 34.578125 C 12.214844 35.957031 12.105469 37.253906 11.859375 39.070312 C 11.398438 39.070312 10.941406 39.070312 10.464844 39.070312 C 10.003906 38.148438 9.542969 37.226562 9.070312 36.277344 C 12.074219 31.613281 15.160156 27.851562 19.535156 24.417969 Z M 19.535156 24.417969 "/>
<path style=" stroke:none;fill-rule:nonzero;fill:rgb(91.764706%,59.607846%,63.921571%);fill-opacity:1;" d="M 120 62.789062 C 120.230469 62.789062 120.460938 62.789062 120.699219 62.789062 C 122.679688 73.082031 122.832031 82.988281 118.605469 92.789062 C 118.375 92.789062 118.144531 92.789062 117.90625 92.789062 C 118.003906 91.527344 118.109375 90.261719 118.210938 88.996094 C 118.269531 88.292969 118.324219 87.589844 118.382812 86.863281 C 118.605469 85.117188 118.605469 85.117188 119.300781 84.417969 C 120.203125 79.921875 120.078125 75.429688 120.042969 70.859375 C 120.039062 70.082031 120.039062 69.304688 120.035156 68.503906 C 120.027344 66.601562 120.015625 64.695312 120 62.789062 Z M 120 62.789062 "/>
<path style=" stroke:none;fill-rule:nonzero;fill:rgb(90.588236%,51.372552%,55.29412%);fill-opacity:1;" d="M 11.164062 51.628906 C 12.199219 52.320312 12.199219 52.320312 13.253906 53.023438 C 13.28125 54.46875 13.292969 55.917969 13.238281 57.363281 C 13.28125 62.226562 14.371094 67.109375 15.347656 71.859375 C 14.199219 70.710938 13.046875 69.558594 11.859375 68.371094 C 12.320312 68.140625 12.78125 67.910156 13.253906 67.675781 C 13.253906 67.214844 13.253906 66.753906 13.253906 66.277344 C 12.796875 66.277344 12.335938 66.277344 11.859375 66.277344 C 10.769531 64.097656 10.871094 61.746094 10.726562 59.347656 C 10.691406 58.835938 10.65625 58.328125 10.617188 57.804688 C 10.476562 55.515625 10.429688 53.824219 11.164062 51.628906 Z M 11.164062 51.628906 "/>
<path style=" stroke:none;fill-rule:nonzero;fill:rgb(92.156863%,58.823532%,61.176473%);fill-opacity:1;" d="M 62.789062 94.882812 C 65.324219 94.882812 67.855469 94.882812 70.464844 94.882812 C 70.464844 95.113281 70.464844 95.34375 70.464844 95.582031 C 69.6875 95.667969 68.910156 95.753906 68.109375 95.84375 C 65.558594 96.03125 65.558594 96.03125 64.1875 97.675781 C 64.070312 99.824219 64.070312 99.824219 64.1875 101.859375 C 64.785156 102.054688 65.382812 102.246094 66 102.445312 C 68.320312 103.238281 70.5625 104.132812 72.820312 105.085938 C 73.558594 105.398438 74.296875 105.710938 75.058594 106.03125 C 75.617188 106.265625 76.171875 106.5 76.746094 106.746094 C 73.929688 107.894531 72.082031 106.902344 69.375 105.785156 C 68.582031 105.464844 67.789062 105.140625 66.972656 104.808594 C 66.285156 104.527344 65.59375 104.246094 64.882812 103.953125 C 64.191406 103.722656 63.503906 103.492188 62.789062 103.253906 C 62.789062 100.492188 62.789062 97.730469 62.789062 94.882812 Z M 62.789062 94.882812 "/>
<path style=" stroke:none;fill-rule:nonzero;fill:rgb(92.941177%,60.000002%,62.7451%);fill-opacity:1;" d="M 85.8125 19.535156 C 85.582031 20.6875 85.351562 21.835938 85.117188 23.023438 C 85.808594 23.484375 86.496094 23.945312 87.210938 24.417969 C 82.585938 25.289062 82.585938 25.289062 80.234375 23.722656 C 78.609375 23.445312 76.984375 23.207031 75.347656 23.023438 C 78.496094 20.359375 81.695312 19.292969 85.8125 19.535156 Z M 85.8125 19.535156 "/>
<path style=" stroke:none;fill-rule:nonzero;fill:rgb(90.980393%,57.254905%,59.607846%);fill-opacity:1;" d="M 17.441406 33.488281 C 18.59375 33.488281 19.746094 33.488281 20.929688 33.488281 C 20.699219 34.179688 20.46875 34.871094 20.234375 35.582031 C 19.773438 35.582031 19.3125 35.582031 18.835938 35.582031 C 18.664062 36.027344 18.492188 36.472656 18.3125 36.933594 C 17.585938 38.71875 16.808594 40.457031 16.003906 42.210938 C 15.015625 44.410156 14.265625 46.425781 13.953125 48.835938 C 13.492188 48.835938 13.03125 48.835938 12.558594 48.835938 C 12.558594 47.457031 12.558594 46.074219 12.558594 44.652344 C 13.019531 44.652344 13.480469 44.652344 13.953125 44.652344 C 14.046875 44.179688 14.140625 43.707031 14.234375 43.222656 C 14.417969 42.289062 14.417969 42.289062 14.609375 41.335938 C 14.730469 40.722656 14.851562 40.105469 14.976562 39.472656 C 15.296875 37.929688 15.652344 36.40625 16.046875 34.882812 C 16.507812 34.882812 16.96875 34.882812 17.441406 34.882812 C 17.441406 34.421875 17.441406 33.960938 17.441406 33.488281 Z M 17.441406 33.488281 "/>
<path style=" stroke:none;fill-rule:nonzero;fill:rgb(92.941177%,61.56863%,64.313728%);fill-opacity:1;" d="M 73.253906 115.117188 C 73.484375 116.039062 73.714844 116.957031 73.953125 117.90625 C 75.105469 117.90625 76.253906 117.90625 77.441406 117.90625 C 76.542969 118.867188 75.609375 119.796875 74.652344 120.699219 C 74.191406 120.699219 73.730469 120.699219 73.253906 120.699219 C 73.253906 121.15625 73.253906 121.617188 73.253906 122.09375 C 72.796875 122.09375 72.335938 122.09375 71.859375 122.09375 C 71.859375 121.402344 71.859375 120.710938 71.859375 120 C 70.25 120.460938 68.636719 120.921875 66.976562 121.394531 C 66.746094 120.933594 66.515625 120.472656 66.277344 120 C 66.722656 119.765625 67.167969 119.527344 67.628906 119.285156 C 68.203125 118.976562 68.78125 118.664062 69.375 118.34375 C 69.949219 118.035156 70.523438 117.726562 71.117188 117.410156 C 72.652344 116.628906 72.652344 116.628906 73.253906 115.117188 Z M 73.253906 115.117188 "/>
<path style=" stroke:none;fill-rule:nonzero;fill:rgb(93.333334%,56.078434%,60.392159%);fill-opacity:1;" d="M 39.765625 17.441406 C 38.617188 19.742188 36.398438 20.152344 34.085938 21.054688 C 31.070312 21.921875 28.222656 21.867188 25.117188 21.628906 C 29.082031 18.304688 34.644531 17.027344 39.765625 17.441406 Z M 39.765625 17.441406 "/>
<path style=" stroke:none;fill-rule:nonzero;fill:rgb(92.156863%,50.196081%,53.725493%);fill-opacity:1;" d="M 78.855469 22.839844 C 80.234375 23.023438 80.234375 23.023438 82.324219 24.417969 C 82.324219 24.878906 82.324219 25.339844 82.324219 25.8125 C 80.507812 27.003906 79.605469 27.214844 77.398438 27.078125 C 75.332031 26.507812 74.550781 26.074219 73.253906 24.417969 C 75.074219 22.601562 76.375 22.855469 78.855469 22.839844 Z M 78.855469 22.839844 "/>
<path style=" stroke:none;fill-rule:nonzero;fill:rgb(89.019608%,58.039218%,60.392159%);fill-opacity:1;" d="M 68.851562 89.957031 C 70.085938 89.964844 70.085938 89.964844 71.34375 89.976562 C 71.976562 89.984375 72.605469 89.992188 73.253906 90 C 73.253906 90.691406 73.253906 91.382812 73.253906 92.09375 C 72.683594 92.085938 72.113281 92.078125 71.523438 92.070312 C 70.769531 92.0625 70.019531 92.054688 69.246094 92.050781 C 68.5 92.042969 67.753906 92.035156 66.988281 92.023438 C 65.210938 92.082031 63.78125 92.269531 62.09375 92.789062 C 62.09375 93.25 62.09375 93.710938 62.09375 94.1875 C 61.402344 94.1875 60.710938 94.1875 60 94.1875 C 60 94.648438 60 95.105469 60 95.582031 C 59.539062 95.582031 59.078125 95.582031 58.605469 95.582031 C 59.503906 93.574219 60.398438 92.121094 62.09375 90.699219 C 64.480469 89.902344 66.339844 89.929688 68.851562 89.957031 Z M 68.851562 89.957031 "/>
<path style=" stroke:none;fill-rule:nonzero;fill:rgb(89.803922%,56.078434%,59.215689%);fill-opacity:1;" d="M 101.859375 9.070312 C 104.851562 9.070312 107.847656 9.070312 110.929688 9.070312 C 110.929688 9.992188 110.929688 10.910156 110.929688 11.859375 C 110.109375 11.839844 110.109375 11.839844 109.273438 11.816406 C 107.453125 11.730469 107.453125 11.730469 106.046875 12.558594 C 104.40625 12.132812 102.777344 11.671875 101.164062 11.164062 C 101.394531 10.472656 101.625 9.78125 101.859375 9.070312 Z M 101.859375 9.070312 "/>
<path style=" stroke:none;fill-rule:nonzero;fill:rgb(94.509804%,47.450981%,51.372552%);fill-opacity:1;" d="M 57.90625 21.628906 C 58.902344 23.269531 59.363281 24.054688 59.039062 25.988281 C 58.898438 26.390625 58.753906 26.792969 58.605469 27.210938 C 55.425781 27.46875 55.425781 27.46875 53.851562 26.164062 C 53.578125 25.816406 53.304688 25.472656 53.023438 25.117188 C 54.261719 22.375 54.753906 21.628906 57.90625 21.628906 Z M 57.90625 21.628906 "/>
<path style=" stroke:none;fill-rule:nonzero;fill:rgb(91.764706%,49.411765%,52.941179%);fill-opacity:1;" d="M 63.488281 50.929688 C 64.640625 50.929688 65.789062 50.929688 66.976562 50.929688 C 67.207031 52.542969 67.4375 54.152344 67.675781 55.8125 C 66.292969 56.503906 66.292969 56.503906 64.882812 57.210938 C 63.488281 55.8125 63.488281 55.8125 63.402344 53.285156 C 63.429688 52.507812 63.457031 51.730469 63.488281 50.929688 Z M 63.488281 50.929688 "/>
<path style=" stroke:none;fill-rule:nonzero;fill:rgb(89.803922%,64.313728%,64.705884%);fill-opacity:1;" d="M 139.535156 37.675781 C 139.996094 37.675781 140.457031 37.675781 140.929688 37.675781 C 140.929688 40.898438 140.929688 44.121094 140.929688 47.441406 C 140.238281 47.441406 139.550781 47.441406 138.835938 47.441406 C 137.355469 44.214844 137.355469 44.214844 138.140625 41.859375 C 138.601562 42.089844 139.058594 42.320312 139.535156 42.558594 C 139.535156 40.945312 139.535156 39.335938 139.535156 37.675781 Z M 139.535156 37.675781 "/>
<path style=" stroke:none;fill-rule:nonzero;fill:rgb(95.686275%,49.019608%,53.725493%);fill-opacity:1;" d="M 37.675781 103.953125 C 38.363281 104.183594 39.054688 104.414062 39.765625 104.652344 C 40.226562 104.421875 40.6875 104.191406 41.164062 103.953125 C 41.351562 104.398438 41.535156 104.84375 41.730469 105.304688 C 42.480469 106.976562 42.480469 106.976562 44.652344 107.441406 C 44.421875 107.902344 44.191406 108.363281 43.953125 108.835938 C 39.488281 108.492188 39.488281 108.492188 37.371094 106.699219 C 36.828125 106.03125 36.828125 106.03125 36.277344 105.347656 C 36.738281 104.886719 37.199219 104.429688 37.675781 103.953125 Z M 37.675781 103.953125 "/>
<path style=" stroke:none;fill-rule:nonzero;fill:rgb(88.627452%,64.313728%,63.137257%);fill-opacity:1;" d="M 76.046875 129.765625 C 76.507812 129.996094 76.96875 130.226562 77.441406 130.464844 C 76.980469 130.925781 76.519531 131.386719 76.046875 131.859375 C 76.738281 132.320312 77.429688 132.78125 78.140625 133.253906 C 77.273438 133.746094 76.398438 134.222656 75.523438 134.695312 C 74.792969 135.09375 74.792969 135.09375 74.050781 135.503906 C 72.304688 136.136719 71.488281 135.964844 69.765625 135.347656 C 71.757812 133.304688 73.710938 131.410156 76.046875 129.765625 Z M 76.046875 129.765625 "/>
<path style=" stroke:none;fill-rule:nonzero;fill:rgb(85.09804%,57.647061%,59.215689%);fill-opacity:1;" d="M 106.746094 24.417969 C 109.070312 24.835938 110.382812 25.617188 112.152344 27.164062 C 112.578125 27.53125 113.007812 27.898438 113.449219 28.273438 C 114.417969 29.300781 114.417969 29.300781 114.417969 30.699219 C 111.292969 29.824219 109.085938 28.785156 106.746094 26.511719 C 106.746094 25.820312 106.746094 25.128906 106.746094 24.417969 Z M 106.746094 24.417969 "/>
<path style=" stroke:none;fill-rule:nonzero;fill:rgb(91.764706%,60.392159%,63.137257%);fill-opacity:1;" d="M 107.441406 94.1875 C 107.671875 94.1875 107.902344 94.1875 108.140625 94.1875 C 108.457031 98.175781 107.804688 100.105469 105.347656 103.253906 C 104.429688 103.027344 103.507812 102.796875 102.558594 102.558594 C 103.355469 101.160156 104.15625 99.765625 104.957031 98.371094 C 105.402344 97.59375 105.847656 96.816406 106.304688 96.015625 C 106.679688 95.414062 107.054688 94.808594 107.441406 94.1875 Z M 107.441406 94.1875 "/>
<path style=" stroke:none;fill-rule:nonzero;fill:rgb(91.37255%,63.137257%,64.705884%);fill-opacity:1;" d="M 57.210938 97.675781 C 57.667969 97.675781 58.128906 97.675781 58.605469 97.675781 C 58.835938 99.285156 59.066406 100.898438 59.300781 102.558594 C 59.761719 102.558594 60.222656 102.558594 60.699219 102.558594 C 60.699219 103.25 60.699219 103.941406 60.699219 104.652344 C 61.15625 104.652344 61.617188 104.652344 62.09375 104.652344 C 61.863281 105.570312 61.632812 106.492188 61.394531 107.441406 C 58.214844 104.179688 57.445312 102.222656 57.210938 97.675781 Z M 57.210938 97.675781 "/>
<path style=" stroke:none;fill-rule:nonzero;fill:rgb(91.764706%,58.039218%,60.392159%);fill-opacity:1;" d="M 92.789062 38.371094 C 96.472656 38.746094 99.25 39.609375 102.558594 41.164062 C 102.328125 41.851562 102.097656 42.542969 101.859375 43.253906 C 101.167969 43.253906 100.480469 43.253906 99.765625 43.253906 C 99.765625 42.566406 99.765625 41.875 99.765625 41.164062 C 99.132812 41.089844 98.5 41.019531 97.847656 40.945312 C 95.566406 40.460938 94.507812 39.890625 92.789062 38.371094 Z M 92.789062 38.371094 "/>
<path style=" stroke:none;fill-rule:nonzero;fill:rgb(92.156863%,60.000002%,61.960787%);fill-opacity:1;" d="M 86.511719 38.371094 C 86.742188 38.832031 86.972656 39.292969 87.210938 39.765625 C 86.546875 39.984375 85.886719 40.199219 85.203125 40.421875 C 83.121094 41.074219 83.121094 41.074219 81.628906 41.859375 C 79.996094 41.664062 78.367188 41.433594 76.746094 41.164062 C 79.332031 38.574219 82.957031 38.15625 86.511719 38.371094 Z M 86.511719 38.371094 "/>
<path style=" stroke:none;fill-rule:nonzero;fill:rgb(92.156863%,63.529414%,65.098041%);fill-opacity:1;" d="M 47.441406 114.417969 C 50.710938 114.828125 53.808594 116.027344 56.511719 117.90625 C 57.375 119.398438 57.375 119.398438 57.90625 120.699219 C 55.339844 119.742188 53.054688 118.578125 50.710938 117.164062 C 50.097656 116.796875 49.480469 116.429688 48.84375 116.050781 C 48.382812 115.742188 47.917969 115.433594 47.441406 115.117188 C 47.441406 114.886719 47.441406 114.65625 47.441406 114.417969 Z M 47.441406 114.417969 "/>
<path style=" stroke:none;fill-rule:nonzero;fill:rgb(91.37255%,59.215689%,61.960787%);fill-opacity:1;" d="M 6.277344 66.976562 C 6.738281 66.976562 7.199219 66.976562 7.675781 66.976562 C 7.90625 68.589844 8.136719 70.199219 8.371094 71.859375 C 8.832031 71.859375 9.292969 71.859375 9.765625 71.859375 C 9.765625 73.011719 9.765625 74.164062 9.765625 75.347656 C 10.226562 75.578125 10.6875 75.808594 11.164062 76.046875 C 10.472656 77.082031 10.472656 77.082031 9.765625 78.140625 C 9.183594 76.671875 8.601562 75.203125 8.023438 73.734375 C 7.699219 72.917969 7.375 72.101562 7.042969 71.257812 C 6.277344 69.070312 6.277344 69.070312 6.277344 66.976562 Z M 6.277344 66.976562 "/>
<path style=" stroke:none;fill-rule:nonzero;fill:rgb(94.901961%,47.450981%,53.333336%);fill-opacity:1;" d="M 54.417969 115.117188 C 54.878906 115.117188 55.339844 115.117188 55.8125 115.117188 C 55.8125 115.578125 55.8125 116.039062 55.8125 116.511719 C 56.964844 116.742188 58.117188 116.972656 59.300781 117.210938 C 59.53125 118.128906 59.761719 119.050781 60 120 C 59.308594 120.230469 58.617188 120.460938 57.90625 120.699219 C 56.164062 119.085938 56.164062 119.085938 54.417969 117.210938 C 54.417969 116.519531 54.417969 115.828125 54.417969 115.117188 Z M 54.417969 115.117188 "/>
<path style=" stroke:none;fill-rule:nonzero;fill:rgb(92.156863%,58.431375%,61.56863%);fill-opacity:1;" d="M 38.371094 101.164062 C 41.304688 102.851562 44.007812 104.757812 46.746094 106.746094 C 45.007812 107.222656 43.6875 107.441406 41.859375 107.441406 C 41.671875 107.023438 41.488281 106.605469 41.292969 106.175781 C 40.542969 104.621094 40.542969 104.621094 39.332031 103.515625 C 39.015625 103.199219 38.699219 102.882812 38.371094 102.558594 C 38.371094 102.097656 38.371094 101.636719 38.371094 101.164062 Z M 38.371094 101.164062 "/>
<path style=" stroke:none;fill-rule:nonzero;fill:rgb(94.901961%,63.921571%,66.666669%);fill-opacity:1;" d="M 110.929688 64.1875 C 111.621094 64.417969 112.3125 64.648438 113.023438 64.882812 C 114.136719 67.390625 113.636719 70.066406 113.414062 72.734375 C 113.34375 73.613281 113.273438 74.496094 113.199219 75.402344 C 113.140625 76.074219 113.082031 76.75 113.023438 77.441406 C 112.792969 77.441406 112.5625 77.441406 112.324219 77.441406 C 112.261719 76.621094 112.261719 76.621094 112.199219 75.78125 C 111.886719 71.894531 111.542969 68.039062 110.929688 64.1875 Z M 110.929688 64.1875 "/>
<path style=" stroke:none;fill-rule:nonzero;fill:rgb(94.509804%,61.960787%,65.882355%);fill-opacity:1;" d="M 12.558594 59.300781 C 12.789062 59.300781 13.019531 59.300781 13.253906 59.300781 C 13.347656 59.917969 13.441406 60.53125 13.535156 61.164062 C 13.660156 61.972656 13.78125 62.785156 13.910156 63.621094 C 14.03125 64.421875 14.152344 65.222656 14.277344 66.046875 C 14.589844 67.996094 14.945312 69.925781 15.347656 71.859375 C 14.199219 70.710938 13.046875 69.558594 11.859375 68.371094 C 12.320312 68.140625 12.78125 67.910156 13.253906 67.675781 C 13.253906 67.214844 13.253906 66.753906 13.253906 66.277344 C 12.796875 66.277344 12.335938 66.277344 11.859375 66.277344 C 12.089844 63.976562 12.320312 61.675781 12.558594 59.300781 Z M 12.558594 59.300781 "/>
<path style=" stroke:none;fill-rule:nonzero;fill:rgb(89.803922%,58.039218%,60.392159%);fill-opacity:1;" d="M 77.441406 108.140625 C 78.859375 109.308594 79.480469 109.921875 79.8125 111.761719 C 79.808594 112.308594 79.800781 112.851562 79.796875 113.414062 C 79.800781 113.964844 79.808594 114.511719 79.8125 115.074219 C 79.722656 115.550781 79.628906 116.023438 79.535156 116.511719 C 78.84375 116.972656 78.152344 117.433594 77.441406 117.90625 C 77.5 117.496094 77.558594 117.082031 77.617188 116.65625 C 78.007812 113.652344 78.300781 111.101562 77.441406 108.140625 Z M 77.441406 108.140625 "/>
<path style=" stroke:none;fill-rule:nonzero;fill:rgb(90.588236%,57.647061%,59.215689%);fill-opacity:1;" d="M 106.046875 108.835938 C 106.738281 109.066406 107.429688 109.296875 108.140625 109.535156 C 105.835938 111.835938 103.535156 114.140625 101.164062 116.511719 C 100.933594 116.050781 100.703125 115.589844 100.464844 115.117188 C 101.359375 113.925781 102.292969 112.761719 103.253906 111.628906 C 103.714844 111.628906 104.175781 111.628906 104.652344 111.628906 C 105.113281 110.707031 105.570312 109.785156 106.046875 108.835938 Z M 106.046875 108.835938 "/>
<path style=" stroke:none;fill-rule:nonzero;fill:rgb(94.509804%,45.882353%,50.588238%);fill-opacity:1;" d="M 60 96.976562 C 60.691406 96.976562 61.382812 96.976562 62.09375 96.976562 C 62.324219 98.128906 62.554688 99.277344 62.789062 100.464844 C 61.0625 101.5 61.0625 101.5 59.300781 102.558594 C 58.867188 100.945312 58.867188 100.945312 58.605469 99.070312 C 59.066406 98.378906 59.527344 97.6875 60 96.976562 Z M 60 96.976562 "/>
<path style=" stroke:none;fill-rule:nonzero;fill:rgb(93.725491%,50.980395%,55.29412%);fill-opacity:1;" d="M 117.90625 12.558594 C 119.632812 13.25 119.632812 13.25 121.394531 13.953125 C 121.394531 16.046875 121.394531 16.046875 120 18.140625 C 119.308594 17.910156 118.617188 17.679688 117.90625 17.441406 C 117.90625 15.832031 117.90625 14.21875 117.90625 12.558594 Z M 117.90625 12.558594 "/>
<path style=" stroke:none;fill-rule:nonzero;fill:rgb(92.156863%,58.431375%,61.56863%);fill-opacity:1;" d="M 27.90625 99.765625 C 29.058594 99.765625 30.210938 99.765625 31.394531 99.765625 C 31.394531 100.457031 31.394531 101.148438 31.394531 101.859375 C 32.085938 102.089844 32.777344 102.320312 33.488281 102.558594 C 34.179688 103.59375 34.179688 103.59375 34.882812 104.652344 C 32.394531 104.652344 32.019531 104.207031 30.21875 102.601562 C 29.785156 102.222656 29.347656 101.839844 28.902344 101.449219 C 28.574219 101.125 28.246094 100.800781 27.90625 100.464844 C 27.90625 100.234375 27.90625 100.003906 27.90625 99.765625 Z M 27.90625 99.765625 "/>
<path style=" stroke:none;fill-rule:nonzero;fill:rgb(90.980393%,60.000002%,61.960787%);fill-opacity:1;" d="M 16.046875 87.210938 C 18.652344 88.078125 19.289062 89.242188 20.929688 91.394531 C 21.617188 92.105469 22.308594 92.808594 23.023438 93.488281 C 22.792969 94.179688 22.5625 94.871094 22.324219 95.582031 C 21.277344 94.320312 20.230469 93.054688 19.1875 91.789062 C 18.601562 91.082031 18.019531 90.378906 17.421875 89.652344 C 16.046875 87.90625 16.046875 87.90625 16.046875 87.210938 Z M 16.046875 87.210938 "/>
<path style=" stroke:none;fill-rule:nonzero;fill:rgb(92.54902%,48.235294%,51.764709%);fill-opacity:1;" d="M 80.234375 41.164062 C 78.296875 43.3125 76.699219 44.433594 73.953125 45.347656 C 73.953125 43.253906 73.953125 43.253906 74.738281 42.078125 C 76.578125 40.789062 78.039062 41.015625 80.234375 41.164062 Z M 80.234375 41.164062 "/>
<path style=" stroke:none;fill-rule:nonzero;fill:rgb(93.725491%,61.960787%,64.705884%);fill-opacity:1;" d="M 73.253906 23.023438 C 73.714844 23.253906 74.175781 23.484375 74.652344 23.722656 C 74.191406 25.101562 73.730469 26.484375 73.253906 27.90625 C 72.566406 27.445312 71.875 26.984375 71.164062 26.511719 C 70.472656 27.203125 69.78125 27.894531 69.070312 28.605469 C 68.609375 28.144531 68.148438 27.683594 67.675781 27.210938 C 69.515625 25.828125 71.359375 24.445312 73.253906 23.023438 Z M 73.253906 23.023438 "/>
<path style=" stroke:none;fill-rule:nonzero;fill:rgb(92.156863%,47.058824%,51.764709%);fill-opacity:1;" d="M 138.140625 36.277344 C 139.535156 37.675781 139.535156 37.675781 139.621094 40.203125 C 139.59375 40.980469 139.566406 41.757812 139.535156 42.558594 C 138.613281 42.097656 137.691406 41.636719 136.746094 41.164062 C 136.746094 39.78125 136.746094 38.398438 136.746094 36.976562 C 137.203125 36.746094 137.664062 36.515625 138.140625 36.277344 Z M 138.140625 36.277344 "/>
<path style=" stroke:none;fill-rule:nonzero;fill:rgb(94.509804%,48.627451%,53.333336%);fill-opacity:1;" d="M 65.582031 120 C 66.503906 120.460938 67.421875 120.921875 68.371094 121.394531 C 68.371094 122.085938 68.371094 122.777344 68.371094 123.488281 C 66.53125 123.488281 64.6875 123.488281 62.789062 123.488281 C 62.789062 123.027344 62.789062 122.566406 62.789062 122.09375 C 63.480469 121.863281 64.171875 121.632812 64.882812 121.394531 C 65.113281 120.933594 65.34375 120.472656 65.582031 120 Z M 65.582031 120 "/>
<path style=" stroke:none;fill-rule:nonzero;fill:rgb(91.764706%,62.7451%,65.098041%);fill-opacity:1;" d="M 67.675781 103.253906 C 68.925781 103.6875 70.175781 104.125 71.425781 104.5625 C 72.46875 104.929688 72.46875 104.929688 73.535156 105.300781 C 75.347656 106.046875 75.347656 106.046875 76.746094 107.441406 C 73.273438 107.09375 70.71875 106.359375 67.675781 104.652344 C 67.675781 104.191406 67.675781 103.730469 67.675781 103.253906 Z M 67.675781 103.253906 "/>
<path style=" stroke:none;fill-rule:nonzero;fill:rgb(91.764706%,57.647061%,61.56863%);fill-opacity:1;" d="M 23.023438 95.582031 C 24.40625 95.582031 25.785156 95.582031 27.210938 95.582031 C 27.210938 96.042969 27.210938 96.503906 27.210938 96.976562 C 27.667969 97.207031 28.128906 97.4375 28.605469 97.675781 C 28.375 98.363281 28.144531 99.054688 27.90625 99.765625 C 27.445312 99.765625 26.984375 99.765625 26.511719 99.765625 C 25.316406 98.402344 24.152344 97.003906 23.023438 95.582031 Z M 23.023438 95.582031 "/>
<path style=" stroke:none;fill-rule:nonzero;fill:rgb(93.333334%,48.235294%,52.549022%);fill-opacity:1;" d="M 101.164062 45.347656 C 101.851562 45.578125 102.542969 45.808594 103.253906 46.046875 C 103.253906 46.738281 103.253906 47.429688 103.253906 48.140625 C 103.484375 48.601562 103.714844 49.058594 103.953125 49.535156 C 102.113281 49.304688 100.269531 49.074219 98.371094 48.835938 C 98.832031 48.605469 99.292969 48.375 99.765625 48.140625 C 100.558594 46.734375 100.558594 46.734375 101.164062 45.347656 Z M 101.164062 45.347656 "/>
<path style=" stroke:none;fill-rule:nonzero;fill:rgb(90.980393%,47.450981%,50.980395%);fill-opacity:1;" d="M 99.765625 21.628906 C 99.996094 22.089844 100.226562 22.550781 100.464844 23.023438 C 98.164062 23.253906 95.859375 23.484375 93.488281 23.722656 C 93.488281 23.03125 93.488281 22.339844 93.488281 21.628906 C 95.664062 20.539062 97.445312 21.164062 99.765625 21.628906 Z M 99.765625 21.628906 "/>
<path style=" stroke:none;fill-rule:nonzero;fill:rgb(91.764706%,62.7451%,65.098041%);fill-opacity:1;" d="M 64.1875 90.699219 C 64.1875 91.386719 64.1875 92.078125 64.1875 92.789062 C 63.496094 92.789062 62.804688 92.789062 62.09375 92.789062 C 62.09375 93.25 62.09375 93.710938 62.09375 94.1875 C 61.402344 94.1875 60.710938 94.1875 60 94.1875 C 60 94.648438 60 95.105469 60 95.582031 C 59.539062 95.582031 59.078125 95.582031 58.605469 95.582031 C 59.902344 92.683594 60.816406 90.699219 64.1875 90.699219 Z M 64.1875 90.699219 "/>
<path style=" stroke:none;fill-rule:nonzero;fill:rgb(90.196079%,57.647061%,58.823532%);fill-opacity:1;" d="M 73.253906 115.117188 C 73.484375 116.039062 73.714844 116.957031 73.953125 117.90625 C 75.105469 117.90625 76.253906 117.90625 77.441406 117.90625 C 76.542969 118.867188 75.609375 119.796875 74.652344 120.699219 C 74.191406 120.699219 73.730469 120.699219 73.253906 120.699219 C 72.472656 116.6875 72.472656 116.6875 73.253906 115.117188 Z M 73.253906 115.117188 "/>
<path style=" stroke:none;fill-rule:nonzero;fill:rgb(91.37255%,60.784316%,63.137257%);fill-opacity:1;" d="M 55.117188 113.722656 C 57.902344 114.675781 59.859375 115.992188 62.09375 117.90625 C 59.984375 117.496094 57.894531 117.050781 55.8125 116.511719 C 55.582031 115.589844 55.351562 114.667969 55.117188 113.722656 Z M 55.117188 113.722656 "/>
<path style=" stroke:none;fill-rule:nonzero;fill:rgb(90.980393%,54.509807%,57.647061%);fill-opacity:1;" d="M 106.046875 43.253906 C 107.65625 44.40625 109.269531 45.558594 110.929688 46.746094 C 110.699219 47.433594 110.46875 48.125 110.234375 48.835938 C 109.542969 48.835938 108.851562 48.835938 108.140625 48.835938 C 108.140625 47.917969 108.140625 46.996094 108.140625 46.046875 C 107.449219 45.816406 106.757812 45.585938 106.046875 45.347656 C 106.046875 44.65625 106.046875 43.96875 106.046875 43.253906 Z M 106.046875 43.253906 "/>
<path style=" stroke:none;fill-rule:nonzero;fill:rgb(91.764706%,57.647061%,61.176473%);fill-opacity:1;" d="M 73.253906 46.746094 C 75.328125 46.746094 77.398438 46.746094 79.535156 46.746094 C 77.542969 48.367188 75.667969 49.359375 73.253906 50.234375 C 73.253906 49.082031 73.253906 47.929688 73.253906 46.746094 Z M 73.253906 46.746094 "/>
<path style=" stroke:none;fill-rule:nonzero;fill:rgb(92.156863%,58.823532%,60.784316%);fill-opacity:1;" d="M 50.234375 18.835938 C 55.550781 20.058594 55.550781 20.058594 57.90625 21.628906 C 55.777344 22.3125 54.457031 22.3125 52.324219 21.628906 C 52.324219 21.167969 52.324219 20.707031 52.324219 20.234375 C 51.636719 20.234375 50.945312 20.234375 50.234375 20.234375 C 50.234375 19.773438 50.234375 19.3125 50.234375 18.835938 Z M 50.234375 18.835938 "/>
<path style=" stroke:none;fill-rule:nonzero;fill:rgb(87.843138%,54.11765%,58.039218%);fill-opacity:1;" d="M 78.140625 129.070312 C 78.601562 129.070312 79.058594 129.070312 79.535156 129.070312 C 79.535156 130.222656 79.535156 131.371094 79.535156 132.558594 C 78.152344 132.558594 76.773438 132.558594 75.347656 132.558594 C 76.242188 131.367188 77.175781 130.203125 78.140625 129.070312 Z M 78.140625 129.070312 "/>
<path style=" stroke:none;fill-rule:nonzero;fill:rgb(90.196079%,64.313728%,63.137257%);fill-opacity:1;" d="M 78.140625 92.789062 C 78.835938 94.882812 78.835938 94.882812 78.183594 96.410156 C 77.816406 97.035156 77.816406 97.035156 77.441406 97.675781 C 75.371094 97.328125 75.371094 97.328125 73.253906 96.976562 C 73.945312 96.515625 74.636719 96.054688 75.347656 95.582031 C 76.292969 94.664062 77.226562 93.738281 78.140625 92.789062 Z M 78.140625 92.789062 "/>
<path style=" stroke:none;fill-rule:nonzero;fill:rgb(92.941177%,64.313728%,66.274512%);fill-opacity:1;" d="M 25.117188 87.90625 C 25.917969 88.574219 26.71875 89.242188 27.515625 89.914062 C 27.960938 90.285156 28.40625 90.65625 28.863281 91.042969 C 30 92.09375 30 92.09375 30.699219 93.488281 C 29.085938 93.359375 29.085938 93.359375 27.210938 92.789062 C 25.117188 89.976562 25.117188 89.976562 25.117188 87.90625 Z M 25.117188 87.90625 "/>
<path style=" stroke:none;fill-rule:nonzero;fill:rgb(97.647059%,46.666667%,54.509807%);fill-opacity:1;" d="M 35.582031 100.464844 C 36.273438 100.695312 36.960938 100.925781 37.675781 101.164062 C 37.445312 101.851562 37.214844 102.542969 36.976562 103.253906 C 35.539062 103.734375 35.539062 103.734375 34.1875 103.953125 C 34.1875 103.03125 34.1875 102.113281 34.1875 101.164062 C 34.648438 100.933594 35.105469 100.703125 35.582031 100.464844 Z M 35.582031 100.464844 "/>
<path style=" stroke:none;fill-rule:nonzero;fill:rgb(91.764706%,49.411765%,53.725493%);fill-opacity:1;" d="M 88.605469 121.394531 C 90.332031 122.085938 90.332031 122.085938 92.09375 122.789062 C 91.402344 123.480469 90.710938 124.171875 90 124.882812 C 89.308594 124.191406 88.617188 123.503906 87.90625 122.789062 C 88.136719 122.332031 88.367188 121.871094 88.605469 121.394531 Z M 88.605469 121.394531 "/>
<path style=" stroke:none;fill-rule:nonzero;fill:rgb(93.725491%,62.352943%,65.098041%);fill-opacity:1;" d="M 33.488281 96.277344 C 34.304688 96.824219 35.121094 97.378906 35.929688 97.9375 C 36.609375 98.398438 36.609375 98.398438 37.304688 98.867188 C 37.65625 99.164062 38.007812 99.460938 38.371094 99.765625 C 38.371094 100.226562 38.371094 100.6875 38.371094 101.164062 C 37.222656 100.933594 36.070312 100.703125 34.882812 100.464844 C 34.421875 99.082031 33.960938 97.703125 33.488281 96.277344 Z M 33.488281 96.277344 "/>
<path style=" stroke:none;fill-rule:nonzero;fill:rgb(92.941177%,60.392159%,63.137257%);fill-opacity:1;" d="M 66.976562 49.535156 C 66.976562 49.996094 66.976562 50.457031 66.976562 50.929688 C 65.824219 50.929688 64.675781 50.929688 63.488281 50.929688 C 63.71875 51.851562 63.949219 52.773438 64.1875 53.722656 C 63.496094 53.722656 62.804688 53.722656 62.09375 53.722656 C 62.355469 52.019531 62.355469 52.019531 62.789062 50.234375 C 64.1875 49.535156 64.1875 49.535156 66.976562 49.535156 Z M 66.976562 49.535156 "/>
<path style=" stroke:none;fill-rule:nonzero;fill:rgb(92.941177%,60.392159%,63.529414%);fill-opacity:1;" d="M 98.371094 48.835938 C 100.214844 49.066406 102.054688 49.296875 103.953125 49.535156 C 103.492188 50.457031 103.03125 51.375 102.558594 52.324219 C 101.148438 51.414062 99.753906 50.484375 98.371094 49.535156 C 98.371094 49.304688 98.371094 49.074219 98.371094 48.835938 Z M 98.371094 48.835938 "/>
<path style=" stroke:none;fill-rule:nonzero;fill:rgb(81.176472%,58.431375%,59.215689%);fill-opacity:1;" d="M 52.324219 43.253906 C 53.246094 43.253906 54.167969 43.253906 55.117188 43.253906 C 55.347656 44.175781 55.578125 45.097656 55.8125 46.046875 C 54.664062 45.816406 53.511719 45.585938 52.324219 45.347656 C 52.324219 44.65625 52.324219 43.96875 52.324219 43.253906 Z M 52.324219 43.253906 "/>
<path style=" stroke:none;fill-rule:nonzero;fill:rgb(92.54902%,65.098041%,67.450982%);fill-opacity:1;" d="M 61.394531 23.722656 C 62.816406 24.609375 64.214844 25.542969 65.582031 26.511719 C 65.582031 26.972656 65.582031 27.433594 65.582031 27.90625 C 66.273438 28.136719 66.960938 28.367188 67.675781 28.605469 C 66.753906 28.605469 65.832031 28.605469 64.882812 28.605469 C 64.882812 28.144531 64.882812 27.683594 64.882812 27.210938 C 63.960938 26.980469 63.042969 26.75 62.09375 26.511719 C 61.863281 25.589844 61.632812 24.667969 61.394531 23.722656 Z M 61.394531 23.722656 "/>
<path style=" stroke:none;fill-rule:nonzero;fill:rgb(93.333334%,58.039218%,61.176473%);fill-opacity:1;" d="M 30.699219 19.535156 C 30.46875 20.226562 30.238281 20.917969 30 21.628906 C 28.386719 21.628906 26.777344 21.628906 25.117188 21.628906 C 27.253906 19.796875 27.71875 19.535156 30.699219 19.535156 Z M 30.699219 19.535156 "/>
</g>
</svg>
