<?xml version="1.0" encoding="UTF-8"?>
<svg xmlns="http://www.w3.org/2000/svg" xmlns:xlink="http://www.w3.org/1999/xlink" width="100px" height="px" viewBox="0 0 100 37" version="1.1">
<g id="surface1">
<path style=" stroke:none;fill-rule:nonzero;fill:rgb(30.980393%,27.058825%,89.411765%);fill-opacity:1;" d="M 23.117188 5.25 C 23.191406 5.292969 23.261719 5.335938 23.339844 5.378906 C 24.433594 6.027344 25.347656 6.796875 26.253906 7.695312 C 26.394531 7.824219 26.394531 7.824219 26.535156 7.953125 C 29.035156 10.3125 30.242188 13.734375 30.589844 17.097656 C 30.589844 17.5 30.589844 17.902344 30.589844 18.316406 C 20.886719 18.316406 11.175781 18.316406 1.175781 18.316406 C 1.054688 17.695312 1.074219 17.242188 1.140625 16.625 C 1.152344 16.519531 1.160156 16.417969 1.175781 16.3125 C 1.519531 13.390625 2.746094 10.621094 4.671875 8.425781 C 4.75 8.332031 4.828125 8.234375 4.910156 8.136719 C 9.285156 2.894531 17.375 1.882812 23.117188 5.25 Z M 23.117188 5.25 "/>
<path style=" stroke:none;fill-rule:nonzero;fill:rgb(0%,0%,0%);fill-opacity:1;" d="M 37.832031 10.253906 C 37.933594 10.257812 38.035156 10.257812 38.140625 10.261719 C 38.304688 10.265625 38.304688 10.265625 38.472656 10.273438 C 38.585938 10.273438 38.699219 10.277344 38.8125 10.28125 C 39.171875 10.289062 39.53125 10.300781 39.886719 10.3125 C 40.132812 10.316406 40.375 10.324219 40.617188 10.328125 C 41.214844 10.347656 41.808594 10.363281 42.40625 10.378906 C 42.53125 10.8125 42.65625 11.25 42.78125 11.6875 C 42.820312 11.824219 42.859375 11.960938 42.898438 12.097656 C 43.117188 12.855469 43.332031 13.613281 43.550781 14.367188 C 43.640625 14.675781 43.730469 14.984375 43.816406 15.292969 C 43.863281 15.445312 43.902344 15.601562 43.949219 15.757812 C 44.183594 16.578125 44.421875 17.398438 44.660156 18.222656 C 44.785156 18.652344 44.910156 19.082031 45.03125 19.515625 C 45.089844 19.714844 45.144531 19.910156 45.203125 20.109375 C 45.28125 20.378906 45.359375 20.648438 45.4375 20.921875 C 45.480469 21.070312 45.523438 21.21875 45.570312 21.375 C 45.660156 21.734375 45.660156 21.734375 45.660156 22.101562 C 45.738281 22.101562 45.820312 22.101562 45.902344 22.101562 C 45.917969 21.980469 45.929688 21.859375 45.945312 21.734375 C 46.015625 21.238281 46.144531 20.765625 46.285156 20.285156 C 46.308594 20.191406 46.339844 20.101562 46.363281 20.003906 C 46.449219 19.699219 46.539062 19.398438 46.628906 19.097656 C 46.6875 18.882812 46.75 18.671875 46.808594 18.460938 C 46.972656 17.902344 47.132812 17.347656 47.292969 16.789062 C 47.457031 16.222656 47.621094 15.660156 47.785156 15.09375 C 48.019531 14.265625 48.261719 13.4375 48.5 12.609375 C 48.527344 12.527344 48.550781 12.441406 48.574219 12.355469 C 48.765625 11.695312 48.960938 11.035156 49.15625 10.378906 C 50.90625 10.378906 52.65625 10.378906 54.460938 10.378906 C 54.324219 11.339844 54.324219 11.339844 54.160156 11.84375 C 54.105469 12.015625 54.105469 12.015625 54.050781 12.1875 C 53.992188 12.367188 53.992188 12.367188 53.929688 12.554688 C 53.886719 12.679688 53.847656 12.808594 53.804688 12.941406 C 53.667969 13.355469 53.535156 13.773438 53.398438 14.1875 C 53.304688 14.476562 53.210938 14.769531 53.113281 15.058594 C 52.539062 16.824219 51.960938 18.59375 51.375 20.359375 C 51.042969 21.371094 50.714844 22.382812 50.394531 23.398438 C 50.316406 23.644531 50.238281 23.886719 50.160156 24.128906 C 50.011719 24.601562 49.863281 25.070312 49.714844 25.546875 C 49.644531 25.761719 49.578125 25.972656 49.511719 26.1875 C 49.480469 26.289062 49.449219 26.386719 49.417969 26.484375 C 49.386719 26.578125 49.359375 26.671875 49.328125 26.765625 C 49.304688 26.84375 49.277344 26.921875 49.253906 27.003906 C 49.128906 27.289062 49.007812 27.492188 48.792969 27.71875 C 48.519531 27.78125 48.519531 27.78125 48.195312 27.78125 C 48.011719 27.785156 48.011719 27.785156 47.824219 27.785156 C 47.691406 27.785156 47.5625 27.785156 47.425781 27.785156 C 47.292969 27.785156 47.15625 27.785156 47.019531 27.785156 C 46.730469 27.785156 46.445312 27.785156 46.160156 27.785156 C 45.722656 27.78125 45.285156 27.785156 44.847656 27.785156 C 44.566406 27.785156 44.292969 27.785156 44.011719 27.785156 C 43.882812 27.785156 43.75 27.785156 43.613281 27.785156 C 43.496094 27.785156 43.371094 27.785156 43.246094 27.78125 C 43.085938 27.78125 43.085938 27.78125 42.921875 27.78125 C 42.644531 27.71875 42.644531 27.71875 42.441406 27.507812 C 42.28125 27.226562 42.179688 26.96875 42.085938 26.660156 C 42.050781 26.546875 42.011719 26.429688 41.976562 26.316406 C 41.941406 26.1875 41.902344 26.0625 41.863281 25.9375 C 41.800781 25.738281 41.800781 25.738281 41.738281 25.535156 C 41.652344 25.242188 41.5625 24.953125 41.472656 24.664062 C 41.238281 23.882812 40.996094 23.097656 40.753906 22.316406 C 40.726562 22.234375 40.699219 22.152344 40.675781 22.070312 C 39.972656 19.792969 39.234375 17.53125 38.496094 15.269531 C 38.417969 15.027344 38.339844 14.78125 38.257812 14.539062 C 38.160156 14.242188 38.066406 13.945312 37.96875 13.648438 C 37.839844 13.253906 37.710938 12.851562 37.582031 12.457031 C 37.535156 12.3125 37.492188 12.167969 37.441406 12.019531 C 37.398438 11.878906 37.355469 11.734375 37.308594 11.589844 C 37.269531 11.460938 37.230469 11.335938 37.1875 11.207031 C 37.101562 10.867188 37.101562 10.867188 37.101562 10.378906 C 37.378906 10.238281 37.527344 10.246094 37.832031 10.253906 Z M 37.832031 10.253906 "/>
<path style=" stroke:none;fill-rule:nonzero;fill:rgb(0%,0%,0%);fill-opacity:1;" d="M 69.136719 14.636719 C 69.230469 14.636719 69.328125 14.636719 69.425781 14.636719 C 69.527344 14.636719 69.625 14.636719 69.726562 14.636719 C 69.933594 14.636719 70.144531 14.636719 70.351562 14.636719 C 70.671875 14.636719 70.996094 14.636719 71.316406 14.636719 C 71.515625 14.636719 71.71875 14.636719 71.921875 14.636719 C 72.019531 14.636719 72.113281 14.636719 72.214844 14.636719 C 72.890625 14.640625 72.890625 14.640625 73.027344 14.777344 C 73.039062 15.015625 73.042969 15.253906 73.042969 15.496094 C 73.042969 15.648438 73.046875 15.804688 73.046875 15.960938 C 73.050781 16.046875 73.050781 16.128906 73.050781 16.214844 C 73.050781 16.472656 73.050781 16.730469 73.054688 16.992188 C 73.0625 17.726562 73.070312 18.464844 73.074219 19.203125 C 73.074219 19.652344 73.082031 20.105469 73.085938 20.554688 C 73.089844 20.726562 73.089844 20.898438 73.089844 21.070312 C 73.089844 21.3125 73.089844 21.550781 73.097656 21.792969 C 73.097656 21.929688 73.097656 22.066406 73.097656 22.207031 C 73.171875 22.796875 73.402344 23.316406 73.871094 23.691406 C 74.496094 23.902344 75.164062 23.90625 75.789062 23.691406 C 76.359375 23.128906 76.425781 22.421875 76.449219 21.652344 C 76.457031 21.332031 76.457031 21.015625 76.457031 20.695312 C 76.460938 20.523438 76.460938 20.351562 76.464844 20.183594 C 76.46875 19.734375 76.472656 19.289062 76.472656 18.839844 C 76.480469 18.125 76.488281 17.40625 76.492188 16.6875 C 76.496094 16.441406 76.496094 16.1875 76.496094 15.9375 C 76.5 15.710938 76.5 15.710938 76.503906 15.480469 C 76.503906 15.28125 76.503906 15.28125 76.503906 15.074219 C 76.519531 14.777344 76.519531 14.777344 76.640625 14.652344 C 76.972656 14.640625 77.296875 14.636719 77.625 14.636719 C 77.722656 14.636719 77.824219 14.636719 77.925781 14.636719 C 78.132812 14.636719 78.339844 14.636719 78.550781 14.636719 C 78.871094 14.636719 79.191406 14.636719 79.511719 14.636719 C 79.714844 14.636719 79.917969 14.636719 80.121094 14.636719 C 80.214844 14.636719 80.3125 14.636719 80.410156 14.636719 C 81.089844 14.640625 81.089844 14.640625 81.222656 14.777344 C 81.234375 14.945312 81.238281 15.113281 81.238281 15.28125 C 81.238281 15.445312 81.238281 15.445312 81.238281 15.613281 C 81.238281 15.792969 81.238281 15.792969 81.238281 15.976562 C 81.238281 16.101562 81.238281 16.230469 81.238281 16.359375 C 81.238281 16.777344 81.234375 17.199219 81.234375 17.621094 C 81.234375 17.910156 81.234375 18.199219 81.234375 18.488281 C 81.234375 19.253906 81.230469 20.019531 81.230469 20.785156 C 81.230469 21.5625 81.230469 22.34375 81.230469 23.125 C 81.226562 24.65625 81.222656 26.1875 81.222656 27.71875 C 79.75 27.71875 78.277344 27.71875 76.761719 27.71875 C 76.722656 27.074219 76.683594 26.429688 76.640625 25.765625 C 76.480469 25.992188 76.480469 25.992188 76.316406 26.222656 C 75.671875 27.085938 74.808594 27.640625 73.746094 27.84375 C 72.210938 27.953125 70.980469 27.761719 69.769531 26.734375 C 68.777344 25.769531 68.359375 24.648438 68.308594 23.265625 C 68.308594 23.105469 68.308594 22.953125 68.308594 22.792969 C 68.308594 22.703125 68.308594 22.617188 68.308594 22.527344 C 68.308594 22.242188 68.308594 21.957031 68.308594 21.671875 C 68.308594 21.476562 68.308594 21.273438 68.308594 21.078125 C 68.308594 20.664062 68.308594 20.246094 68.308594 19.832031 C 68.308594 19.300781 68.308594 18.769531 68.308594 18.234375 C 68.308594 17.824219 68.308594 17.414062 68.308594 17.007812 C 68.308594 16.808594 68.308594 16.613281 68.308594 16.417969 C 68.308594 16.144531 68.308594 15.871094 68.308594 15.597656 C 68.308594 15.441406 68.308594 15.285156 68.308594 15.125 C 68.335938 14.511719 68.59375 14.640625 69.136719 14.636719 Z M 69.136719 14.636719 "/>
<path style=" stroke:none;fill-rule:nonzero;fill:rgb(0%,0%,0%);fill-opacity:1;" d="M 64.707031 15.507812 C 65.089844 15.839844 65.402344 16.175781 65.671875 16.609375 C 65.710938 16.671875 65.753906 16.734375 65.792969 16.800781 C 66.320312 17.777344 66.214844 18.867188 66.207031 19.945312 C 66.207031 20.164062 66.203125 20.382812 66.203125 20.597656 C 66.203125 21.050781 66.199219 21.503906 66.199219 21.957031 C 66.191406 22.539062 66.191406 23.121094 66.1875 23.699219 C 66.1875 24.253906 66.183594 24.808594 66.183594 25.363281 C 66.183594 25.523438 66.183594 25.523438 66.183594 25.6875 C 66.179688 25.984375 66.175781 26.285156 66.175781 26.582031 C 66.175781 26.671875 66.175781 26.757812 66.175781 26.851562 C 66.167969 27.460938 66.167969 27.460938 66.035156 27.597656 C 65.722656 27.609375 65.414062 27.613281 65.101562 27.613281 C 64.964844 27.613281 64.964844 27.613281 64.820312 27.613281 C 64.621094 27.613281 64.425781 27.613281 64.230469 27.613281 C 63.925781 27.613281 63.621094 27.613281 63.316406 27.613281 C 63.128906 27.613281 62.933594 27.613281 62.746094 27.613281 C 62.652344 27.613281 62.5625 27.613281 62.46875 27.613281 C 61.828125 27.609375 61.828125 27.609375 61.691406 27.472656 C 61.664062 27.25 61.644531 27.023438 61.625 26.796875 C 61.613281 26.671875 61.605469 26.550781 61.59375 26.421875 C 61.582031 26.277344 61.582031 26.277344 61.574219 26.132812 C 61.519531 26.21875 61.464844 26.300781 61.40625 26.390625 C 60.636719 27.246094 59.53125 27.769531 58.402344 27.882812 C 57.136719 27.921875 56.03125 27.664062 55.027344 26.847656 C 54.109375 25.847656 54.050781 24.636719 54.074219 23.347656 C 54.113281 22.324219 54.421875 21.636719 55.125 20.890625 C 56.191406 19.988281 57.480469 19.75 58.824219 19.605469 C 58.910156 19.597656 59.003906 19.585938 59.09375 19.574219 C 59.269531 19.554688 59.445312 19.539062 59.621094 19.523438 C 60.242188 19.460938 60.753906 19.289062 61.332031 19.050781 C 61.371094 18.636719 61.371094 18.636719 61.332031 18.195312 C 60.980469 17.832031 60.6875 17.773438 60.195312 17.765625 C 59.699219 17.78125 59.5625 17.796875 59.152344 18.109375 C 58.992188 18.339844 58.832031 18.570312 58.679688 18.804688 C 58.347656 18.839844 58.039062 18.847656 57.707031 18.839844 C 57.613281 18.839844 57.515625 18.839844 57.417969 18.839844 C 57.109375 18.835938 56.800781 18.832031 56.496094 18.828125 C 56.285156 18.824219 56.078125 18.824219 55.871094 18.824219 C 55.359375 18.816406 54.847656 18.8125 54.339844 18.804688 C 54.371094 18.59375 54.410156 18.382812 54.445312 18.167969 C 54.464844 18.050781 54.484375 17.933594 54.503906 17.8125 C 54.753906 16.683594 55.527344 15.78125 56.476562 15.175781 C 59.011719 13.796875 62.289062 13.917969 64.707031 15.507812 Z M 60.132812 22.445312 C 60.007812 22.476562 60.007812 22.476562 59.878906 22.507812 C 59.308594 22.648438 58.769531 22.808594 58.394531 23.292969 C 58.277344 23.710938 58.324219 24.003906 58.4375 24.421875 C 58.800781 24.789062 59.144531 24.816406 59.636719 24.835938 C 60.164062 24.816406 60.527344 24.734375 60.972656 24.421875 C 61.449219 23.886719 61.589844 23.59375 61.582031 22.878906 C 61.578125 22.757812 61.578125 22.636719 61.578125 22.511719 C 61.574219 22.414062 61.574219 22.320312 61.574219 22.222656 C 61.066406 22.222656 60.621094 22.320312 60.132812 22.445312 Z M 60.132812 22.445312 "/>
<path style=" stroke:none;fill-rule:nonzero;fill:rgb(0%,0%,0%);fill-opacity:1;" d="M 91.230469 11.601562 C 92.738281 11.601562 94.253906 11.601562 95.808594 11.601562 C 95.808594 12.609375 95.808594 13.613281 95.808594 14.652344 C 96.527344 14.652344 97.242188 14.652344 97.980469 14.652344 C 97.980469 15.820312 97.980469 16.992188 97.980469 18.195312 C 97.261719 18.195312 96.546875 18.195312 95.808594 18.195312 C 95.816406 18.988281 95.828125 19.78125 95.839844 20.574219 C 95.84375 20.84375 95.847656 21.113281 95.851562 21.386719 C 95.855469 21.773438 95.863281 22.160156 95.867188 22.546875 C 95.871094 22.667969 95.871094 22.789062 95.871094 22.914062 C 95.875 23.082031 95.875 23.082031 95.878906 23.253906 C 95.878906 23.402344 95.878906 23.402344 95.882812 23.554688 C 95.941406 23.875 96.035156 23.984375 96.292969 24.179688 C 96.648438 24.222656 96.648438 24.222656 97.035156 24.203125 C 97.234375 24.195312 97.234375 24.195312 97.433594 24.191406 C 97.535156 24.1875 97.636719 24.179688 97.738281 24.179688 C 97.839844 24.679688 97.945312 25.179688 98.046875 25.683594 C 98.074219 25.824219 98.105469 25.964844 98.136719 26.113281 C 98.175781 26.316406 98.175781 26.316406 98.222656 26.527344 C 98.261719 26.71875 98.261719 26.71875 98.300781 26.910156 C 98.339844 27.230469 98.339844 27.230469 98.222656 27.597656 C 96.832031 28.125 94.824219 28.25 93.417969 27.722656 C 92.542969 27.300781 91.855469 26.820312 91.46875 25.886719 C 91.207031 25.03125 91.199219 24.238281 91.207031 23.347656 C 91.207031 23.199219 91.207031 23.050781 91.207031 22.898438 C 91.207031 22.429688 91.210938 21.960938 91.214844 21.492188 C 91.214844 21.171875 91.214844 20.855469 91.214844 20.535156 C 91.21875 19.753906 91.222656 18.976562 91.230469 18.195312 C 90.671875 18.195312 90.113281 18.195312 89.542969 18.195312 C 89.535156 17.710938 89.535156 17.226562 89.535156 16.738281 C 89.535156 16.578125 89.53125 16.410156 89.53125 16.246094 C 89.527344 16.007812 89.527344 15.773438 89.527344 15.535156 C 89.527344 15.394531 89.527344 15.25 89.527344 15.101562 C 89.542969 14.777344 89.542969 14.777344 89.660156 14.652344 C 90.183594 14.636719 90.707031 14.648438 91.230469 14.652344 C 91.230469 13.644531 91.230469 12.640625 91.230469 11.601562 Z M 91.230469 11.601562 "/>
<path style=" stroke:none;fill-rule:nonzero;fill:rgb(0%,0%,0%);fill-opacity:1;" d="M 83.511719 10.378906 C 85.023438 10.378906 86.535156 10.378906 88.09375 10.378906 C 88.09375 16.0625 88.09375 21.742188 88.09375 27.597656 C 87.605469 27.722656 87.167969 27.734375 86.667969 27.730469 C 86.578125 27.730469 86.488281 27.730469 86.394531 27.730469 C 86.105469 27.730469 85.820312 27.730469 85.53125 27.726562 C 85.335938 27.726562 85.140625 27.726562 84.945312 27.726562 C 84.46875 27.722656 83.988281 27.722656 83.511719 27.71875 C 83.386719 27.335938 83.378906 27.070312 83.382812 26.664062 C 83.382812 26.519531 83.386719 26.378906 83.386719 26.230469 C 83.386719 26.074219 83.386719 25.914062 83.390625 25.753906 C 83.390625 25.585938 83.394531 25.417969 83.394531 25.25 C 83.394531 24.796875 83.402344 24.339844 83.402344 23.890625 C 83.410156 23.414062 83.410156 22.9375 83.417969 22.464844 C 83.421875 21.5625 83.429688 20.664062 83.4375 19.765625 C 83.445312 18.746094 83.453125 17.71875 83.460938 16.699219 C 83.480469 14.589844 83.496094 12.484375 83.511719 10.378906 Z M 83.511719 10.378906 "/>
<path style=" stroke:none;fill-rule:nonzero;fill:rgb(30.588236%,27.058825%,88.627452%);fill-opacity:1;" d="M 1.527344 19.765625 C 1.667969 19.765625 1.8125 19.765625 1.960938 19.765625 C 2.105469 19.765625 2.246094 19.765625 2.394531 19.765625 C 2.746094 19.78125 2.746094 19.78125 2.863281 19.902344 C 2.894531 20.09375 2.910156 20.285156 2.929688 20.480469 C 3.214844 23.320312 3.972656 26.019531 5.878906 28.207031 C 5.957031 28.304688 6.039062 28.402344 6.121094 28.5 C 8.175781 30.921875 11.050781 32.492188 14.195312 32.847656 C 17.996094 33.042969 21.417969 32.269531 24.324219 29.671875 C 24.394531 29.617188 24.46875 29.5625 24.542969 29.5 C 27.117188 27.488281 28.246094 24.042969 28.660156 20.910156 C 28.703125 20.535156 28.742188 20.15625 28.785156 19.78125 C 29.339844 19.78125 29.894531 19.78125 30.472656 19.78125 C 30.609375 23.453125 29.199219 27.089844 26.757812 29.789062 C 23.96875 32.820312 20.433594 34.628906 16.308594 34.820312 C 12.070312 34.921875 8.460938 33.324219 5.394531 30.40625 C 5.316406 30.332031 5.238281 30.261719 5.152344 30.1875 C 2.464844 27.667969 1.28125 23.84375 1.058594 20.246094 C 1.058594 20.078125 1.058594 20.078125 1.058594 19.902344 C 1.175781 19.78125 1.175781 19.78125 1.527344 19.765625 Z M 1.527344 19.765625 "/>
<path style=" stroke:none;fill-rule:nonzero;fill:rgb(30.588236%,27.058825%,87.843138%);fill-opacity:1;" d="M 4.792969 19.78125 C 5.390625 19.78125 5.988281 19.78125 6.601562 19.78125 C 6.621094 19.929688 6.640625 20.078125 6.660156 20.230469 C 7.050781 23.066406 8.050781 25.546875 10.339844 27.351562 C 12.402344 28.886719 14.910156 29.46875 17.433594 29.09375 C 19.191406 28.796875 20.683594 28.035156 22.03125 26.863281 C 22.164062 26.75 22.164062 26.75 22.296875 26.636719 C 24.082031 24.976562 24.796875 22.710938 25.101562 20.355469 C 25.167969 19.902344 25.167969 19.902344 25.285156 19.78125 C 25.550781 19.773438 25.816406 19.773438 26.078125 19.773438 C 26.292969 19.777344 26.292969 19.777344 26.515625 19.777344 C 26.628906 19.78125 26.738281 19.78125 26.855469 19.78125 C 27.019531 22.734375 25.921875 25.3125 24.011719 27.519531 C 22.160156 29.527344 19.566406 31 16.816406 31.152344 C 13.597656 31.253906 10.710938 30.40625 8.292969 28.195312 C 6.285156 26.285156 4.878906 23.570312 4.78125 20.746094 C 4.777344 20.421875 4.785156 20.101562 4.792969 19.78125 Z M 4.792969 19.78125 "/>
<path style=" stroke:none;fill-rule:nonzero;fill:rgb(28.627452%,28.627452%,81.176472%);fill-opacity:1;" d="M 30.351562 15.996094 C 30.390625 15.996094 30.429688 15.996094 30.472656 15.996094 C 30.574219 16.792969 30.589844 17.492188 30.589844 18.316406 C 20.886719 18.316406 11.175781 18.316406 1.175781 18.316406 C 1.136719 18.15625 1.097656 17.996094 1.058594 17.828125 C 1.097656 17.910156 1.136719 17.988281 1.175781 18.070312 C 3.625 18.132812 3.625 18.132812 6.121094 18.195312 C 6.121094 18.113281 6.121094 18.03125 6.121094 17.949219 C 12.445312 17.949219 18.769531 17.949219 25.285156 17.949219 C 25.285156 18.03125 25.285156 18.109375 25.285156 18.195312 C 26.996094 18.195312 28.707031 18.195312 30.472656 18.195312 C 30.433594 17.910156 30.390625 17.628906 30.351562 17.339844 C 30.34375 17.097656 30.339844 16.859375 30.34375 16.617188 C 30.34375 16.496094 30.34375 16.382812 30.347656 16.261719 C 30.347656 16.128906 30.347656 16.128906 30.351562 15.996094 Z M 30.351562 15.996094 "/>
<path style=" stroke:none;fill-rule:nonzero;fill:rgb(28.627452%,25.882354%,81.176472%);fill-opacity:1;" d="M 21.910156 31.382812 C 22.03125 31.441406 22.03125 31.441406 22.152344 31.503906 C 21.613281 31.867188 21.613281 31.867188 21.066406 32.238281 C 21.148438 32.398438 21.226562 32.558594 21.308594 32.726562 C 21.269531 32.765625 21.230469 32.804688 21.1875 32.847656 C 21.464844 32.929688 21.746094 33.007812 22.03125 33.09375 C 22.03125 33.011719 22.03125 32.933594 22.03125 32.847656 C 22.351562 32.808594 22.667969 32.765625 22.996094 32.726562 C 22.996094 32.644531 22.996094 32.5625 22.996094 32.484375 C 23.144531 32.460938 23.144531 32.460938 23.292969 32.433594 C 23.394531 32.410156 23.496094 32.386719 23.597656 32.359375 C 23.636719 32.28125 23.679688 32.199219 23.722656 32.113281 C 23.722656 32.234375 23.722656 32.355469 23.722656 32.484375 C 20.453125 34.324219 20.453125 34.324219 18.65625 34.433594 C 19.070312 34.050781 19.433594 34 19.980469 33.945312 C 19.980469 33.824219 19.980469 33.703125 19.980469 33.582031 C 19.980469 33.5 19.980469 33.421875 19.980469 33.335938 C 20.101562 33.296875 20.222656 33.253906 20.34375 33.214844 C 20.226562 33.054688 20.105469 32.894531 19.980469 32.726562 C 19.886719 32.765625 19.789062 32.800781 19.691406 32.839844 C 18.535156 33.191406 17.3125 33.109375 16.117188 33.101562 C 15.933594 33.101562 15.746094 33.097656 15.558594 33.097656 C 15.105469 33.097656 14.652344 33.09375 14.195312 33.09375 C 14.195312 33.054688 14.195312 33.011719 14.195312 32.972656 C 14.285156 32.96875 14.371094 32.96875 14.460938 32.964844 C 16.972656 32.925781 19.316406 32.753906 21.578125 31.539062 C 21.6875 31.488281 21.800781 31.4375 21.910156 31.382812 Z M 21.910156 31.382812 "/>
<path style=" stroke:none;fill-rule:nonzero;fill:rgb(29.803923%,26.666668%,79.215688%);fill-opacity:1;" d="M 1.527344 19.765625 C 1.667969 19.765625 1.8125 19.765625 1.960938 19.765625 C 2.105469 19.765625 2.246094 19.765625 2.394531 19.765625 C 2.746094 19.78125 2.746094 19.78125 2.863281 19.902344 C 2.894531 20.09375 2.910156 20.285156 2.929688 20.480469 C 3.128906 22.464844 3.472656 24.285156 4.457031 26.039062 C 4.503906 26.148438 4.503906 26.148438 4.550781 26.253906 C 4.511719 26.332031 4.472656 26.414062 4.433594 26.5 C 4.3125 26.417969 4.191406 26.335938 4.070312 26.253906 C 4.070312 26.132812 4.070312 26.011719 4.070312 25.886719 C 3.832031 25.949219 3.832031 25.949219 3.589844 26.011719 C 3.589844 25.929688 3.589844 25.847656 3.589844 25.765625 C 3.410156 25.707031 3.410156 25.707031 3.226562 25.640625 C 3.308594 25.640625 3.386719 25.640625 3.46875 25.640625 C 3.410156 25.304688 3.410156 25.304688 3.226562 25.03125 C 3.097656 24.65625 3.121094 24.433594 3.226562 24.054688 C 3.167969 23.996094 3.167969 23.996094 3.105469 23.933594 C 3.066406 23.648438 3.027344 23.363281 2.984375 23.082031 C 2.945312 23.039062 2.90625 23 2.863281 22.957031 C 2.824219 22.671875 2.78125 22.386719 2.746094 22.101562 C 2.714844 21.988281 2.714844 21.988281 2.683594 21.875 C 2.609375 21.554688 2.582031 21.242188 2.554688 20.914062 C 2.546875 20.792969 2.535156 20.671875 2.527344 20.546875 C 2.519531 20.457031 2.511719 20.367188 2.503906 20.269531 C 2.144531 20.230469 1.785156 20.191406 1.417969 20.148438 C 1.433594 20.511719 1.453125 20.871094 1.472656 21.234375 C 1.476562 21.335938 1.480469 21.4375 1.484375 21.542969 C 1.488281 21.644531 1.496094 21.738281 1.5 21.84375 C 1.503906 21.933594 1.511719 22.023438 1.511719 22.117188 C 1.527344 22.359375 1.527344 22.359375 1.660156 22.589844 C 1.667969 22.777344 1.667969 22.96875 1.667969 23.15625 C 1.667969 23.257812 1.664062 23.355469 1.664062 23.457031 C 1.660156 23.535156 1.660156 23.609375 1.660156 23.691406 C 1.070312 22.625 1.078125 21.105469 1.058594 19.902344 C 1.175781 19.78125 1.175781 19.78125 1.527344 19.765625 Z M 1.527344 19.765625 "/>
<path style=" stroke:none;fill-rule:nonzero;fill:rgb(29.411766%,27.058825%,76.078433%);fill-opacity:1;" d="M 21.792969 29.429688 C 18.972656 30.960938 15.90625 31.734375 12.75 30.773438 C 12.628906 30.691406 12.511719 30.613281 12.386719 30.527344 C 12.589844 30.488281 12.785156 30.445312 12.992188 30.40625 C 12.992188 30.484375 12.992188 30.566406 12.992188 30.652344 C 13.207031 30.644531 13.207031 30.644531 13.425781 30.644531 C 13.722656 30.636719 13.980469 30.652344 14.269531 30.710938 C 14.832031 30.796875 15.378906 30.796875 15.945312 30.796875 C 16.058594 30.796875 16.167969 30.796875 16.28125 30.800781 C 16.894531 30.800781 17.355469 30.738281 17.933594 30.527344 C 18.136719 30.53125 18.136719 30.53125 18.339844 30.539062 C 18.886719 30.523438 19.234375 30.351562 19.710938 30.101562 C 20.542969 29.671875 20.542969 29.671875 20.949219 29.671875 C 20.949219 29.59375 20.949219 29.511719 20.949219 29.429688 C 21.308594 29.316406 21.414062 29.300781 21.792969 29.429688 Z M 21.792969 29.429688 "/>
<path style=" stroke:none;fill-rule:nonzero;fill:rgb(30.980393%,27.450982%,90.588236%);fill-opacity:1;" d="M 5.035156 27.71875 C 5.113281 27.71875 5.191406 27.71875 5.277344 27.71875 C 5.519531 27.960938 5.519531 27.960938 5.519531 28.453125 C 5.589844 28.484375 5.660156 28.515625 5.734375 28.550781 C 5.996094 28.695312 6.164062 28.84375 6.363281 29.0625 C 6.320312 29.183594 6.28125 29.304688 6.238281 29.429688 C 6.160156 29.390625 6.082031 29.347656 6 29.304688 C 6.039062 29.46875 6.078125 29.628906 6.121094 29.792969 C 6 29.835938 5.878906 29.875 5.757812 29.917969 C 5.636719 29.550781 5.636719 29.550781 5.636719 29.429688 C 5.636719 29.792969 5.636719 29.792969 5.519531 30.164062 C 5.4375 30.164062 5.355469 30.164062 5.277344 30.164062 C 5.246094 30.089844 5.210938 30.015625 5.175781 29.941406 C 5.050781 29.667969 5.050781 29.667969 4.839844 29.480469 C 4.671875 29.304688 4.671875 29.304688 4.671875 28.941406 C 4.554688 28.859375 4.433594 28.78125 4.3125 28.695312 C 4.351562 28.574219 4.390625 28.453125 4.433594 28.332031 C 4.589844 28.332031 4.75 28.332031 4.914062 28.332031 C 4.914062 28.410156 4.914062 28.492188 4.914062 28.574219 C 4.996094 28.574219 5.074219 28.574219 5.15625 28.574219 C 5.15625 28.414062 5.15625 28.25 5.15625 28.085938 C 5.074219 28.085938 4.996094 28.085938 4.914062 28.085938 C 4.953125 27.964844 4.996094 27.84375 5.035156 27.71875 Z M 5.035156 27.71875 "/>
<path style=" stroke:none;fill-rule:nonzero;fill:rgb(30.980393%,27.058825%,90.196079%);fill-opacity:1;" d="M 22.152344 26.988281 C 22.273438 27.027344 22.390625 27.066406 22.515625 27.109375 C 22.554688 27.230469 22.59375 27.351562 22.636719 27.472656 C 22.875 27.683594 22.875 27.683594 23.117188 27.84375 C 23.035156 28.042969 22.957031 28.242188 22.875 28.453125 C 22.796875 28.453125 22.714844 28.453125 22.636719 28.453125 C 22.636719 28.53125 22.636719 28.613281 22.636719 28.695312 C 22.4375 28.65625 22.238281 28.613281 22.03125 28.574219 C 21.992188 28.652344 21.953125 28.734375 21.910156 28.820312 C 21.832031 28.738281 21.753906 28.65625 21.671875 28.574219 C 21.671875 28.453125 21.671875 28.332031 21.671875 28.207031 C 21.597656 28.246094 21.527344 28.285156 21.453125 28.324219 C 21.1875 28.453125 21.1875 28.453125 20.828125 28.574219 C 20.832031 28.300781 20.832031 28.300781 20.949219 27.960938 C 21.136719 27.828125 21.136719 27.828125 21.371094 27.707031 C 21.824219 27.519531 21.824219 27.519531 21.910156 27.109375 C 21.992188 27.070312 22.070312 27.027344 22.152344 26.988281 Z M 22.152344 26.988281 "/>
<path style=" stroke:none;fill-rule:nonzero;fill:rgb(30.980393%,27.058825%,90.980393%);fill-opacity:1;" d="M 22.515625 31.625 C 22.515625 31.746094 22.515625 31.867188 22.515625 31.992188 C 22.214844 32.199219 22.214844 32.199219 21.910156 32.359375 C 22.296875 32.492188 22.59375 32.492188 22.996094 32.484375 C 22.996094 32.5625 22.996094 32.644531 22.996094 32.726562 C 22.679688 32.765625 22.359375 32.804688 22.03125 32.847656 C 22.03125 32.929688 22.03125 33.007812 22.03125 33.09375 C 21.714844 33.054688 21.394531 33.011719 21.066406 32.972656 C 21.148438 32.808594 21.226562 32.648438 21.308594 32.484375 C 21.191406 32.441406 21.070312 32.402344 20.949219 32.359375 C 21.457031 31.816406 21.746094 31.574219 22.515625 31.625 Z M 22.515625 31.625 "/>
<path style=" stroke:none;fill-rule:nonzero;fill:rgb(29.019609%,25.882354%,80.784315%);fill-opacity:1;" d="M 26.613281 29.429688 C 26.730469 29.46875 26.851562 29.511719 26.972656 29.550781 C 26.675781 29.863281 26.371094 30.171875 26.070312 30.484375 C 25.988281 30.570312 25.902344 30.65625 25.816406 30.746094 C 25.273438 31.300781 24.714844 31.789062 24.082031 32.238281 C 24.003906 32.195312 23.921875 32.15625 23.839844 32.113281 C 23.878906 31.953125 23.917969 31.792969 23.960938 31.625 C 24.160156 31.625 24.359375 31.625 24.566406 31.625 C 24.566406 31.546875 24.566406 31.464844 24.566406 31.382812 C 24.683594 31.382812 24.800781 31.382812 24.925781 31.382812 C 24.886719 31.183594 24.847656 30.980469 24.804688 30.773438 C 24.925781 30.8125 25.042969 30.851562 25.167969 30.894531 C 25.167969 30.773438 25.167969 30.652344 25.167969 30.527344 C 25.316406 30.074219 25.484375 30.019531 25.890625 29.792969 C 25.96875 29.875 26.050781 29.957031 26.128906 30.039062 C 26.289062 29.839844 26.449219 29.636719 26.613281 29.429688 Z M 26.613281 29.429688 "/>
<path style=" stroke:none;fill-rule:nonzero;fill:rgb(28.627452%,25.882354%,82.745099%);fill-opacity:1;" d="M 25.769531 24.179688 C 25.847656 24.179688 25.929688 24.179688 26.011719 24.179688 C 25.683594 25.480469 24.910156 26.558594 23.960938 27.472656 C 24.066406 26.894531 24.066406 26.894531 24.203125 26.621094 C 24.28125 26.621094 24.363281 26.621094 24.441406 26.621094 C 24.441406 26.539062 24.441406 26.460938 24.441406 26.375 C 24.523438 26.335938 24.601562 26.296875 24.683594 26.253906 C 24.722656 26.132812 24.761719 26.011719 24.804688 25.886719 C 24.886719 25.886719 24.964844 25.886719 25.046875 25.886719 C 25.003906 25.6875 25.003906 25.6875 24.964844 25.480469 C 24.925781 25.03125 24.925781 25.03125 25.074219 24.796875 C 25.285156 24.667969 25.285156 24.667969 25.648438 24.667969 C 25.6875 24.503906 25.730469 24.34375 25.769531 24.179688 Z M 25.769531 24.179688 "/>
<path style=" stroke:none;fill-rule:nonzero;fill:rgb(30.980393%,27.843139%,77.254903%);fill-opacity:1;" d="M 5.519531 7.449219 C 5.597656 7.488281 5.675781 7.527344 5.757812 7.570312 C 5.308594 8.289062 5.308594 8.289062 5.035156 8.425781 C 4.957031 8.628906 4.957031 8.628906 4.878906 8.835938 C 4.652344 9.328125 4.519531 9.394531 4.070312 9.648438 C 3.851562 9.960938 3.851562 9.960938 3.707031 10.257812 C 3.828125 10.296875 3.949219 10.339844 4.070312 10.378906 C 3.792969 10.460938 3.511719 10.539062 3.226562 10.625 C 3.644531 9.402344 4.660156 8.382812 5.519531 7.449219 Z M 5.519531 7.449219 "/>
<path style=" stroke:none;fill-rule:nonzero;fill:rgb(28.627452%,26.274511%,77.64706%);fill-opacity:1;" d="M 2.984375 26.742188 C 3.382812 27.085938 3.59375 27.5 3.828125 27.960938 C 3.828125 28.082031 3.828125 28.203125 3.828125 28.332031 C 3.910156 28.332031 3.988281 28.332031 4.070312 28.332031 C 4.109375 28.492188 4.152344 28.652344 4.191406 28.820312 C 4.390625 28.820312 4.589844 28.820312 4.792969 28.820312 C 4.808594 28.910156 4.816406 29.007812 4.832031 29.101562 C 4.917969 29.449219 5.007812 29.570312 5.277344 29.792969 C 5.238281 29.914062 5.195312 30.035156 5.15625 30.164062 C 4.496094 29.476562 3.921875 28.761719 3.394531 27.972656 C 3.339844 27.890625 3.285156 27.8125 3.230469 27.730469 C 3.097656 27.527344 2.980469 27.320312 2.863281 27.109375 C 2.902344 26.988281 2.945312 26.867188 2.984375 26.742188 Z M 2.984375 26.742188 "/>
<path style=" stroke:none;fill-rule:nonzero;fill:rgb(26.274511%,23.529412%,75.294119%);fill-opacity:1;" d="M 2.625 20.269531 C 2.664062 20.269531 2.703125 20.269531 2.746094 20.269531 C 2.765625 20.378906 2.785156 20.488281 2.808594 20.601562 C 3.027344 21.765625 3.296875 22.910156 3.589844 24.054688 C 3.628906 24.21875 3.667969 24.382812 3.707031 24.542969 C 3.347656 24.421875 3.347656 24.421875 3.210938 24.222656 C 3.074219 23.847656 3.035156 23.472656 2.984375 23.082031 C 2.945312 23.039062 2.90625 23 2.863281 22.957031 C 2.824219 22.671875 2.78125 22.386719 2.746094 22.101562 C 2.722656 22.027344 2.703125 21.949219 2.679688 21.875 C 2.609375 21.546875 2.613281 21.246094 2.617188 20.914062 C 2.617188 20.792969 2.617188 20.671875 2.621094 20.546875 C 2.621094 20.457031 2.621094 20.367188 2.625 20.269531 Z M 2.625 20.269531 "/>
<path style=" stroke:none;fill-rule:nonzero;fill:rgb(31.37255%,27.843139%,80.000001%);fill-opacity:1;" d="M 11.542969 4.027344 C 11.542969 4.109375 11.542969 4.191406 11.542969 4.273438 C 11.441406 4.308594 11.335938 4.339844 11.230469 4.371094 C 10.550781 4.601562 10.550781 4.601562 9.976562 5.007812 C 10.058594 5.046875 10.136719 5.085938 10.21875 5.128906 C 10.21875 5.207031 10.21875 5.289062 10.21875 5.375 C 9.980469 5.414062 9.742188 5.453125 9.496094 5.496094 C 9.535156 5.335938 9.574219 5.171875 9.613281 5.007812 C 9.535156 5.007812 9.457031 5.007812 9.375 5.007812 C 9.335938 5.085938 9.292969 5.167969 9.253906 5.25 C 9.136719 5.167969 9.015625 5.089844 8.894531 5.007812 C 9.140625 4.890625 9.390625 4.773438 9.636719 4.65625 C 9.777344 4.589844 9.914062 4.523438 10.058594 4.457031 C 10.992188 4.027344 10.992188 4.027344 11.542969 4.027344 Z M 11.542969 4.027344 "/>
<path style=" stroke:none;fill-rule:nonzero;fill:rgb(28.627452%,25.882354%,75.294119%);fill-opacity:1;" d="M 27.457031 25.523438 C 27.589844 25.925781 27.585938 25.988281 27.402344 26.40625 C 27.339844 26.515625 27.28125 26.628906 27.214844 26.742188 C 27.136719 26.742188 27.058594 26.742188 26.972656 26.742188 C 26.933594 26.941406 26.894531 27.144531 26.855469 27.351562 C 26.734375 27.394531 26.613281 27.433594 26.492188 27.472656 C 26.417969 27.707031 26.417969 27.707031 26.371094 27.960938 C 26.292969 28.082031 26.214844 28.203125 26.128906 28.332031 C 26.050781 28.332031 25.972656 28.332031 25.890625 28.332031 C 25.847656 28.453125 25.808594 28.574219 25.769531 28.695312 C 25.519531 28.78125 25.519531 28.78125 25.285156 28.820312 C 25.332031 28.761719 25.371094 28.707031 25.417969 28.648438 C 26.167969 27.640625 26.878906 26.636719 27.457031 25.523438 Z M 27.457031 25.523438 "/>
<path style=" stroke:none;fill-rule:nonzero;fill:rgb(28.627452%,25.490198%,75.686276%);fill-opacity:1;" d="M 25.167969 28.941406 C 25.167969 29.0625 25.167969 29.183594 25.167969 29.304688 C 25.046875 29.429688 24.925781 29.550781 24.804688 29.671875 C 24.804688 29.792969 24.804688 29.914062 24.804688 30.039062 C 24.644531 30.039062 24.488281 30.039062 24.324219 30.039062 C 24.121094 30.242188 23.917969 30.445312 23.722656 30.652344 C 23.007812 31.140625 23.007812 31.140625 22.636719 31.140625 C 22.636719 31.21875 22.636719 31.300781 22.636719 31.382812 C 22.476562 31.34375 22.316406 31.304688 22.152344 31.261719 C 22.230469 31.214844 22.304688 31.171875 22.382812 31.125 C 23.402344 30.5 24.277344 29.742188 25.167969 28.941406 Z M 25.167969 28.941406 "/>
<path style=" stroke:none;fill-rule:nonzero;fill:rgb(28.627452%,26.666668%,73.333335%);fill-opacity:1;" d="M 10.941406 32.113281 C 11.066406 32.148438 11.191406 32.179688 11.320312 32.214844 C 12.234375 32.449219 13.148438 32.675781 14.074219 32.847656 C 14.074219 32.929688 14.074219 33.007812 14.074219 33.09375 C 13.648438 33.03125 13.222656 32.96875 12.792969 32.90625 C 12.648438 32.886719 12.503906 32.859375 12.359375 32.839844 C 12.214844 32.820312 12.066406 32.796875 11.917969 32.773438 C 11.546875 32.71875 11.546875 32.71875 11.183594 32.726562 C 11.105469 32.523438 11.023438 32.324219 10.941406 32.113281 Z M 10.941406 32.113281 "/>
<path style=" stroke:none;fill-rule:nonzero;fill:rgb(29.411766%,25.882354%,75.294119%);fill-opacity:1;" d="M 25.640625 19.769531 C 26.046875 19.773438 26.449219 19.777344 26.855469 19.78125 C 26.855469 20.347656 26.855469 20.910156 26.855469 21.492188 C 26.816406 21.492188 26.777344 21.492188 26.734375 21.492188 C 26.734375 20.96875 26.734375 20.445312 26.734375 19.902344 C 26.582031 19.917969 26.429688 19.933594 26.273438 19.949219 C 26.191406 19.957031 26.105469 19.964844 26.015625 19.976562 C 25.734375 20.015625 25.734375 20.015625 25.410156 20.269531 C 25.347656 20.5625 25.347656 20.5625 25.339844 20.890625 C 25.324219 21.222656 25.324219 21.222656 25.285156 21.492188 C 25.167969 21.550781 25.167969 21.550781 25.046875 21.613281 C 25.0625 21.332031 25.082031 21.050781 25.097656 20.769531 C 25.109375 20.609375 25.117188 20.453125 25.128906 20.289062 C 25.175781 19.785156 25.175781 19.785156 25.640625 19.769531 Z M 25.640625 19.769531 "/>
<path style=" stroke:none;fill-rule:nonzero;fill:rgb(30.980393%,28.627452%,74.509805%);fill-opacity:1;" d="M 21.550781 4.515625 C 22.117188 4.6875 22.609375 4.933594 23.117188 5.234375 C 23.1875 5.277344 23.261719 5.320312 23.332031 5.359375 C 23.796875 5.632812 24.242188 5.921875 24.683594 6.226562 C 24.324219 6.347656 24.074219 6.382812 23.722656 6.226562 C 23.6875 6.152344 23.652344 6.074219 23.617188 5.996094 C 23.441406 5.671875 23.273438 5.582031 22.949219 5.410156 C 22.859375 5.359375 22.765625 5.308594 22.667969 5.257812 C 22.417969 5.140625 22.183594 5.0625 21.910156 5.007812 C 21.910156 4.925781 21.910156 4.847656 21.910156 4.761719 C 21.792969 4.761719 21.671875 4.761719 21.550781 4.761719 C 21.550781 4.683594 21.550781 4.601562 21.550781 4.515625 Z M 21.550781 4.515625 "/>
<path style=" stroke:none;fill-rule:nonzero;fill:rgb(30.19608%,27.450982%,75.686276%);fill-opacity:1;" d="M 9.375 33.214844 C 10.160156 33.253906 10.691406 33.421875 11.386719 33.800781 C 11.710938 33.96875 12.039062 34.089844 12.386719 34.191406 C 11.984375 34.332031 11.761719 34.296875 11.367188 34.144531 C 11.265625 34.109375 11.164062 34.074219 11.0625 34.03125 C 10.90625 33.96875 10.90625 33.96875 10.746094 33.910156 C 10.640625 33.871094 10.535156 33.832031 10.425781 33.789062 C 9.648438 33.492188 9.648438 33.492188 9.375 33.214844 Z M 9.375 33.214844 "/>
<path style=" stroke:none;fill-rule:nonzero;fill:rgb(28.627452%,25.882354%,75.294119%);fill-opacity:1;" d="M 29.503906 24.300781 C 29.546875 24.300781 29.585938 24.300781 29.628906 24.300781 C 29.714844 25.050781 29.40625 25.585938 29.082031 26.238281 C 29.035156 26.347656 28.980469 26.453125 28.925781 26.566406 C 28.800781 26.828125 28.671875 27.089844 28.542969 27.351562 C 28.503906 27.351562 28.464844 27.351562 28.421875 27.351562 C 28.421875 27.152344 28.421875 26.949219 28.421875 26.742188 C 28.5 26.742188 28.582031 26.742188 28.660156 26.742188 C 28.6875 26.601562 28.6875 26.601562 28.714844 26.460938 C 28.785156 26.132812 28.785156 26.132812 28.902344 25.765625 C 28.984375 25.765625 29.0625 25.765625 29.144531 25.765625 C 29.160156 25.613281 29.175781 25.464844 29.191406 25.308594 C 29.238281 24.925781 29.300781 24.628906 29.503906 24.300781 Z M 29.503906 24.300781 "/>
<path style=" stroke:none;fill-rule:nonzero;fill:rgb(29.411766%,26.666668%,80.000001%);fill-opacity:1;" d="M 5.277344 22.957031 C 5.734375 23.113281 5.867188 23.277344 6.121094 23.691406 C 6.097656 24.0625 6.097656 24.0625 6 24.421875 C 5.957031 24.585938 5.917969 24.75 5.878906 24.910156 C 5.777344 24.679688 5.675781 24.445312 5.578125 24.207031 C 5.519531 24.078125 5.464844 23.949219 5.410156 23.8125 C 5.277344 23.445312 5.277344 23.445312 5.277344 22.957031 Z M 5.277344 22.957031 "/>
<path style=" stroke:none;fill-rule:nonzero;fill:rgb(27.843139%,25.098041%,75.686276%);fill-opacity:1;" d="M 25.167969 25.398438 C 25.246094 25.398438 25.324219 25.398438 25.410156 25.398438 C 25.230469 25.929688 24.945312 26.339844 24.609375 26.78125 C 24.558594 26.847656 24.507812 26.914062 24.457031 26.984375 C 24.332031 27.148438 24.207031 27.3125 24.082031 27.472656 C 24.003906 27.253906 24.003906 27.253906 23.960938 26.988281 C 24.042969 26.867188 24.121094 26.746094 24.203125 26.621094 C 24.28125 26.621094 24.363281 26.621094 24.441406 26.621094 C 24.441406 26.539062 24.441406 26.460938 24.441406 26.375 C 24.523438 26.335938 24.601562 26.296875 24.683594 26.253906 C 24.722656 26.132812 24.761719 26.011719 24.804688 25.886719 C 24.886719 25.886719 24.964844 25.886719 25.046875 25.886719 C 25.085938 25.726562 25.125 25.566406 25.167969 25.398438 Z M 25.167969 25.398438 "/>
<path style=" stroke:none;fill-rule:nonzero;fill:rgb(28.627452%,25.882354%,75.686276%);fill-opacity:1;" d="M 7.566406 24.179688 C 7.941406 24.519531 8.210938 24.941406 8.492188 25.359375 C 8.542969 25.433594 8.59375 25.507812 8.644531 25.585938 C 8.769531 25.769531 8.890625 25.949219 9.011719 26.132812 C 8.652344 26.132812 8.652344 26.132812 8.441406 25.9375 C 8.367188 25.851562 8.296875 25.761719 8.222656 25.675781 C 8.148438 25.589844 8.078125 25.503906 8.003906 25.417969 C 7.808594 25.15625 7.808594 25.15625 7.675781 24.886719 C 7.582031 24.644531 7.582031 24.644531 7.324219 24.542969 C 7.402344 24.421875 7.484375 24.300781 7.566406 24.179688 Z M 7.566406 24.179688 "/>
<path style=" stroke:none;fill-rule:nonzero;fill:rgb(27.843139%,25.490198%,73.725492%);fill-opacity:1;" d="M 26.492188 21.492188 C 26.574219 21.492188 26.652344 21.492188 26.734375 21.492188 C 26.691406 22.449219 26.457031 23.28125 26.128906 24.179688 C 26.050781 24.136719 25.972656 24.097656 25.890625 24.054688 C 25.929688 23.855469 25.96875 23.652344 26.011719 23.445312 C 26.089844 23.445312 26.167969 23.445312 26.253906 23.445312 C 26.332031 22.800781 26.410156 22.15625 26.492188 21.492188 Z M 26.492188 21.492188 "/>
<path style=" stroke:none;fill-rule:nonzero;fill:rgb(28.627452%,26.274511%,77.64706%);fill-opacity:1;" d="M 28.785156 19.78125 C 29.339844 19.78125 29.894531 19.78125 30.472656 19.78125 C 30.472656 20.226562 30.472656 20.667969 30.472656 21.125 C 30.433594 21.125 30.390625 21.125 30.351562 21.125 C 30.308594 20.800781 30.269531 20.480469 30.230469 20.148438 C 29.792969 20.070312 29.355469 19.988281 28.902344 19.902344 C 28.902344 20.105469 28.902344 20.308594 28.902344 20.515625 C 28.863281 20.515625 28.824219 20.515625 28.785156 20.515625 C 28.785156 20.273438 28.785156 20.03125 28.785156 19.78125 Z M 28.785156 19.78125 "/>
<path style=" stroke:none;fill-rule:nonzero;fill:rgb(30.19608%,27.058825%,77.254903%);fill-opacity:1;" d="M 9.011719 31.140625 C 9.453125 31.3125 9.886719 31.503906 10.316406 31.703125 C 10.492188 31.785156 10.492188 31.785156 10.671875 31.867188 C 10.761719 31.910156 10.851562 31.953125 10.941406 31.992188 C 10.421875 32.171875 10.011719 32.035156 9.496094 31.871094 C 9.1875 31.695312 9.1875 31.695312 9.011719 31.503906 C 9.011719 31.382812 9.011719 31.261719 9.011719 31.140625 Z M 9.011719 31.140625 "/>
<path style=" stroke:none;fill-rule:nonzero;fill:rgb(30.19608%,27.058825%,79.215688%);fill-opacity:1;" d="M 11.425781 29.550781 C 11.457031 29.628906 11.496094 29.707031 11.527344 29.785156 C 11.644531 30.058594 11.644531 30.058594 11.90625 30.164062 C 11.90625 30.242188 11.90625 30.324219 11.90625 30.40625 C 11.394531 30.246094 10.933594 30.046875 10.457031 29.792969 C 10.457031 29.753906 10.457031 29.714844 10.457031 29.671875 C 11.152344 29.550781 11.152344 29.550781 11.425781 29.550781 Z M 11.425781 29.550781 "/>
<path style=" stroke:none;fill-rule:nonzero;fill:rgb(25.882354%,21.960784%,81.176472%);fill-opacity:1;" d="M 2.625 20.269531 C 2.664062 20.269531 2.703125 20.269531 2.746094 20.269531 C 2.863281 20.914062 2.980469 21.5625 3.105469 22.222656 C 2.949219 22.144531 2.785156 22.0625 2.625 21.980469 C 2.625 21.417969 2.625 20.851562 2.625 20.269531 Z M 2.625 20.269531 "/>
<path style=" stroke:none;fill-rule:nonzero;fill:rgb(27.058825%,24.705882%,75.686276%);fill-opacity:1;" d="M 3.707031 24.789062 C 4.066406 25.226562 4.355469 25.722656 4.550781 26.253906 C 4.511719 26.332031 4.472656 26.414062 4.433594 26.5 C 4.3125 26.417969 4.191406 26.335938 4.070312 26.253906 C 4.070312 26.132812 4.070312 26.011719 4.070312 25.886719 C 3.988281 25.886719 3.910156 25.886719 3.828125 25.886719 C 3.789062 25.523438 3.75 25.160156 3.707031 24.789062 Z M 3.707031 24.789062 "/>
<path style=" stroke:none;fill-rule:nonzero;fill:rgb(29.411766%,25.882354%,78.823531%);fill-opacity:1;" d="M 24.566406 23.082031 C 24.605469 23.082031 24.644531 23.082031 24.683594 23.082031 C 24.863281 23.839844 24.863281 23.839844 24.59375 24.285156 C 24.324219 24.542969 24.324219 24.542969 23.960938 24.667969 C 24.132812 24.121094 24.335938 23.601562 24.566406 23.082031 Z M 24.566406 23.082031 "/>
<path style=" stroke:none;fill-rule:nonzero;fill:rgb(28.627452%,26.274511%,75.686276%);fill-opacity:1;" d="M 21.792969 27.109375 C 21.832031 27.230469 21.871094 27.351562 21.910156 27.472656 C 21.03125 28.082031 21.03125 28.082031 20.707031 28.207031 C 20.585938 28.167969 20.46875 28.128906 20.34375 28.085938 C 20.824219 27.761719 21.300781 27.441406 21.792969 27.109375 Z M 21.792969 27.109375 "/>
<path style=" stroke:none;fill-rule:nonzero;fill:rgb(29.019609%,26.666668%,78.039217%);fill-opacity:1;" d="M 28.660156 10.988281 C 28.996094 11.40625 29.386719 11.902344 29.386719 12.457031 C 29.308594 12.457031 29.226562 12.457031 29.144531 12.457031 C 28.949219 12.152344 28.949219 12.152344 28.785156 11.84375 C 28.664062 11.902344 28.664062 11.902344 28.542969 11.96875 C 28.464844 11.808594 28.382812 11.644531 28.300781 11.476562 C 28.378906 11.476562 28.460938 11.476562 28.542969 11.476562 C 28.582031 11.316406 28.621094 11.15625 28.660156 10.988281 Z M 28.660156 10.988281 "/>
<path style=" stroke:none;fill-rule:nonzero;fill:rgb(30.19608%,27.450982%,77.254903%);fill-opacity:1;" d="M 8.652344 5.128906 C 8.730469 5.167969 8.808594 5.207031 8.894531 5.25 C 8.371094 5.800781 7.945312 6.042969 7.207031 6.226562 C 7.644531 5.738281 8.0625 5.421875 8.652344 5.128906 Z M 8.652344 5.128906 "/>
<path style=" stroke:none;fill-rule:nonzero;fill:rgb(29.019609%,26.666668%,74.117649%);fill-opacity:1;" d="M 28.660156 20.636719 C 28.742188 20.636719 28.824219 20.636719 28.902344 20.636719 C 28.949219 21.925781 28.949219 21.925781 28.660156 22.46875 C 28.621094 22.46875 28.582031 22.46875 28.542969 22.46875 C 28.582031 21.863281 28.621094 21.257812 28.660156 20.636719 Z M 28.660156 20.636719 "/>
<path style=" stroke:none;fill-rule:nonzero;fill:rgb(28.627452%,25.882354%,81.568629%);fill-opacity:1;" d="M 10.941406 32.113281 C 11.117188 32.171875 11.292969 32.226562 11.46875 32.28125 C 11.566406 32.316406 11.664062 32.347656 11.765625 32.378906 C 12.027344 32.484375 12.027344 32.484375 12.269531 32.726562 C 11.90625 32.726562 11.542969 32.726562 11.183594 32.726562 C 11.105469 32.523438 11.023438 32.324219 10.941406 32.113281 Z M 10.941406 32.113281 "/>
<path style=" stroke:none;fill-rule:nonzero;fill:rgb(27.450982%,24.313726%,77.64706%);fill-opacity:1;" d="M 7.566406 30.039062 C 7.738281 30.15625 7.914062 30.265625 8.085938 30.382812 C 8.183594 30.445312 8.277344 30.511719 8.378906 30.574219 C 8.617188 30.75 8.816406 30.921875 9.011719 31.140625 C 8.464844 31.140625 8.402344 31.082031 8.019531 30.726562 C 7.933594 30.652344 7.847656 30.574219 7.761719 30.492188 C 7.566406 30.285156 7.566406 30.285156 7.566406 30.039062 Z M 7.566406 30.039062 "/>
<path style=" stroke:none;fill-rule:nonzero;fill:rgb(29.019609%,25.490198%,78.431374%);fill-opacity:1;" d="M 23.839844 24.667969 C 23.917969 24.828125 24 24.988281 24.082031 25.15625 C 23.925781 25.320312 23.765625 25.484375 23.597656 25.640625 C 23.519531 25.640625 23.441406 25.640625 23.359375 25.640625 C 23.359375 25.722656 23.359375 25.804688 23.359375 25.886719 C 23.277344 25.886719 23.199219 25.886719 23.117188 25.886719 C 23.316406 25.449219 23.574219 25.0625 23.839844 24.667969 Z M 23.839844 24.667969 "/>
<path style=" stroke:none;fill-rule:nonzero;fill:rgb(29.803923%,26.666668%,77.254903%);fill-opacity:1;" d="M 6.964844 6.226562 C 7.082031 6.59375 7.082031 6.59375 7.007812 6.851562 C 6.84375 7.082031 6.84375 7.082031 6.550781 7.175781 C 6.238281 7.207031 6.238281 7.207031 5.878906 7.207031 C 6.238281 6.882812 6.59375 6.558594 6.964844 6.226562 Z M 6.964844 6.226562 "/>
<path style=" stroke:none;fill-rule:nonzero;fill:rgb(27.058825%,24.313726%,75.686276%);fill-opacity:1;" d="M 4.550781 26.5 C 4.941406 26.960938 5.230469 27.433594 5.519531 27.960938 C 5.398438 28.023438 5.398438 28.023438 5.277344 28.085938 C 5.246094 27.972656 5.214844 27.855469 5.183594 27.734375 C 5.074219 27.34375 5.074219 27.34375 4.777344 27.183594 C 4.703125 27.160156 4.628906 27.136719 4.550781 27.109375 C 4.550781 26.90625 4.550781 26.707031 4.550781 26.5 Z M 4.550781 26.5 "/>
<path style=" stroke:none;fill-rule:nonzero;fill:rgb(28.627452%,25.098041%,74.117649%);fill-opacity:1;" d="M 6.480469 31.261719 C 7.082031 31.445312 7.472656 31.816406 7.925781 32.238281 C 7.472656 32.238281 7.351562 32.101562 7 31.816406 C 6.902344 31.738281 6.808594 31.664062 6.707031 31.582031 C 6.632812 31.515625 6.558594 31.449219 6.480469 31.382812 C 6.480469 31.34375 6.480469 31.304688 6.480469 31.261719 Z M 6.480469 31.261719 "/>
<path style=" stroke:none;fill-rule:nonzero;fill:rgb(26.274511%,23.921569%,77.254903%);fill-opacity:1;" d="M 5.519531 27.960938 C 5.910156 28.351562 6.269531 28.746094 6.601562 29.183594 C 6.128906 29.023438 5.828125 28.847656 5.519531 28.453125 C 5.519531 28.292969 5.519531 28.132812 5.519531 27.960938 Z M 5.519531 27.960938 "/>
<path style=" stroke:none;fill-rule:nonzero;fill:rgb(27.843139%,25.490198%,79.215688%);fill-opacity:1;" d="M 22.636719 28.695312 C 22.441406 28.90625 22.238281 29.109375 22.03125 29.304688 C 21.953125 29.304688 21.871094 29.304688 21.792969 29.304688 C 21.753906 29.105469 21.710938 28.902344 21.671875 28.695312 C 22.066406 28.5625 22.238281 28.597656 22.636719 28.695312 Z M 22.636719 28.695312 "/>
<path style=" stroke:none;fill-rule:nonzero;fill:rgb(29.411766%,26.274511%,75.686276%);fill-opacity:1;" d="M 2.140625 25.277344 C 2.222656 25.277344 2.300781 25.277344 2.382812 25.277344 C 2.9375 26.285156 2.9375 26.285156 2.863281 26.863281 C 2.449219 26.40625 2.316406 25.859375 2.140625 25.277344 Z M 2.140625 25.277344 "/>
<path style=" stroke:none;fill-rule:nonzero;fill:rgb(30.588236%,27.843139%,76.47059%);fill-opacity:1;" d="M 17.933594 3.542969 C 18.125 3.554688 18.316406 3.570312 18.503906 3.585938 C 18.667969 3.601562 18.667969 3.601562 18.828125 3.613281 C 19.136719 3.664062 19.351562 3.75 19.621094 3.90625 C 19.003906 4.132812 18.515625 3.890625 17.933594 3.664062 C 17.933594 3.625 17.933594 3.582031 17.933594 3.542969 Z M 17.933594 3.542969 "/>
<path style=" stroke:none;fill-rule:nonzero;fill:rgb(27.450982%,25.882354%,74.509805%);fill-opacity:1;" d="M 21.910156 31.382812 C 21.992188 31.421875 22.070312 31.464844 22.152344 31.503906 C 21.292969 32.183594 21.292969 32.183594 20.707031 32.238281 C 20.707031 32.15625 20.707031 32.074219 20.707031 31.992188 C 20.902344 31.890625 21.097656 31.785156 21.292969 31.679688 C 21.402344 31.625 21.511719 31.566406 21.625 31.503906 C 21.765625 31.445312 21.765625 31.445312 21.910156 31.382812 Z M 21.910156 31.382812 "/>
<path style=" stroke:none;fill-rule:nonzero;fill:rgb(27.058825%,25.098041%,74.901962%);fill-opacity:1;" d="M 27.816406 28.085938 C 27.816406 28.523438 27.722656 28.625 27.457031 28.964844 C 27.390625 29.050781 27.324219 29.136719 27.253906 29.230469 C 27.199219 29.296875 27.148438 29.359375 27.097656 29.429688 C 27.054688 29.308594 27.015625 29.1875 26.972656 29.0625 C 27.054688 28.941406 27.132812 28.820312 27.214844 28.695312 C 27.296875 28.695312 27.375 28.695312 27.457031 28.695312 C 27.457031 28.535156 27.457031 28.371094 27.457031 28.207031 C 27.574219 28.167969 27.695312 28.128906 27.816406 28.085938 Z M 27.816406 28.085938 "/>
<path style=" stroke:none;fill-rule:nonzero;fill:rgb(29.803923%,27.058825%,78.431374%);fill-opacity:1;" d="M 1.660156 23.8125 C 2.035156 24.117188 2.136719 24.269531 2.230469 24.757812 C 2.242188 24.886719 2.253906 25.019531 2.261719 25.15625 C 2.183594 25.15625 2.105469 25.15625 2.019531 25.15625 C 1.960938 25 1.902344 24.847656 1.839844 24.6875 C 1.808594 24.601562 1.773438 24.519531 1.738281 24.429688 C 1.660156 24.179688 1.660156 24.179688 1.660156 23.8125 Z M 1.660156 23.8125 "/>
<path style=" stroke:none;fill-rule:nonzero;fill:rgb(29.411766%,25.882354%,80.000001%);fill-opacity:1;" d="M 26.128906 7.695312 C 26.269531 7.808594 26.410156 7.925781 26.542969 8.042969 C 26.621094 8.109375 26.699219 8.175781 26.777344 8.242188 C 26.972656 8.425781 26.972656 8.425781 27.097656 8.667969 C 26.777344 8.628906 26.457031 8.589844 26.128906 8.546875 C 26.171875 8.425781 26.210938 8.304688 26.253906 8.179688 C 26.207031 7.921875 26.207031 7.921875 26.128906 7.695312 Z M 26.128906 7.695312 "/>
<path style=" stroke:none;fill-rule:nonzero;fill:rgb(28.627452%,25.490198%,75.294119%);fill-opacity:1;" d="M 7.6875 27.109375 C 8.039062 27.453125 8.347656 27.816406 8.652344 28.207031 C 8.289062 28.207031 8.289062 28.207031 8.097656 28.019531 C 8.035156 27.941406 7.972656 27.863281 7.90625 27.78125 C 7.839844 27.699219 7.777344 27.621094 7.710938 27.539062 C 7.664062 27.480469 7.613281 27.417969 7.566406 27.351562 C 7.605469 27.273438 7.644531 27.191406 7.6875 27.109375 Z M 7.6875 27.109375 "/>
<path style=" stroke:none;fill-rule:nonzero;fill:rgb(29.803923%,27.058825%,76.47059%);fill-opacity:1;" d="M 29.386719 12.457031 C 29.683594 12.902344 29.867188 13.253906 29.867188 13.796875 C 29.789062 13.796875 29.707031 13.796875 29.628906 13.796875 C 29.410156 13.332031 29.363281 12.972656 29.386719 12.457031 Z M 29.386719 12.457031 "/>
<path style=" stroke:none;fill-rule:nonzero;fill:rgb(27.058825%,25.098041%,85.490197%);fill-opacity:1;" d="M 3.226562 24.421875 C 3.527344 24.542969 3.527344 24.542969 3.828125 24.667969 C 3.710938 24.847656 3.710938 24.847656 3.589844 25.03125 C 3.429688 25.03125 3.269531 25.03125 3.105469 25.03125 C 3.144531 24.832031 3.183594 24.628906 3.226562 24.421875 Z M 3.226562 24.421875 "/>
<path style=" stroke:none;fill-rule:nonzero;fill:rgb(30.980393%,27.450982%,76.862746%);fill-opacity:1;" d="M 3.105469 10.625 C 3.214844 10.925781 3.238281 11.070312 3.136719 11.378906 C 2.984375 11.601562 2.984375 11.601562 2.625 11.722656 C 2.753906 11.308594 2.867188 10.988281 3.105469 10.625 Z M 3.105469 10.625 "/>
<path style=" stroke:none;fill-rule:nonzero;fill:rgb(29.411766%,26.274511%,80.784315%);fill-opacity:1;" d="M 5.878906 30.773438 C 6.425781 30.726562 6.425781 30.726562 6.699219 30.957031 C 6.746094 31.015625 6.792969 31.078125 6.84375 31.140625 C 6.800781 31.21875 6.761719 31.300781 6.722656 31.382812 C 6.28125 31.230469 6.144531 31.179688 5.878906 30.773438 Z M 5.878906 30.773438 "/>
<path style=" stroke:none;fill-rule:nonzero;fill:rgb(30.980393%,27.450982%,72.549021%);fill-opacity:1;" d="M 12.992188 30.40625 C 12.992188 30.484375 12.992188 30.566406 12.992188 30.652344 C 13.128906 30.664062 13.265625 30.679688 13.40625 30.695312 C 13.546875 30.722656 13.691406 30.746094 13.835938 30.773438 C 13.875 30.851562 13.914062 30.933594 13.957031 31.015625 C 13.4375 30.894531 12.921875 30.773438 12.386719 30.652344 C 12.75 30.40625 12.75 30.40625 12.992188 30.40625 Z M 12.992188 30.40625 "/>
<path style=" stroke:none;fill-rule:nonzero;fill:rgb(28.235295%,25.490198%,75.294119%);fill-opacity:1;" d="M 23.117188 27.84375 C 23.277344 27.882812 23.433594 27.921875 23.597656 27.960938 C 23.183594 28.324219 23.183594 28.324219 22.753906 28.695312 C 22.714844 28.613281 22.675781 28.535156 22.636719 28.453125 C 22.714844 28.453125 22.792969 28.453125 22.875 28.453125 C 22.957031 28.25 23.035156 28.050781 23.117188 27.84375 Z M 23.117188 27.84375 "/>
<path style=" stroke:none;fill-rule:nonzero;fill:rgb(28.627452%,25.882354%,75.294119%);fill-opacity:1;" d="M 10.699219 27.71875 C 11.097656 27.921875 11.496094 28.125 11.90625 28.332031 C 11.542969 28.453125 11.542969 28.453125 11.167969 28.300781 C 10.820312 28.085938 10.820312 28.085938 10.699219 27.71875 Z M 10.699219 27.71875 "/>
<path style=" stroke:none;fill-rule:nonzero;fill:rgb(28.235295%,25.882354%,69.803923%);fill-opacity:1;" d="M 9.496094 26.742188 C 9.675781 26.859375 9.851562 26.976562 10.03125 27.09375 C 10.179688 27.191406 10.179688 27.191406 10.332031 27.289062 C 10.582031 27.472656 10.582031 27.472656 10.699219 27.71875 C 10.171875 27.574219 9.84375 27.425781 9.496094 26.988281 C 9.496094 26.90625 9.496094 26.824219 9.496094 26.742188 Z M 9.496094 26.742188 "/>
<path style=" stroke:none;fill-rule:nonzero;fill:rgb(26.274511%,24.313726%,87.058824%);fill-opacity:1;" d="M 29.988281 20.390625 C 30.105469 20.390625 30.226562 20.390625 30.351562 20.390625 C 30.390625 20.675781 30.429688 20.957031 30.472656 21.25 C 30.351562 21.328125 30.230469 21.410156 30.109375 21.492188 C 30.070312 21.128906 30.027344 20.765625 29.988281 20.390625 Z M 29.988281 20.390625 "/>
<path style=" stroke:none;fill-rule:nonzero;fill:rgb(28.627452%,24.705882%,81.176472%);fill-opacity:1;" d="M 3.589844 9.769531 C 3.667969 9.847656 3.746094 9.929688 3.828125 10.011719 C 3.789062 10.09375 3.75 10.175781 3.707031 10.257812 C 3.828125 10.296875 3.949219 10.339844 4.070312 10.378906 C 3.792969 10.460938 3.511719 10.539062 3.226562 10.625 C 3.453125 10.042969 3.453125 10.042969 3.589844 9.769531 Z M 3.589844 9.769531 "/>
<path style=" stroke:none;fill-rule:nonzero;fill:rgb(28.627452%,26.666668%,78.039217%);fill-opacity:1;" d="M 8.652344 32.605469 C 8.890625 32.683594 9.128906 32.765625 9.375 32.847656 C 9.375 32.96875 9.375 33.089844 9.375 33.214844 C 9.136719 33.132812 8.898438 33.054688 8.652344 32.972656 C 8.652344 32.851562 8.652344 32.730469 8.652344 32.605469 Z M 8.652344 32.605469 "/>
<path style=" stroke:none;fill-rule:nonzero;fill:rgb(29.411766%,25.882354%,84.705883%);fill-opacity:1;" d="M 17.8125 33.945312 C 17.855469 34.066406 17.894531 34.1875 17.933594 34.3125 C 18.171875 34.3125 18.410156 34.3125 18.65625 34.3125 C 18.65625 34.355469 18.65625 34.394531 18.65625 34.433594 C 18.261719 34.476562 17.863281 34.515625 17.449219 34.558594 C 17.570312 34.355469 17.691406 34.152344 17.8125 33.945312 Z M 17.8125 33.945312 "/>
<path style=" stroke:none;fill-rule:nonzero;fill:rgb(27.450982%,24.313726%,74.117649%);fill-opacity:1;" d="M 26.613281 29.429688 C 26.730469 29.46875 26.851562 29.511719 26.972656 29.550781 C 26.695312 29.832031 26.417969 30.113281 26.128906 30.40625 C 26.128906 29.929688 26.3125 29.78125 26.613281 29.429688 Z M 26.613281 29.429688 "/>
<path style=" stroke:none;fill-rule:nonzero;fill:rgb(29.803923%,27.058825%,79.607844%);fill-opacity:1;" d="M 23.722656 5.859375 C 24.414062 6.074219 24.414062 6.074219 24.683594 6.347656 C 24.367188 6.347656 24.046875 6.347656 23.722656 6.347656 C 23.722656 6.1875 23.722656 6.027344 23.722656 5.859375 Z M 23.722656 5.859375 "/>
</g>
</svg>
