<?xml version="1.0" encoding="UTF-8"?>
<svg xmlns="http://www.w3.org/2000/svg" xmlns:xlink="http://www.w3.org/1999/xlink" width="150px" height="55px" viewBox="0 0 149 55" version="1.1">
<g id="surface1">
<path style=" stroke:none;fill-rule:nonzero;fill:rgb(30.980393%,27.058825%,89.411765%);fill-opacity:1;" d="M 34.175781 7.804688 C 34.285156 7.867188 34.394531 7.933594 34.511719 7.996094 C 36.152344 8.960938 37.519531 10.105469 38.878906 11.4375 C 39.089844 11.628906 39.089844 11.628906 39.304688 11.824219 C 43.054688 15.328125 44.863281 20.417969 45.386719 25.414062 C 45.386719 26.011719 45.386719 26.609375 45.386719 27.226562 C 30.828125 27.226562 16.265625 27.226562 1.265625 27.226562 C 1.082031 26.304688 1.109375 25.628906 1.210938 24.710938 C 1.226562 24.554688 1.242188 24.402344 1.261719 24.246094 C 1.777344 19.902344 3.621094 15.789062 6.507812 12.523438 C 6.625 12.382812 6.742188 12.242188 6.863281 12.097656 C 13.425781 4.300781 25.5625 2.800781 34.175781 7.804688 Z M 34.175781 7.804688 "/>
<path style=" stroke:none;fill-rule:nonzero;fill:rgb(0%,0%,0%);fill-opacity:1;" d="M 56.25 15.242188 C 56.402344 15.246094 56.554688 15.25 56.710938 15.253906 C 56.957031 15.261719 56.957031 15.261719 57.210938 15.269531 C 57.378906 15.273438 57.546875 15.277344 57.71875 15.28125 C 58.257812 15.296875 58.796875 15.3125 59.332031 15.328125 C 59.699219 15.335938 60.0625 15.347656 60.425781 15.355469 C 61.320312 15.378906 62.214844 15.402344 63.109375 15.429688 C 63.296875 16.074219 63.484375 16.722656 63.671875 17.371094 C 63.730469 17.574219 63.789062 17.777344 63.847656 17.984375 C 64.175781 19.109375 64.5 20.234375 64.828125 21.359375 C 64.960938 21.816406 65.09375 22.273438 65.226562 22.734375 C 65.292969 22.960938 65.355469 23.191406 65.425781 23.425781 C 65.777344 24.644531 66.132812 25.863281 66.488281 27.085938 C 66.675781 27.726562 66.863281 28.367188 67.046875 29.007812 C 67.132812 29.304688 67.21875 29.597656 67.304688 29.890625 C 67.421875 30.292969 67.539062 30.695312 67.65625 31.097656 C 67.722656 31.320312 67.785156 31.542969 67.855469 31.773438 C 67.992188 32.308594 67.992188 32.308594 67.992188 32.855469 C 68.109375 32.855469 68.230469 32.855469 68.351562 32.855469 C 68.375 32.675781 68.394531 32.496094 68.417969 32.308594 C 68.523438 31.570312 68.714844 30.867188 68.925781 30.152344 C 68.964844 30.015625 69.007812 29.878906 69.046875 29.738281 C 69.175781 29.285156 69.308594 28.835938 69.441406 28.386719 C 69.53125 28.070312 69.625 27.757812 69.714844 27.441406 C 69.957031 26.613281 70.199219 25.785156 70.441406 24.957031 C 70.6875 24.117188 70.929688 23.277344 71.175781 22.4375 C 71.53125 21.207031 71.890625 19.976562 72.25 18.746094 C 72.289062 18.621094 72.324219 18.496094 72.363281 18.367188 C 72.648438 17.386719 72.941406 16.40625 73.234375 15.429688 C 75.859375 15.429688 78.484375 15.429688 81.191406 15.429688 C 80.988281 16.859375 80.988281 16.859375 80.742188 17.605469 C 80.660156 17.859375 80.660156 17.859375 80.574219 18.117188 C 80.488281 18.382812 80.488281 18.382812 80.394531 18.660156 C 80.332031 18.847656 80.273438 19.039062 80.207031 19.234375 C 80.003906 19.851562 79.800781 20.472656 79.597656 21.089844 C 79.457031 21.519531 79.316406 21.953125 79.171875 22.382812 C 78.308594 25.011719 77.441406 27.640625 76.5625 30.265625 C 76.0625 31.769531 75.570312 33.273438 75.089844 34.78125 C 74.972656 35.144531 74.855469 35.507812 74.742188 35.867188 C 74.515625 36.570312 74.292969 37.269531 74.070312 37.972656 C 73.96875 38.292969 73.867188 38.609375 73.765625 38.929688 C 73.71875 39.078125 73.671875 39.222656 73.625 39.371094 C 73.582031 39.507812 73.539062 39.644531 73.492188 39.785156 C 73.457031 39.902344 73.417969 40.019531 73.382812 40.140625 C 73.195312 40.566406 73.011719 40.867188 72.691406 41.203125 C 72.28125 41.296875 72.28125 41.296875 71.792969 41.296875 C 71.519531 41.300781 71.519531 41.300781 71.238281 41.304688 C 71.039062 41.304688 70.84375 41.300781 70.640625 41.300781 C 70.4375 41.300781 70.234375 41.300781 70.027344 41.304688 C 69.597656 41.304688 69.167969 41.300781 68.742188 41.300781 C 68.082031 41.296875 67.425781 41.300781 66.769531 41.304688 C 66.351562 41.304688 65.9375 41.300781 65.519531 41.300781 C 65.324219 41.300781 65.125 41.304688 64.921875 41.304688 C 64.742188 41.304688 64.558594 41.300781 64.371094 41.296875 C 64.128906 41.296875 64.128906 41.296875 63.882812 41.296875 C 63.46875 41.203125 63.46875 41.203125 63.160156 40.890625 C 62.921875 40.472656 62.769531 40.089844 62.628906 39.628906 C 62.574219 39.460938 62.519531 39.289062 62.464844 39.117188 C 62.410156 38.929688 62.355469 38.742188 62.296875 38.554688 C 62.203125 38.257812 62.203125 38.257812 62.109375 37.957031 C 61.976562 37.523438 61.84375 37.09375 61.710938 36.664062 C 61.355469 35.5 60.992188 34.335938 60.628906 33.171875 C 60.589844 33.050781 60.550781 32.929688 60.511719 32.804688 C 59.457031 29.421875 58.351562 26.058594 57.246094 22.695312 C 57.125 22.335938 57.007812 21.972656 56.886719 21.609375 C 56.742188 21.167969 56.597656 20.730469 56.453125 20.289062 C 56.257812 19.699219 56.066406 19.105469 55.875 18.515625 C 55.804688 18.300781 55.738281 18.085938 55.664062 17.867188 C 55.597656 17.65625 55.53125 17.445312 55.464844 17.230469 C 55.402344 17.039062 55.34375 16.851562 55.28125 16.65625 C 55.152344 16.15625 55.152344 16.15625 55.152344 15.429688 C 55.570312 15.21875 55.789062 15.230469 56.25 15.242188 Z M 56.25 15.242188 "/>
<path style=" stroke:none;fill-rule:nonzero;fill:rgb(0%,0%,0%);fill-opacity:1;" d="M 103.203125 21.757812 C 103.347656 21.757812 103.492188 21.757812 103.640625 21.757812 C 103.789062 21.757812 103.9375 21.757812 104.089844 21.757812 C 104.402344 21.757812 104.714844 21.757812 105.027344 21.757812 C 105.507812 21.757812 105.992188 21.757812 106.472656 21.757812 C 106.773438 21.757812 107.078125 21.757812 107.382812 21.757812 C 107.527344 21.757812 107.671875 21.757812 107.820312 21.757812 C 108.835938 21.761719 108.835938 21.761719 109.039062 21.964844 C 109.058594 22.320312 109.0625 22.675781 109.066406 23.035156 C 109.066406 23.261719 109.070312 23.492188 109.070312 23.726562 C 109.074219 23.851562 109.074219 23.972656 109.074219 24.101562 C 109.074219 24.488281 109.078125 24.871094 109.082031 25.257812 C 109.09375 26.351562 109.105469 27.449219 109.109375 28.546875 C 109.113281 29.214844 109.121094 29.886719 109.128906 30.554688 C 109.132812 30.808594 109.132812 31.066406 109.132812 31.320312 C 109.132812 31.679688 109.136719 32.035156 109.144531 32.394531 C 109.144531 32.597656 109.144531 32.800781 109.148438 33.011719 C 109.257812 33.886719 109.605469 34.660156 110.304688 35.214844 C 111.246094 35.53125 112.246094 35.535156 113.183594 35.214844 C 114.039062 34.382812 114.136719 33.328125 114.175781 32.1875 C 114.183594 31.710938 114.1875 31.238281 114.1875 30.761719 C 114.191406 30.507812 114.191406 30.253906 114.195312 30 C 114.203125 29.335938 114.207031 28.671875 114.210938 28.007812 C 114.21875 26.941406 114.230469 25.875 114.238281 24.808594 C 114.242188 24.4375 114.246094 24.0625 114.246094 23.691406 C 114.25 23.355469 114.25 23.355469 114.253906 23.011719 C 114.253906 22.714844 114.253906 22.714844 114.257812 22.410156 C 114.28125 21.964844 114.28125 21.964844 114.460938 21.78125 C 114.957031 21.765625 115.445312 21.757812 115.9375 21.757812 C 116.085938 21.757812 116.234375 21.757812 116.386719 21.757812 C 116.699219 21.757812 117.011719 21.757812 117.324219 21.757812 C 117.804688 21.757812 118.285156 21.757812 118.765625 21.757812 C 119.070312 21.757812 119.375 21.757812 119.679688 21.757812 C 119.824219 21.757812 119.96875 21.757812 120.117188 21.757812 C 121.132812 21.761719 121.132812 21.761719 121.332031 21.964844 C 121.351562 22.214844 121.355469 22.464844 121.355469 22.714844 C 121.355469 22.960938 121.355469 22.960938 121.355469 23.207031 C 121.355469 23.476562 121.355469 23.476562 121.355469 23.75 C 121.355469 23.9375 121.355469 24.125 121.355469 24.320312 C 121.355469 24.941406 121.351562 25.566406 121.351562 26.191406 C 121.351562 26.621094 121.351562 27.050781 121.351562 27.484375 C 121.351562 28.621094 121.347656 29.757812 121.347656 30.894531 C 121.34375 32.054688 121.34375 33.214844 121.34375 34.375 C 121.339844 36.652344 121.335938 38.925781 121.332031 41.203125 C 119.125 41.203125 116.917969 41.203125 114.644531 41.203125 C 114.582031 40.246094 114.523438 39.289062 114.460938 38.300781 C 114.222656 38.636719 114.222656 38.636719 113.976562 38.980469 C 113.007812 40.265625 111.714844 41.085938 110.121094 41.386719 C 107.816406 41.554688 105.96875 41.265625 104.15625 39.738281 C 102.664062 38.308594 102.039062 36.640625 101.960938 34.582031 C 101.960938 34.347656 101.960938 34.117188 101.960938 33.878906 C 101.960938 33.75 101.960938 33.621094 101.960938 33.484375 C 101.960938 33.0625 101.960938 32.640625 101.960938 32.214844 C 101.960938 31.921875 101.960938 31.625 101.960938 31.332031 C 101.960938 30.714844 101.960938 30.097656 101.960938 29.480469 C 101.964844 28.6875 101.960938 27.898438 101.960938 27.105469 C 101.960938 26.496094 101.960938 25.886719 101.960938 25.28125 C 101.960938 24.988281 101.960938 24.695312 101.960938 24.402344 C 101.960938 23.996094 101.960938 23.589844 101.960938 23.183594 C 101.960938 22.953125 101.960938 22.71875 101.960938 22.480469 C 102.003906 21.570312 102.390625 21.761719 103.203125 21.757812 Z M 103.203125 21.757812 "/>
<path style=" stroke:none;fill-rule:nonzero;fill:rgb(0%,0%,0%);fill-opacity:1;" d="M 96.5625 23.054688 C 97.136719 23.546875 97.601562 24.042969 98.007812 24.6875 C 98.066406 24.78125 98.128906 24.875 98.191406 24.972656 C 98.980469 26.425781 98.824219 28.046875 98.808594 29.648438 C 98.808594 29.972656 98.804688 30.296875 98.804688 30.617188 C 98.804688 31.292969 98.800781 31.964844 98.796875 32.636719 C 98.789062 33.503906 98.785156 34.367188 98.78125 35.230469 C 98.78125 36.054688 98.777344 36.878906 98.773438 37.703125 C 98.773438 37.941406 98.773438 37.941406 98.773438 38.183594 C 98.769531 38.625 98.765625 39.070312 98.761719 39.515625 C 98.761719 39.644531 98.761719 39.777344 98.761719 39.914062 C 98.75 40.820312 98.75 40.820312 98.550781 41.023438 C 98.082031 41.042969 97.621094 41.046875 97.152344 41.046875 C 96.945312 41.046875 96.945312 41.046875 96.730469 41.046875 C 96.433594 41.046875 96.136719 41.046875 95.84375 41.046875 C 95.386719 41.046875 94.933594 41.046875 94.476562 41.046875 C 94.191406 41.046875 93.902344 41.046875 93.617188 41.046875 C 93.480469 41.046875 93.34375 41.046875 93.203125 41.046875 C 92.242188 41.042969 92.242188 41.042969 92.039062 40.839844 C 91.996094 40.507812 91.964844 40.167969 91.9375 39.832031 C 91.921875 39.648438 91.90625 39.464844 91.890625 39.273438 C 91.875 39.0625 91.875 39.0625 91.859375 38.84375 C 91.777344 38.972656 91.695312 39.097656 91.609375 39.230469 C 90.457031 40.5 88.796875 41.28125 87.105469 41.445312 C 85.203125 41.507812 83.546875 41.121094 82.042969 39.90625 C 80.664062 38.421875 80.578125 36.621094 80.609375 34.707031 C 80.667969 33.183594 81.132812 32.164062 82.1875 31.054688 C 83.789062 29.710938 85.722656 29.359375 87.734375 29.144531 C 87.867188 29.128906 88.003906 29.113281 88.140625 29.097656 C 88.402344 29.070312 88.667969 29.042969 88.933594 29.019531 C 89.863281 28.925781 90.632812 28.675781 91.496094 28.316406 C 91.558594 27.703125 91.558594 27.703125 91.496094 27.046875 C 90.96875 26.507812 90.53125 26.417969 89.792969 26.410156 C 89.046875 26.429688 88.84375 26.457031 88.230469 26.921875 C 87.988281 27.261719 87.75 27.605469 87.519531 27.953125 C 87.019531 28.003906 86.558594 28.015625 86.058594 28.007812 C 85.917969 28.007812 85.773438 28.003906 85.625 28.003906 C 85.164062 28 84.703125 27.996094 84.242188 27.988281 C 83.929688 27.984375 83.617188 27.984375 83.304688 27.980469 C 82.539062 27.972656 81.773438 27.964844 81.007812 27.953125 C 81.058594 27.636719 81.113281 27.324219 81.167969 27.007812 C 81.195312 26.832031 81.226562 26.65625 81.253906 26.476562 C 81.632812 24.800781 82.792969 23.460938 84.214844 22.558594 C 88.019531 20.511719 92.933594 20.6875 96.5625 23.054688 Z M 89.699219 33.367188 C 89.511719 33.410156 89.511719 33.410156 89.316406 33.457031 C 88.460938 33.667969 87.65625 33.902344 87.089844 34.625 C 86.917969 35.246094 86.988281 35.683594 87.15625 36.304688 C 87.699219 36.847656 88.21875 36.886719 88.953125 36.917969 C 89.746094 36.890625 90.292969 36.765625 90.957031 36.304688 C 91.671875 35.507812 91.882812 35.074219 91.871094 34.011719 C 91.867188 33.828125 91.867188 33.648438 91.867188 33.460938 C 91.863281 33.320312 91.863281 33.179688 91.859375 33.035156 C 91.097656 33.035156 90.433594 33.179688 89.699219 33.367188 Z M 89.699219 33.367188 "/>
<path style=" stroke:none;fill-rule:nonzero;fill:rgb(0%,0%,0%);fill-opacity:1;" d="M 136.34375 17.246094 C 138.609375 17.246094 140.878906 17.246094 143.214844 17.246094 C 143.214844 18.742188 143.214844 20.238281 143.214844 21.78125 C 144.289062 21.78125 145.363281 21.78125 146.46875 21.78125 C 146.46875 23.519531 146.46875 25.257812 146.46875 27.046875 C 145.394531 27.046875 144.320312 27.046875 143.214844 27.046875 C 143.226562 28.226562 143.242188 29.40625 143.261719 30.582031 C 143.265625 30.984375 143.273438 31.386719 143.277344 31.789062 C 143.28125 32.363281 143.292969 32.941406 143.300781 33.515625 C 143.304688 33.695312 143.304688 33.875 143.304688 34.0625 C 143.3125 34.3125 143.3125 34.3125 143.316406 34.566406 C 143.320312 34.789062 143.320312 34.789062 143.324219 35.011719 C 143.410156 35.488281 143.554688 35.652344 143.9375 35.941406 C 144.472656 36.007812 144.472656 36.007812 145.054688 35.976562 C 145.351562 35.96875 145.351562 35.96875 145.652344 35.960938 C 145.800781 35.953125 145.953125 35.945312 146.105469 35.941406 C 146.261719 36.683594 146.417969 37.429688 146.570312 38.175781 C 146.613281 38.386719 146.660156 38.597656 146.707031 38.816406 C 146.765625 39.121094 146.765625 39.121094 146.832031 39.433594 C 146.890625 39.714844 146.890625 39.714844 146.949219 40 C 147.011719 40.480469 147.011719 40.480469 146.832031 41.023438 C 144.746094 41.808594 141.738281 41.996094 139.628906 41.210938 C 138.3125 40.582031 137.28125 39.867188 136.703125 38.480469 C 136.308594 37.210938 136.296875 36.027344 136.308594 34.703125 C 136.308594 34.484375 136.308594 34.265625 136.308594 34.039062 C 136.308594 33.339844 136.316406 32.644531 136.320312 31.945312 C 136.320312 31.472656 136.324219 31 136.324219 30.523438 C 136.328125 29.363281 136.335938 28.207031 136.34375 27.046875 C 135.507812 27.046875 134.671875 27.046875 133.8125 27.046875 C 133.804688 26.324219 133.804688 25.605469 133.800781 24.882812 C 133.800781 24.640625 133.796875 24.394531 133.796875 24.148438 C 133.792969 23.796875 133.792969 23.445312 133.792969 23.09375 C 133.792969 22.882812 133.792969 22.667969 133.789062 22.449219 C 133.8125 21.964844 133.8125 21.964844 133.992188 21.78125 C 134.777344 21.757812 135.558594 21.773438 136.34375 21.78125 C 136.34375 20.285156 136.34375 18.789062 136.34375 17.246094 Z M 136.34375 17.246094 "/>
<path style=" stroke:none;fill-rule:nonzero;fill:rgb(0%,0%,0%);fill-opacity:1;" d="M 124.769531 15.429688 C 127.035156 15.429688 129.304688 15.429688 131.640625 15.429688 C 131.640625 23.875 131.640625 32.320312 131.640625 41.023438 C 130.90625 41.207031 130.25 41.226562 129.5 41.222656 C 129.367188 41.222656 129.230469 41.222656 129.089844 41.222656 C 128.660156 41.21875 128.230469 41.21875 127.796875 41.214844 C 127.503906 41.214844 127.210938 41.214844 126.917969 41.214844 C 126.203125 41.210938 125.484375 41.207031 124.769531 41.203125 C 124.578125 40.632812 124.570312 40.238281 124.574219 39.636719 C 124.574219 39.421875 124.578125 39.210938 124.578125 38.992188 C 124.578125 38.757812 124.582031 38.523438 124.585938 38.28125 C 124.585938 38.035156 124.589844 37.785156 124.589844 37.535156 C 124.59375 36.859375 124.601562 36.183594 124.605469 35.511719 C 124.613281 34.804688 124.617188 34.097656 124.625 33.394531 C 124.632812 32.054688 124.644531 30.71875 124.65625 29.382812 C 124.667969 27.863281 124.679688 26.339844 124.691406 24.820312 C 124.71875 21.6875 124.742188 18.558594 124.769531 15.429688 Z M 124.769531 15.429688 "/>
<path style=" stroke:none;fill-rule:nonzero;fill:rgb(30.588236%,27.058825%,88.627452%);fill-opacity:1;" d="M 1.792969 29.382812 C 2.003906 29.382812 2.21875 29.382812 2.441406 29.382812 C 2.65625 29.382812 2.871094 29.382812 3.089844 29.382812 C 3.617188 29.40625 3.617188 29.40625 3.796875 29.585938 C 3.839844 29.871094 3.867188 30.15625 3.894531 30.441406 C 4.324219 34.667969 5.457031 38.675781 8.316406 41.929688 C 8.4375 42.074219 8.558594 42.21875 8.683594 42.367188 C 11.761719 45.964844 16.078125 48.300781 20.792969 48.828125 C 26.496094 49.117188 31.625 47.96875 35.984375 44.109375 C 36.09375 44.023438 36.203125 43.941406 36.316406 43.851562 C 40.175781 40.863281 41.867188 35.738281 42.488281 31.082031 C 42.554688 30.523438 42.613281 29.964844 42.675781 29.40625 C 43.511719 29.40625 44.34375 29.40625 45.207031 29.40625 C 45.414062 34.863281 43.296875 40.269531 39.636719 44.28125 C 35.453125 48.785156 30.152344 51.476562 23.964844 51.761719 C 17.605469 51.910156 12.191406 49.535156 7.59375 45.199219 C 7.476562 45.089844 7.355469 44.984375 7.230469 44.875 C 3.199219 41.128906 1.421875 35.445312 1.085938 30.097656 C 1.085938 29.84375 1.085938 29.84375 1.085938 29.585938 C 1.265625 29.40625 1.265625 29.40625 1.792969 29.382812 Z M 1.792969 29.382812 "/>
<path style=" stroke:none;fill-rule:nonzero;fill:rgb(30.588236%,27.058825%,87.843138%);fill-opacity:1;" d="M 6.691406 29.40625 C 7.585938 29.40625 8.480469 29.40625 9.402344 29.40625 C 9.429688 29.625 9.460938 29.84375 9.488281 30.070312 C 10.074219 34.289062 11.578125 37.972656 15.007812 40.660156 C 18.101562 42.9375 21.867188 43.804688 25.652344 43.25 C 28.289062 42.804688 30.527344 41.675781 32.546875 39.933594 C 32.746094 39.765625 32.746094 39.765625 32.945312 39.597656 C 35.621094 37.128906 36.695312 33.761719 37.152344 30.257812 C 37.25 29.585938 37.25 29.585938 37.429688 29.40625 C 37.828125 29.394531 38.222656 29.390625 38.617188 29.394531 C 38.941406 29.398438 38.941406 29.398438 39.273438 29.398438 C 39.441406 29.402344 39.609375 29.402344 39.78125 29.40625 C 40.03125 33.792969 38.382812 37.628906 35.519531 40.910156 C 32.738281 43.890625 28.851562 46.082031 24.722656 46.308594 C 19.894531 46.460938 15.566406 45.199219 11.941406 41.914062 C 8.929688 39.070312 6.820312 35.039062 6.671875 30.835938 C 6.667969 30.359375 6.679688 29.882812 6.691406 29.40625 Z M 6.691406 29.40625 "/>
<path style=" stroke:none;fill-rule:nonzero;fill:rgb(28.627452%,28.627452%,81.176472%);fill-opacity:1;" d="M 45.027344 23.777344 C 45.085938 23.777344 45.144531 23.777344 45.207031 23.777344 C 45.359375 24.964844 45.386719 26.003906 45.386719 27.226562 C 30.828125 27.226562 16.265625 27.226562 1.265625 27.226562 C 1.207031 26.988281 1.144531 26.75 1.085938 26.5 C 1.144531 26.621094 1.203125 26.742188 1.265625 26.863281 C 4.9375 26.953125 4.9375 26.953125 8.679688 27.046875 C 8.679688 26.925781 8.679688 26.804688 8.679688 26.683594 C 18.167969 26.683594 27.65625 26.683594 37.429688 26.683594 C 37.429688 26.804688 37.429688 26.921875 37.429688 27.046875 C 39.996094 27.046875 42.5625 27.046875 45.207031 27.046875 C 45.148438 26.625 45.085938 26.207031 45.027344 25.777344 C 45.015625 25.417969 45.011719 25.058594 45.015625 24.699219 C 45.015625 24.523438 45.015625 24.351562 45.019531 24.171875 C 45.023438 23.976562 45.023438 23.976562 45.027344 23.777344 Z M 45.027344 23.777344 "/>
<path style=" stroke:none;fill-rule:nonzero;fill:rgb(28.627452%,25.882354%,81.176472%);fill-opacity:1;" d="M 32.367188 46.648438 C 32.546875 46.738281 32.546875 46.738281 32.730469 46.832031 C 31.921875 47.371094 31.921875 47.371094 31.101562 47.921875 C 31.222656 48.160156 31.339844 48.398438 31.464844 48.648438 C 31.402344 48.707031 31.34375 48.765625 31.28125 48.828125 C 31.699219 48.949219 32.117188 49.066406 32.546875 49.191406 C 32.546875 49.070312 32.546875 48.953125 32.546875 48.828125 C 33.027344 48.769531 33.503906 48.707031 33.996094 48.648438 C 33.996094 48.527344 33.996094 48.40625 33.996094 48.285156 C 34.214844 48.25 34.214844 48.25 34.4375 48.214844 C 34.589844 48.179688 34.742188 48.140625 34.898438 48.101562 C 34.957031 47.984375 35.019531 47.863281 35.082031 47.738281 C 35.082031 47.917969 35.082031 48.097656 35.082031 48.285156 C 30.179688 51.023438 30.179688 51.023438 27.484375 51.1875 C 28.105469 50.617188 28.652344 50.542969 29.472656 50.460938 C 29.472656 50.28125 29.472656 50.101562 29.472656 49.917969 C 29.472656 49.796875 29.472656 49.679688 29.472656 49.554688 C 29.652344 49.496094 29.832031 49.433594 30.015625 49.371094 C 29.839844 49.132812 29.660156 48.894531 29.472656 48.648438 C 29.328125 48.703125 29.183594 48.757812 29.035156 48.816406 C 27.300781 49.335938 25.46875 49.214844 23.675781 49.203125 C 23.398438 49.203125 23.117188 49.199219 22.835938 49.199219 C 22.15625 49.199219 21.476562 49.195312 20.792969 49.191406 C 20.792969 49.132812 20.792969 49.070312 20.792969 49.011719 C 20.925781 49.007812 21.054688 49.007812 21.191406 49.003906 C 24.960938 48.945312 28.476562 48.6875 31.867188 46.882812 C 32.03125 46.804688 32.199219 46.730469 32.367188 46.648438 Z M 32.367188 46.648438 "/>
<path style=" stroke:none;fill-rule:nonzero;fill:rgb(29.803923%,26.666668%,79.215688%);fill-opacity:1;" d="M 1.792969 29.382812 C 2.003906 29.382812 2.21875 29.382812 2.441406 29.382812 C 2.65625 29.382812 2.871094 29.382812 3.089844 29.382812 C 3.617188 29.40625 3.617188 29.40625 3.796875 29.585938 C 3.839844 29.871094 3.867188 30.15625 3.894531 30.441406 C 4.195312 33.394531 4.710938 36.101562 6.1875 38.707031 C 6.257812 38.867188 6.257812 38.867188 6.328125 39.027344 C 6.269531 39.144531 6.210938 39.265625 6.148438 39.390625 C 5.96875 39.269531 5.789062 39.148438 5.605469 39.027344 C 5.605469 38.847656 5.605469 38.667969 5.605469 38.480469 C 5.246094 38.570312 5.246094 38.570312 4.882812 38.664062 C 4.882812 38.542969 4.882812 38.421875 4.882812 38.300781 C 4.613281 38.210938 4.613281 38.210938 4.339844 38.117188 C 4.460938 38.117188 4.578125 38.117188 4.703125 38.117188 C 4.613281 37.617188 4.613281 37.617188 4.339844 37.210938 C 4.148438 36.652344 4.183594 36.320312 4.339844 35.757812 C 4.25 35.667969 4.25 35.667969 4.160156 35.578125 C 4.097656 35.152344 4.039062 34.730469 3.976562 34.308594 C 3.917969 34.246094 3.859375 34.1875 3.796875 34.125 C 3.734375 33.703125 3.671875 33.277344 3.617188 32.855469 C 3.570312 32.6875 3.570312 32.6875 3.527344 32.515625 C 3.414062 32.039062 3.375 31.574219 3.332031 31.085938 C 3.320312 30.90625 3.304688 30.726562 3.289062 30.542969 C 3.277344 30.40625 3.265625 30.273438 3.253906 30.132812 C 2.71875 30.070312 2.179688 30.011719 1.628906 29.949219 C 1.652344 30.488281 1.679688 31.023438 1.707031 31.5625 C 1.714844 31.714844 1.722656 31.867188 1.726562 32.023438 C 1.734375 32.171875 1.742188 32.316406 1.75 32.46875 C 1.757812 32.601562 1.765625 32.738281 1.769531 32.875 C 1.789062 33.234375 1.789062 33.234375 1.988281 33.582031 C 2 33.859375 2.003906 34.140625 2 34.421875 C 2 34.570312 1.996094 34.71875 1.996094 34.871094 C 1.992188 34.984375 1.992188 35.097656 1.988281 35.214844 C 1.105469 33.628906 1.117188 31.375 1.085938 29.585938 C 1.265625 29.40625 1.265625 29.40625 1.792969 29.382812 Z M 1.792969 29.382812 "/>
<path style=" stroke:none;fill-rule:nonzero;fill:rgb(29.411766%,27.058825%,76.078433%);fill-opacity:1;" d="M 32.1875 43.746094 C 27.957031 46.023438 23.359375 47.171875 18.625 45.742188 C 18.445312 45.621094 18.265625 45.503906 18.082031 45.378906 C 18.382812 45.320312 18.679688 45.257812 18.988281 45.199219 C 18.988281 45.316406 18.988281 45.4375 18.988281 45.5625 C 19.3125 45.554688 19.3125 45.554688 19.640625 45.550781 C 20.082031 45.542969 20.472656 45.566406 20.90625 45.652344 C 21.746094 45.777344 22.570312 45.777344 23.417969 45.777344 C 23.585938 45.777344 23.75 45.78125 23.921875 45.785156 C 24.839844 45.785156 25.53125 45.691406 26.402344 45.378906 C 26.703125 45.386719 26.703125 45.386719 27.011719 45.398438 C 27.832031 45.375 28.351562 45.117188 29.066406 44.746094 C 30.316406 44.109375 30.316406 44.109375 30.921875 44.109375 C 30.921875 43.988281 30.921875 43.871094 30.921875 43.746094 C 31.464844 43.578125 31.621094 43.554688 32.1875 43.746094 Z M 32.1875 43.746094 "/>
<path style=" stroke:none;fill-rule:nonzero;fill:rgb(30.980393%,27.450982%,90.588236%);fill-opacity:1;" d="M 7.050781 41.203125 C 7.171875 41.203125 7.289062 41.203125 7.414062 41.203125 C 7.777344 41.566406 7.777344 41.566406 7.777344 42.292969 C 7.882812 42.34375 7.992188 42.390625 8.101562 42.441406 C 8.492188 42.652344 8.746094 42.875 9.042969 43.203125 C 8.980469 43.382812 8.921875 43.5625 8.859375 43.746094 C 8.742188 43.6875 8.621094 43.625 8.5 43.5625 C 8.558594 43.804688 8.617188 44.042969 8.679688 44.289062 C 8.5 44.351562 8.320312 44.410156 8.136719 44.472656 C 7.957031 43.925781 7.957031 43.925781 7.957031 43.746094 C 7.957031 44.289062 7.957031 44.289062 7.777344 44.835938 C 7.65625 44.835938 7.535156 44.835938 7.414062 44.835938 C 7.367188 44.726562 7.316406 44.617188 7.265625 44.507812 C 7.074219 44.101562 7.074219 44.101562 6.757812 43.824219 C 6.507812 43.5625 6.507812 43.5625 6.507812 43.019531 C 6.332031 42.898438 6.152344 42.78125 5.96875 42.65625 C 6.027344 42.476562 6.085938 42.296875 6.148438 42.113281 C 6.386719 42.113281 6.625 42.113281 6.871094 42.113281 C 6.871094 42.230469 6.871094 42.351562 6.871094 42.476562 C 6.992188 42.476562 7.109375 42.476562 7.234375 42.476562 C 7.234375 42.234375 7.234375 41.996094 7.234375 41.75 C 7.113281 41.75 6.996094 41.75 6.871094 41.75 C 6.929688 41.570312 6.992188 41.390625 7.050781 41.203125 Z M 7.050781 41.203125 "/>
<path style=" stroke:none;fill-rule:nonzero;fill:rgb(30.980393%,27.058825%,90.196079%);fill-opacity:1;" d="M 32.730469 40.117188 C 32.910156 40.175781 33.085938 40.234375 33.273438 40.296875 C 33.332031 40.476562 33.390625 40.65625 33.453125 40.839844 C 33.8125 41.148438 33.8125 41.148438 34.175781 41.386719 C 34.054688 41.6875 33.9375 41.984375 33.8125 42.292969 C 33.695312 42.292969 33.574219 42.292969 33.453125 42.292969 C 33.453125 42.414062 33.453125 42.535156 33.453125 42.65625 C 33.15625 42.597656 32.855469 42.535156 32.546875 42.476562 C 32.488281 42.59375 32.429688 42.714844 32.367188 42.839844 C 32.25 42.71875 32.128906 42.597656 32.007812 42.476562 C 32.007812 42.296875 32.007812 42.117188 32.007812 41.929688 C 31.898438 41.988281 31.789062 42.042969 31.679688 42.101562 C 31.28125 42.292969 31.28125 42.292969 30.742188 42.476562 C 30.75 42.066406 30.75 42.066406 30.921875 41.566406 C 31.207031 41.363281 31.207031 41.363281 31.554688 41.183594 C 32.234375 40.910156 32.234375 40.910156 32.367188 40.296875 C 32.488281 40.238281 32.605469 40.175781 32.730469 40.117188 Z M 32.730469 40.117188 "/>
<path style=" stroke:none;fill-rule:nonzero;fill:rgb(30.980393%,27.058825%,90.980393%);fill-opacity:1;" d="M 33.273438 47.011719 C 33.273438 47.191406 33.273438 47.371094 33.273438 47.558594 C 32.820312 47.863281 32.820312 47.863281 32.367188 48.101562 C 32.945312 48.296875 33.390625 48.296875 33.996094 48.285156 C 33.996094 48.402344 33.996094 48.523438 33.996094 48.648438 C 33.519531 48.707031 33.039062 48.765625 32.546875 48.828125 C 32.546875 48.949219 32.546875 49.066406 32.546875 49.191406 C 32.070312 49.132812 31.59375 49.070312 31.101562 49.011719 C 31.222656 48.769531 31.339844 48.53125 31.464844 48.285156 C 31.285156 48.222656 31.105469 48.164062 30.921875 48.101562 C 31.6875 47.296875 32.121094 46.933594 33.273438 47.011719 Z M 33.273438 47.011719 "/>
<path style=" stroke:none;fill-rule:nonzero;fill:rgb(29.019609%,25.882354%,80.784315%);fill-opacity:1;" d="M 39.417969 43.746094 C 39.597656 43.804688 39.777344 43.867188 39.960938 43.925781 C 39.511719 44.390625 39.058594 44.851562 38.605469 45.3125 C 38.480469 45.441406 38.355469 45.570312 38.226562 45.703125 C 37.410156 46.527344 36.570312 47.253906 35.621094 47.921875 C 35.503906 47.859375 35.382812 47.800781 35.261719 47.738281 C 35.320312 47.5 35.378906 47.261719 35.441406 47.011719 C 35.738281 47.011719 36.039062 47.011719 36.347656 47.011719 C 36.347656 46.894531 36.347656 46.773438 36.347656 46.648438 C 36.523438 46.648438 36.703125 46.648438 36.886719 46.648438 C 36.828125 46.351562 36.769531 46.050781 36.707031 45.742188 C 36.886719 45.800781 37.066406 45.863281 37.25 45.925781 C 37.25 45.746094 37.25 45.566406 37.25 45.378906 C 37.476562 44.703125 37.726562 44.621094 38.335938 44.289062 C 38.453125 44.410156 38.574219 44.53125 38.695312 44.652344 C 38.933594 44.355469 39.175781 44.054688 39.417969 43.746094 Z M 39.417969 43.746094 "/>
<path style=" stroke:none;fill-rule:nonzero;fill:rgb(28.627452%,25.882354%,82.745099%);fill-opacity:1;" d="M 38.152344 35.941406 C 38.273438 35.941406 38.394531 35.941406 38.515625 35.941406 C 38.027344 37.875 36.867188 39.476562 35.441406 40.839844 C 35.601562 39.980469 35.601562 39.980469 35.804688 39.570312 C 35.921875 39.570312 36.042969 39.570312 36.164062 39.570312 C 36.164062 39.449219 36.164062 39.332031 36.164062 39.207031 C 36.285156 39.148438 36.402344 39.089844 36.527344 39.027344 C 36.585938 38.847656 36.644531 38.667969 36.707031 38.480469 C 36.828125 38.480469 36.945312 38.480469 37.070312 38.480469 C 37.007812 38.183594 37.007812 38.183594 36.945312 37.878906 C 36.886719 37.210938 36.886719 37.210938 37.113281 36.859375 C 37.429688 36.667969 37.429688 36.667969 37.972656 36.667969 C 38.03125 36.425781 38.09375 36.1875 38.152344 35.941406 Z M 38.152344 35.941406 "/>
<path style=" stroke:none;fill-rule:nonzero;fill:rgb(30.980393%,27.843139%,77.254903%);fill-opacity:1;" d="M 7.777344 11.074219 C 7.894531 11.132812 8.015625 11.191406 8.136719 11.253906 C 7.460938 12.320312 7.460938 12.320312 7.050781 12.523438 C 6.933594 12.828125 6.933594 12.828125 6.816406 13.136719 C 6.476562 13.867188 6.28125 13.964844 5.605469 14.339844 C 5.277344 14.804688 5.277344 14.804688 5.0625 15.246094 C 5.242188 15.308594 5.421875 15.367188 5.605469 15.429688 C 5.1875 15.550781 4.769531 15.667969 4.339844 15.792969 C 4.96875 13.976562 6.492188 12.460938 7.777344 11.074219 Z M 7.777344 11.074219 "/>
<path style=" stroke:none;fill-rule:nonzero;fill:rgb(28.627452%,26.274511%,77.64706%);fill-opacity:1;" d="M 3.976562 39.753906 C 4.574219 40.261719 4.890625 40.878906 5.242188 41.566406 C 5.242188 41.746094 5.242188 41.925781 5.242188 42.113281 C 5.363281 42.113281 5.484375 42.113281 5.605469 42.113281 C 5.664062 42.351562 5.726562 42.589844 5.785156 42.839844 C 6.085938 42.839844 6.382812 42.839844 6.691406 42.839844 C 6.710938 42.976562 6.726562 43.117188 6.746094 43.257812 C 6.878906 43.777344 7.011719 43.957031 7.414062 44.289062 C 7.355469 44.46875 7.292969 44.648438 7.234375 44.835938 C 6.242188 43.816406 5.382812 42.753906 4.589844 41.578125 C 4.507812 41.460938 4.425781 41.34375 4.34375 41.222656 C 4.144531 40.921875 3.96875 40.609375 3.796875 40.296875 C 3.855469 40.117188 3.917969 39.9375 3.976562 39.753906 Z M 3.976562 39.753906 "/>
<path style=" stroke:none;fill-rule:nonzero;fill:rgb(26.274511%,23.529412%,75.294119%);fill-opacity:1;" d="M 3.4375 30.132812 C 3.496094 30.132812 3.554688 30.132812 3.617188 30.132812 C 3.648438 30.292969 3.679688 30.457031 3.710938 30.625 C 4.042969 32.351562 4.445312 34.054688 4.882812 35.757812 C 4.941406 36 5.003906 36.242188 5.0625 36.484375 C 4.519531 36.304688 4.519531 36.304688 4.316406 36.007812 C 4.113281 35.449219 4.054688 34.894531 3.976562 34.308594 C 3.917969 34.246094 3.859375 34.1875 3.796875 34.125 C 3.734375 33.703125 3.671875 33.277344 3.617188 32.855469 C 3.585938 32.742188 3.554688 32.628906 3.519531 32.515625 C 3.414062 32.03125 3.417969 31.582031 3.425781 31.085938 C 3.425781 30.90625 3.425781 30.726562 3.429688 30.542969 C 3.429688 30.40625 3.433594 30.273438 3.4375 30.132812 Z M 3.4375 30.132812 "/>
<path style=" stroke:none;fill-rule:nonzero;fill:rgb(31.37255%,27.843139%,80.000001%);fill-opacity:1;" d="M 16.816406 5.988281 C 16.816406 6.109375 16.816406 6.230469 16.816406 6.351562 C 16.660156 6.402344 16.503906 6.449219 16.34375 6.5 C 15.328125 6.839844 15.328125 6.839844 14.464844 7.441406 C 14.585938 7.503906 14.703125 7.5625 14.828125 7.625 C 14.828125 7.742188 14.828125 7.863281 14.828125 7.988281 C 14.46875 8.046875 14.113281 8.105469 13.742188 8.167969 C 13.800781 7.929688 13.863281 7.6875 13.921875 7.441406 C 13.804688 7.441406 13.683594 7.441406 13.5625 7.441406 C 13.503906 7.5625 13.441406 7.683594 13.382812 7.804688 C 13.203125 7.683594 13.023438 7.566406 12.839844 7.441406 C 13.210938 7.269531 13.585938 7.09375 13.957031 6.921875 C 14.164062 6.824219 14.371094 6.726562 14.585938 6.625 C 15.988281 5.988281 15.988281 5.988281 16.816406 5.988281 Z M 16.816406 5.988281 "/>
<path style=" stroke:none;fill-rule:nonzero;fill:rgb(28.627452%,25.882354%,75.294119%);fill-opacity:1;" d="M 40.6875 37.9375 C 40.882812 38.539062 40.878906 38.632812 40.605469 39.253906 C 40.511719 39.417969 40.421875 39.582031 40.324219 39.753906 C 40.203125 39.753906 40.085938 39.753906 39.960938 39.753906 C 39.902344 40.050781 39.84375 40.351562 39.78125 40.660156 C 39.601562 40.71875 39.421875 40.78125 39.238281 40.839844 C 39.128906 41.1875 39.128906 41.1875 39.058594 41.566406 C 38.9375 41.746094 38.820312 41.925781 38.695312 42.113281 C 38.578125 42.113281 38.457031 42.113281 38.335938 42.113281 C 38.273438 42.292969 38.214844 42.472656 38.152344 42.65625 C 37.78125 42.78125 37.78125 42.78125 37.429688 42.839844 C 37.496094 42.753906 37.558594 42.671875 37.625 42.585938 C 38.75 41.089844 39.816406 39.597656 40.6875 37.9375 Z M 40.6875 37.9375 "/>
<path style=" stroke:none;fill-rule:nonzero;fill:rgb(28.627452%,25.490198%,75.686276%);fill-opacity:1;" d="M 37.25 43.019531 C 37.25 43.199219 37.25 43.378906 37.25 43.5625 C 37.070312 43.746094 36.886719 43.925781 36.707031 44.109375 C 36.707031 44.289062 36.707031 44.46875 36.707031 44.652344 C 36.46875 44.652344 36.230469 44.652344 35.984375 44.652344 C 35.679688 44.953125 35.378906 45.253906 35.082031 45.5625 C 34.011719 46.289062 34.011719 46.289062 33.453125 46.289062 C 33.453125 46.40625 33.453125 46.527344 33.453125 46.648438 C 33.214844 46.589844 32.976562 46.53125 32.730469 46.46875 C 32.84375 46.402344 32.957031 46.335938 33.074219 46.265625 C 34.605469 45.335938 35.914062 44.210938 37.25 43.019531 Z M 37.25 43.019531 "/>
<path style=" stroke:none;fill-rule:nonzero;fill:rgb(28.627452%,26.666668%,73.333335%);fill-opacity:1;" d="M 15.914062 47.738281 C 16.101562 47.789062 16.289062 47.835938 16.480469 47.886719 C 17.851562 48.234375 19.222656 48.574219 20.613281 48.828125 C 20.613281 48.949219 20.613281 49.066406 20.613281 49.191406 C 19.972656 49.101562 19.332031 49.007812 18.691406 48.914062 C 18.472656 48.882812 18.257812 48.847656 18.039062 48.816406 C 17.820312 48.785156 17.601562 48.753906 17.378906 48.71875 C 16.820312 48.636719 16.820312 48.636719 16.273438 48.648438 C 16.15625 48.347656 16.035156 48.046875 15.914062 47.738281 Z M 15.914062 47.738281 "/>
<path style=" stroke:none;fill-rule:nonzero;fill:rgb(29.411766%,25.882354%,75.294119%);fill-opacity:1;" d="M 37.960938 29.386719 C 38.570312 29.394531 39.175781 29.398438 39.78125 29.40625 C 39.78125 30.246094 39.78125 31.082031 39.78125 31.945312 C 39.722656 31.945312 39.664062 31.945312 39.601562 31.945312 C 39.601562 31.167969 39.601562 30.390625 39.601562 29.585938 C 39.375 29.609375 39.144531 29.632812 38.910156 29.65625 C 38.785156 29.667969 38.65625 29.679688 38.523438 29.695312 C 38.101562 29.753906 38.101562 29.753906 37.613281 30.132812 C 37.519531 30.566406 37.519531 30.566406 37.511719 31.050781 C 37.488281 31.546875 37.488281 31.546875 37.429688 31.945312 C 37.25 32.035156 37.25 32.035156 37.070312 32.128906 C 37.09375 31.707031 37.121094 31.289062 37.148438 30.871094 C 37.164062 30.636719 37.175781 30.402344 37.191406 30.160156 C 37.265625 29.410156 37.265625 29.410156 37.960938 29.386719 Z M 37.960938 29.386719 "/>
<path style=" stroke:none;fill-rule:nonzero;fill:rgb(30.980393%,28.627452%,74.509805%);fill-opacity:1;" d="M 31.824219 6.714844 C 32.675781 6.96875 33.414062 7.332031 34.175781 7.78125 C 34.28125 7.84375 34.390625 7.90625 34.5 7.96875 C 35.195312 8.371094 35.863281 8.804688 36.527344 9.257812 C 35.984375 9.433594 35.613281 9.488281 35.082031 9.257812 C 35.03125 9.144531 34.980469 9.03125 34.925781 8.914062 C 34.664062 8.433594 34.410156 8.296875 33.925781 8.042969 C 33.789062 7.96875 33.648438 7.890625 33.503906 7.816406 C 33.125 7.640625 32.777344 7.527344 32.367188 7.441406 C 32.367188 7.324219 32.367188 7.203125 32.367188 7.078125 C 32.1875 7.078125 32.007812 7.078125 31.824219 7.078125 C 31.824219 6.960938 31.824219 6.839844 31.824219 6.714844 Z M 31.824219 6.714844 "/>
<path style=" stroke:none;fill-rule:nonzero;fill:rgb(30.19608%,27.450982%,75.686276%);fill-opacity:1;" d="M 13.5625 49.371094 C 14.742188 49.429688 15.539062 49.679688 16.582031 50.242188 C 17.066406 50.496094 17.558594 50.671875 18.082031 50.824219 C 17.476562 51.03125 17.144531 50.984375 16.550781 50.757812 C 16.398438 50.703125 16.246094 50.648438 16.09375 50.589844 C 15.859375 50.496094 15.859375 50.496094 15.617188 50.40625 C 15.460938 50.347656 15.304688 50.289062 15.140625 50.226562 C 13.972656 49.785156 13.972656 49.785156 13.5625 49.371094 Z M 13.5625 49.371094 "/>
<path style=" stroke:none;fill-rule:nonzero;fill:rgb(28.627452%,25.882354%,75.294119%);fill-opacity:1;" d="M 43.757812 36.121094 C 43.820312 36.121094 43.878906 36.121094 43.941406 36.121094 C 44.070312 37.238281 43.609375 38.035156 43.125 39.003906 C 43.050781 39.164062 42.972656 39.324219 42.890625 39.488281 C 42.699219 39.878906 42.507812 40.269531 42.3125 40.660156 C 42.253906 40.660156 42.195312 40.660156 42.132812 40.660156 C 42.132812 40.359375 42.132812 40.0625 42.132812 39.753906 C 42.25 39.753906 42.371094 39.753906 42.492188 39.753906 C 42.53125 39.542969 42.53125 39.542969 42.574219 39.332031 C 42.675781 38.84375 42.675781 38.84375 42.855469 38.300781 C 42.976562 38.300781 43.09375 38.300781 43.21875 38.300781 C 43.238281 38.074219 43.261719 37.851562 43.285156 37.621094 C 43.355469 37.050781 43.453125 36.613281 43.757812 36.121094 Z M 43.757812 36.121094 "/>
<path style=" stroke:none;fill-rule:nonzero;fill:rgb(29.411766%,26.666668%,80.000001%);fill-opacity:1;" d="M 7.414062 34.125 C 8.101562 34.355469 8.300781 34.601562 8.679688 35.214844 C 8.644531 35.769531 8.644531 35.769531 8.5 36.304688 C 8.4375 36.546875 8.378906 36.789062 8.316406 37.03125 C 8.164062 36.683594 8.015625 36.335938 7.867188 35.984375 C 7.78125 35.792969 7.699219 35.597656 7.613281 35.398438 C 7.414062 34.851562 7.414062 34.851562 7.414062 34.125 Z M 7.414062 34.125 "/>
<path style=" stroke:none;fill-rule:nonzero;fill:rgb(27.843139%,25.098041%,75.686276%);fill-opacity:1;" d="M 37.25 37.753906 C 37.371094 37.753906 37.488281 37.753906 37.613281 37.753906 C 37.34375 38.546875 36.917969 39.15625 36.414062 39.808594 C 36.335938 39.910156 36.261719 40.007812 36.183594 40.113281 C 35.996094 40.355469 35.808594 40.597656 35.621094 40.839844 C 35.507812 40.511719 35.507812 40.511719 35.441406 40.117188 C 35.5625 39.9375 35.679688 39.757812 35.804688 39.570312 C 35.921875 39.570312 36.042969 39.570312 36.164062 39.570312 C 36.164062 39.449219 36.164062 39.332031 36.164062 39.207031 C 36.285156 39.148438 36.402344 39.089844 36.527344 39.027344 C 36.585938 38.847656 36.644531 38.667969 36.707031 38.480469 C 36.828125 38.480469 36.945312 38.480469 37.070312 38.480469 C 37.128906 38.242188 37.1875 38.003906 37.25 37.753906 Z M 37.25 37.753906 "/>
<path style=" stroke:none;fill-rule:nonzero;fill:rgb(28.627452%,25.882354%,75.686276%);fill-opacity:1;" d="M 10.847656 35.941406 C 11.414062 36.449219 11.816406 37.074219 12.238281 37.699219 C 12.316406 37.808594 12.390625 37.917969 12.46875 38.03125 C 12.652344 38.304688 12.835938 38.574219 13.019531 38.84375 C 12.476562 38.84375 12.476562 38.84375 12.160156 38.554688 C 12.050781 38.425781 11.945312 38.296875 11.832031 38.164062 C 11.722656 38.039062 11.617188 37.910156 11.503906 37.78125 C 11.210938 37.394531 11.210938 37.394531 11.015625 36.992188 C 10.875 36.632812 10.875 36.632812 10.488281 36.484375 C 10.605469 36.304688 10.726562 36.125 10.847656 35.941406 Z M 10.847656 35.941406 "/>
<path style=" stroke:none;fill-rule:nonzero;fill:rgb(27.843139%,25.490198%,73.725492%);fill-opacity:1;" d="M 39.238281 31.945312 C 39.359375 31.945312 39.476562 31.945312 39.601562 31.945312 C 39.539062 33.371094 39.1875 34.605469 38.695312 35.941406 C 38.578125 35.878906 38.457031 35.820312 38.335938 35.757812 C 38.394531 35.460938 38.453125 35.160156 38.515625 34.851562 C 38.636719 34.851562 38.753906 34.851562 38.878906 34.851562 C 38.996094 33.894531 39.117188 32.933594 39.238281 31.945312 Z M 39.238281 31.945312 "/>
<path style=" stroke:none;fill-rule:nonzero;fill:rgb(28.627452%,26.274511%,77.64706%);fill-opacity:1;" d="M 42.675781 29.40625 C 43.511719 29.40625 44.34375 29.40625 45.207031 29.40625 C 45.207031 30.066406 45.207031 30.722656 45.207031 31.402344 C 45.148438 31.402344 45.085938 31.402344 45.027344 31.402344 C 44.964844 30.921875 44.90625 30.445312 44.84375 29.949219 C 44.1875 29.832031 43.53125 29.710938 42.855469 29.585938 C 42.855469 29.886719 42.855469 30.1875 42.855469 30.496094 C 42.796875 30.496094 42.734375 30.496094 42.675781 30.496094 C 42.675781 30.136719 42.675781 29.777344 42.675781 29.40625 Z M 42.675781 29.40625 "/>
<path style=" stroke:none;fill-rule:nonzero;fill:rgb(30.19608%,27.058825%,77.254903%);fill-opacity:1;" d="M 13.019531 46.289062 C 13.679688 46.546875 14.328125 46.828125 14.972656 47.125 C 15.238281 47.25 15.238281 47.25 15.507812 47.371094 C 15.640625 47.433594 15.777344 47.496094 15.914062 47.558594 C 15.132812 47.820312 14.515625 47.617188 13.742188 47.375 C 13.28125 47.117188 13.28125 47.117188 13.019531 46.832031 C 13.019531 46.652344 13.019531 46.472656 13.019531 46.289062 Z M 13.019531 46.289062 "/>
<path style=" stroke:none;fill-rule:nonzero;fill:rgb(30.19608%,27.058825%,79.215688%);fill-opacity:1;" d="M 16.636719 43.925781 C 16.6875 44.042969 16.742188 44.160156 16.792969 44.277344 C 16.964844 44.679688 16.964844 44.679688 17.359375 44.835938 C 17.359375 44.953125 17.359375 45.074219 17.359375 45.199219 C 16.59375 44.960938 15.898438 44.664062 15.1875 44.289062 C 15.1875 44.230469 15.1875 44.171875 15.1875 44.109375 C 16.230469 43.925781 16.230469 43.925781 16.636719 43.925781 Z M 16.636719 43.925781 "/>
<path style=" stroke:none;fill-rule:nonzero;fill:rgb(25.882354%,21.960784%,81.176472%);fill-opacity:1;" d="M 3.4375 30.132812 C 3.496094 30.132812 3.554688 30.132812 3.617188 30.132812 C 3.796875 31.089844 3.972656 32.050781 4.160156 33.035156 C 3.921875 32.917969 3.679688 32.796875 3.4375 32.671875 C 3.4375 31.835938 3.4375 30.996094 3.4375 30.132812 Z M 3.4375 30.132812 "/>
<path style=" stroke:none;fill-rule:nonzero;fill:rgb(27.058825%,24.705882%,75.686276%);fill-opacity:1;" d="M 5.0625 36.847656 C 5.597656 37.496094 6.035156 38.238281 6.328125 39.027344 C 6.269531 39.144531 6.210938 39.265625 6.148438 39.390625 C 5.96875 39.269531 5.789062 39.148438 5.605469 39.027344 C 5.605469 38.847656 5.605469 38.667969 5.605469 38.480469 C 5.484375 38.480469 5.367188 38.480469 5.242188 38.480469 C 5.183594 37.941406 5.125 37.402344 5.0625 36.847656 Z M 5.0625 36.847656 "/>
<path style=" stroke:none;fill-rule:nonzero;fill:rgb(29.411766%,25.882354%,78.823531%);fill-opacity:1;" d="M 36.347656 34.308594 C 36.40625 34.308594 36.464844 34.308594 36.527344 34.308594 C 36.792969 35.4375 36.792969 35.4375 36.390625 36.097656 C 35.984375 36.484375 35.984375 36.484375 35.441406 36.667969 C 35.699219 35.855469 36.003906 35.085938 36.347656 34.308594 Z M 36.347656 34.308594 "/>
<path style=" stroke:none;fill-rule:nonzero;fill:rgb(28.627452%,26.274511%,75.686276%);fill-opacity:1;" d="M 32.1875 40.296875 C 32.246094 40.476562 32.304688 40.65625 32.367188 40.839844 C 31.046875 41.746094 31.046875 41.746094 30.558594 41.929688 C 30.378906 41.871094 30.203125 41.8125 30.015625 41.75 C 30.734375 41.269531 31.449219 40.789062 32.1875 40.296875 Z M 32.1875 40.296875 "/>
<path style=" stroke:none;fill-rule:nonzero;fill:rgb(29.019609%,26.666668%,78.039217%);fill-opacity:1;" d="M 42.492188 16.335938 C 42.992188 16.953125 43.578125 17.695312 43.578125 18.515625 C 43.460938 18.515625 43.339844 18.515625 43.21875 18.515625 C 42.921875 18.0625 42.921875 18.0625 42.675781 17.605469 C 42.496094 17.695312 42.496094 17.695312 42.3125 17.789062 C 42.195312 17.550781 42.074219 17.308594 41.953125 17.0625 C 42.070312 17.0625 42.191406 17.0625 42.3125 17.0625 C 42.371094 16.824219 42.433594 16.582031 42.492188 16.335938 Z M 42.492188 16.335938 "/>
<path style=" stroke:none;fill-rule:nonzero;fill:rgb(30.19608%,27.450982%,77.254903%);fill-opacity:1;" d="M 12.476562 7.625 C 12.597656 7.683594 12.714844 7.742188 12.839844 7.804688 C 12.058594 8.625 11.417969 8.980469 10.308594 9.257812 C 10.96875 8.53125 11.59375 8.058594 12.476562 7.625 Z M 12.476562 7.625 "/>
<path style=" stroke:none;fill-rule:nonzero;fill:rgb(29.019609%,26.666668%,74.117649%);fill-opacity:1;" d="M 42.492188 30.675781 C 42.613281 30.675781 42.734375 30.675781 42.855469 30.675781 C 42.921875 32.59375 42.921875 32.59375 42.492188 33.398438 C 42.433594 33.398438 42.375 33.398438 42.3125 33.398438 C 42.371094 32.5 42.433594 31.601562 42.492188 30.675781 Z M 42.492188 30.675781 "/>
<path style=" stroke:none;fill-rule:nonzero;fill:rgb(28.627452%,25.882354%,81.568629%);fill-opacity:1;" d="M 15.914062 47.738281 C 16.175781 47.820312 16.441406 47.90625 16.703125 47.988281 C 16.851562 48.035156 16.996094 48.082031 17.148438 48.128906 C 17.539062 48.285156 17.539062 48.285156 17.902344 48.648438 C 17.359375 48.648438 16.816406 48.648438 16.273438 48.648438 C 16.15625 48.347656 16.035156 48.046875 15.914062 47.738281 Z M 15.914062 47.738281 "/>
<path style=" stroke:none;fill-rule:nonzero;fill:rgb(27.450982%,24.313726%,77.64706%);fill-opacity:1;" d="M 10.847656 44.652344 C 11.109375 44.824219 11.371094 44.992188 11.628906 45.164062 C 11.773438 45.257812 11.917969 45.355469 12.066406 45.449219 C 12.425781 45.707031 12.722656 45.964844 13.019531 46.289062 C 12.199219 46.289062 12.105469 46.203125 11.527344 45.675781 C 11.398438 45.5625 11.273438 45.445312 11.140625 45.328125 C 10.847656 45.015625 10.847656 45.015625 10.847656 44.652344 Z M 10.847656 44.652344 "/>
<path style=" stroke:none;fill-rule:nonzero;fill:rgb(29.019609%,25.490198%,78.431374%);fill-opacity:1;" d="M 35.261719 36.667969 C 35.378906 36.90625 35.5 37.144531 35.621094 37.394531 C 35.390625 37.640625 35.148438 37.882812 34.898438 38.117188 C 34.78125 38.117188 34.660156 38.117188 34.539062 38.117188 C 34.539062 38.238281 34.539062 38.359375 34.539062 38.480469 C 34.417969 38.480469 34.300781 38.480469 34.175781 38.480469 C 34.476562 37.832031 34.859375 37.257812 35.261719 36.667969 Z M 35.261719 36.667969 "/>
<path style=" stroke:none;fill-rule:nonzero;fill:rgb(29.803923%,26.666668%,77.254903%);fill-opacity:1;" d="M 9.945312 9.257812 C 10.125 9.800781 10.125 9.800781 10.011719 10.1875 C 9.765625 10.527344 9.765625 10.527344 9.324219 10.664062 C 8.859375 10.710938 8.859375 10.710938 8.316406 10.710938 C 8.855469 10.230469 9.390625 9.75 9.945312 9.257812 Z M 9.945312 9.257812 "/>
<path style=" stroke:none;fill-rule:nonzero;fill:rgb(27.058825%,24.313726%,75.686276%);fill-opacity:1;" d="M 6.328125 39.390625 C 6.910156 40.078125 7.34375 40.78125 7.777344 41.566406 C 7.597656 41.65625 7.597656 41.65625 7.414062 41.75 C 7.367188 41.578125 7.324219 41.40625 7.277344 41.226562 C 7.109375 40.644531 7.109375 40.644531 6.667969 40.410156 C 6.554688 40.371094 6.445312 40.335938 6.328125 40.296875 C 6.328125 39.996094 6.328125 39.699219 6.328125 39.390625 Z M 6.328125 39.390625 "/>
<path style=" stroke:none;fill-rule:nonzero;fill:rgb(28.627452%,25.098041%,74.117649%);fill-opacity:1;" d="M 9.222656 46.46875 C 10.121094 46.742188 10.710938 47.296875 11.390625 47.921875 C 10.707031 47.921875 10.527344 47.71875 10 47.296875 C 9.855469 47.179688 9.710938 47.066406 9.558594 46.945312 C 9.449219 46.847656 9.335938 46.75 9.222656 46.648438 C 9.222656 46.589844 9.222656 46.53125 9.222656 46.46875 Z M 9.222656 46.46875 "/>
<path style=" stroke:none;fill-rule:nonzero;fill:rgb(26.274511%,23.921569%,77.254903%);fill-opacity:1;" d="M 7.777344 41.566406 C 8.363281 42.144531 8.902344 42.730469 9.402344 43.382812 C 8.695312 43.144531 8.242188 42.882812 7.777344 42.292969 C 7.777344 42.054688 7.777344 41.816406 7.777344 41.566406 Z M 7.777344 41.566406 "/>
<path style=" stroke:none;fill-rule:nonzero;fill:rgb(27.843139%,25.490198%,79.215688%);fill-opacity:1;" d="M 33.453125 42.65625 C 33.160156 42.96875 32.855469 43.269531 32.546875 43.5625 C 32.429688 43.5625 32.308594 43.5625 32.1875 43.5625 C 32.128906 43.265625 32.066406 42.964844 32.007812 42.65625 C 32.601562 42.457031 32.859375 42.511719 33.453125 42.65625 Z M 33.453125 42.65625 "/>
<path style=" stroke:none;fill-rule:nonzero;fill:rgb(29.411766%,26.274511%,75.686276%);fill-opacity:1;" d="M 2.710938 37.574219 C 2.832031 37.574219 2.949219 37.574219 3.074219 37.574219 C 3.90625 39.074219 3.90625 39.074219 3.796875 39.933594 C 3.175781 39.253906 2.972656 38.4375 2.710938 37.574219 Z M 2.710938 37.574219 "/>
<path style=" stroke:none;fill-rule:nonzero;fill:rgb(30.588236%,27.843139%,76.47059%);fill-opacity:1;" d="M 26.402344 5.265625 C 26.6875 5.285156 26.972656 5.308594 27.257812 5.332031 C 27.5 5.351562 27.5 5.351562 27.742188 5.371094 C 28.207031 5.445312 28.527344 5.574219 28.933594 5.808594 C 28.003906 6.140625 27.273438 5.78125 26.402344 5.445312 C 26.402344 5.386719 26.402344 5.324219 26.402344 5.265625 Z M 26.402344 5.265625 "/>
<path style=" stroke:none;fill-rule:nonzero;fill:rgb(27.450982%,25.882354%,74.509805%);fill-opacity:1;" d="M 32.367188 46.648438 C 32.488281 46.710938 32.605469 46.769531 32.730469 46.832031 C 31.441406 47.839844 31.441406 47.839844 30.558594 47.921875 C 30.558594 47.800781 30.558594 47.679688 30.558594 47.558594 C 30.851562 47.402344 31.144531 47.246094 31.441406 47.09375 C 31.605469 47.007812 31.769531 46.921875 31.9375 46.832031 C 32.148438 46.742188 32.148438 46.742188 32.367188 46.648438 Z M 32.367188 46.648438 "/>
<path style=" stroke:none;fill-rule:nonzero;fill:rgb(27.058825%,25.098041%,74.901962%);fill-opacity:1;" d="M 41.226562 41.75 C 41.226562 42.402344 41.082031 42.550781 40.6875 43.054688 C 40.585938 43.183594 40.484375 43.3125 40.378906 43.449219 C 40.300781 43.546875 40.222656 43.644531 40.144531 43.746094 C 40.082031 43.566406 40.023438 43.386719 39.960938 43.203125 C 40.082031 43.023438 40.199219 42.84375 40.324219 42.65625 C 40.445312 42.65625 40.5625 42.65625 40.6875 42.65625 C 40.6875 42.417969 40.6875 42.175781 40.6875 41.929688 C 40.863281 41.871094 41.042969 41.8125 41.226562 41.75 Z M 41.226562 41.75 "/>
<path style=" stroke:none;fill-rule:nonzero;fill:rgb(29.803923%,27.058825%,78.431374%);fill-opacity:1;" d="M 1.988281 35.394531 C 2.554688 35.851562 2.703125 36.074219 2.847656 36.804688 C 2.863281 36.996094 2.878906 37.191406 2.894531 37.394531 C 2.773438 37.394531 2.65625 37.394531 2.53125 37.394531 C 2.441406 37.164062 2.351562 36.933594 2.261719 36.699219 C 2.210938 36.570312 2.160156 36.445312 2.109375 36.3125 C 1.988281 35.941406 1.988281 35.941406 1.988281 35.394531 Z M 1.988281 35.394531 "/>
<path style=" stroke:none;fill-rule:nonzero;fill:rgb(29.411766%,25.882354%,80.000001%);fill-opacity:1;" d="M 38.695312 11.4375 C 38.90625 11.609375 39.113281 11.78125 39.316406 11.957031 C 39.433594 12.054688 39.550781 12.152344 39.667969 12.25 C 39.960938 12.523438 39.960938 12.523438 40.144531 12.886719 C 39.664062 12.828125 39.1875 12.769531 38.695312 12.707031 C 38.757812 12.527344 38.816406 12.347656 38.878906 12.160156 C 38.808594 11.773438 38.808594 11.773438 38.695312 11.4375 Z M 38.695312 11.4375 "/>
<path style=" stroke:none;fill-rule:nonzero;fill:rgb(28.627452%,25.490198%,75.294119%);fill-opacity:1;" d="M 11.03125 40.296875 C 11.558594 40.808594 12.023438 41.347656 12.476562 41.929688 C 11.933594 41.929688 11.933594 41.929688 11.644531 41.652344 C 11.550781 41.535156 11.457031 41.417969 11.359375 41.296875 C 11.261719 41.175781 11.167969 41.058594 11.066406 40.9375 C 10.996094 40.847656 10.921875 40.753906 10.847656 40.660156 C 10.910156 40.539062 10.96875 40.421875 11.03125 40.296875 Z M 11.03125 40.296875 "/>
<path style=" stroke:none;fill-rule:nonzero;fill:rgb(29.803923%,27.058825%,76.47059%);fill-opacity:1;" d="M 43.578125 18.515625 C 44.023438 19.179688 44.300781 19.703125 44.300781 20.511719 C 44.183594 20.511719 44.0625 20.511719 43.941406 20.511719 C 43.613281 19.816406 43.542969 19.28125 43.578125 18.515625 Z M 43.578125 18.515625 "/>
<path style=" stroke:none;fill-rule:nonzero;fill:rgb(27.058825%,25.098041%,85.490197%);fill-opacity:1;" d="M 4.339844 36.304688 C 4.789062 36.484375 4.789062 36.484375 5.242188 36.667969 C 5.066406 36.9375 5.066406 36.9375 4.882812 37.210938 C 4.644531 37.210938 4.40625 37.210938 4.160156 37.210938 C 4.21875 36.910156 4.277344 36.613281 4.339844 36.304688 Z M 4.339844 36.304688 "/>
<path style=" stroke:none;fill-rule:nonzero;fill:rgb(30.980393%,27.450982%,76.862746%);fill-opacity:1;" d="M 4.160156 15.792969 C 4.320312 16.242188 4.359375 16.457031 4.203125 16.914062 C 3.976562 17.246094 3.976562 17.246094 3.4375 17.425781 C 3.628906 16.808594 3.800781 16.335938 4.160156 15.792969 Z M 4.160156 15.792969 "/>
<path style=" stroke:none;fill-rule:nonzero;fill:rgb(29.411766%,26.274511%,80.784315%);fill-opacity:1;" d="M 8.316406 45.742188 C 9.140625 45.675781 9.140625 45.675781 9.550781 46.015625 C 9.621094 46.105469 9.691406 46.195312 9.765625 46.289062 C 9.703125 46.40625 9.644531 46.527344 9.582031 46.648438 C 8.921875 46.421875 8.71875 46.347656 8.316406 45.742188 Z M 8.316406 45.742188 "/>
<path style=" stroke:none;fill-rule:nonzero;fill:rgb(30.980393%,27.450982%,72.549021%);fill-opacity:1;" d="M 18.988281 45.199219 C 18.988281 45.316406 18.988281 45.4375 18.988281 45.5625 C 19.191406 45.582031 19.398438 45.605469 19.609375 45.628906 C 19.820312 45.667969 20.035156 45.703125 20.253906 45.742188 C 20.3125 45.863281 20.371094 45.980469 20.433594 46.105469 C 19.65625 45.925781 18.882812 45.746094 18.082031 45.5625 C 18.625 45.199219 18.625 45.199219 18.988281 45.199219 Z M 18.988281 45.199219 "/>
<path style=" stroke:none;fill-rule:nonzero;fill:rgb(28.235295%,25.490198%,75.294119%);fill-opacity:1;" d="M 34.175781 41.386719 C 34.414062 41.445312 34.652344 41.507812 34.898438 41.566406 C 34.273438 42.105469 34.273438 42.105469 33.632812 42.65625 C 33.574219 42.535156 33.515625 42.417969 33.453125 42.292969 C 33.570312 42.292969 33.691406 42.292969 33.8125 42.292969 C 33.933594 41.996094 34.054688 41.695312 34.175781 41.386719 Z M 34.175781 41.386719 "/>
<path style=" stroke:none;fill-rule:nonzero;fill:rgb(28.627452%,25.882354%,75.294119%);fill-opacity:1;" d="M 15.550781 41.203125 C 16.148438 41.503906 16.746094 41.804688 17.359375 42.113281 C 16.816406 42.292969 16.816406 42.292969 16.25 42.066406 C 15.730469 41.75 15.730469 41.75 15.550781 41.203125 Z M 15.550781 41.203125 "/>
<path style=" stroke:none;fill-rule:nonzero;fill:rgb(28.235295%,25.882354%,69.803923%);fill-opacity:1;" d="M 13.742188 39.753906 C 14.011719 39.925781 14.277344 40.097656 14.546875 40.273438 C 14.769531 40.417969 14.769531 40.417969 14.996094 40.566406 C 15.371094 40.839844 15.371094 40.839844 15.550781 41.203125 C 14.757812 40.988281 14.265625 40.765625 13.742188 40.117188 C 13.742188 39.996094 13.742188 39.875 13.742188 39.753906 Z M 13.742188 39.753906 "/>
<path style=" stroke:none;fill-rule:nonzero;fill:rgb(26.274511%,24.313726%,87.058824%);fill-opacity:1;" d="M 44.484375 30.3125 C 44.660156 30.3125 44.839844 30.3125 45.027344 30.3125 C 45.085938 30.734375 45.144531 31.152344 45.207031 31.585938 C 45.027344 31.703125 44.847656 31.824219 44.664062 31.945312 C 44.605469 31.40625 44.542969 30.867188 44.484375 30.3125 Z M 44.484375 30.3125 "/>
<path style=" stroke:none;fill-rule:nonzero;fill:rgb(28.627452%,24.705882%,81.176472%);fill-opacity:1;" d="M 4.882812 14.519531 C 5 14.640625 5.121094 14.761719 5.242188 14.882812 C 5.183594 15.003906 5.125 15.125 5.0625 15.246094 C 5.242188 15.308594 5.421875 15.367188 5.605469 15.429688 C 5.1875 15.550781 4.769531 15.667969 4.339844 15.792969 C 4.679688 14.929688 4.679688 14.929688 4.882812 14.519531 Z M 4.882812 14.519531 "/>
<path style=" stroke:none;fill-rule:nonzero;fill:rgb(28.627452%,26.666668%,78.039217%);fill-opacity:1;" d="M 12.476562 48.464844 C 12.835938 48.585938 13.191406 48.703125 13.5625 48.828125 C 13.5625 49.007812 13.5625 49.1875 13.5625 49.371094 C 13.203125 49.253906 12.847656 49.132812 12.476562 49.011719 C 12.476562 48.832031 12.476562 48.652344 12.476562 48.464844 Z M 12.476562 48.464844 "/>
<path style=" stroke:none;fill-rule:nonzero;fill:rgb(29.411766%,25.882354%,84.705883%);fill-opacity:1;" d="M 26.21875 50.460938 C 26.28125 50.640625 26.339844 50.820312 26.402344 51.007812 C 26.757812 51.007812 27.117188 51.007812 27.484375 51.007812 C 27.484375 51.066406 27.484375 51.125 27.484375 51.1875 C 26.890625 51.246094 26.292969 51.308594 25.675781 51.371094 C 25.855469 51.070312 26.035156 50.769531 26.21875 50.460938 Z M 26.21875 50.460938 "/>
<path style=" stroke:none;fill-rule:nonzero;fill:rgb(27.450982%,24.313726%,74.117649%);fill-opacity:1;" d="M 39.417969 43.746094 C 39.597656 43.804688 39.777344 43.867188 39.960938 43.925781 C 39.542969 44.347656 39.128906 44.765625 38.695312 45.199219 C 38.695312 44.488281 38.96875 44.269531 39.417969 43.746094 Z M 39.417969 43.746094 "/>
<path style=" stroke:none;fill-rule:nonzero;fill:rgb(29.803923%,27.058825%,79.607844%);fill-opacity:1;" d="M 35.082031 8.710938 C 36.121094 9.03125 36.121094 9.03125 36.527344 9.4375 C 36.050781 9.4375 35.570312 9.4375 35.082031 9.4375 C 35.082031 9.199219 35.082031 8.960938 35.082031 8.710938 Z M 35.082031 8.710938 "/>
</g>
</svg>
