<?xml version="1.0" encoding="UTF-8"?>
<svg xmlns="http://www.w3.org/2000/svg" xmlns:xlink="http://www.w3.org/1999/xlink" width="150px" height="150px" viewBox="0 0 150 150" version="1.1">
<g id="surface1">
<path style=" stroke:none;fill-rule:nonzero;fill:rgb(0%,0%,0%);fill-opacity:1;" d="M 50.203125 2.050781 C 31.453125 8.09375 16.289062 19.160156 5.019531 35.246094 L 0 42.316406 L 0 120.59375 L 5.019531 127.664062 C 7.785156 131.558594 13.523438 138.113281 17.929688 142.214844 L 25.820312 149.589844 L 149.589844 149.589844 L 149.589844 0 L 102.765625 0.101562 C 60.65625 0.203125 55.226562 0.410156 50.203125 2.050781 Z M 78.789062 23.15625 C 78.996094 23.359375 76.023438 23.566406 72.132812 23.464844 C 67.214844 23.464844 65.675781 23.15625 67.109375 22.539062 C 68.953125 21.722656 77.765625 22.234375 78.789062 23.15625 Z M 97.644531 25.308594 C 96.925781 25.511719 95.695312 25.511719 95.082031 25.308594 C 94.363281 25 94.878906 24.796875 96.3125 24.796875 C 97.746094 24.796875 98.257812 25 97.644531 25.308594 Z M 51.640625 27.765625 C 51.332031 28.277344 50.613281 28.484375 50.101562 28.175781 C 49.589844 27.867188 49.488281 28.277344 49.796875 29.097656 C 50.101562 30.019531 49.898438 30.738281 49.28125 30.738281 C 48.667969 30.738281 47.4375 32.582031 46.515625 34.835938 C 45.59375 37.089844 44.570312 38.933594 44.160156 38.933594 C 43.851562 38.933594 43.441406 42.519531 43.238281 46.824219 C 43.03125 53.382812 42.519531 55.121094 40.472656 57.582031 C 39.035156 59.222656 37.910156 61.886719 37.910156 63.421875 C 37.910156 67.316406 41.597656 71.925781 44.46875 71.515625 C 46.515625 71.210938 46.617188 70.695312 46.617188 56.863281 C 46.617188 42.929688 47.746094 36.886719 50.410156 36.886719 C 50.921875 36.886719 51.128906 36.476562 50.820312 35.964844 C 50.410156 35.449219 52.460938 33.300781 55.328125 31.25 C 61.066406 27.050781 66.394531 25.921875 78.6875 26.433594 C 86.78125 26.84375 82.992188 28.277344 74.078125 28.175781 C 63.832031 28.175781 59.324219 29.609375 55.019531 34.324219 C 49.179688 40.574219 48.871094 42.109375 49.078125 66.289062 C 49.179688 76.640625 49.796875 77.5625 54.40625 73.871094 C 56.863281 71.925781 56.96875 71.925781 59.324219 73.871094 C 62.089844 76.128906 67.316406 76.332031 70.082031 74.28125 C 71.722656 73.054688 72.335938 73.054688 74.898438 74.28125 C 78.894531 76.433594 83.300781 76.230469 86.371094 73.769531 L 89.035156 71.617188 L 91.1875 73.769531 C 94.160156 76.742188 96.3125 76.433594 96.414062 72.949219 C 97.132812 56.96875 96.925781 46.3125 95.800781 42.828125 C 94.46875 38.21875 88.832031 30.738281 86.679688 30.738281 C 85.859375 30.738281 84.9375 30.019531 84.632812 29.097656 C 83.402344 25.921875 92.519531 32.273438 95.800781 36.886719 L 98.871094 41.1875 L 98.566406 56.453125 C 98.257812 71.3125 98.359375 71.722656 100.410156 71.722656 C 103.585938 71.722656 107.582031 67.214844 107.582031 63.628906 C 107.582031 61.886719 106.453125 59.324219 105.019531 57.582031 C 102.972656 55.121094 102.460938 53.382812 102.460938 49.179688 C 102.460938 41.496094 100.613281 36.371094 95.902344 31.046875 C 92.621094 27.253906 92.214844 26.535156 94.058594 27.050781 C 95.285156 27.460938 98.15625 27.972656 100.410156 28.175781 C 104.304688 28.585938 111.679688 33.195312 111.679688 35.144531 C 111.679688 35.65625 112.089844 35.757812 112.601562 35.347656 C 113.21875 35.039062 114.140625 35.757812 114.753906 36.886719 C 115.367188 38.011719 116.496094 38.933594 117.316406 38.933594 C 118.03125 38.933594 118.953125 39.855469 119.363281 40.882812 C 119.671875 42.007812 121.105469 43.546875 122.4375 44.46875 C 123.871094 45.390625 125 46.824219 125 47.644531 C 125 48.464844 125.410156 49.179688 125.820312 49.179688 C 126.332031 49.179688 127.355469 51.128906 128.074219 53.484375 C 128.789062 55.941406 130.328125 60.859375 131.453125 64.550781 C 134.527344 74.386719 134.015625 96.824219 130.53125 101.945312 C 129.714844 103.074219 129.097656 104.917969 129.097656 106.046875 C 129.097656 107.171875 127.972656 109.835938 126.535156 111.886719 C 125.101562 113.933594 123.976562 115.882812 123.976562 116.085938 C 123.976562 116.289062 121.210938 119.363281 117.828125 123.054688 C 114.445312 126.640625 111.679688 129.917969 111.679688 130.328125 C 111.679688 130.839844 111.066406 131.148438 110.246094 131.148438 C 109.425781 131.148438 108.503906 131.863281 108.195312 132.785156 C 107.890625 133.605469 107.171875 134.015625 106.558594 133.710938 C 105.941406 133.402344 105.226562 133.8125 104.917969 134.632812 C 104.609375 135.554688 103.382812 136.269531 102.355469 136.269531 C 101.332031 136.269531 99.488281 137.191406 98.359375 138.320312 C 96.3125 140.367188 96.3125 140.367188 96.210938 138.011719 C 96.210938 135.859375 96.105469 135.859375 95.285156 137.808594 C 94.570312 139.445312 94.363281 139.550781 94.363281 138.113281 C 94.261719 137.191406 93.75 136.066406 93.238281 135.757812 C 92.519531 135.347656 92.316406 136.066406 92.726562 138.011719 L 93.238281 140.882812 L 92.109375 138.011719 C 90.984375 135.246094 90.675781 135.039062 85.449219 135.449219 L 79.917969 135.757812 L 79.917969 130.839844 C 79.917969 128.175781 80.019531 125.71875 80.121094 125.203125 C 80.328125 124.796875 82.890625 123.464844 85.964844 122.234375 C 92.621094 119.570312 98.257812 114.34375 101.433594 107.890625 C 104.40625 101.84375 105.53125 87.601562 103.175781 84.527344 C 101.84375 82.890625 101.230469 82.683594 99.691406 83.605469 C 98.257812 84.527344 97.746094 86.476562 97.335938 93.851562 C 97.027344 99.488281 96.210938 104.097656 95.082031 106.046875 C 88.011719 118.953125 68.546875 122.335938 56.351562 112.703125 C 50.511719 108.09375 48.15625 102.765625 48.15625 93.953125 C 48.15625 86.578125 47.027344 82.992188 44.570312 82.992188 C 40.164062 82.992188 39.855469 98.871094 44.058594 107.890625 C 46.925781 114.035156 53.996094 120.285156 60.859375 122.847656 L 66.085938 124.796875 L 66.394531 130.019531 L 66.699219 135.246094 L 60.964844 135.246094 C 56.660156 135.246094 55.429688 134.9375 55.941406 134.015625 C 56.351562 133.195312 56.25 132.992188 55.738281 133.503906 C 55.226562 134.015625 54.816406 134.734375 54.714844 135.039062 C 54.714844 135.449219 54.304688 136.578125 53.894531 137.5 C 53.484375 138.421875 53.6875 140.265625 54.304688 141.597656 C 55.328125 143.75 55.328125 143.75 53.996094 142.109375 C 52.253906 140.0625 50.820312 139.753906 51.535156 141.699219 C 51.84375 142.519531 51.433594 143.136719 50.71875 143.136719 C 49.691406 143.136719 49.589844 142.519531 50.511719 140.675781 C 51.332031 138.933594 51.230469 137.910156 50.308594 136.988281 C 49.28125 136.066406 49.179688 136.167969 49.796875 137.601562 C 51.332031 141.597656 35.65625 131.558594 29.714844 124.589844 C 28.277344 122.949219 25.71875 120.183594 23.976562 118.339844 C 22.234375 116.597656 20.492188 114.242188 20.082031 113.113281 C 19.773438 112.089844 18.441406 110.039062 17.109375 108.605469 C 13.628906 104.816406 11.78125 95.492188 11.78125 81.96875 C 11.78125 68.546875 14.035156 56.660156 17.316406 53.074219 C 18.546875 51.84375 19.46875 50.511719 19.46875 50 C 19.46875 49.488281 22.234375 46.3125 25.613281 42.929688 C 29.609375 38.933594 32.378906 36.886719 33.402344 37.296875 C 34.425781 37.703125 35.246094 36.988281 35.964844 35.246094 C 36.679688 33.09375 37.398438 32.683594 39.550781 33.09375 C 40.882812 33.300781 41.804688 33.300781 41.496094 32.992188 C 41.1875 32.683594 42.621094 31.351562 44.773438 30.019531 C 46.925781 28.6875 48.257812 27.664062 47.644531 27.5625 C 47.132812 27.5625 47.539062 27.152344 48.667969 26.742188 C 51.023438 25.71875 52.5625 26.332031 51.640625 27.765625 Z M 80.429688 34.835938 C 80.738281 35.347656 80.636719 36.476562 80.328125 37.398438 C 79.816406 38.730469 78.382812 38.933594 72.847656 38.730469 C 66.804688 38.421875 66.085938 38.21875 65.777344 36.167969 C 65.472656 34.324219 65.984375 33.914062 68.851562 33.605469 C 73.464844 33.195312 79.816406 33.8125 80.429688 34.835938 Z M 57.890625 49.488281 C 57.582031 66.289062 57.273438 69.363281 55.941406 69.363281 C 54.40625 69.363281 52.867188 53.585938 53.894531 48.15625 C 54.917969 43.441406 57.890625 44.46875 57.890625 49.488281 Z M 87.5 48.359375 C 88.523438 52.253906 88.21875 68.648438 87.089844 70.800781 C 86.476562 71.824219 85.347656 72.746094 84.527344 72.746094 C 83.300781 72.746094 82.992188 70.492188 82.992188 59.425781 C 82.992188 47.027344 83.09375 46.105469 84.9375 46.105469 C 86.066406 46.105469 87.089844 47.027344 87.5 48.359375 Z M 42.007812 62.398438 C 42.007812 63.011719 41.597656 63.730469 40.984375 64.035156 C 40.472656 64.34375 39.960938 63.933594 39.960938 63.113281 C 39.960938 62.191406 40.472656 61.476562 40.984375 61.476562 C 41.597656 61.476562 42.007812 61.886719 42.007812 62.398438 Z M 42.726562 89.34375 C 42.417969 90.0625 42.214844 89.550781 42.214844 88.113281 C 42.214844 86.679688 42.417969 86.167969 42.726562 86.78125 C 42.929688 87.5 42.929688 88.730469 42.726562 89.34375 Z M 42.726562 89.34375 "/>
<path style=" stroke:none;fill-rule:nonzero;fill:rgb(0%,0%,0%);fill-opacity:1;" d="M 65.675781 110.347656 C 64.34375 110.65625 62.5 111.476562 61.78125 112.296875 C 60.554688 113.523438 60.65625 113.832031 63.011719 114.753906 C 66.90625 116.289062 79.507812 115.984375 83.300781 114.34375 C 85.144531 113.523438 87.5 112.191406 88.628906 111.167969 L 90.675781 109.425781 L 88.628906 110.144531 C 86.167969 111.066406 83.402344 111.167969 74.796875 110.347656 C 71.105469 110.039062 67.007812 110.039062 65.675781 110.347656 Z M 65.675781 110.347656 "/>
</g>
</svg>
