<?xml version="1.0" encoding="UTF-8"?>
<svg xmlns="http://www.w3.org/2000/svg" xmlns:xlink="http://www.w3.org/1999/xlink" width="100px" height="px" viewBox="0 0 100 62" version="1.1">
<g id="surface1">
<path style=" stroke:none;fill-rule:nonzero;fill:rgb(0%,0%,0%);fill-opacity:1;" d="M 32.636719 24.652344 C 32.960938 24.925781 33.28125 25.203125 33.597656 25.480469 C 33.75 25.613281 33.898438 25.746094 34.054688 25.878906 C 36.019531 27.722656 37.570312 30.136719 38.402344 32.707031 C 38.402344 32.839844 38.402344 32.972656 38.402344 33.105469 C 38.203125 33.117188 38.007812 33.128906 37.804688 33.136719 C 37.0625 33.175781 36.316406 33.214844 35.574219 33.253906 C 35.253906 33.273438 34.933594 33.289062 34.617188 33.308594 C 32.527344 33.414062 30.472656 33.597656 28.402344 33.910156 C 28.582031 33.957031 28.761719 34.007812 28.949219 34.058594 C 30.429688 34.46875 31.582031 34.980469 32.800781 35.917969 C 32.972656 36.03125 33.144531 36.148438 33.324219 36.269531 C 35.566406 38.398438 36.75 41.523438 36.839844 44.582031 C 36.78125 47.917969 35.550781 50.769531 33.285156 53.183594 C 29.789062 56.5625 25.222656 57.691406 20.5 57.65625 C 15.863281 57.542969 11.453125 55.933594 8 52.769531 C 8 52.636719 8 52.503906 8 52.371094 C 7.867188 52.371094 7.738281 52.371094 7.597656 52.371094 C 4.203125 48.699219 2.25 43.753906 2.363281 38.734375 C 2.617188 34.496094 4.082031 29.738281 7.199219 26.683594 C 7.332031 26.683594 7.464844 26.683594 7.597656 26.683594 C 7.644531 26.574219 7.691406 26.460938 7.734375 26.34375 C 9.253906 23.699219 13.4375 22.019531 16.199219 21.269531 C 22.097656 19.964844 27.804688 20.902344 32.636719 24.652344 Z M 11.199219 25.28125 C 8.890625 28.246094 7.878906 31.703125 7.636719 35.425781 C 7.628906 35.582031 7.617188 35.730469 7.605469 35.890625 C 7.566406 36.722656 7.535156 37.410156 8 38.121094 C 10.726562 39.425781 14.089844 38.605469 16.800781 37.664062 C 18.175781 37.167969 19.507812 36.601562 20.78125 35.878906 C 24.367188 33.855469 28.160156 33.125 32.199219 32.503906 C 31.03125 28.527344 27.734375 25.113281 24.277344 23.035156 C 19.832031 20.667969 14.59375 21.464844 11.199219 25.28125 Z M 20.824219 36.492188 C 16.816406 38.574219 12.316406 40.066406 7.800781 38.722656 C 7.980469 43.582031 9.953125 48.34375 13.402344 51.769531 C 13.546875 51.921875 13.691406 52.074219 13.847656 52.234375 C 16.402344 54.753906 19.882812 55.933594 23.410156 56.03125 C 27.191406 55.980469 30.496094 54.582031 33.222656 51.964844 C 35.292969 49.792969 36.082031 47.269531 36.074219 44.332031 C 36.011719 41.671875 34.988281 39.140625 33.199219 37.167969 C 31.246094 35.324219 28.925781 34.636719 26.285156 34.671875 C 24.242188 34.792969 22.609375 35.566406 20.824219 36.492188 Z M 20.824219 36.492188 "/>
<path style=" stroke:none;fill-rule:nonzero;fill:rgb(0%,0%,0%);fill-opacity:1;" d="M 47.199219 2.808594 C 47.199219 3.058594 47.199219 3.308594 47.203125 3.566406 C 47.21875 9.53125 47.238281 15.492188 47.253906 21.453125 C 47.257812 22.1875 47.261719 22.921875 47.261719 23.660156 C 47.261719 23.804688 47.265625 23.949219 47.265625 24.101562 C 47.273438 26.464844 47.277344 28.828125 47.285156 31.191406 C 47.292969 33.621094 47.300781 36.050781 47.308594 38.480469 C 47.3125 39.839844 47.316406 41.203125 47.320312 42.566406 C 47.324219 43.851562 47.328125 45.136719 47.332031 46.417969 C 47.335938 46.886719 47.335938 47.359375 47.335938 47.828125 C 47.183594 52.140625 47.183594 52.140625 48.402344 56.183594 C 48.597656 56.3125 48.796875 56.445312 49 56.582031 C 49 56.847656 49 57.113281 49 57.386719 C 46.097656 57.386719 43.191406 57.386719 40.199219 57.386719 C 40.199219 56.382812 40.199219 56.382812 40.578125 55.972656 C 40.71875 55.84375 40.855469 55.714844 41 55.578125 C 41.976562 53.648438 41.683594 51.144531 41.679688 49.042969 C 41.683594 48.605469 41.683594 48.167969 41.683594 47.730469 C 41.6875 46.542969 41.6875 45.355469 41.6875 44.171875 C 41.6875 43.183594 41.6875 42.191406 41.691406 41.199219 C 41.691406 38.863281 41.691406 36.527344 41.691406 34.1875 C 41.6875 31.777344 41.691406 29.371094 41.695312 26.960938 C 41.699219 24.886719 41.699219 22.816406 41.699219 20.746094 C 41.699219 19.511719 41.699219 18.273438 41.703125 17.039062 C 41.707031 15.875 41.707031 14.714844 41.699219 13.550781 C 41.699219 13.128906 41.699219 12.699219 41.703125 12.277344 C 41.707031 11.691406 41.703125 11.113281 41.699219 10.527344 C 41.703125 10.363281 41.703125 10.195312 41.707031 10.019531 C 41.691406 8.941406 41.457031 8.152344 40.972656 7.191406 C 40.800781 6.824219 40.800781 6.824219 40.800781 6.421875 C 40.601562 6.421875 40.402344 6.421875 40.199219 6.421875 C 40.132812 6.089844 40.066406 5.757812 40 5.417969 C 40.992188 5.046875 41.988281 4.675781 42.980469 4.300781 C 43.316406 4.175781 43.65625 4.050781 43.996094 3.925781 C 44.480469 3.742188 44.964844 3.558594 45.449219 3.378906 C 45.601562 3.324219 45.753906 3.265625 45.910156 3.207031 C 46.976562 2.808594 46.976562 2.808594 47.199219 2.808594 Z M 47.199219 2.808594 "/>
<path style=" stroke:none;fill-rule:nonzero;fill:rgb(0%,0%,0%);fill-opacity:1;" d="M 68.597656 10.636719 C 70.382812 10.636719 72.164062 10.636719 74 10.636719 C 74 13.605469 73.535156 16.480469 71.464844 18.734375 C 70.597656 19.464844 70.597656 19.464844 68.402344 20.667969 C 71.566406 20.730469 74.738281 20.800781 78 20.867188 C 78 21.132812 78 21.394531 78 21.667969 C 75.886719 21.667969 73.777344 21.667969 71.597656 21.667969 C 71.605469 22.171875 71.613281 22.675781 71.617188 23.191406 C 71.636719 24.886719 71.660156 26.578125 71.675781 28.269531 C 71.691406 29.292969 71.703125 30.316406 71.714844 31.339844 C 71.726562 32.328125 71.738281 33.316406 71.75 34.304688 C 71.753906 34.699219 71.757812 35.09375 71.761719 35.488281 C 71.789062 37.542969 71.804688 39.597656 71.785156 41.652344 C 71.785156 41.988281 71.78125 42.324219 71.777344 42.660156 C 71.773438 43.269531 71.761719 43.878906 71.753906 44.488281 C 71.707031 47.902344 72.152344 51.722656 74.421875 54.414062 C 75.375 55.328125 76.488281 55.734375 77.800781 55.777344 C 80.136719 55.574219 81.8125 54.148438 83.28125 52.417969 C 85.203125 50.050781 86.503906 47.117188 87.199219 44.144531 C 87.53125 44.144531 87.859375 44.144531 88.199219 44.144531 C 87.164062 48.140625 85.566406 51.667969 82.800781 54.777344 C 82.667969 54.777344 82.535156 54.777344 82.402344 54.777344 C 82.402344 54.910156 82.402344 55.042969 82.402344 55.175781 C 81.976562 55.496094 81.558594 55.785156 81.113281 56.066406 C 80.996094 56.148438 80.875 56.226562 80.753906 56.308594 C 79.226562 57.292969 77.746094 57.699219 75.9375 57.675781 C 75.691406 57.671875 75.691406 57.671875 75.433594 57.667969 C 72.925781 57.601562 70.800781 56.683594 69.0625 54.851562 C 65.863281 50.929688 65.941406 45.519531 65.941406 40.722656 C 65.9375 40.082031 65.933594 39.441406 65.929688 38.804688 C 65.917969 36.992188 65.914062 35.179688 65.910156 33.367188 C 65.90625 32.25 65.898438 31.132812 65.890625 30.015625 C 65.890625 29.59375 65.886719 29.171875 65.886719 28.746094 C 65.886719 28.160156 65.886719 27.570312 65.878906 26.980469 C 65.878906 26.808594 65.882812 26.636719 65.882812 26.457031 C 65.863281 24.964844 65.480469 23.761719 64.402344 22.671875 C 63.4375 22.046875 62.539062 21.765625 61.402344 21.667969 C 61.402344 21.40625 61.402344 21.140625 61.402344 20.867188 C 61.519531 20.847656 61.644531 20.832031 61.769531 20.816406 C 63.671875 20.496094 65.261719 19.863281 66.496094 18.320312 C 67.726562 16.457031 68.195312 14.425781 68.425781 12.238281 C 68.480469 11.710938 68.542969 11.179688 68.597656 10.636719 Z M 68.597656 10.636719 "/>
<path style=" stroke:none;fill-rule:nonzero;fill:rgb(0%,0%,0%);fill-opacity:1;" d="M 58 20.867188 C 58 21.035156 58 21.199219 58.003906 21.371094 C 58.011719 25.433594 58.027344 29.496094 58.046875 33.558594 C 58.058594 35.519531 58.066406 37.484375 58.070312 39.449219 C 58.074219 41.160156 58.082031 42.871094 58.089844 44.585938 C 58.09375 45.492188 58.097656 46.398438 58.097656 47.304688 C 58.101562 48.160156 58.105469 49.011719 58.113281 49.867188 C 58.113281 50.175781 58.113281 50.488281 58.113281 50.800781 C 58.113281 52.976562 58.144531 54.867188 59.597656 56.582031 C 59.597656 56.847656 59.597656 57.113281 59.597656 57.386719 C 56.695312 57.386719 53.792969 57.386719 50.800781 57.386719 C 51.011719 56.324219 51.011719 56.324219 51.597656 55.777344 C 51.792969 55.425781 51.792969 55.425781 51.925781 55.039062 C 51.972656 54.914062 52.019531 54.789062 52.070312 54.660156 C 52.46875 53.167969 52.429688 51.632812 52.433594 50.097656 C 52.433594 49.855469 52.433594 49.613281 52.433594 49.359375 C 52.4375 48.695312 52.441406 48.03125 52.441406 47.367188 C 52.441406 46.953125 52.441406 46.535156 52.441406 46.121094 C 52.445312 44.816406 52.449219 43.511719 52.449219 42.207031 C 52.449219 40.707031 52.453125 39.207031 52.457031 37.707031 C 52.464844 36.542969 52.464844 35.378906 52.464844 34.214844 C 52.464844 33.519531 52.464844 32.824219 52.46875 32.132812 C 52.472656 31.359375 52.472656 30.585938 52.472656 29.808594 C 52.472656 29.472656 52.472656 29.472656 52.476562 29.125 C 52.46875 27.519531 52.394531 25.917969 51.261719 24.707031 C 51.109375 24.566406 50.957031 24.425781 50.800781 24.277344 C 50.800781 24.011719 50.800781 23.746094 50.800781 23.476562 C 51.761719 23.105469 52.722656 22.730469 53.683594 22.363281 C 54.011719 22.234375 54.339844 22.109375 54.664062 21.980469 C 55.132812 21.800781 55.605469 21.621094 56.074219 21.4375 C 56.222656 21.378906 56.367188 21.324219 56.519531 21.265625 C 57.554688 20.867188 57.554688 20.867188 58 20.867188 Z M 58 20.867188 "/>
<path style=" stroke:none;fill-rule:nonzero;fill:rgb(0%,0%,0%);fill-opacity:1;" d="M 56.472656 8.164062 C 57.46875 8.742188 57.972656 9.386719 58.277344 10.496094 C 58.480469 11.652344 58.359375 12.503906 57.703125 13.484375 C 57.03125 14.316406 56.484375 14.867188 55.402344 15.050781 C 54.054688 15.171875 53.117188 14.847656 52.050781 14.019531 C 51.355469 13.128906 50.980469 12.265625 51.019531 11.117188 C 51.203125 9.945312 51.535156 9.234375 52.402344 8.425781 C 53.632812 7.566406 55.125 7.542969 56.472656 8.164062 Z M 56.472656 8.164062 "/>
<path style=" stroke:none;fill-rule:nonzero;fill:rgb(0%,0%,0%);fill-opacity:1;" d="M 93.6875 50.726562 C 93.964844 50.722656 93.964844 50.722656 94.25 50.71875 C 95.128906 50.792969 95.664062 51.050781 96.339844 51.617188 C 96.996094 52.402344 97.164062 53.039062 97.277344 54.050781 C 97.179688 54.964844 96.929688 55.632812 96.402344 56.382812 C 95.386719 57.191406 94.554688 57.457031 93.285156 57.441406 C 92.191406 57.316406 91.441406 56.847656 90.714844 56.042969 C 90.1875 54.925781 90.035156 53.90625 90.425781 52.722656 C 90.746094 51.980469 91.167969 51.472656 91.800781 50.964844 C 92.429688 50.75 93.027344 50.730469 93.6875 50.726562 Z M 93.6875 50.726562 "/>
</g>
</svg>
