<svg width="48" height="48" viewBox="0 0 48 48" fill="none" xmlns="http://www.w3.org/2000/svg">
<rect width="48" height="48" fill="#279AFE"/>
<path d="M26.5677 25.0368L23.7033 22.1724C23.3129 21.782 23.1177 21.5868 22.9071 21.4824C22.5064 21.2839 22.036 21.2839 21.6352 21.4824C21.4247 21.5868 21.2294 21.782 20.839 22.1724C20.4485 22.563 20.2533 22.7582 20.1489 22.9687C19.9504 23.3695 19.9504 23.8399 20.1489 24.2406C20.2533 24.4512 20.4485 24.6464 20.839 25.0368L23.7033 27.9012M26.5677 25.0368L35.1611 33.6302C35.5515 34.0206 35.7467 34.2158 35.8511 34.4264C36.0496 34.8271 36.0496 35.2975 35.8511 35.6983C35.7467 35.9088 35.5515 36.104 35.1611 36.4946C34.7705 36.885 34.5753 37.0802 34.3648 37.1846C33.964 37.3831 33.4936 37.3831 33.0929 37.1846C32.8823 37.0802 32.6871 36.885 32.2967 36.4946L23.7033 27.9012M26.5677 25.0368L23.7033 27.9012" stroke="white" stroke-width="1.5" stroke-linecap="round" stroke-linejoin="round"/>
<path d="M30.6663 10.6665L31.0594 11.7286C31.5747 13.1214 31.8325 13.8178 32.3405 14.3258C32.8485 14.8338 33.5447 15.0915 34.9375 15.6068L35.9997 15.9998L34.9375 16.3929C33.5447 16.9082 32.8485 17.1659 32.3405 17.6739C31.8325 18.1819 31.5747 18.8783 31.0594 20.271L30.6663 21.3332L30.2733 20.271C29.7579 18.8783 29.5002 18.1819 28.9922 17.6739C28.4842 17.1659 27.7879 16.9082 26.3951 16.3929L25.333 15.9998L26.3951 15.6068C27.7879 15.0915 28.4842 14.8338 28.9922 14.3258C29.5002 13.8178 29.7579 13.1214 30.2733 11.7286L30.6663 10.6665Z" fill="white" stroke="white" stroke-width="1.5" stroke-linejoin="round"/>
<path d="M16 13.3335L16.2948 14.1301C16.6813 15.1747 16.8746 15.6969 17.2556 16.0779C17.6365 16.4589 18.1588 16.6522 19.2034 17.0387L20 17.3335L19.2034 17.6283C18.1588 18.0148 17.6365 18.2081 17.2555 18.5891C16.8746 18.97 16.6813 19.4923 16.2948 20.5369L16 21.3335L15.7052 20.5369C15.3187 19.4923 15.1254 18.97 14.7444 18.5891C14.3635 18.2081 13.8412 18.0148 12.7966 17.6283L12 17.3335L12.7966 17.0387C13.8412 16.6522 14.3635 16.4589 14.7444 16.0779C15.1254 15.6969 15.3187 15.1747 15.7052 14.1301L16 13.3335Z" fill="white" stroke="white" stroke-width="1.5" stroke-linejoin="round"/>
</svg>
