<svg width="18" height="18" viewBox="0 0 18 18" fill="none" xmlns="http://www.w3.org/2000/svg">
<path d="M7.85894 1.51186C8.21794 0.406855 9.78194 0.406855 10.1409 1.51186L11.4249 5.46286C11.5849 5.95686 12.0459 6.29186 12.5659 6.29186H16.7189C17.8819 6.29186 18.3649 7.77886 17.4249 8.46286L14.0649 10.9039C13.6439 11.2089 13.4679 11.7509 13.6289 12.2459L14.9119 16.1959C15.2709 17.3009 14.0059 18.2209 13.0659 17.5369L9.70494 15.0959C9.28494 14.7909 8.71494 14.7909 8.29494 15.0959L4.93394 17.5369C3.99394 18.2209 2.72894 17.3009 3.08794 16.1959L4.37094 12.2459C4.53194 11.7509 4.35594 11.2089 3.93494 10.9039L0.574939 8.46286C-0.365061 7.77886 0.11794 6.29186 1.28094 6.29186H5.43394C5.95394 6.29186 6.41494 5.95686 6.57494 5.46286L7.85894 1.51186Z" fill="#FF6500"/>
</svg>
