<svg width="84" height="22" viewBox="0 0 84 22" fill="none" xmlns="http://www.w3.org/2000/svg">
<path d="M0.339489 17V15.1133L8.91548 2.81286H0.290483V0.272727H12.6726V2.15945L4.10476 14.4599H12.7216V17H0.339489ZM21.0771 17.245C19.8192 17.245 18.733 16.9837 17.8182 16.4609C16.9089 15.9328 16.2092 15.1868 15.7191 14.223C15.229 13.2538 14.984 12.113 14.984 10.8008C14.984 9.5103 15.229 8.37772 15.7191 7.40305C16.2146 6.42294 16.9061 5.66063 17.7937 5.11612C18.6812 4.56617 19.724 4.29119 20.9219 4.29119C21.6951 4.29119 22.4247 4.41643 23.1108 4.6669C23.8023 4.91193 24.4122 5.29309 24.9403 5.81037C25.474 6.32765 25.8932 6.98651 26.1982 7.78693C26.5031 8.58191 26.6555 9.52936 26.6555 10.6293V11.5359H16.3725V9.54297H23.8214C23.8159 8.97668 23.6934 8.47301 23.4538 8.03196C23.2143 7.58546 22.8794 7.23426 22.4492 6.97834C22.0245 6.72242 21.529 6.59446 20.9627 6.59446C20.3583 6.59446 19.8274 6.74148 19.37 7.03551C18.9126 7.3241 18.556 7.70526 18.3001 8.17898C18.0496 8.64725 17.9216 9.16181 17.9162 9.72266V11.4624C17.9162 12.192 18.0496 12.8182 18.3164 13.3409C18.5832 13.8582 18.9562 14.2557 19.4354 14.5334C19.9145 14.8056 20.4754 14.9418 21.1179 14.9418C21.5481 14.9418 21.9374 14.8819 22.2859 14.7621C22.6344 14.6368 22.9366 14.4544 23.1925 14.2148C23.4484 13.9753 23.6417 13.6785 23.7724 13.3246L26.533 13.6349C26.3588 14.3646 26.0266 15.0017 25.5366 15.5462C25.052 16.0852 24.4312 16.5045 23.6744 16.804C22.9175 17.098 22.0517 17.245 21.0771 17.245ZM29.1569 21.7045V4.45455H32.0645V6.52912H32.2361C32.3885 6.22419 32.6036 5.90021 32.8813 5.55717C33.159 5.20869 33.5347 4.91193 34.0084 4.6669C34.4822 4.41643 35.0866 4.29119 35.8216 4.29119C36.7909 4.29119 37.6648 4.53894 38.4434 5.03445C39.2275 5.5245 39.8483 6.25142 40.3057 7.2152C40.7685 8.17353 40.9999 9.34967 40.9999 10.7436C40.9999 12.1212 40.7739 13.2919 40.322 14.2557C39.8701 15.2195 39.2548 15.9545 38.4761 16.4609C37.6975 16.9673 36.8154 17.2205 35.8298 17.2205C35.1111 17.2205 34.5148 17.1007 34.0411 16.8612C33.5674 16.6216 33.1862 16.333 32.8976 15.9954C32.6145 15.6523 32.394 15.3284 32.2361 15.0234H32.1135V21.7045H29.1569ZM32.0564 10.7273C32.0564 11.5386 32.1707 12.2492 32.3994 12.859C32.6336 13.4689 32.9684 13.9453 33.404 14.2884C33.8451 14.6259 34.3787 14.7947 35.0049 14.7947C35.6583 14.7947 36.2055 14.6205 36.6466 14.272C37.0876 13.9181 37.4198 13.4362 37.643 12.8263C37.8717 12.2111 37.9861 11.5114 37.9861 10.7273C37.9861 9.94863 37.8744 9.2571 37.6512 8.6527C37.4279 8.0483 37.0958 7.57457 36.6547 7.23153C36.2137 6.88849 35.6637 6.71697 35.0049 6.71697C34.3733 6.71697 33.8369 6.88305 33.3959 7.2152C32.9548 7.54735 32.6199 8.0129 32.3912 8.61186C32.168 9.21082 32.0564 9.91596 32.0564 10.7273ZM46.4885 9.64915V17H43.5319V0.272727H46.4232V6.58629H46.5702C46.8643 5.87843 47.3189 5.32031 47.9342 4.91193C48.555 4.49811 49.3445 4.29119 50.3028 4.29119C51.174 4.29119 51.9336 4.4736 52.5816 4.83842C53.2296 5.20324 53.7305 5.73686 54.0844 6.43928C54.4438 7.14169 54.6235 7.99929 54.6235 9.01207V17H51.6668V9.46946C51.6668 8.62547 51.449 7.96934 51.0134 7.50106C50.5832 7.02734 49.9788 6.79048 49.2002 6.79048C48.6775 6.79048 48.2092 6.90483 47.7954 7.13352C47.387 7.35677 47.0657 7.68075 46.8316 8.10547C46.6029 8.53018 46.4885 9.04474 46.4885 9.64915ZM59.0258 21.7045C58.6229 21.7045 58.2499 21.6719 57.9069 21.6065C57.5693 21.5466 57.2997 21.4759 57.0983 21.3942L57.7844 19.0909C58.2145 19.2161 58.5984 19.276 58.936 19.2706C59.2736 19.2652 59.5703 19.159 59.8263 18.9521C60.0876 18.7506 60.3081 18.413 60.4878 17.9393L60.741 17.2614L56.1917 4.45455H59.328L62.2194 13.929H62.3501L65.2496 4.45455H68.3941L63.371 18.5192C63.1369 19.1835 62.8265 19.7525 62.4399 20.2262C62.0533 20.7054 61.5796 21.0702 61.0187 21.3207C60.4633 21.5766 59.799 21.7045 59.0258 21.7045ZM74.238 9.51847V3.49077H77.2192C77.5568 3.49077 77.878 3.567 78.183 3.71946C78.4933 3.86648 78.7438 4.087 78.9344 4.38104C79.1304 4.67507 79.2284 5.03717 79.2284 5.46733C79.2284 5.89749 79.1277 6.26503 78.9262 6.56996C78.7248 6.86944 78.4634 7.09813 78.1421 7.25604C77.8263 7.41394 77.4942 7.4929 77.1457 7.4929H75.0629V6.4066H76.7863C76.9987 6.4066 77.1947 6.32765 77.3744 6.16974C77.5541 6.01184 77.6439 5.7777 77.6439 5.46733C77.6439 5.14062 77.5541 4.91193 77.3744 4.78125C77.1947 4.65057 77.0068 4.58523 76.8108 4.58523H75.7245V9.51847H74.238ZM78.0196 6.71697L79.4408 9.51847H77.8073L76.4596 6.71697H78.0196ZM76.5821 13.1122C75.6782 13.1122 74.8315 12.9434 74.042 12.6058C73.2525 12.2682 72.5582 11.8 71.9593 11.201C71.3603 10.602 70.892 9.90779 70.5544 9.11825C70.2168 8.32872 70.048 7.48201 70.048 6.57812C70.048 5.67424 70.2168 4.82753 70.5544 4.038C70.892 3.24846 71.3603 2.55421 71.9593 1.95526C72.5582 1.3563 73.2525 0.888021 74.042 0.550426C74.8315 0.212831 75.6782 0.0440335 76.5821 0.0440335C77.486 0.0440335 78.3327 0.212831 79.1222 0.550426C79.9118 0.888021 80.606 1.3563 81.205 1.95526C81.8039 2.55421 82.2722 3.24846 82.6098 4.038C82.9474 4.82753 83.1162 5.67424 83.1162 6.57812C83.1162 7.48201 82.9474 8.32872 82.6098 9.11825C82.2722 9.90779 81.8039 10.602 81.205 11.201C80.606 11.8 79.9118 12.2682 79.1222 12.6058C78.3327 12.9434 77.486 13.1122 76.5821 13.1122ZM76.5821 11.4379C77.4751 11.4379 78.2892 11.2201 79.0242 10.7844C79.7593 10.3488 80.3447 9.76349 80.7803 9.02841C81.2213 8.28788 81.4419 7.47112 81.4419 6.57812C81.4419 5.68513 81.2213 4.87109 80.7803 4.13601C80.3447 3.39548 79.7593 2.80741 79.0242 2.3718C78.2892 1.9362 77.4751 1.71839 76.5821 1.71839C75.6837 1.71839 74.8669 1.9362 74.1318 2.3718C73.3968 2.80741 72.8087 3.39548 72.3676 4.13601C71.932 4.87109 71.7142 5.68513 71.7142 6.57812C71.7142 7.47112 71.932 8.28516 72.3676 9.02024C72.8087 9.75533 73.3968 10.3434 74.1318 10.7844C74.8669 11.2201 75.6837 11.4379 76.5821 11.4379Z" fill="black"/>
</svg>
